<svg width="82" height="82" viewBox="0 0 82 82" fill="none" xmlns="http://www.w3.org/2000/svg">
<path d="M25.3806 10.1522H55.8372V71.0653H25.3806V10.1522Z" fill="#F9DF4B"/>
<path d="M12.6904 10.1522H27.9187V71.0653H12.6904C7.08639 71.0653 2.53821 66.5171 2.53821 60.9131V20.3044C2.53821 14.7004 7.08639 10.1522 12.6904 10.1522Z" fill="#06019A"/>
<path d="M68.5273 71.0653H53.299L53.299 10.1522H68.5273C74.1313 10.1522 78.6794 14.7004 78.6794 20.3044V60.9131C78.6794 66.5171 74.1313 71.0653 68.5273 71.0653Z" fill="#C42936"/>
<path opacity="0.15" d="M68.5274 10.1522H12.6904C7.08385 10.1522 2.53821 14.6978 2.53821 20.3044V60.9131C2.53821 66.5197 7.08385 71.0653 12.6904 71.0653H68.5274C74.134 71.0653 78.6796 66.5197 78.6796 60.9131V20.3044C78.6796 14.6978 74.134 10.1522 68.5274 10.1522ZM76.1416 60.9131C76.1416 65.1111 72.7254 68.5273 68.5274 68.5273H12.6904C8.49247 68.5273 5.07626 65.1111 5.07626 60.9131V20.3044C5.07626 16.1065 8.49247 12.6902 12.6904 12.6902H68.5274C72.7254 12.6902 76.1416 16.1065 76.1416 20.3044V60.9131Z" fill="black"/>
<path d="M50.0656 43.3093C50.0809 43.1494 50.0047 43.0072 49.888 42.9032C49.8524 42.4412 49.19 42.3854 49.0149 42.7839C48.3804 42.3169 48.3423 41.0834 48.8271 40.6012C49.4819 41.1468 50.0276 40.0986 49.355 39.7103C51.2103 39.5225 51.3981 35.5327 48.9032 35.4921C48.8601 35.4921 48.8144 35.4921 48.7738 35.4921V35.4971C48.6164 35.5124 48.4641 35.5581 48.3296 35.6367C48.5098 35.1291 47.7382 34.8068 47.6646 35.3677C47.388 34.7205 48.3271 34.1215 48.6976 33.652C49.2179 33.1444 49.4362 32.2358 48.6367 32.0251C48.525 31.7535 48.289 31.5505 48.0327 31.5505V31.5606C48.0327 31.5606 48.0149 31.5581 48.0073 31.5556C47.8271 31.1977 47.4058 31.0073 47.0301 31.2459C46.8601 31.0175 46.6291 30.9743 46.3322 31.1241C46.0733 30.8373 45.6241 30.9337 45.4439 31.2662C45.0505 31.2662 44.6596 31.6774 44.8956 32.0505C44.9692 32.1926 45.1038 32.2992 45.2611 32.3271C44.7789 32.6977 43.8373 32.883 43.2383 32.4312C42.8957 31.9667 43.6139 31.3576 43.5682 30.8373C43.5911 30.2764 43.388 29.8804 42.9946 29.7256C42.1089 29.3449 41.4211 30.4109 40.5683 30.3424C39.685 30.4134 38.9008 29.218 38.0048 29.8018C36.8754 30.7561 38.5987 32.0073 37.8424 32.4794C37.2155 32.8576 36.3653 32.6977 35.8805 32.3347C36.6876 32.2941 36.3475 31.2688 35.6876 31.2611C35.4922 30.9413 35.0582 30.8348 34.7967 31.1292C34.5074 31.0023 34.2739 31.0429 34.1013 31.2485C33.7714 31.0276 33.3247 31.1596 33.1496 31.5327C32.8957 31.6165 32.647 31.7484 32.5531 32.0149C31.9262 32.0733 31.8831 32.8626 32.2308 33.256C32.5937 33.8931 33.6749 34.454 33.51 35.2611C33.5023 35.2636 33.4947 35.2713 33.4922 35.2814C33.3221 34.9032 32.7917 35.1012 32.8145 35.4946C32.8221 35.5911 32.8907 35.7002 32.7511 35.6037C32.114 35.2966 31.3349 35.6545 30.9491 36.1926C30.0328 37.2763 30.4516 39.1849 31.8196 39.6773C31.0607 40.0047 31.8247 41.1621 32.4135 40.5986C32.8729 41.2509 32.7511 42.2839 32.1064 42.7712C31.9237 42.3829 31.3704 42.4615 31.2739 42.8676C31.1546 42.9717 31.1115 43.1037 31.1217 43.261C30.6623 43.6773 31.1369 44.393 31.7029 44.2966C30.2892 45.5478 31.2511 47.794 32.9465 48.3752C34.548 49.1163 36.9617 48.3143 38.2637 49.4945C37.4718 49.7559 37.8069 50.8853 38.5556 50.9158C38.8449 51.3295 39.4744 51.2635 39.8043 50.9361C40.0277 51.1848 40.2916 51.4615 40.6241 51.5655C40.9464 51.4488 41.2738 51.1594 41.4363 50.9285C41.7561 51.261 42.4058 51.3447 42.6748 50.9183C43.3627 50.9031 43.6469 49.997 43.0759 49.6036C43.0403 49.5782 43.0048 49.5554 42.9642 49.5351C44.1774 48.3346 46.8068 49.1138 48.3118 48.3879C50.2611 47.5808 50.7103 45.6392 49.5631 44.4032C49.5225 44.3651 49.4793 44.3245 49.4311 44.2864C50.0326 44.4869 50.558 43.7737 50.0733 43.3042L50.0656 43.3093ZM49.888 35.9362C49.921 35.9641 49.9565 35.9997 49.9946 36.0377C49.9514 35.9946 49.9057 35.9515 49.855 35.9134C49.8651 35.921 49.8778 35.9286 49.888 35.9362ZM49.0834 32.8525C49.0783 32.8779 49.0733 32.9058 49.0682 32.9286L49.0834 32.8525Z" fill="#C3AD7E"/>
<path opacity="0.2" d="M68.5274 12.6902H12.6903C8.48477 12.6902 5.07617 16.0988 5.07617 20.3044V22.8424C5.07617 18.6369 8.48477 15.2283 12.6903 15.2283H68.5274C72.7329 15.2283 76.1415 18.6369 76.1415 22.8424V20.3044C76.1415 16.0988 72.7329 12.6902 68.5274 12.6902Z" fill="white"/>
</svg>
