<svg width="82" height="82" viewBox="0 0 82 82" fill="none" xmlns="http://www.w3.org/2000/svg">
<path d="M25.3805 10.1522H55.8371V71.0653H25.3805V10.1522Z" fill="#C33220"/>
<path d="M12.6903 10.1522H27.9186V71.0653H12.6903C7.08627 71.0653 2.53809 66.5171 2.53809 60.9131V20.3044C2.53809 14.7004 7.08627 10.1522 12.6903 10.1522Z" fill="black"/>
<path d="M68.5273 71.0653H53.299L53.299 10.1522H68.5273C74.1313 10.1522 78.6795 14.7004 78.6795 20.3044V60.9131C78.6795 66.5171 74.1313 71.0653 68.5273 71.0653Z" fill="#35793C"/>
<path opacity="0.15" d="M68.5273 10.1522H12.6903C7.08373 10.1522 2.53809 14.6978 2.53809 20.3044V60.9131C2.53809 66.5197 7.08373 71.0653 12.6903 71.0653H68.5273C74.1339 71.0653 78.6795 66.5197 78.6795 60.9131V20.3044C78.6795 14.6978 74.1339 10.1522 68.5273 10.1522ZM76.1415 60.9131C76.1415 65.1111 72.7253 68.5273 68.5273 68.5273H12.6903C8.49234 68.5273 5.07613 65.1111 5.07613 60.9131V20.3044C5.07613 16.1065 8.49234 12.6902 12.6903 12.6902H68.5273C72.7253 12.6902 76.1415 16.1065 76.1415 20.3044V60.9131Z" fill="black"/>
<path opacity="0.2" d="M68.5273 12.6902H12.6903C8.48471 12.6902 5.07611 16.0988 5.07611 20.3044V22.8424C5.07611 18.6369 8.48471 15.2283 12.6903 15.2283H68.5273C72.7328 15.2283 76.1414 18.6369 76.1414 22.8424V20.3044C76.1414 16.0988 72.7328 12.6902 68.5273 12.6902Z" fill="white"/>
<path d="M51.0121 40.058C51.0121 39.6088 50.8142 39.1545 50.3472 38.6722C50.6238 37.8753 50.4741 37.2585 49.7736 36.5174C49.5122 36.2585 48.9741 35.7052 48.8421 35.388L49.0223 34.7611C49.5629 34.7103 49.4918 34.1266 48.9665 34.0276C48.4868 33.9058 48.1238 34.3525 48.5553 34.6443L46.667 41.2077V40.1265C46.903 39.9869 46.8574 39.6824 46.6975 39.5504L47.1898 38.8093H46.667V36.1545C46.799 36.0936 46.8371 35.9438 46.8244 35.8195C47.0452 35.7636 47.1137 35.5301 47.1239 35.3702C47.3421 35.3195 47.4233 35.1469 47.4386 35.0276C47.7711 34.9134 47.799 34.7154 47.8599 34.5987H46.2178V31.6139C46.4563 31.4794 46.3447 31.0505 46.0959 31.0302V31.0048C46.5858 30.6545 46.3523 30.0885 45.9767 29.9236C46.0198 29.8271 45.9208 29.7281 45.8472 29.7104C45.8396 29.6647 45.8066 29.6063 45.6721 29.5175C45.4944 29.4236 45.563 28.9667 45.4411 28.9287C45.3218 28.9718 45.3878 29.4236 45.2102 29.5175C45.0756 29.6089 45.0427 29.6647 45.0376 29.7104C44.9614 29.7307 44.8625 29.8271 44.9081 29.9236C44.5325 30.0885 44.299 30.6545 44.7888 31.0048C44.7888 31.0124 44.7889 31.0225 44.7914 31.0302C44.5122 31.053 44.4361 31.5352 44.7102 31.6368V34.5987H44.7026C44.6949 34.5403 42.9945 33.7966 42.964 33.7636V33.2586C44.299 32.1799 43.4411 30.5175 42.0528 30.1469C41.5858 29.9642 41.261 29.5886 41.1671 29.4693C41.3498 29.3525 41.3498 29.152 41.1975 29.0454C41.7737 28.5429 40.8777 28.0911 40.799 27.6926C40.8041 27.6495 40.7508 27.6165 40.7102 27.6317C40.6011 27.7282 40.6138 27.9617 40.3701 28.1393C40.1112 28.3145 39.9361 28.8119 40.2661 29.0429C40.1163 29.152 40.1163 29.35 40.299 29.4667C40.2051 29.586 39.8803 29.9591 39.4133 30.1444C38.025 30.5149 37.1671 32.1799 38.5021 33.256V33.7611C38.4717 33.7839 36.7915 34.5479 36.7712 34.5834V31.6291C37.0326 31.5149 36.9412 31.053 36.6747 31.0302C37.1341 30.6292 36.9793 30.1342 36.558 29.9236C36.6011 29.8271 36.5021 29.7281 36.4285 29.7104C36.4209 29.6647 36.3879 29.6063 36.2534 29.5175C36.1316 29.4363 36.0859 29.1012 36.0808 28.9794C36.0783 28.9515 36.0554 28.9312 36.0275 28.9287C35.9057 28.9566 35.9691 29.4261 35.7915 29.5175C35.657 29.6089 35.624 29.6647 35.6189 29.7104C35.5427 29.7307 35.4438 29.8271 35.4894 29.9236C35.1138 30.0885 34.8803 30.6545 35.3702 31.0048C35.3702 31.0124 35.3702 31.0175 35.3727 31.0302C35.1113 31.0505 35.0123 31.5022 35.2661 31.6241V34.5961C34.8143 34.5961 33.8575 34.5961 33.4133 34.5936C33.4133 34.5936 33.4159 34.8601 33.7433 34.9819C33.7433 34.9819 33.728 35.2535 34.0681 35.3423C34.0681 35.3423 34.1417 35.7433 34.4438 35.7738V38.723H34.0681L34.6443 39.4895C34.6443 39.4895 34.3499 39.6748 34.5935 40.0047V40.8473L32.7991 34.5961C33.2306 34.3042 32.8676 33.8575 32.388 33.9794C31.8651 34.0758 31.794 34.6621 32.3321 34.7129L32.5123 35.3398C31.8499 36.4743 30.4057 37.1012 30.9844 38.5961C28.8398 40.591 31.8397 41.6494 31.2585 43.6113C31.9793 43.1468 32.5656 42.558 32.4692 41.7636C32.3626 41.1417 32.4235 40.3753 32.9209 39.9362C33.1722 39.728 33.4514 39.4717 33.6062 39.1519L34.5935 42.591V42.8219C34.5935 42.8219 34.294 42.9818 34.5681 43.2306C34.5681 43.2306 34.3169 43.3955 34.5681 43.6392C34.5631 44.926 34.69 44.6265 34.0681 45.7737C34.0681 45.7737 33.6189 45.6772 33.6925 46.0859C33.6925 46.0859 33.2407 46.1087 33.4666 46.4945L34.0935 46.9767H48.3599C48.4411 46.7229 48.1645 46.5123 47.9639 46.5097C47.9639 46.2686 47.7355 46.1189 47.5096 46.1518L46.6619 45.0732V43.9869C46.898 43.8549 46.8878 43.6189 46.6898 43.5097C46.8751 43.3905 46.7964 43.1544 46.6619 43.0783V42.9209L47.7381 39.1951C48.1746 39.9616 48.936 40.1798 48.9208 41.2179C48.3903 42.1367 49.0705 43.0427 49.9563 43.5732C49.4563 42.3219 51.0172 41.2204 51.0096 40.058H51.0121ZM34.7153 46.1493L35.3676 45.1214H37.1113L37.827 46.1493H34.7128H34.7153ZM37.9818 46.1493L37.2331 45.0732L37.2585 40.1316C37.5097 39.9565 37.497 39.6519 37.2838 39.5174L37.8194 38.7991H37.2407V38.7788C37.5859 38.2611 38.7178 36.6824 40.6671 36.6392C42.8752 36.5022 44.0985 38.8067 44.0198 38.7991H43.4995L43.9005 39.4438C43.6721 39.5935 43.7686 39.9184 43.9259 39.9945L43.9513 44.5732L43.3016 45.3397L44.0757 46.1493H37.9818ZM47.3447 46.1493H44.1188L44.7762 45.1519H46.5604L47.3447 46.1493Z" fill="#FFFFFC"/>
<path d="M27.7739 55.1746C28.6419 55.0604 30.8271 54.0629 32.1571 52.8142C33.8728 51.2051 35.3398 50.1594 37.6215 51.167C36.7357 51.9031 35.7865 52.6594 35.0352 53.5909C33.3119 55.799 30.1622 57.2355 27.7739 55.1746Z" fill="white"/>
<path d="M29.4033 46.7051C28.0759 45.1645 26.2561 44.728 24.5251 43.9082C22.1216 42.8676 20.482 40.7433 20.7257 38.0098C21.845 41.8118 28.6038 39.6088 29.4033 46.7051Z" fill="white"/>
<path d="M21.1343 44.2838C21.5658 44.6772 23.5379 46.6062 26.5861 46.4412C28.2916 46.3473 29.9058 47.063 30.9947 48.5122C26.6876 48.2838 22.51 49.8041 21.1369 44.2838H21.1343Z" fill="white"/>
<path d="M34.2078 50.3219C31.6317 50.3675 29.8627 52.7026 27.2891 52.6467C26.0683 52.6036 25.0607 52.1645 24.1749 51.3422C25.0506 52.1569 27.048 50.7686 28.2257 50.1036C30.2739 48.9462 32.2611 48.8346 34.2104 50.3219H34.2078Z" fill="white"/>
<path d="M21.9009 32.8703C22.6369 35.0657 23.8146 35.619 24.9008 36.0555C25.7079 36.3804 28.0455 36.8804 28.0049 41.7331C26.0988 37.9667 20.3679 38.0986 21.9009 32.8703Z" fill="white"/>
<path d="M27.7739 36.8068C26.4186 35.2662 25.1064 33.8119 23.8425 32.317C23.3272 31.7357 22.9034 30.9845 23.2029 30.1469C23.3907 30.5429 23.576 30.9337 23.7612 31.322C23.7968 31.3144 23.8323 31.3094 23.8678 31.3017C23.6166 30.1672 23.576 29.0683 24.3856 28.0886C24.4617 29.119 24.5353 30.1241 24.609 31.1317C24.6496 31.1368 24.6876 31.1418 24.7282 31.1469C24.8171 30.7637 25.5226 29.2205 25.911 29.2155C26.2384 29.7307 24.5303 31.6139 25.4313 31.5911C25.6673 31.0276 25.812 30.4033 26.3577 29.916C26.5632 30.7434 25.9516 31.1698 25.6496 31.7611C25.7232 31.822 25.8094 31.8956 25.9034 31.9769C26.2155 31.7002 26.2054 31.1444 26.7105 31.0936C27.0277 31.6672 25.9211 32.2154 26.6419 32.6393C26.7739 32.3906 26.9084 32.1393 27.0531 31.8677C27.3577 32.0149 27.416 32.1926 27.2308 32.4464C26.5658 33.3068 28.0886 33.7104 27.7764 36.8093L27.7739 36.8068Z" fill="white"/>
<path d="M29.6191 30.5632C29.0404 31.9997 28.4719 33.4134 27.9034 34.8271C27.9211 34.8449 27.9389 34.8626 27.9541 34.8804C27.8805 34.3804 27.7511 33.8804 27.7003 33.3779C27.6369 31.9616 26.9719 30.7256 26.5582 29.4134C26.1496 27.9744 25.6699 26.4135 26.8881 25.1851C26.8399 26.0861 26.7968 26.9109 26.7511 27.7409C27.6699 26.5048 28.5049 25.8856 29.9465 25.312C29.7587 25.9845 29.5379 26.2561 29.0226 26.4566C27.9973 26.9109 26.9897 27.8297 27.043 29.0251C27.7511 28.0607 28.4313 27.1089 29.614 26.6394C29.2739 27.7662 28.3551 28.4947 27.515 29.2332C27.2435 29.449 27.2485 29.6241 27.477 29.9058C28.3754 29.1546 29.2764 28.4033 30.1749 27.6495C30.2054 27.6749 30.2333 27.7028 30.2637 27.7282C29.8602 28.9388 28.5353 29.4972 27.614 30.3018C27.6775 30.421 27.7384 30.5302 27.8221 30.6875C28.6648 29.9845 29.477 29.3068 30.2866 28.6317C30.3272 28.6622 30.3653 28.6901 30.4059 28.7205C29.9211 29.7078 28.9643 30.3043 28.1597 31.0124C27.7308 31.35 28.2155 32.0073 28.2435 32.5428C28.5988 31.7561 28.9084 31.0023 29.6191 30.5657V30.5632Z" fill="white"/>
<path d="M45.1112 23.9084C44.4259 24.515 43.3574 24.6622 42.2635 24.2054C41.9336 25.0023 41.2686 25.1876 40.4615 25.1216C40.898 24.8246 41.3346 24.5302 41.7686 24.2333C40.8955 24.0277 40.0275 24.3373 39.2585 23.8754C38.3295 24.8475 37.8042 24.9566 36.9133 24.3551C36.4717 25.0251 36.0351 25.7307 35.0351 25.3246C34.3905 26.5505 33.3626 26.7256 32.5783 25.7485C32.2458 26.1825 31.9057 26.8982 31.2357 26.6546C30.6164 26.3424 30.9134 25.6825 30.8474 25.0607C31.0707 25.4642 30.9844 26.0048 31.5352 25.9845C32.0606 25.9642 32.3423 25.6114 32.4692 25.2155C33.1138 25.4972 33.761 25.9414 34.4438 25.4896C34.6671 25.3779 34.7534 25.1647 34.662 24.8779C34.4133 24.0988 34.2306 23.3044 34.3524 22.4541C34.7052 23.1495 34.6976 25.3475 35.8372 24.8399C36.2966 24.6647 36.624 24.3424 36.8219 23.8348C36.459 23.9642 36.1316 24.0835 35.8042 24.2003C35.7864 24.1673 35.7686 24.1343 35.7509 24.1013C36.1341 23.8424 36.5199 23.5835 36.8981 23.3272C37.1544 24.0201 37.926 24.2917 38.6544 23.9236C39.2153 23.6597 38.7229 22.8653 38.7889 22.3704C38.827 22.3627 38.8651 22.3526 38.9031 22.345C39.1315 22.911 39.3422 23.4617 40.0579 23.449C40.6848 23.4642 41.3143 23.4516 41.997 23.4516C41.9259 22.916 41.8498 22.3602 41.7762 21.8044C41.827 21.7942 41.8777 21.7841 41.9285 21.7739C42.1645 22.3856 42.096 23.2688 42.6188 23.7054C43.3346 23.9922 44.0503 23.9744 44.8269 23.5886C44.4665 23.4084 44.2153 23.3627 44.129 22.9744C44.8371 22.5252 45.7305 23.7434 45.9614 24.345C45.7956 24.4025 45.5114 24.2561 45.1087 23.9059L45.1112 23.9084Z" fill="white"/>
<path d="M46.5656 22.048C46.8194 22.8297 46.8651 23.6317 46.7306 24.4414C46.7078 25.5327 43.7763 26.2967 43.9692 24.6368C44.6342 25.1571 45.3347 25.0784 46.0479 24.7459C46.8347 24.4033 46.1748 22.812 46.3905 22.0759C46.4489 22.0658 46.5072 22.0582 46.5656 22.048Z" fill="white"/>
<path d="M49.7483 26.086C49.1239 26.6089 48.695 26.4845 48.3371 25.7053C47.7965 26.5962 46.2762 26.6799 46.5275 25.3297C47.2508 25.9693 47.6975 25.9084 48.5097 25.0404C48.3777 26.0505 49.2229 25.8627 49.7483 26.086Z" fill="white"/>
<path d="M53.4437 55.1746C52.5757 55.0604 50.3904 54.0629 49.0605 52.8142C47.3448 51.2051 45.8778 50.1594 43.5961 51.167C44.4818 51.9031 45.4311 52.6594 46.1823 53.5909C47.9057 55.799 51.0554 57.2355 53.4437 55.1746Z" fill="white"/>
<path d="M51.8142 46.7051C53.1416 45.1645 54.9614 44.728 56.6923 43.9082C59.0959 42.8676 60.7354 40.7433 60.4918 38.0098C59.3725 41.8118 52.6137 39.6088 51.8142 46.7051Z" fill="white"/>
<path d="M60.0833 44.2838C59.6518 44.6772 57.6797 46.6062 54.6315 46.4412C52.926 46.3473 51.3118 47.063 50.223 48.5122C54.53 48.2838 58.7102 49.8041 60.0833 44.2838Z" fill="white"/>
<path d="M47.0097 50.3219C49.5859 50.3675 51.3549 52.7026 53.9285 52.6467C55.1493 52.6036 56.1569 52.1645 57.0426 51.3422C56.167 52.1569 54.1696 50.7686 52.9919 50.1036C50.9437 48.9462 48.959 48.8346 47.0097 50.3219Z" fill="white"/>
<path d="M59.3167 32.8703C58.5807 35.0657 57.4031 35.619 56.3168 36.0555C55.5097 36.3804 53.1721 36.8804 53.2127 41.7331C55.1188 37.9667 60.8497 38.0986 59.3167 32.8703Z" fill="white"/>
<path d="M53.4437 36.8068C54.799 35.2662 56.1112 33.8119 57.3752 32.317C57.8904 31.7357 58.3142 30.9845 58.0147 30.1469C57.8269 30.5429 57.6416 30.9337 57.4564 31.322C57.4208 31.3144 57.3853 31.3094 57.3498 31.3017C57.601 30.1672 57.6416 29.0683 56.832 28.0886C56.7559 29.119 56.6823 30.1241 56.6087 31.1317C56.5681 31.1368 56.53 31.1418 56.4894 31.1469C56.4005 30.7637 55.695 29.2205 55.3066 29.2155C54.9792 29.7307 56.6873 31.6139 55.7863 31.5911C55.5503 31.0276 55.4056 30.4033 54.8599 29.916C54.6544 30.7434 55.266 31.1698 55.5681 31.7611C55.4945 31.822 55.4082 31.8956 55.3143 31.9769C55.0021 31.7002 55.0122 31.1444 54.5072 31.0936C54.1899 31.6672 55.2965 32.2154 54.5757 32.6393C54.4437 32.3906 54.3092 32.1393 54.1645 31.8677C53.86 32.0149 53.8016 32.1926 53.9869 32.4464C54.6518 33.3068 53.129 33.7104 53.4412 36.8093L53.4437 36.8068Z" fill="white"/>
<path d="M51.5985 30.5632C52.1772 31.9997 52.7457 33.4134 53.3142 34.8271C53.2965 34.8449 53.2787 34.8626 53.2635 34.8804C53.3371 34.3804 53.4665 33.8804 53.5173 33.3779C53.5807 31.9616 54.2457 30.7256 54.6594 29.4134C55.068 27.9744 55.5477 26.4135 54.3294 25.1851C54.3777 26.0861 54.4208 26.9109 54.4665 27.7409C53.5477 26.5048 52.7127 25.8856 51.2711 25.312C51.4589 25.9845 51.6797 26.2561 52.1949 26.4566C53.2203 26.9109 54.2279 27.8297 54.1746 29.0251C53.4665 28.0607 52.7863 27.1089 51.6036 26.6394C51.9437 27.7662 52.8624 28.4947 53.7025 29.2332C53.9741 29.449 53.969 29.6241 53.7406 29.9058C52.8421 29.1546 51.9411 28.4033 51.0427 27.6495C51.0122 27.6749 50.9843 27.7028 50.9538 27.7282C51.3574 28.9388 52.6822 29.4972 53.6036 30.3018C53.5401 30.421 53.4792 30.5302 53.3954 30.6875C52.5528 29.9845 51.7406 29.3068 50.931 28.6317C50.8904 28.6622 50.8523 28.6901 50.8117 28.7205C51.2965 29.7078 52.2533 30.3043 53.0579 31.0124C53.4868 31.35 53.002 32.0073 52.9741 32.5428C52.6188 31.7561 52.3092 31.0023 51.5985 30.5657V30.5632Z" fill="white"/>
<path d="M48.2634 58.1923C47.5122 57.9817 46.7939 57.7812 46.0756 57.5807C46.0807 57.5502 46.0858 57.5198 46.0934 57.4893C46.497 57.3116 46.903 57.1365 47.3066 56.9589L47.2939 56.9715C47.5959 56.7558 47.8954 56.5426 48.2431 56.2939C47.6898 55.9487 47.2051 55.5934 46.6695 55.3421C46.502 55.2634 46.2025 55.4639 46.002 55.5249C44.4614 54.5071 44.2889 52.5376 42.9818 51.3675C42.9411 51.3777 42.9005 51.3878 42.8599 51.4005C42.997 52.4411 43.6442 53.3041 44.0325 54.3066C43.8422 54.3371 43.6746 54.365 43.5122 54.3904C43.0173 53.4234 42.8752 52.3218 42.2229 51.4589C42.162 51.4665 42.1036 51.4767 42.0427 51.4843C42.0173 52.535 42.6924 53.4538 42.9919 54.4716C42.8142 54.4969 42.634 54.5249 42.4564 54.5502C42.0528 53.5198 41.9005 52.4132 41.1797 51.563C41.1264 51.5706 41.0706 51.5757 41.0173 51.5833C41.0072 52.6822 41.6696 53.5452 42.03 54.6467H39.195C39.5554 53.5452 40.2204 52.6822 40.2077 51.5833C40.1544 51.5757 40.0985 51.5706 40.0452 51.563C39.3244 52.4132 39.1721 53.5173 38.7686 54.5502C38.5909 54.5249 38.4107 54.4969 38.2331 54.4716C38.5326 53.4538 39.2077 52.535 39.1823 51.4843C39.1214 51.4767 39.063 51.4665 39.0021 51.4589C38.3498 52.3218 38.2077 53.4234 37.7128 54.3904C37.5478 54.3624 37.3828 54.3371 37.1925 54.3066C37.5808 53.3041 38.228 52.4411 38.365 51.4005C38.3244 51.3904 38.2838 51.3802 38.2432 51.3675C36.9361 52.5376 36.7635 54.5071 35.2229 55.5249C35.0224 55.4639 34.723 55.2634 34.5554 55.3421C34.0199 55.5934 33.5326 55.9487 32.9819 56.2939C33.3296 56.5426 33.6316 56.7584 33.9311 56.9715L33.9184 56.9589C34.3219 57.1365 34.728 57.3116 35.1316 57.4893C35.1367 57.5198 35.1417 57.5502 35.1493 57.5807C34.4311 57.7812 33.7128 57.9817 32.9615 58.1923C35.6214 59.6466 36.7001 57.6061 38.4488 58.3472C37.7813 58.6593 37.1519 58.9563 36.4158 59.3015C39.2077 59.903 39.7432 58.4309 40.6138 58.4512C41.4843 58.4309 42.0198 59.903 44.8117 59.3015C44.0757 58.9563 43.4462 58.6593 42.7787 58.3472C44.5274 57.6086 45.6061 59.6466 48.2634 58.1923Z" fill="white"/>
</svg>
