<svg width="82" height="82" viewBox="0 0 82 82" fill="none" xmlns="http://www.w3.org/2000/svg">
<path d="M68.5276 10.1522H12.6905C7.08362 10.1522 2.53833 14.6975 2.53833 20.3044V60.9131C2.53833 66.52 7.08362 71.0653 12.6905 71.0653H68.5276C74.1345 71.0653 78.6797 66.52 78.6797 60.9131V20.3044C78.6797 14.6975 74.1345 10.1522 68.5276 10.1522Z" fill="black"/>
<path d="M40.609 44.8168L20.4696 38.1037L30.7335 36.1393L22.0051 30.3957L32.2385 32.5073L26.3706 23.8627L35.0152 29.7307L32.9035 19.4973L38.6471 28.2256L40.6115 17.9618L42.576 28.2256L48.3196 19.4973L46.2079 29.7307L54.8525 23.8627L48.9846 32.5073L59.218 30.3957L50.4896 36.1393L60.7535 38.1037L40.6141 44.8168H40.609Z" fill="#FCD116"/>
<path d="M5.07642 38.0707H76.1417V50.7609H5.07642V38.0707Z" fill="#0072C6"/>
<path d="M12.6904 48.2229H68.5275V71.0653H12.6904V48.2229Z" fill="white"/>
<path d="M2.53833 20.3044V60.9131C2.53833 66.5197 7.08397 71.0653 12.6905 71.0653H40.609L4.87841 13.8958C3.43934 15.6471 2.53833 17.8602 2.53833 20.3044Z" fill="#CE1126"/>
<path d="M40.609 71.0653H68.5275C74.1341 71.0653 78.6797 66.5197 78.6797 60.9131V20.3044C78.6797 17.8602 77.7812 15.6471 76.3396 13.8958L40.609 71.0653Z" fill="#CE1126"/>
<path opacity="0.15" d="M68.5276 10.1522H12.6905C7.08397 10.1522 2.53833 14.6978 2.53833 20.3044V60.9131C2.53833 66.5197 7.08397 71.0653 12.6905 71.0653H68.5276C74.1341 71.0653 78.6797 66.5197 78.6797 60.9131V20.3044C78.6797 14.6978 74.1341 10.1522 68.5276 10.1522ZM76.1417 60.9131C76.1417 65.1111 72.7255 68.5273 68.5276 68.5273H12.6905C8.49259 68.5273 5.07638 65.1111 5.07638 60.9131V20.3044C5.07638 16.1065 8.49259 12.6902 12.6905 12.6902H68.5276C72.7255 12.6902 76.1417 16.1065 76.1417 20.3044V60.9131Z" fill="black"/>
<path opacity="0.2" d="M68.5276 12.6902H12.6906C8.48501 12.6902 5.07642 16.0988 5.07642 20.3044V22.8424C5.07642 18.6369 8.48501 15.2283 12.6906 15.2283H68.5276C72.7331 15.2283 76.1417 18.6369 76.1417 22.8424V20.3044C76.1417 16.0988 72.7331 12.6902 68.5276 12.6902Z" fill="white"/>
</svg>
