<svg width="82" height="82" viewBox="0 0 82 82" fill="none" xmlns="http://www.w3.org/2000/svg">
<path d="M68.5273 10.1522H12.6903C7.08338 10.1522 2.53809 14.6975 2.53809 20.3044V60.9131C2.53809 66.52 7.08338 71.0653 12.6903 71.0653H68.5273C74.1342 71.0653 78.6795 66.52 78.6795 60.9131V20.3044C78.6795 14.6975 74.1342 10.1522 68.5273 10.1522Z" fill="#EA3323"/>
<path opacity="0.15" d="M68.5273 10.1522H12.6903C7.08373 10.1522 2.53809 14.6978 2.53809 20.3044V60.9131C2.53809 66.5197 7.08373 71.0653 12.6903 71.0653H68.5273C74.1339 71.0653 78.6795 66.5197 78.6795 60.9131V20.3044C78.6795 14.6978 74.1339 10.1522 68.5273 10.1522ZM76.1415 60.9131C76.1415 65.1111 72.7253 68.5273 68.5273 68.5273H12.6903C8.49234 68.5273 5.07613 65.1111 5.07613 60.9131V20.3044C5.07613 16.1065 8.49234 12.6902 12.6903 12.6902H68.5273C72.7253 12.6902 76.1415 16.1065 76.1415 20.3044V60.9131Z" fill="black"/>
<path d="M59.9106 49.7153C59.2863 48.9818 58.5908 48.9285 57.7178 49.8676C56.8041 49.8955 56.1645 49.9107 55.2508 49.9437C55.7406 49.53 56.002 49.2127 56.4944 48.799C58.0477 49.5046 57.9868 47.6391 59.4462 47.6417C59.0147 47.2813 58.6543 47.1493 57.8751 47.5097C56.7254 46.9919 56.6289 47.7254 56.4234 48.2077C55.6442 48.7204 55.0147 49.1518 54.2355 49.6645C52.6467 49.2 51.3574 48.9412 49.7686 48.4792C52.931 46.2584 45.7915 46.799 45.5478 42.8321C45.5707 39.7788 46.9361 44.3092 48.2153 44.7889C50.7229 45.1062 47.7711 43.5529 47.7001 41.9362C48.8041 39.4641 49.3498 44.1265 50.1721 44.5148C51.0021 46.0173 53.9487 45.9082 52.464 44.3448C50.4386 44.063 49.332 40.2458 51.1315 41.091C53.266 42.9844 55.9157 48.1493 59.1441 45.6315C59.7812 44.9133 59.5553 44.1341 58.5528 44.3041C56.2939 44.492 54.5807 43.393 52.7076 40.4286C52.3371 39.7534 52.2356 38.7966 53.0503 39.5098C54.2635 41.2839 57.7609 43.5351 59.3497 42.0631C59.8193 41.2585 59.7127 40.3727 58.8624 40.6646C57.3903 42.124 50.7026 37.6443 53.4462 36.8296C55.3041 38.3727 57.7 39.6189 58.9259 38.8677C59.8243 38.3169 59.8421 36.9108 58.7 36.9997C56.398 37.3118 55.5274 36.8093 53.3193 34.9007C51.4767 32.6951 58.3243 36.7433 59.0401 35.2154C61.3827 31.7307 55.9563 35.6443 53.0782 32.4159C51.3752 29.6748 58.7355 34.8702 59.5578 30.7383C60.1898 27.7942 55.8878 32.7865 53.3472 29.9185C51.0351 27.8754 59.469 30.4921 59.5426 27.0683C60.0248 24.1419 55.6543 28.6241 53.6848 27.5911C50.6772 25.9921 59.9893 25.8119 59.7355 22.4236C59.4056 18.0582 55.931 25.5581 52.9132 24.8526C51.7127 23.3881 49.0706 25.9769 47.3473 26.5201C47.0681 27.2485 47.8879 29.1926 47.0097 29.7078C44.9463 31.3093 43.2661 28.2789 45.1595 26.2586C46.1366 24.1673 50.0935 24.6698 51.4894 23.0937C50.7889 23.4008 49.6518 23.6648 49.1062 23.0353C50.4259 22.9389 52.596 23.3399 53.3548 21.9084C53.4894 21.2638 53.0579 21.147 52.6544 21.5632C51.8016 22.6521 50.7787 22.7942 49.4412 22.5937C49.9107 22.0429 50.9742 21.2587 51.5275 22.2384C51.6417 21.5303 51.4412 20.7358 49.5173 21.0658C49.5427 20.5353 48.3955 20.3044 47.7052 20.3145C46.2889 20.5277 44.6773 21.3729 43.0478 21.3754C43.662 21.8907 43.7813 21.9211 44.4006 22.3602C43.4641 22.7003 42.7357 23.4084 42.4108 23.8703C43.2306 23.9084 43.4996 23.8399 43.7788 23.9592C42.6392 24.2891 42.1215 24.482 41.5199 25.0861C43.256 25.0759 40.9489 26.4515 40.6139 27.0733C40.2788 26.449 37.9743 25.0759 39.7078 25.0861C39.1063 24.482 38.5885 24.2891 37.4489 23.9592C37.7281 23.8399 37.9971 23.9084 38.8169 23.8703C38.492 23.4084 37.7662 22.7028 36.8271 22.3602C37.4464 21.9211 37.5682 21.8907 38.1799 21.3754C36.553 21.3754 34.9362 20.5277 33.5225 20.3145C32.8322 20.3044 31.685 20.5353 31.7104 21.0658C29.7865 20.7358 29.586 21.5303 29.7002 22.2384C30.2535 21.2587 31.317 22.0429 31.7865 22.5937C30.449 22.7942 29.4261 22.6546 28.5734 21.5632C28.1698 21.1495 27.7383 21.2663 27.8729 21.9084C28.6292 23.3399 30.8018 22.9414 32.1215 23.0353C31.5733 23.6648 30.4388 23.3983 29.7383 23.0937C31.1368 24.6724 35.0911 24.1673 36.0682 26.2586C37.9616 28.2789 36.2814 31.3093 34.218 29.7078C33.3398 29.1875 34.1596 27.251 33.8804 26.5201C32.1545 25.9744 29.5175 23.3881 28.3145 24.85C25.2891 25.5531 21.8298 18.0607 21.4922 22.4211C21.2536 25.8246 30.5378 25.9769 27.5429 27.5886C25.5607 28.6216 21.2105 24.1368 21.6826 27.0632C21.7765 30.4997 30.1774 27.8601 27.8805 29.9134C26.7104 30.7535 24.6165 31.5733 22.7714 29.9033C21.9262 29.2561 21.3577 29.7992 21.6699 30.7332C22.4897 33.1672 25.6191 32.6545 27.7688 31.4566C28.3221 31.1469 28.8246 31.8652 28.1495 32.4109C25.2714 35.6367 19.8475 31.7281 22.1876 35.2129C22.9389 36.7458 29.7332 32.69 27.9109 34.8981C25.7028 36.8068 24.8323 37.3093 22.5303 36.9971C21.3881 36.9083 21.4059 38.3144 22.3044 38.8651C23.5303 39.6164 25.9236 38.3702 27.7815 36.8271C30.5251 37.6367 23.8399 42.124 22.3653 40.6621C21.5125 40.3702 21.4059 41.256 21.8754 42.0605C23.4693 43.53 26.9592 41.2839 28.1749 39.5072C28.9896 38.7941 28.8881 39.7509 28.5175 40.426C26.6444 43.3879 24.9287 44.4894 22.6724 44.3016C21.6724 44.1316 21.444 44.9107 22.081 45.629C25.2764 49.7 30.9261 37.3398 30.8855 42.3245C31.2967 43.3676 26.4186 44.9691 29.2434 45.6544C31.4718 46.1417 32.5276 38.9844 33.5276 41.9285C33.4667 43.5504 30.4972 45.0986 33.0124 44.7838C34.3068 44.3143 35.6393 39.761 35.6799 42.827C35.4261 46.8067 28.2967 46.2407 31.4566 48.4742C29.8703 48.9361 28.5784 49.195 26.9896 49.6594C26.2104 49.1493 25.581 48.7153 24.8018 48.2026C24.5962 47.7229 24.4998 46.9894 23.3501 47.5046C22.5709 47.1442 22.2105 47.2762 21.779 47.6366C23.2384 47.6366 23.18 49.5021 24.7308 48.794C25.2206 49.2077 25.482 49.5249 25.9744 49.9386C25.0582 49.9082 24.4211 49.8904 23.5074 49.8625C22.6343 48.9259 21.9389 48.9767 21.3145 49.7102C20.8374 49.7838 20.6369 49.7939 20.312 50.3726C21.4668 49.8295 22.5861 51.3447 23.3627 50.3295C24.2587 50.3853 25.0632 50.431 25.9592 50.4894C25.6292 50.7686 25.1774 50.9183 24.85 51.2C22.9059 50.5452 22.2942 52.3447 22.3831 53.8015C22.5125 53.3675 22.7232 52.997 23.1064 52.7635C24.3044 53.068 24.7536 52.5782 24.8196 51.8625C25.3957 51.3904 26.2663 51.2863 26.8449 50.8117C27.5175 51.0274 27.8449 51.162 28.5226 51.3752C28.6216 52.8066 31.3601 51.6645 31.1495 53.0223C31.4287 52.5249 31.421 52.0427 30.7713 51.601C30.5353 50.9589 30.0099 50.667 29.3246 51.0376C28.6774 50.8548 28.5074 50.5909 27.8652 50.4082C29.4947 49.8879 30.6495 49.7711 32.2789 49.2533C34.3931 52.1467 35.0911 47.3955 36.3931 46.5046C37.1063 45.3371 38.992 44.7661 38.7712 46.8295C38.5403 48.7762 36.9311 50.4361 35.5251 51.2381C34.5835 51.8523 34.185 51.5833 33.4566 51.5452C31.1368 51.9411 34.0911 53.5528 34.9312 53.068C38.9235 50.0071 36.355 54.7304 34.119 54.4538C32.9896 54.6061 33.2002 55.2406 33.9515 55.5502C35.3017 56.1061 36.52 55.0629 37.1393 54.3777C37.6164 53.8548 37.9565 53.8345 37.8728 54.6442C37.8144 57.1619 33.9261 56.2 35.454 57.7786C36.8829 58.7685 37.9184 57.0832 38.4032 56.0655C39.9692 54.4563 39.3398 58.4969 37.657 59.2126C38.5936 60.705 39.6849 62.2228 40.6215 63.7177C41.558 62.2202 42.6494 60.7025 43.5859 59.2126C41.9006 58.5045 41.2788 54.4462 42.8397 56.0655C43.3219 57.0832 44.3575 58.7685 45.7864 57.7786C47.3168 56.2101 43.4235 57.1568 43.3676 54.6442C43.2839 53.8345 43.6214 53.8548 44.0986 54.3777C44.7179 55.0629 45.9361 56.1061 47.2864 55.5502C48.0351 55.2406 48.2483 54.6061 47.1189 54.4538C44.8778 54.7279 42.3194 50.0097 46.3067 53.068C47.1442 53.5528 50.1011 51.9411 47.7813 51.5452C47.0529 51.5833 46.6544 51.8523 45.7128 51.2381C44.3067 50.4361 42.7027 48.7813 42.4666 46.8295C42.2509 44.7712 44.129 45.3321 44.8448 46.5046C46.1468 47.3904 46.8473 52.1467 48.959 49.2533C50.5858 49.7711 51.7432 49.8879 53.3726 50.4082C52.728 50.5909 52.5579 50.8548 51.9132 51.0376C51.2254 50.667 50.7026 50.9589 50.4666 51.601C49.8168 52.0401 49.8092 52.5249 50.0884 53.0223C49.8803 51.6645 52.6163 52.8066 52.7153 51.3752C53.3929 51.1594 53.7203 51.0274 54.3929 50.8117C54.969 51.2889 55.8396 51.3929 56.4183 51.8625C56.4843 52.5782 56.9335 53.068 58.1315 52.7635C58.5147 52.997 58.7254 53.3701 58.8548 53.8015C58.9411 52.3447 58.332 50.5477 56.3878 51.2C56.0579 50.9183 55.6061 50.7686 55.2787 50.4894C56.1746 50.431 56.9817 50.3853 57.8751 50.3295C58.6543 51.3447 59.766 49.832 60.9258 50.3726C60.601 49.7939 60.3979 49.7838 59.9233 49.7102L59.9106 49.7153Z" fill="black"/>
<path opacity="0.2" d="M68.5274 12.6902H12.6903C8.48477 12.6902 5.07617 16.0988 5.07617 20.3044V22.8424C5.07617 18.6369 8.48477 15.2283 12.6903 15.2283H68.5274C72.7329 15.2283 76.1415 18.6369 76.1415 22.8424V20.3044C76.1415 16.0988 72.7329 12.6902 68.5274 12.6902Z" fill="white"/>
</svg>
