<svg width="82" height="82" viewBox="0 0 82 82" fill="none" xmlns="http://www.w3.org/2000/svg">
<path d="M2.53809 60.9131C2.53809 66.5197 7.08373 71.0653 12.6903 71.0653H68.5273C74.1339 71.0653 78.6795 66.5197 78.6795 60.9131V38.0707H2.53809V60.9131Z" fill="black"/>
<path d="M68.5273 10.1522H12.6903C7.08373 10.1522 2.53809 14.6978 2.53809 20.3044V40.6088H78.6795V20.3044C78.6795 14.6978 74.1339 10.1522 68.5273 10.1522Z" fill="#BC2833"/>
<path opacity="0.15" d="M68.5273 10.1522H12.6903C7.08373 10.1522 2.53809 14.6978 2.53809 20.3044V60.9131C2.53809 66.5197 7.08373 71.0653 12.6903 71.0653H68.5273C74.1339 71.0653 78.6795 66.5197 78.6795 60.9131V20.3044C78.6795 14.6978 74.1339 10.1522 68.5273 10.1522ZM76.1415 60.9131C76.1415 65.1111 72.7253 68.5273 68.5273 68.5273H12.6903C8.49234 68.5273 5.07613 65.1111 5.07613 60.9131V20.3044C5.07613 16.1065 8.49234 12.6902 12.6903 12.6902H68.5273C72.7253 12.6902 76.1415 16.1065 76.1415 20.3044V60.9131Z" fill="black"/>
<path fill-rule="evenodd" clip-rule="evenodd" d="M33.2712 28.9211H37.8169L39.195 24.6368L40.6112 28.9211H45.1569L41.5046 31.6418L42.9209 36.0022L39.195 33.355L35.5047 36.0022L36.9209 31.6418L33.2687 28.9211H33.2712Z" fill="#FFCB00"/>
<path fill-rule="evenodd" clip-rule="evenodd" d="M49.8905 52.3599L46.3144 49.5655C49.9286 46.6214 52.2763 42.1138 52.2763 37.0834C52.2763 29.4058 46.7992 22.9592 39.5683 21.4313L40.1267 18.8222C41.1318 19.0455 42.3145 19.4694 43.2815 19.8044L44.2129 18.2409C45.218 18.7257 46.3373 19.2079 47.2687 19.8044L46.5606 21.482C47.4921 22.0785 48.6165 23.0023 49.2433 23.7282L50.6418 22.6343C51.388 23.4541 52.2814 24.3094 52.9159 25.2053L51.6494 26.5099C52.4667 27.7104 52.7839 28.2637 53.388 29.6469L55.1646 29.2307C55.4996 30.2738 56.0098 31.5505 56.1976 32.6317L54.5149 33.2941C54.7154 34.1342 54.9768 35.6012 54.959 36.8347C54.959 36.9083 54.9514 36.992 54.9514 37.0682L56.7103 37.3194C56.6367 38.4007 56.5986 39.6316 56.3753 40.7103H54.5504C54.289 41.827 53.954 43.195 53.5453 44.2382L55.0732 45.1341C54.5885 46.1036 54.1062 47.2584 53.4717 48.1899L51.7941 47.4818C51.1596 48.4132 50.454 49.3066 49.6697 50.1264L50.7509 51.5427C50.454 51.8041 50.1926 52.0655 49.8931 52.3624M42.0302 52.0274L44.7307 53.6543C44.4794 53.8853 43.7231 54.2761 43.5251 54.3548L43.9667 56.0502C42.9236 56.3853 41.8043 56.87 40.6495 57.0934L39.9795 55.4157C38.8983 55.6391 37.8196 55.7888 36.7003 55.7888L36.477 57.5401C35.4338 57.4665 34.1673 57.5401 33.0125 57.2786V55.5274C31.9694 55.3396 30.9618 55.0807 29.9948 54.7431L29.1369 56.271C28.2435 55.8979 27.0507 55.4513 26.0811 54.8548L26.7156 53.1772C25.9339 52.766 25.2258 52.2457 24.5532 51.7229L26.2309 49.5985C28.9897 51.7965 32.4542 53.101 36.2562 53.101C38.2688 53.101 40.2434 52.766 42.0328 52.0224" fill="#FFCB00"/>
<path d="M59.2762 60.2761L53.6366 55.9157L52.7382 55.2254L37.8906 43.8168C35.0962 41.6189 32.4135 39.6443 31.9668 37.0352L31.147 39.0479C30.1775 41.5453 29.9922 43.8549 34.6876 46.7991L51.1037 57.3294L53.1798 58.7228L57.0249 61.3928C57.398 61.6542 57.4336 62.8471 58.8117 63.0324C59.3726 63.106 59.7432 62.6974 59.7432 62.6974C60.3447 61.9664 60.1797 60.9588 59.2787 60.2761H59.2762Z" fill="#FFCB00"/>
<path opacity="0.2" d="M68.5272 12.6902H12.6902C8.48465 12.6902 5.07605 16.0988 5.07605 20.3044V22.8424C5.07605 18.6369 8.48465 15.2283 12.6902 15.2283H68.5272C72.7328 15.2283 76.1414 18.6369 76.1414 22.8424V20.3044C76.1414 16.0988 72.7328 12.6902 68.5272 12.6902Z" fill="white"/>
</svg>
