<svg width="82" height="82" viewBox="0 0 82 82" fill="none" xmlns="http://www.w3.org/2000/svg">
<path d="M2.53809 27.9185H78.6795V53.299H2.53809V27.9185Z" fill="white"/>
<path d="M12.6903 10.1522H68.5273C74.1313 10.1522 78.6795 14.7004 78.6795 20.3044V30.4566H2.53809V20.3044C2.53809 14.7004 7.08627 10.1522 12.6903 10.1522Z" fill="#81ACDC"/>
<path d="M68.5271 71.0653L12.6901 71.0653C7.08608 71.0653 2.5379 66.5171 2.5379 60.9131V50.7609L78.6793 50.7609V60.9131C78.6793 66.5171 74.1311 71.0653 68.5271 71.0653Z" fill="#81ACDC"/>
<path opacity="0.15" d="M68.5273 10.1522H12.6903C7.08373 10.1522 2.53809 14.6978 2.53809 20.3044V60.9131C2.53809 66.5197 7.08373 71.0653 12.6903 71.0653H68.5273C74.1339 71.0653 78.6795 66.5197 78.6795 60.9131V20.3044C78.6795 14.6978 74.1339 10.1522 68.5273 10.1522ZM76.1415 60.9131C76.1415 65.1111 72.7253 68.5273 68.5273 68.5273H12.6903C8.49234 68.5273 5.07613 65.1111 5.07613 60.9131V20.3044C5.07613 16.1065 8.49234 12.6902 12.6903 12.6902H68.5273C72.7253 12.6902 76.1415 16.1065 76.1415 20.3044V60.9131Z" fill="black"/>
<path d="M49.5199 40.4438C49.4692 40.426 49.4159 40.426 49.4159 40.426L44.4971 40.2407C44.7129 40.1798 44.9159 40.1062 45.1139 40.0326C45.5682 39.8651 45.9946 39.7052 46.525 39.7534C47.3423 39.827 47.8956 39.5199 48.3017 39.2966C48.4463 39.2179 48.5707 39.1468 48.6773 39.1139C48.9006 39.0402 49.0707 39.0986 49.1925 39.1392C49.2864 39.1722 49.4006 39.2103 49.4539 39.1012C49.4692 39.0682 49.4869 39.0047 49.4235 38.9184C49.3067 38.7611 48.9692 38.6215 48.5022 38.69C48.289 38.7205 48.1265 38.7966 47.9539 38.8778C47.6316 39.0276 47.2687 39.1976 46.4108 39.1291C45.7357 39.0758 45.322 39.2103 44.921 39.3423C44.69 39.4184 44.4692 39.4895 44.2053 39.5225L48.8093 37.4083C48.8093 37.4083 48.86 37.388 48.9006 37.3524C48.9666 37.2941 48.9895 37.2205 48.959 37.1494C48.9412 37.1088 48.9108 37.0783 48.8727 37.0606C48.7864 37.025 48.6824 37.0656 48.6722 37.0707L44.0555 38.7814C44.2306 38.6443 44.3905 38.4971 44.5454 38.3524C44.9007 38.0225 45.2332 37.7128 45.7408 37.553C46.5225 37.3093 46.9184 36.8118 47.2078 36.4514C47.3118 36.322 47.4007 36.2103 47.4844 36.1367C47.6621 35.9844 47.8423 35.9717 47.9717 35.9641C48.0707 35.9565 48.1925 35.9489 48.2001 35.8296C48.2001 35.7941 48.1925 35.7281 48.1037 35.6723C47.9362 35.5707 47.5707 35.5707 47.1672 35.8144C46.9819 35.9261 46.86 36.058 46.7331 36.1976C46.4946 36.4591 46.223 36.756 45.4032 37.02C44.7585 37.2281 44.4286 37.5123 44.1088 37.7865C43.9261 37.9438 43.7484 38.0961 43.5174 38.2281L46.9616 34.5149C47.0428 34.4337 47.0885 34.3068 47.0022 34.218C46.9717 34.1875 46.9311 34.1697 46.888 34.1697C46.7941 34.1697 46.7154 34.2484 46.7078 34.256L43.0987 37.6037C43.2078 37.4083 43.2992 37.2129 43.388 37.02C43.5885 36.5809 43.7789 36.1646 44.1875 35.8245C44.8169 35.2992 44.992 34.69 45.1215 34.2459C45.1672 34.086 45.2078 33.9489 45.2585 33.8499C45.3651 33.6393 45.525 33.5606 45.6418 33.5048C45.7306 33.4616 45.8398 33.4083 45.8017 33.2941C45.789 33.2611 45.756 33.2027 45.6519 33.1875C45.459 33.1571 45.1215 33.2992 44.8398 33.6774C44.7103 33.8525 44.6494 34.02 44.586 34.1977C44.4641 34.5301 44.3271 34.9083 43.6697 35.4667C43.1545 35.9058 42.9565 36.2941 42.7662 36.6697C42.657 36.8854 42.5504 37.0936 42.388 37.3042L44.1494 32.5555C44.1926 32.4489 44.1875 32.3144 44.0733 32.2662C44.0327 32.2484 43.9895 32.2484 43.9489 32.2662C43.8626 32.3017 43.8195 32.4058 43.8144 32.4134L41.7611 36.888C41.789 36.6672 41.7966 36.4514 41.8043 36.2382C41.822 35.756 41.8398 35.2992 42.086 34.8271C42.4667 34.1012 42.3956 33.4718 42.3449 33.0098C42.3271 32.8449 42.3093 32.7053 42.3195 32.5911C42.3372 32.3576 42.454 32.2231 42.5403 32.1241C42.6063 32.0505 42.6875 31.9591 42.6063 31.8677C42.5834 31.8423 42.5276 31.8017 42.4261 31.8246C42.2357 31.8703 41.9768 32.1291 41.8626 32.5885C41.8093 32.7992 41.8169 32.9769 41.8246 33.1647C41.8398 33.52 41.8576 33.921 41.4642 34.6875C41.1545 35.289 41.1215 35.7256 41.0911 36.1443C41.0733 36.3855 41.0555 36.619 40.9845 36.8753L40.7941 31.8144C40.7941 31.7002 40.7383 31.5759 40.6114 31.5759C40.5352 31.5759 40.4743 31.6241 40.4464 31.7078C40.4286 31.7586 40.4286 31.8068 40.4286 31.8119L40.2434 36.7306C40.1824 36.5149 40.1088 36.3118 40.0352 36.1139C39.8677 35.6596 39.7078 35.2332 39.7561 34.7027C39.8297 33.8855 39.5226 33.3322 39.2992 32.9261C39.2205 32.7814 39.1495 32.6571 39.1165 32.5505C39.0429 32.3271 39.1012 32.1571 39.1418 32.0352C39.1748 31.9413 39.2129 31.8271 39.1038 31.7738C39.0708 31.7586 39.0048 31.7408 38.921 31.8043C38.7637 31.921 38.6241 32.2586 38.6926 32.7256C38.7231 32.9388 38.7992 33.1012 38.8804 33.2738C39.0302 33.5961 39.2002 33.9591 39.1317 34.8169C39.0784 35.4921 39.2129 35.9058 39.3449 36.3068C39.421 36.5377 39.4921 36.7585 39.5251 37.0225L37.4109 32.4185C37.3678 32.3119 37.2688 32.2205 37.152 32.2687C37.081 32.2992 37.0429 32.3652 37.0505 32.454C37.053 32.5073 37.0733 32.5555 37.0733 32.5555L38.784 37.1697C38.6469 36.9946 38.4997 36.8347 38.3551 36.6799C38.0251 36.3245 37.7155 35.9921 37.5556 35.4844C37.3119 34.7027 36.8145 34.3068 36.4541 34.0175C36.3246 33.9134 36.2129 33.8246 36.1393 33.7408C35.9871 33.5631 35.9744 33.3829 35.9667 33.2535C35.9591 33.1545 35.9515 33.0327 35.8322 33.0251C35.7967 33.0251 35.7307 33.0327 35.6749 33.1215C35.5734 33.289 35.5734 33.6545 35.817 34.0581C35.9287 34.2433 36.0607 34.3652 36.2002 34.4921C36.4617 34.7306 36.7586 35.0022 37.0226 35.822C37.2307 36.4667 37.515 36.7966 37.7891 37.1164C37.9464 37.2991 38.0987 37.4768 38.2307 37.7103L34.5175 34.2662C34.4363 34.185 34.3094 34.1393 34.2206 34.2281C34.1673 34.2814 34.1571 34.3601 34.1977 34.4388C34.2206 34.487 34.2586 34.5225 34.2586 34.5225L37.6063 38.1316C37.4109 38.0225 37.2155 37.9311 37.0226 37.8423C36.5835 37.6418 36.1673 37.4514 35.8272 37.0428C35.3018 36.4134 34.6926 36.2382 34.246 36.1088C34.0886 36.0631 33.9515 36.0225 33.85 35.9717C33.6394 35.8652 33.5607 35.7053 33.5048 35.5885C33.4617 35.4997 33.4084 35.3905 33.2942 35.4311C33.2612 35.4438 33.2028 35.4768 33.1876 35.5809C33.1571 35.7738 33.2993 36.1113 33.6774 36.3931C33.8526 36.5225 34.0201 36.5834 34.1977 36.6469C34.5302 36.7687 34.9084 36.9058 35.4668 37.5631C35.9058 38.0783 36.2942 38.2763 36.6698 38.4666C36.8855 38.5758 37.0936 38.6824 37.3043 38.8448L32.5556 37.0834C32.449 37.0403 32.3145 37.0453 32.2663 37.1596C32.2485 37.2002 32.2485 37.2433 32.2663 37.2839C32.3018 37.3702 32.4059 37.4134 32.4135 37.4184L36.8881 39.4717C36.6673 39.4438 36.4515 39.4362 36.2383 39.4286C35.7561 39.4108 35.2992 39.393 34.8272 39.1468C34.1013 38.7661 33.4693 38.8372 33.0099 38.8905C32.845 38.9083 32.7054 38.926 32.5911 38.9159C32.3576 38.8981 32.2231 38.7788 32.1241 38.6951C32.0505 38.6291 31.9592 38.5504 31.8678 38.6291C31.8424 38.6519 31.8018 38.7078 31.8247 38.8093C31.8703 38.9996 32.1292 39.2585 32.5886 39.3727C32.7993 39.426 32.9769 39.4184 33.1647 39.4108C33.5201 39.3956 33.9211 39.3778 34.6876 39.7712C35.2891 40.0808 35.7256 40.1138 36.1444 40.1443C36.3855 40.1621 36.619 40.1798 36.8754 40.2509L31.8145 40.4412C31.7003 40.4412 31.5785 40.4971 31.5759 40.624C31.5759 40.6671 31.5912 40.7077 31.6216 40.7382C31.6876 40.8042 31.7993 40.8067 31.8094 40.8067L36.7282 40.992C36.5124 41.0504 36.3094 41.1265 36.1114 41.2001C35.6571 41.3676 35.2307 41.5275 34.7003 41.4793C33.883 41.4057 33.3297 41.7128 32.9236 41.9362C32.779 42.0148 32.6546 42.0859 32.548 42.1189C32.3247 42.1925 32.1546 42.1341 32.0328 42.0935C31.9389 42.0605 31.8247 42.0225 31.7714 42.1316C31.7561 42.1646 31.7384 42.228 31.8018 42.3143C31.9186 42.4717 32.2561 42.6113 32.7231 42.5428C32.9363 42.5123 33.0988 42.4362 33.2713 42.3549C33.5937 42.2052 33.9566 42.0351 34.8145 42.1037C35.4896 42.157 35.9033 42.0225 36.3043 41.8905C36.5353 41.8143 36.7561 41.7433 37.02 41.7103L32.416 43.8245C32.3094 43.8676 32.2181 43.9666 32.2663 44.0833C32.2942 44.1493 32.3526 44.1849 32.4312 44.1849C32.4363 44.1849 32.4439 44.1849 32.449 44.1849C32.5023 44.1823 32.5505 44.162 32.5505 44.162L37.1647 42.4514C36.9896 42.5884 36.8297 42.7356 36.6749 42.8803C36.3195 43.2103 35.9871 43.5199 35.4794 43.6798C34.6977 43.9234 34.3018 44.4209 34.0125 44.7813C33.9084 44.9107 33.8196 45.0224 33.7358 45.096C33.5581 45.2483 33.3779 45.261 33.2485 45.2686C33.1495 45.2737 33.0277 45.2838 33.0201 45.4031C33.0201 45.4387 33.0277 45.5047 33.1165 45.5605C33.284 45.662 33.6495 45.662 34.0531 45.4184C34.2383 45.3067 34.3602 45.1747 34.4871 45.0351C34.7256 44.7737 34.9972 44.4767 35.817 44.2128C36.4617 44.0047 36.7916 43.7204 37.1114 43.4463C37.2941 43.2889 37.4718 43.1367 37.7028 43.0047L34.2586 46.7178C34.1774 46.7991 34.1317 46.926 34.2206 47.0148C34.251 47.0478 34.2916 47.063 34.3348 47.063C34.3652 47.063 34.3982 47.0554 34.4312 47.0376C34.4795 47.0148 34.515 46.9767 34.515 46.9767L38.1241 43.629C38.015 43.8245 37.9236 44.0199 37.8348 44.2128C37.6342 44.6519 37.4439 45.0681 37.0353 45.4082C36.4058 45.9336 36.2307 46.5427 36.1013 46.9894C36.0556 47.1493 36.015 47.2838 35.9642 47.3853C35.8576 47.596 35.6977 47.6747 35.581 47.7331C35.4921 47.7762 35.383 47.8295 35.4236 47.9437C35.4363 47.9767 35.4693 48.0351 35.5734 48.0503C35.7662 48.0808 36.1038 47.9386 36.3855 47.5605C36.515 47.3879 36.5759 47.2178 36.6393 47.0402C36.7612 46.7077 36.8982 46.3295 37.5556 45.7711C38.0708 45.3321 38.2688 44.9437 38.4591 44.5681C38.5682 44.3524 38.6748 44.1443 38.8373 43.9336L37.0759 48.6823C37.0327 48.7889 37.0378 48.9234 37.152 48.9716C37.1723 48.9792 37.1952 48.9843 37.2155 48.9843C37.2358 48.9843 37.2561 48.9792 37.2764 48.9716C37.3627 48.9361 37.4058 48.832 37.4109 48.8244L39.4642 44.3498C39.4363 44.5707 39.4286 44.7864 39.421 44.9996C39.4033 45.4818 39.3855 45.9387 39.1393 46.4107C38.7586 47.1366 38.8297 47.7686 38.883 48.228C38.9007 48.393 38.9185 48.5325 38.9083 48.6468C38.8906 48.8803 38.7713 49.0148 38.6875 49.1138C38.6215 49.1874 38.5429 49.2787 38.6215 49.3701C38.6444 49.3955 38.7002 49.4361 38.8017 49.4107C38.9921 49.365 39.251 49.1061 39.3652 48.6468C39.4185 48.4361 39.4109 48.2584 39.4033 48.0706C39.388 47.7153 39.3703 47.3143 39.7637 46.5478C40.0733 45.9463 40.1063 45.5097 40.1368 45.091C40.1545 44.8498 40.1723 44.6163 40.2434 44.36L40.4337 49.4209C40.4337 49.5351 40.4896 49.6594 40.6165 49.6594C40.6926 49.6594 40.7535 49.6112 40.7814 49.5275C40.7992 49.4767 40.7992 49.4285 40.7992 49.4234L40.9845 44.5047C41.0454 44.7204 41.119 44.9234 41.1926 45.1214C41.3601 45.5757 41.52 46.0021 41.4718 46.5326C41.3982 47.3498 41.7053 47.9031 41.9286 48.3092C42.0073 48.4539 42.0784 48.5782 42.1114 48.6848C42.185 48.9082 42.1266 49.0782 42.086 49.2001C42.053 49.294 42.0149 49.4082 42.1241 49.4615C42.1393 49.4691 42.1596 49.4767 42.1875 49.4767C42.2205 49.4767 42.2611 49.4665 42.3068 49.4335C42.4642 49.3168 42.6037 48.9792 42.5352 48.5122C42.5048 48.299 42.4286 48.1366 42.3474 47.964C42.1977 47.6417 42.0276 47.2788 42.0961 46.4209C42.1494 45.7458 42.0149 45.3321 41.8829 44.9311C41.8068 44.7001 41.7357 44.4793 41.7027 44.2153L43.8169 48.8193C43.8169 48.8193 43.8372 48.8701 43.8728 48.9107C43.9311 48.9767 44.0047 48.9995 44.0758 48.9691C44.1164 48.9513 44.1469 48.9209 44.1646 48.8828C44.2002 48.7965 44.1596 48.6924 44.1545 48.6823L42.4438 44.0681C42.5809 44.2432 42.7281 44.4031 42.8728 44.558C43.2027 44.9133 43.5124 45.2458 43.6723 45.7534C43.9159 46.5351 44.4134 46.931 44.7738 47.2204C44.9032 47.3244 45.0149 47.4133 45.0885 47.497C45.2408 47.6747 45.2535 47.8549 45.2611 47.9843C45.2662 48.0833 45.2763 48.2051 45.3956 48.2128H45.4032C45.4387 48.2128 45.5022 48.1975 45.553 48.1163C45.6545 47.9488 45.6545 47.5833 45.4108 47.1798C45.2992 46.9945 45.1672 46.8727 45.0276 46.7458C44.7662 46.5072 44.4692 46.2356 44.2053 45.4158C43.9971 44.7712 43.7129 44.4412 43.4388 44.1214C43.2814 43.9387 43.1291 43.761 42.9997 43.5301L46.7128 46.9742C46.7941 47.0554 46.921 47.1011 47.0098 47.0123C47.0631 46.959 47.0732 46.8828 47.0326 46.8016C47.0098 46.7534 46.9717 46.7178 46.9717 46.7178L43.624 43.1087C43.8195 43.2179 44.0149 43.3092 44.2078 43.3981C44.6469 43.5986 45.0631 43.7889 45.4032 44.1976C45.9286 44.827 46.5377 45.0021 46.9819 45.1316C47.1418 45.1772 47.2763 45.2179 47.3778 45.2686C47.5885 45.3752 47.6672 45.5351 47.7255 45.6519C47.7636 45.728 47.8067 45.8194 47.8905 45.8194C47.9057 45.8194 47.9209 45.8168 47.9362 45.8118C47.9692 45.7991 48.0276 45.7661 48.0428 45.662C48.0732 45.4691 47.9311 45.1316 47.5529 44.8498C47.3803 44.7204 47.2103 44.6595 47.0326 44.596C46.7002 44.4742 46.322 44.3371 45.7636 43.6798C45.3245 43.1646 44.9362 42.9666 44.5606 42.7763C44.3448 42.6671 44.1367 42.5605 43.9261 42.3981L48.6748 44.1595C48.7813 44.2026 48.9159 44.1976 48.9641 44.0833C48.9819 44.0427 48.9819 43.9996 48.9641 43.959C48.9286 43.8727 48.8245 43.8295 48.8169 43.8245L44.3423 41.7712C44.5631 41.7991 44.7788 41.8067 44.992 41.8143C45.4743 41.8321 45.9311 41.8499 46.4032 42.0961C47.1291 42.4768 47.7611 42.4057 48.2204 42.3549C48.3854 42.3372 48.525 42.3194 48.6392 42.3296C48.8753 42.3473 49.0072 42.4641 49.1062 42.5504C49.157 42.5961 49.2179 42.6494 49.2813 42.6494C49.3093 42.6494 49.3346 42.6392 49.3626 42.6164C49.3879 42.5935 49.4286 42.5377 49.4032 42.4362C49.3575 42.2458 49.0986 41.9869 48.6392 41.8727C48.4286 41.8194 48.2509 41.827 48.0631 41.8346C47.7078 41.8499 47.3067 41.8676 46.5403 41.4742C45.9387 41.1646 45.5022 41.1316 45.0834 41.1011C44.8423 41.0834 44.6088 41.0656 44.3525 40.9945L49.4133 40.8042C49.5275 40.8042 49.6494 40.7484 49.6494 40.6214C49.6494 40.5453 49.6011 40.4844 49.5174 40.4565L49.5199 40.4438Z" fill="#EDB840"/>
<path opacity="0.2" d="M68.5272 12.6902H12.6902C8.48465 12.6902 5.07605 16.0988 5.07605 20.3044V22.8424C5.07605 18.6369 8.48465 15.2283 12.6902 15.2283H68.5272C72.7328 15.2283 76.1414 18.6369 76.1414 22.8424V20.3044C76.1414 16.0988 72.7328 12.6902 68.5272 12.6902Z" fill="white"/>
</svg>
