<svg width="82" height="82" viewBox="0 0 82 82" fill="none" xmlns="http://www.w3.org/2000/svg">
<path d="M2.53821 27.9185H78.6796V53.299H2.53821V27.9185Z" fill="#DD4446"/>
<path d="M12.6904 10.1522H68.5274C74.1314 10.1522 78.6796 14.7004 78.6796 20.3044V30.4566H2.53821V20.3044C2.53821 14.7004 7.08639 10.1522 12.6904 10.1522Z" fill="#52B4DE"/>
<path d="M68.5273 71.0653L12.6902 71.0653C7.0862 71.0653 2.53802 66.5171 2.53802 60.9131V50.7609L78.6794 50.7609V60.9131C78.6794 66.5171 74.1313 71.0653 68.5273 71.0653Z" fill="#649E3F"/>
<path opacity="0.15" d="M68.5274 10.1522H12.6904C7.08385 10.1522 2.53821 14.6978 2.53821 20.3044V60.9131C2.53821 66.5197 7.08385 71.0653 12.6904 71.0653H68.5274C74.134 71.0653 78.6796 66.5197 78.6796 60.9131V20.3044C78.6796 14.6978 74.134 10.1522 68.5274 10.1522ZM76.1416 60.9131C76.1416 65.1111 72.7254 68.5273 68.5274 68.5273H12.6904C8.49247 68.5273 5.07626 65.1111 5.07626 60.9131V20.3044C5.07626 16.1064 8.49247 12.6902 12.6904 12.6902H68.5274C72.7254 12.6902 76.1416 16.1064 76.1416 20.3044V60.9131Z" fill="black"/>
<path d="M39.576 48.365C35.2917 48.365 31.8197 44.893 31.8197 40.6088C31.8197 36.3245 35.2917 32.8525 39.576 32.8525C41.6622 32.8525 43.5556 33.6773 44.949 35.0174C43.2511 32.7611 40.5506 31.2992 37.5075 31.2992C32.3679 31.2992 28.2004 35.4667 28.2004 40.6062C28.2004 45.7458 32.3679 49.9132 37.5075 49.9132C40.5506 49.9132 43.2511 48.4539 44.949 46.195C43.5556 47.5351 41.6622 48.36 39.576 48.36V48.365Z" fill="white"/>
<path d="M47.8475 35.4387L48.8373 38.2204L51.5048 36.954L50.2383 39.6214L53.02 40.6113L50.2383 41.6011L51.5048 44.2686L48.8373 43.0021L47.8475 45.7838L46.8576 43.0021L44.1901 44.2686L45.4566 41.6011L42.6749 40.6113L45.4566 39.6214L44.1901 36.954L46.8576 38.2204L47.8475 35.4387Z" fill="white"/>
<path opacity="0.2" d="M68.5274 12.6902H12.6903C8.48477 12.6902 5.07617 16.0988 5.07617 20.3044V22.8424C5.07617 18.6369 8.48477 15.2283 12.6903 15.2283H68.5274C72.7329 15.2283 76.1415 18.6369 76.1415 22.8424V20.3044C76.1415 16.0988 72.7329 12.6902 68.5274 12.6902Z" fill="white"/>
</svg>
