<svg width="82" height="82" viewBox="0 0 82 82" fill="none" xmlns="http://www.w3.org/2000/svg">
<path d="M68.5273 10.1522H12.6903C7.08338 10.1522 2.53809 14.6975 2.53809 20.3043V60.9131C2.53809 66.52 7.08338 71.0653 12.6903 71.0653H68.5273C74.1342 71.0653 78.6795 66.52 78.6795 60.9131V20.3043C78.6795 14.6975 74.1342 10.1522 68.5273 10.1522Z" fill="#091C91"/>
<path d="M68.5273 10.1522H12.6903C7.08338 10.1522 2.53809 14.6975 2.53809 20.3043V60.9131C2.53809 66.52 7.08338 71.0653 12.6903 71.0653H68.5273C74.1342 71.0653 78.6795 66.52 78.6795 60.9131V20.3043C78.6795 14.6975 74.1342 10.1522 68.5273 10.1522Z" fill="#091C91"/>
<path d="M60.9132 71.0653L20.3044 10.1522H60.9132V71.0653Z" fill="#F6CE46"/>
<path d="M12.6904 10.1522C11.3148 10.1522 10.0051 10.4313 8.80973 10.9288L9.93155 11.7435L8.59399 15.8628L12.099 13.3171L15.6041 15.8628L14.2665 11.7435L16.4543 10.1522H12.6904Z" fill="white"/>
<path d="M22.1141 23.7992L25.6191 21.251H21.2867L19.9466 17.1318L18.6091 21.251H14.2766L17.7817 23.7992L16.4416 27.9185L19.9466 25.3728L23.4517 27.9185L22.1141 23.7992Z" fill="white"/>
<path d="M29.9668 35.8549L33.4693 33.3068H29.1394L27.7993 29.1875L26.4617 33.3068H22.1293L25.6343 35.8549L24.2942 39.9742L27.7993 37.4285L31.3043 39.9742L29.9668 35.8549Z" fill="white"/>
<path d="M37.817 47.9107L41.3221 45.3625H36.9896L35.6521 41.2432L34.312 45.3625H29.9821L33.4846 47.9107L32.147 52.0299L35.6521 49.4843L39.1571 52.0299L37.817 47.9107Z" fill="white"/>
<path d="M45.6698 59.9664L49.1748 57.4182H44.8424L43.5048 53.299L42.1647 57.4182H37.8323L41.3373 59.9664L39.9998 64.0857L43.5048 61.54L47.0099 64.0857L45.6698 59.9664Z" fill="white"/>
<path d="M54.8373 71.0653L57.0276 69.4739H52.6951L51.3551 65.3547L50.0175 69.4739H45.6851L47.8729 71.0653H54.8373Z" fill="white"/>
<path opacity="0.15" d="M68.5273 10.1522H12.6903C7.08373 10.1522 2.53809 14.6978 2.53809 20.3043V60.9131C2.53809 66.5197 7.08373 71.0653 12.6903 71.0653H68.5273C74.1339 71.0653 78.6795 66.5197 78.6795 60.9131V20.3043C78.6795 14.6978 74.1339 10.1522 68.5273 10.1522ZM76.1415 60.9131C76.1415 65.111 72.7253 68.5272 68.5273 68.5272H12.6903C8.49234 68.5272 5.07613 65.111 5.07613 60.9131V20.3043C5.07613 16.1064 8.49234 12.6902 12.6903 12.6902H68.5273C72.7253 12.6902 76.1415 16.1064 76.1415 20.3043V60.9131Z" fill="black"/>
<path opacity="0.2" d="M68.5272 12.6902H12.6902C8.48465 12.6902 5.07605 16.0988 5.07605 20.3044V22.8424C5.07605 18.6369 8.48465 15.2283 12.6902 15.2283H68.5272C72.7328 15.2283 76.1414 18.6369 76.1414 22.8424V20.3044C76.1414 16.0988 72.7328 12.6902 68.5272 12.6902Z" fill="white"/>
</svg>
