<svg width="82" height="82" viewBox="0 0 82 82" fill="none" xmlns="http://www.w3.org/2000/svg">
<path d="M25.3806 10.1522H55.8372V71.0653H25.3806V10.1522Z" fill="#F7CB4D"/>
<path d="M12.6905 10.1522H27.9188V71.0653H12.6905C7.08651 71.0653 2.53833 66.5171 2.53833 60.9131V20.3044C2.53833 14.7004 7.08651 10.1522 12.6905 10.1522Z" fill="#09207B"/>
<path d="M68.5275 71.0653H53.2992L53.2992 10.1522H68.5275C74.1315 10.1522 78.6797 14.7004 78.6797 20.3044V60.9131C78.6797 66.5171 74.1315 71.0653 68.5275 71.0653Z" fill="#09207B"/>
<path opacity="0.15" d="M68.5276 10.1522H12.6905C7.08397 10.1522 2.53833 14.6978 2.53833 20.3044V60.9131C2.53833 66.5197 7.08397 71.0653 12.6905 71.0653H68.5276C74.1341 71.0653 78.6797 66.5197 78.6797 60.9131V20.3044C78.6797 14.6978 74.1341 10.1522 68.5276 10.1522ZM76.1417 60.9131C76.1417 65.1111 72.7255 68.5273 68.5276 68.5273H12.6905C8.49259 68.5273 5.07638 65.1111 5.07638 60.9131V20.3044C5.07638 16.1064 8.49259 12.6902 12.6905 12.6902H68.5276C72.7255 12.6902 76.1417 16.1064 76.1417 20.3044V60.9131Z" fill="black"/>
<path d="M51.586 31.5987C49.5125 31.921 47.378 33.0098 45.916 34.5225C45.746 34.7306 46.8196 34.2941 46.916 34.2814C47.7181 34.0403 46.6775 35.4083 46.6191 35.7687C45.7968 38.393 45.0836 40.9285 44.8196 43.9488C44.8196 44.1569 44.7866 44.3118 44.6902 44.3194L41.9465 43.9107V34.19C42.5912 34.1748 43.5963 34.3423 44.1699 34.5327C42.3222 32.69 41.4567 30.284 40.609 27.9743C39.7613 30.2865 38.8983 32.6926 37.0481 34.5327C37.6217 34.3448 38.6268 34.1748 39.2714 34.19V43.9107L36.5278 44.3194C36.4288 44.3092 36.3984 44.1569 36.3984 43.9488C36.1344 40.9311 35.4212 38.393 34.5989 35.7687C34.5405 35.4108 33.4999 34.0403 34.3019 34.2814C34.4009 34.2941 35.472 34.7306 35.3019 34.5225C33.8425 33.0098 31.7055 31.921 29.6319 31.5987C29.4492 31.553 29.3426 31.6444 29.505 31.855C32.2563 36.0885 34.5583 41.0859 34.538 47.0173C35.6065 47.0173 38.1978 46.3853 39.2714 46.3853V53.2432H41.944V46.3853C43.0176 46.3853 45.6089 47.0173 46.6775 47.0173C46.6572 41.0884 48.9592 36.091 51.7104 31.855C51.8728 31.6444 51.7662 31.553 51.5835 31.5987H51.586Z" fill="black"/>
<path opacity="0.2" d="M68.5276 12.6902H12.6906C8.48501 12.6902 5.07642 16.0988 5.07642 20.3044V22.8424C5.07642 18.6369 8.48501 15.2283 12.6906 15.2283H68.5276C72.7331 15.2283 76.1417 18.6369 76.1417 22.8424V20.3044C76.1417 16.0988 72.7331 12.6902 68.5276 12.6902Z" fill="white"/>
</svg>
