<svg width="82" height="82" viewBox="0 0 82 82" fill="none" xmlns="http://www.w3.org/2000/svg">
<path d="M25.3805 10.1522H55.8371V71.0653H25.3805V10.1522Z" fill="#F8DC51"/>
<path d="M12.6903 10.1522H27.9186V71.0653H12.6903C7.08627 71.0653 2.53809 66.5171 2.53809 60.9131V20.3043C2.53809 14.7003 7.08627 10.1522 12.6903 10.1522Z" fill="black"/>
<path d="M68.5273 71.0653H53.299L53.299 10.1522H68.5273C74.1313 10.1522 78.6795 14.7004 78.6795 20.3044V60.9131C78.6795 66.5171 74.1313 71.0653 68.5273 71.0653Z" fill="#DD4446"/>
<path opacity="0.15" d="M68.5273 10.1522H12.6903C7.08373 10.1522 2.53809 14.6978 2.53809 20.3043V60.9131C2.53809 66.5197 7.08373 71.0653 12.6903 71.0653H68.5273C74.1339 71.0653 78.6795 66.5197 78.6795 60.9131V20.3043C78.6795 14.6978 74.1339 10.1522 68.5273 10.1522ZM76.1415 60.9131C76.1415 65.111 72.7253 68.5272 68.5273 68.5272H12.6903C8.49234 68.5272 5.07613 65.111 5.07613 60.9131V20.3043C5.07613 16.1064 8.49234 12.6902 12.6903 12.6902H68.5273C72.7253 12.6902 76.1415 16.1064 76.1415 20.3043V60.9131Z" fill="black"/>
<path opacity="0.2" d="M68.5273 12.6902H12.6903C8.48471 12.6902 5.07611 16.0988 5.07611 20.3044V22.8424C5.07611 18.6369 8.48471 15.2283 12.6903 15.2283H68.5273C72.7328 15.2283 76.1414 18.6369 76.1414 22.8424V20.3044C76.1414 16.0988 72.7328 12.6902 68.5273 12.6902Z" fill="white"/>
</svg>
