<svg width="82" height="82" viewBox="0 0 82 82" fill="none" xmlns="http://www.w3.org/2000/svg">
<path d="M2.53796 60.9131C2.53796 66.5197 7.08361 71.0653 12.6902 71.0653H68.5272C74.1337 71.0653 78.6794 66.5197 78.6794 60.9131V38.0707H2.53796V60.9131Z" fill="#479D52"/>
<path d="M68.5272 10.1522H12.6902C7.08361 10.1522 2.53796 14.6978 2.53796 20.3044V40.6088H78.6794V20.3044C78.6794 14.6978 74.1337 10.1522 68.5272 10.1522Z" fill="#DC3E36"/>
<path opacity="0.15" d="M68.5272 10.1522H12.6902C7.08361 10.1522 2.53796 14.6978 2.53796 20.3044V60.9131C2.53796 66.5197 7.08361 71.0653 12.6902 71.0653H68.5272C74.1337 71.0653 78.6794 66.5197 78.6794 60.9131V20.3044C78.6794 14.6978 74.1337 10.1522 68.5272 10.1522ZM76.1413 60.9131C76.1413 65.1111 72.7251 68.5273 68.5272 68.5273H12.6902C8.49222 68.5273 5.07601 65.1111 5.07601 60.9131V20.3044C5.07601 16.1065 8.49222 12.6902 12.6902 12.6902H68.5272C72.7251 12.6902 76.1413 16.1065 76.1413 20.3044V60.9131Z" fill="black"/>
<path d="M45.0325 41.5326L52.1873 36.3322H43.3422L40.6087 27.9185L37.8752 36.3322H29.0276L36.1849 41.5326L33.4514 49.9437L40.6087 44.7458L47.766 49.9437L45.0325 41.5326Z" fill="#FCD116"/>
<path opacity="0.2" d="M68.5272 12.6902H12.6902C8.48465 12.6902 5.07605 16.0988 5.07605 20.3044V22.8424C5.07605 18.6369 8.48465 15.2283 12.6902 15.2283H68.5272C72.7328 15.2283 76.1414 18.6369 76.1414 22.8424V20.3044C76.1414 16.0988 72.7328 12.6902 68.5272 12.6902Z" fill="white"/>
</svg>
