<svg width="82" height="82" viewBox="0 0 82 82" fill="none" xmlns="http://www.w3.org/2000/svg">
<path d="M68.5273 10.1522H22.8424V71.0653H68.5273C74.1338 71.0653 78.6794 66.5197 78.6794 60.9131V20.3044C78.6794 14.6978 74.1338 10.1522 68.5273 10.1522Z" fill="#EA3323"/>
<path d="M25.3804 58.8827L40.6087 52.7914L25.3804 46.7001L40.6087 40.6087L25.3804 34.5174L40.6087 28.4261L25.3804 22.3348L40.6087 16.2435L25.3804 10.1522H12.6902C7.08361 10.1522 2.53796 14.6978 2.53796 20.3044V60.9131C2.53796 66.5197 7.08361 71.0653 12.6902 71.0653H25.3804L40.6087 64.974L25.3804 58.8827Z" fill="white"/>
<path opacity="0.15" d="M68.5272 10.1522H12.6902C7.08361 10.1522 2.53796 14.6978 2.53796 20.3044V60.9131C2.53796 66.5197 7.08361 71.0653 12.6902 71.0653H68.5272C74.1337 71.0653 78.6794 66.5197 78.6794 60.9131V20.3044C78.6794 14.6978 74.1337 10.1522 68.5272 10.1522ZM76.1413 60.9131C76.1413 65.1111 72.7251 68.5273 68.5272 68.5273H12.6902C8.49222 68.5273 5.07601 65.1111 5.07601 60.9131V20.3044C5.07601 16.1064 8.49222 12.6902 12.6902 12.6902H68.5272C72.7251 12.6902 76.1413 16.1064 76.1413 20.3044V60.9131Z" fill="black"/>
<path opacity="0.2" d="M68.5272 12.6902H12.6902C8.48465 12.6902 5.07605 16.0988 5.07605 20.3044V22.8424C5.07605 18.6369 8.48465 15.2283 12.6902 15.2283H68.5272C72.7328 15.2283 76.1414 18.6369 76.1414 22.8424V20.3044C76.1414 16.0988 72.7328 12.6902 68.5272 12.6902Z" fill="white"/>
</svg>
