<svg width="82" height="82" viewBox="0 0 82 82" fill="none" xmlns="http://www.w3.org/2000/svg">
<path d="M68.5274 10.1522H12.6904C7.0835 10.1522 2.53821 14.6975 2.53821 20.3044V60.9131C2.53821 66.52 7.0835 71.0653 12.6904 71.0653H68.5274C74.1343 71.0653 78.6796 66.52 78.6796 60.9131V20.3044C78.6796 14.6975 74.1343 10.1522 68.5274 10.1522Z" fill="#62AF3F"/>
<path d="M40.6088 40.6088L75.3395 12.8248C73.5349 11.1801 71.1593 10.1522 68.5273 10.1522H12.6903C10.0583 10.1522 7.68019 11.1801 5.87817 12.8248L40.6088 40.6088Z" fill="#B92932"/>
<path d="M40.6088 40.6088L5.87817 68.3928C7.68273 70.0374 10.0583 71.0653 12.6903 71.0653H68.5273C71.1593 71.0653 73.5374 70.0374 75.3395 68.3928L40.6088 40.6088Z" fill="#B92932"/>
<path d="M71.837 10.7512L49.7306 28.4363C47.1875 26.5277 44.0352 25.3805 40.6089 25.3805C37.1825 25.3805 34.0328 26.5252 31.4871 28.4363L9.38074 10.7512C6.83508 11.6344 4.76403 13.4796 3.59399 15.8755L26.7232 34.3779C25.8679 36.2814 25.3806 38.388 25.3806 40.6088C25.3806 42.8296 25.8679 44.9361 26.7232 46.8397L3.59653 65.3421C4.76657 67.738 6.83762 69.5831 9.38328 70.4664L31.4897 52.7813C34.0328 54.6899 37.185 55.8371 40.6114 55.8371C44.0378 55.8371 47.1875 54.6924 49.7332 52.7813L71.8395 70.4664C74.3852 69.5831 76.4562 67.738 77.6263 65.3421L54.4971 46.8397C55.3524 44.9361 55.8397 42.8296 55.8397 40.6088C55.8397 38.388 55.3524 36.2814 54.4971 34.3779L77.6263 15.8755C76.4562 13.4796 74.3827 11.6344 71.837 10.7512Z" fill="white"/>
<path d="M41.8194 31.2814L40.6088 29.1876L39.3981 31.2814H36.9794L38.19 33.3779L36.9794 35.4718H39.3981L40.6088 37.5682L41.8194 35.4718H44.2382L43.0275 33.3779L44.2382 31.2814H41.8194Z" fill="#B92932"/>
<path d="M49.5656 44.9057L50.7737 42.8118L48.355 42.8093L47.1443 40.7154L45.9362 42.8093H43.5175L44.7256 44.9057L43.5175 46.9996L45.9362 47.0021L47.1443 49.096L48.355 47.0021L50.7737 46.9996L49.5656 44.9057Z" fill="#B92932"/>
<path d="M35.2815 42.8093L34.0734 40.7154L32.8627 42.8093L30.444 42.8118L31.6521 44.9057L30.444 46.9996L32.8627 47.0021L34.0734 49.096L35.2815 47.0021L37.7002 46.9996L36.4921 44.9057L37.7002 42.8093H35.2815Z" fill="#B92932"/>
<path opacity="0.15" d="M68.5274 10.1522H12.6904C7.08385 10.1522 2.53821 14.6978 2.53821 20.3044V60.9131C2.53821 66.5197 7.08385 71.0653 12.6904 71.0653H68.5274C74.134 71.0653 78.6796 66.5197 78.6796 60.9131V20.3044C78.6796 14.6978 74.134 10.1522 68.5274 10.1522ZM76.1416 60.9131C76.1416 65.1111 72.7254 68.5273 68.5274 68.5273H12.6904C8.49247 68.5273 5.07626 65.1111 5.07626 60.9131V20.3044C5.07626 16.1065 8.49247 12.6902 12.6904 12.6902H68.5274C72.7254 12.6902 76.1416 16.1065 76.1416 20.3044V60.9131Z" fill="black"/>
<path opacity="0.2" d="M68.5274 12.6902H12.6903C8.48477 12.6902 5.07617 16.0988 5.07617 20.3044V22.8424C5.07617 18.6369 8.48477 15.2283 12.6903 15.2283H68.5274C72.7329 15.2283 76.1415 18.6369 76.1415 22.8424V20.3044C76.1415 16.0988 72.7329 12.6902 68.5274 12.6902Z" fill="white"/>
</svg>
