<svg width="82" height="82" viewBox="0 0 82 82" fill="none" xmlns="http://www.w3.org/2000/svg">
<path d="M68.5273 10.1522H12.6903C7.08338 10.1522 2.53809 14.6975 2.53809 20.3044V60.9131C2.53809 66.52 7.08338 71.0653 12.6903 71.0653H68.5273C74.1342 71.0653 78.6795 66.52 78.6795 60.9131V20.3044C78.6795 14.6975 74.1342 10.1522 68.5273 10.1522Z" fill="#F4E24E"/>
<path d="M78.6795 48.2229L2.53809 32.9946V20.3044L78.6795 35.5326V48.2229Z" fill="white"/>
<path d="M78.6795 60.9131L2.53809 45.6848V32.9946L78.6795 48.2229V60.9131Z" fill="black"/>
<path d="M38.5427 55.7355C36.9158 55.5198 35.426 55.0021 34.3879 54.2939C34.1874 54.1569 33.9971 54.0427 33.9692 54.0427C33.9387 54.0427 33.9133 54.195 33.9133 54.3853C33.9133 54.9208 33.6976 55.1899 33.157 55.3295C32.6392 55.464 31.8499 55.1924 31.2103 54.662C30.5479 54.1112 29.7814 53.6924 29.1342 53.5224C28.6012 53.3828 27.8931 53.4056 27.3804 53.5782C27.1418 53.6569 26.8728 53.7711 26.7789 53.8295C26.685 53.8878 26.5809 53.9335 26.5479 53.9335C26.4565 53.9335 26.4692 53.3574 26.5657 53.1747C26.69 52.9335 26.9997 52.695 27.3575 52.5655C27.5403 52.4995 27.6875 52.4132 27.6875 52.3777C27.6875 52.3422 27.6266 52.2 27.5504 52.0706C27.3068 51.6442 27.4058 51.2305 27.8322 50.9056C28.2662 50.5732 29.0047 50.5148 29.6545 50.7635C29.8195 50.8244 29.9717 50.8777 29.9946 50.8777C30.0809 50.8777 30.0276 50.7584 29.7915 50.4133C29.52 50.0148 29.4667 49.8194 29.4997 49.3447C29.5428 48.7458 30.0326 48.2534 30.6316 48.2102C31.1215 48.1747 31.4235 48.3397 32.1468 49.0275C34.3016 51.0833 36.6443 52.2153 39.3777 52.5224C40.0681 52.5985 41.4564 52.5579 42.2686 52.4361C44.7279 52.0655 47.2051 50.8295 49.1416 49.0072C49.6771 48.5021 49.936 48.3676 50.3751 48.3676C50.7583 48.3676 51.0248 48.4894 51.2989 48.7915C51.5477 49.0681 51.634 49.3321 51.6061 49.7534C51.5883 50.0224 51.5451 50.1569 51.3852 50.4183C51.1492 50.8041 51.1898 50.8397 51.6568 50.6569C52.2913 50.4107 53.0705 50.5249 53.4918 50.9234C53.8624 51.2762 53.8979 51.6264 53.6086 52.1036C53.5045 52.2787 53.4182 52.4412 53.4182 52.4691C53.4182 52.5173 53.4969 52.5401 53.8827 52.6011C54.3852 52.6823 54.6745 53.0554 54.6745 53.6264C54.6745 53.799 54.6542 53.9361 54.6263 53.9361C54.6009 53.9361 54.4106 53.8675 54.2025 53.7813C53.6162 53.5401 53.2837 53.4767 52.5959 53.4818C52.073 53.4843 51.8954 53.5097 51.5299 53.629C50.9741 53.8117 50.3776 54.162 49.8903 54.596C49.3548 55.0731 49.0172 55.2229 48.4969 55.2203C48.0122 55.2152 47.6822 55.0757 47.5071 54.799C47.4132 54.6518 47.4005 54.5604 47.4233 54.2279C47.4386 54.0097 47.436 53.832 47.4183 53.832C47.4005 53.832 47.2127 53.9513 46.9995 54.0985C46.4411 54.4818 46.0858 54.6721 45.4487 54.9234C43.5021 55.6949 40.6899 56.0274 38.5402 55.7432L38.5427 55.7355Z" fill="#BF2A2C"/>
<path d="M39.4337 51.9944C36.1926 51.6822 33.0911 49.9944 31.2053 47.3193C29.1571 44.5275 28.5125 40.8397 29.1368 37.4692C29.4693 35.9336 30.1393 34.3981 31.284 33.3068C30.3728 35.2382 30.0632 37.4539 30.5505 39.5478C31.3068 43.728 34.8373 47.266 39.0657 47.8777C40.7382 48.3625 42.4666 47.8498 44.0656 47.332C47.5884 46.0909 50.2737 42.7458 50.6011 39.0072C50.8803 36.9844 50.5706 34.8804 49.6595 33.0479C50.1798 33.322 50.8346 34.4007 51.2204 35.124C52.5655 37.728 52.6264 40.8498 51.8346 43.629C50.761 47.167 48.058 50.2635 44.4818 51.3903C42.86 51.9208 41.1342 52.0807 39.4362 51.9919L39.4337 51.9944Z" fill="#BF2A2C"/>
<path d="M20.6242 33.3195C21.0226 33.1342 22.6648 33.5809 22.8678 33.7433C23.0708 33.9057 23.4084 34.7052 23.4262 35.5758C23.7307 35.5758 23.9642 35.8473 24.3196 36.261C24.6749 36.6748 25.1876 37.4692 25.7155 37.624C26.2434 37.7788 26.6495 38.5351 26.6622 39.4869C26.6749 40.4387 26.7104 45.4336 26.7789 45.766C26.8475 46.0985 27.2358 47.162 27.3449 47.4716C27.454 47.7812 27.5099 47.8345 26.8754 48.2026C26.2409 48.5706 23.3526 48.5604 22.8373 47.8599C22.4617 47.3447 22.8145 47.1467 23.0429 46.9005C23.2713 46.6544 23.3526 46.063 23.4236 45.728C23.4947 45.3929 23.68 45.0579 23.7282 44.4412C23.7764 43.8244 23.6673 41.091 23.5683 40.3448C23.4693 39.5986 21.7764 38.9514 21.3754 38.0123C20.9744 37.0732 20.0912 33.5656 20.6216 33.3169L20.6242 33.3195Z" fill="#BF2A2C"/>
<path d="M60.5934 33.3195C60.1949 33.1342 58.5528 33.5809 58.3497 33.7433C58.1467 33.9057 57.8091 34.7052 57.7914 35.5758C57.4868 35.5758 57.2533 35.8473 56.898 36.261C56.5426 36.6748 56.0299 37.4692 55.502 37.624C54.9741 37.7788 54.568 38.5351 54.5553 39.4869C54.5427 40.4387 54.5071 45.4336 54.4386 45.766C54.3701 46.0985 53.9817 47.162 53.8726 47.4716C53.7635 47.7812 53.7076 47.8345 54.3421 48.2026C54.9767 48.5706 57.865 48.5604 58.3802 47.8599C58.7558 47.3447 58.403 47.1467 58.1746 46.9005C57.9462 46.6544 57.865 46.063 57.7939 45.728C57.7228 45.3929 57.5375 45.0579 57.4893 44.4412C57.4411 43.8244 57.5502 41.091 57.6492 40.3448C57.7482 39.5986 59.4411 38.9514 59.8421 38.0123C60.2431 37.0732 61.1263 33.5656 60.5959 33.3169L60.5934 33.3195Z" fill="#BF2A2C"/>
<path d="M47.3371 29.8398C46.0579 29.2358 44.9437 28.5073 43.7077 28.3449C42.5605 28.1926 41.5732 29.0378 41.1417 29.5251V27.4997L41.4057 26.8449L42.1214 27.6825L42.7432 26.9947L43.7432 27.6317C43.7432 27.6317 42.9514 26.482 42.9717 24.9896C42.9717 24.6546 42.1113 24.3779 41.0047 24.3424V23.0632L42.8346 23.8983L41.7991 22.515L43.2102 22.0582L41.0834 20.9363C41.2483 20.8729 41.3575 20.7714 41.3575 20.6521C41.3575 20.4617 41.0732 20.3069 40.7255 20.3069C40.3778 20.3069 40.0935 20.4617 40.0935 20.6521C40.0935 20.7917 40.2458 20.911 40.4641 20.9668V24.3475C39.3803 24.3906 38.5453 24.6622 38.5453 24.9947C38.5453 24.9947 38.2915 27.0175 37.7179 27.7535L38.6494 26.8881L39.2991 27.6596L40.0022 26.8754L40.3245 27.5023V29.4743C39.8702 28.982 38.9133 28.2002 37.8067 28.3474C36.5707 28.5099 35.4565 29.2383 34.1773 29.8424C32.8982 30.4464 31.5073 31.0276 30.2332 30.5276C30.388 32.1824 34.4438 33.8246 35.7052 34.2078C36.9667 34.591 38.525 33.8271 39.091 33.6367C39.657 33.4438 39.8803 33.9921 39.7128 34.454C39.5453 34.9134 39.7585 35.1824 40.0428 35.4616C40.1062 35.1367 40.2128 34.9692 40.3245 34.888V36.0301C40.1011 35.8372 39.6291 35.5022 39.091 35.5428C39.1798 35.8372 39.9793 35.9768 39.7763 37.1418C39.5732 38.3042 39.2052 39.6215 39.7636 40.6494C39.0885 40.3524 38.822 40.827 38.822 40.827C38.822 40.827 39.789 41.1747 39.5301 42.129C39.2712 43.0834 38.3677 45.0909 39.6418 46.4793C38.5428 45.9691 38.0606 46.3219 37.7103 45.8498C37.7154 47.0503 39.5047 47.8422 40.322 47.8422H41.1392C41.9565 47.8422 43.794 47.0478 43.8016 45.8498C43.4514 46.3244 42.9691 45.9716 41.8702 46.4793C43.1443 45.0909 42.2433 43.0859 41.9818 42.129C41.723 41.1747 42.6899 40.827 42.6899 40.827C42.6899 40.827 42.4235 40.3524 41.7483 40.6494C42.3067 39.6215 41.9387 38.3042 41.7356 37.1418C41.5326 35.9794 42.3321 35.8372 42.4209 35.5428C41.8397 35.4971 41.3372 35.8931 41.1392 36.0733V34.8575C41.2712 34.9235 41.3981 35.091 41.4692 35.4591C41.7509 35.1799 41.9666 34.9108 41.7991 34.4515C41.6316 33.9921 41.8549 33.4438 42.4209 33.6342C42.9869 33.8271 44.5427 34.591 45.8067 34.2053C47.0706 33.8195 51.1264 32.1799 51.2787 30.5251C50.0046 31.0251 48.6163 30.4439 47.3371 29.8398Z" fill="#BF2A2C"/>
<path opacity="0.15" d="M68.5273 10.1522H12.6903C7.08373 10.1522 2.53809 14.6978 2.53809 20.3044V60.9131C2.53809 66.5197 7.08373 71.0653 12.6903 71.0653H68.5273C74.1339 71.0653 78.6795 66.5197 78.6795 60.9131V20.3044C78.6795 14.6978 74.1339 10.1522 68.5273 10.1522ZM76.1415 60.9131C76.1415 65.1111 72.7253 68.5273 68.5273 68.5273H12.6903C8.49234 68.5273 5.07613 65.1111 5.07613 60.9131V20.3044C5.07613 16.1065 8.49234 12.6902 12.6903 12.6902H68.5273C72.7253 12.6902 76.1415 16.1065 76.1415 20.3044V60.9131Z" fill="black"/>
<path opacity="0.2" d="M68.5273 12.6902H12.6903C8.48471 12.6902 5.07611 16.0988 5.07611 20.3044V22.8424C5.07611 18.6369 8.48471 15.2283 12.6903 15.2283H68.5273C72.7328 15.2283 76.1414 18.6369 76.1414 22.8424V20.3044C76.1414 16.0988 72.7328 12.6902 68.5273 12.6902Z" fill="white"/>
</svg>
