<svg width="82" height="82" viewBox="0 0 82 82" fill="none" xmlns="http://www.w3.org/2000/svg">
<path d="M68.5273 10.1522H12.6903C7.08338 10.1522 2.53809 14.6975 2.53809 20.3043V60.9131C2.53809 66.52 7.08338 71.0653 12.6903 71.0653H68.5273C74.1342 71.0653 78.6795 66.52 78.6795 60.9131V20.3043C78.6795 14.6975 74.1342 10.1522 68.5273 10.1522Z" fill="#459A45"/>
<path opacity="0.15" d="M68.5273 10.1522H12.6903C7.08373 10.1522 2.53809 14.6978 2.53809 20.3043V60.9131C2.53809 66.5197 7.08373 71.0653 12.6903 71.0653H68.5273C74.1339 71.0653 78.6795 66.5197 78.6795 60.9131V20.3043C78.6795 14.6978 74.1339 10.1522 68.5273 10.1522ZM76.1415 60.9131C76.1415 65.111 72.7253 68.5272 68.5273 68.5272H12.6903C8.49234 68.5272 5.07613 65.111 5.07613 60.9131V20.3043C5.07613 16.1064 8.49234 12.6902 12.6903 12.6902H68.5273C72.7253 12.6902 76.1415 16.1064 76.1415 20.3043V60.9131Z" fill="black"/>
<path d="M8.81213 40.6087L40.6088 60.9131L72.4054 40.6087L40.6088 20.3044L8.81213 40.6087Z" fill="#FEDF00"/>
<path d="M40.6087 53.299C47.6173 53.299 53.2989 47.6173 53.2989 40.6087C53.2989 33.6001 47.6173 27.9185 40.6087 27.9185C33.6001 27.9185 27.9185 33.6001 27.9185 40.6087C27.9185 47.6173 33.6001 53.299 40.6087 53.299Z" fill="#0A2172"/>
<path d="M35.5326 36.8017C33.0022 36.8017 30.5631 37.1798 28.2408 37.8397C28.0428 38.7281 27.921 39.6418 27.9185 40.5884C30.3144 39.789 32.8702 39.3372 35.5301 39.3372C41.9361 39.3372 47.7533 41.8651 52.0756 45.9564C52.4614 45.129 52.7761 44.2661 52.9791 43.3524C48.299 39.2813 42.2051 36.7966 35.5301 36.7966L35.5326 36.8017Z" fill="white"/>
<path opacity="0.2" d="M68.5272 12.6902H12.6902C8.48465 12.6902 5.07605 16.0988 5.07605 20.3044V22.8424C5.07605 18.6369 8.48465 15.2283 12.6902 15.2283H68.5272C72.7328 15.2283 76.1414 18.6369 76.1414 22.8424V20.3044C76.1414 16.0988 72.7328 12.6902 68.5272 12.6902Z" fill="white"/>
</svg>
