<svg width="82" height="82" viewBox="0 0 82 82" fill="none" xmlns="http://www.w3.org/2000/svg">
<path d="M2.53809 27.9185H78.6795V53.299H2.53809V27.9185Z" fill="#F7CB4F"/>
<path d="M12.6903 10.1522H68.5273C74.1313 10.1522 78.6795 14.7004 78.6795 20.3044V30.4566H2.53809V20.3044C2.53809 14.7004 7.08627 10.1522 12.6903 10.1522Z" fill="#33768A"/>
<path d="M68.5274 71.0653L12.6903 71.0653C7.08633 71.0653 2.53815 66.5171 2.53815 60.9131V50.7609L78.6796 50.7609V60.9131C78.6796 66.5171 74.1314 71.0653 68.5274 71.0653Z" fill="#33768A"/>
<path d="M5.76394 68.3014L38.0707 40.6087L5.76394 12.9161C3.78934 14.7689 2.53809 17.3831 2.53809 20.3043V60.9131C2.53809 63.8344 3.78934 66.4486 5.76394 68.3014Z" fill="black"/>
<path opacity="0.15" d="M68.5273 10.1522H12.6903C7.08373 10.1522 2.53809 14.6978 2.53809 20.3044V60.9131C2.53809 66.5197 7.08373 71.0653 12.6903 71.0653H68.5273C74.1339 71.0653 78.6795 66.5197 78.6795 60.9131V20.3044C78.6795 14.6978 74.1339 10.1522 68.5273 10.1522ZM76.1415 60.9131C76.1415 65.1111 72.7253 68.5273 68.5273 68.5273H12.6903C8.49234 68.5273 5.07613 65.1111 5.07613 60.9131V20.3044C5.07613 16.1064 8.49234 12.6902 12.6903 12.6902H68.5273C72.7253 12.6902 76.1415 16.1064 76.1415 20.3044V60.9131Z" fill="black"/>
<path opacity="0.2" d="M68.5272 12.6902H12.6902C8.48465 12.6902 5.07605 16.0988 5.07605 20.3044V22.8424C5.07605 18.6369 8.48465 15.2283 12.6902 15.2283H68.5272C72.7328 15.2283 76.1414 18.6369 76.1414 22.8424V20.3044C76.1414 16.0988 72.7328 12.6902 68.5272 12.6902Z" fill="white"/>
</svg>
