<svg width="82" height="82" viewBox="0 0 82 82" fill="none" xmlns="http://www.w3.org/2000/svg">
<path d="M5.87816 68.3927L75.3394 12.8247C73.5349 11.1801 71.1593 10.1522 68.5273 10.1522H12.6903C7.08373 10.1522 2.53809 14.6978 2.53809 20.3043V60.9131C2.53809 63.8877 3.8401 66.5374 5.87816 68.3927Z" fill="#F8D047"/>
<path d="M75.3395 12.8247L5.87817 68.3927C7.68273 70.0374 10.0583 71.0653 12.6903 71.0653H68.5273C74.1339 71.0653 78.6795 66.5196 78.6795 60.9131V20.3043C78.6795 17.3297 77.3775 14.68 75.3395 12.8247Z" fill="#ED7135"/>
<path opacity="0.15" d="M68.5273 10.1522H12.6903C7.08373 10.1522 2.53809 14.6978 2.53809 20.3043V60.9131C2.53809 66.5197 7.08373 71.0653 12.6903 71.0653H68.5273C74.1339 71.0653 78.6795 66.5197 78.6795 60.9131V20.3043C78.6795 14.6978 74.1339 10.1522 68.5273 10.1522ZM76.1415 60.9131C76.1415 65.111 72.7253 68.5272 68.5273 68.5272H12.6903C8.49234 68.5272 5.07613 65.111 5.07613 60.9131V20.3043C5.07613 16.1064 8.49234 12.6902 12.6903 12.6902H68.5273C72.7253 12.6902 76.1415 16.1064 76.1415 20.3043V60.9131Z" fill="black"/>
<path opacity="0.2" d="M68.5272 12.6902H12.6902C8.48465 12.6902 5.07605 16.0988 5.07605 20.3044V22.8424C5.07605 18.6369 8.48465 15.2283 12.6902 15.2283H68.5272C72.7328 15.2283 76.1414 18.6369 76.1414 22.8424V20.3044C76.1414 16.0988 72.7328 12.6902 68.5272 12.6902Z" fill="white"/>
<path d="M68.7405 25.9008C66.8624 25.9388 65.6187 25.7206 63.6441 26.383C64.3878 25.2256 66.2862 25.416 66.7126 24.114C65.4563 24.883 64.1314 23.9008 63.1746 25.2891C63.6543 23.2586 64.7913 21.7282 65.1416 20.0277C63.337 21.6089 62.969 24.7256 61.2863 25.8627C59.6289 26.2434 58.3878 23.7992 56.9995 24.4972C53.9132 24.251 50.8067 20.8881 47.6671 21.6724C48.6671 21.5962 49.464 21.9186 50.0833 22.3399C49.5047 22.4439 48.7915 21.8323 48.4082 22.2587C49.2255 22.3094 49.959 22.6267 49.5706 23.4008C47.7128 22.0886 45.5504 22.2333 44.2357 23.3652C45.2027 22.8652 46.1062 23.2764 46.86 23.5937C46.294 24.0632 45.2813 23.5429 44.9565 24.1901C45.2661 24.0454 45.6646 24.0353 46.2712 24.152C46.1671 24.3754 46.1062 24.6774 46.1367 25.0911C43.4286 22.8576 39.52 26.916 43.0885 26.3576C40.4641 25.4134 44.7763 24.8195 47.3016 26.5403C46.4184 26.3525 44.6265 26.7129 44.261 25.6216C44.1164 26.048 44.1367 26.4261 44.4438 26.6571C42.8448 27.3677 39.954 27.1799 39.2205 28.6977C40.3981 27.5353 42.2661 28.4667 43.5758 28.2053C43.459 28.4439 43.421 28.6672 43.4641 28.8398C43.0682 28.8956 42.8321 29.7637 43.0276 30.0682C42.7712 31.2865 39.223 33.4794 42.6088 31.9641C42.5225 33.1139 41.1951 33.52 41.8727 34.822C41.9666 33.7281 42.8321 33.6012 43.6849 33.4032C43.4539 34.0098 44.0098 34.8702 44.6824 34.7357C44.4057 35.2255 44.6697 36.1037 45.3143 36.2331C45.0123 37.1113 43.8093 36.2128 43.4717 37.0885C44.3854 36.7941 44.9514 38.0377 45.9133 37.5859C45.7915 37.9692 45.8752 38.2001 46.1265 38.5808C45.5199 38.5148 44.5681 38.8067 44.2814 38.1011C43.8144 38.9159 45.2763 38.9209 45.261 39.5072C45.1544 39.1722 44.5478 38.9184 44.289 39.2306C44.1341 38.2737 42.9616 38.2052 42.4971 38.4844C42.7001 37.8753 41.4996 37.4235 41.2281 37.8093C40.9235 36.8448 39.8626 36.1316 39.4438 35.3727C38.9819 36.0199 39.8322 36.2687 39.6367 36.9539C39.3981 36.6925 38.8677 36.5859 38.6088 36.8905C38.4464 36.4996 37.7129 36.3245 37.4362 36.7281C37.2687 36.3575 36.5454 36.2382 36.2814 36.6113C36.02 35.454 34.487 36.0656 34.1139 35.1595C33.817 35.9666 35.0327 36.0453 34.8474 36.8524C34.1038 36.3423 33.0606 36.9793 33.3195 37.86C32.7815 37.3524 31.7231 37.855 31.8931 38.6088C31.086 37.9336 29.2815 38.7687 28.9109 39.426C29.4363 39.1265 30.0581 39.3245 30.586 39.4692C30.3602 39.8016 30.0708 40.3955 30.3729 40.827C29.5201 40.827 29.2383 41.9463 29.5683 42.5935C28.5252 42.8524 27.7764 44.3574 26.5785 43.9691C27.1013 44.8955 28.2409 44.0249 28.9566 44.129C28.6546 44.332 28.3551 45.4513 28.7231 45.8371C28.3043 46.0452 27.9287 46.662 27.982 47.0173C27.3044 47.0909 26.9998 47.9209 26.3069 47.6772C26.4135 47.9919 26.8475 48.1873 27.35 48.2939C27.0226 48.5173 26.7587 48.9056 26.3069 48.7279C26.3196 48.9792 26.4389 49.2406 26.6851 49.4335C26.1978 49.4081 25.6064 49.6746 25.1622 49.4919C25.1572 49.7305 25.2155 49.9944 25.3653 50.2406C24.5404 50.0274 23.3729 49.8396 22.9186 50.5223C23.3374 50.4792 23.7511 50.6137 23.8755 50.8447C21.7054 51.2355 18.4796 48.8955 17.1496 50.5097C18.6166 50.4107 20.68 51.0097 22.0278 51.6366C20.7689 51.7203 17.8425 52.1518 17.0354 53.0782C18.1141 52.9995 19.6471 52.6645 20.5912 52.6213C18.4237 53.8853 15.8045 54.5502 13.7131 55.8522C15.2131 56.1797 16.9923 54.9132 18.5379 54.5705C16.472 55.5731 14.7486 57.3319 12.4314 58.2558C16.1801 58.2735 19.9872 55.4665 22.8856 53.5502C22.0785 53.9919 22.0557 55.1619 20.9998 55.2913C22.3399 55.766 22.9694 53.898 24.3754 54.035C23.6572 55.1898 22.6648 54.6543 22.3475 55.8675C26.2485 55.0705 27.5988 50.4462 31.4744 50.4868C31.482 50.6289 31.4871 50.7762 31.4718 50.9183C31.4591 51.167 31.4084 51.4183 31.3221 51.6518C30.1013 51.4107 29.9033 51.6086 30.8322 52.2812C30.2637 52.4386 30.1597 53.2203 29.4744 53.37C29.7993 53.799 30.6064 53.5198 30.9058 53.1898C30.9236 53.5096 31.2815 53.7914 31.0987 54.1315C31.6901 54.1822 31.416 53.134 32.0657 53.1289C31.8398 53.3802 32.0581 53.8218 32.4566 53.766C32.2561 53.969 32.4008 54.2279 32.6825 54.2355C32.4997 54.5858 32.6977 55.002 32.5733 55.4385C29.4795 55.7888 31.5099 61.2278 33.8373 61.1847C36.1215 61.1542 37.1774 57.4614 35.9413 55.8802C36.1418 55.9055 36.355 55.8472 36.5175 55.7203C36.6444 55.9665 36.9591 56.134 37.2763 56.1187C37.652 56.7101 38.1367 57.2609 37.8905 58.101C39.1469 56.7025 37.6367 53.3903 35.8246 54.6137C35.5911 54.3954 35.2586 54.332 35.0175 54.3675C35.086 53.8243 34.9845 53.5807 34.5809 53.4969C33.9363 52.2914 33.317 51.2736 33.9667 49.8625C41.0809 54.7279 42.289 44.7711 36.1114 46.8473C36.2256 46.6797 36.2586 46.3625 36.1748 46.2102C36.4134 46.0985 36.6571 45.7965 36.7002 45.5605C37.0301 45.6163 37.5149 45.3676 37.8144 45.4589C36.6951 43.8676 34.4363 45.3447 34.7484 47.0275C33.119 48.0731 33.5048 45.4919 33.5733 44.6544C33.8043 44.5173 33.8043 43.931 33.6926 43.7635C33.8957 43.7026 34.119 43.3651 34.1038 43.1265C34.4845 43.1747 34.7916 42.7128 34.817 42.4006C35.2028 42.6113 35.8322 42.4311 35.9769 42.0047C36.2611 42.2356 37.0327 42.2432 37.223 41.9311C40.1926 42.9514 43.3677 43.6849 46.6367 44.0782C46.4438 44.4691 46.4209 44.7686 46.5656 44.9945C45.8194 45.1392 45.0834 44.662 44.5199 45.063C45.1849 45.1214 44.9717 45.5478 45.8372 45.6366C44.9336 45.7356 45.0859 46.9665 44.2433 46.9107C45.0199 47.7711 45.4666 46.4133 46.1646 46.4945C46.1417 46.8371 46.4565 47.1747 46.1341 47.6569C46.6443 47.6747 46.9006 47.1061 47.0098 46.7077C47.2839 46.9615 47.5732 47.6645 48.1747 47.3853C48.1823 47.832 48.9691 48.1442 49.3016 47.9767C49.459 48.4056 50.3397 48.5655 50.6417 48.3142C50.7178 48.5655 51.0478 48.6899 51.3219 48.7711L51.3168 48.7863C51.9183 48.9944 52.4843 48.4944 52.9716 48.8396C53.2204 48.9716 53.4513 49.2051 53.733 49.1772C51.7838 52.6975 60.233 55.035 60.3091 50.5858C59.8827 48.898 59.8878 45.9742 57.3447 46.8092C57.2863 46.733 57.1924 46.7204 57.0756 46.7457C57.3853 46.5249 57.4944 46.2508 57.4005 45.9361C58.167 45.9666 58.1975 44.997 59.0756 45.3295C58.3091 44.4209 55.7762 44.7508 55.865 46.0706C55.4259 45.8955 54.9132 46.2864 54.9361 46.7559C54.662 46.6899 54.2813 46.8219 54.0782 47.2C53.0579 46.5858 51.9767 46.2356 50.8397 46.3879C50.7102 46.0858 50.1722 45.7331 49.7711 45.8498C51.2102 43.2813 51.8447 39.86 53.2356 37.9844C54.3675 37.5707 54.5503 39.1189 53.5325 39.3778C53.9285 39.6595 54.4564 39.4336 54.7457 39.0605C54.4361 39.8778 54.6011 40.8549 55.4691 41.0605C55.0833 40.4285 55.7863 40.091 55.6569 39.5453C56.129 39.7915 56.4868 40.3905 56.4487 40.7915C57.0782 40.1874 56.2685 39.3702 56.2178 38.7103C57.3269 38.9235 58.2761 38.1367 59.0502 37.6316C59.2558 37.4895 59.469 37.4083 59.634 37.3803C69.842 42.563 63.8827 25.7688 59.5934 35.1469C56.4158 35.6595 52.3904 35.1291 50.2052 32.3017C51.8625 32.1215 52.5427 34.157 53.9716 33.9058C52.8676 33.5936 52.8396 32.256 51.6011 32.0454C53.4361 30.7459 56.0655 31.185 57.3777 32.9667C56.9589 33.1951 56.8092 33.8956 56.2609 33.8575C56.766 34.1748 57.3041 34.0707 57.7229 33.6723C57.6112 34.1316 57.7229 34.558 58.3041 34.7433C57.9284 34.3271 58.403 34.0124 58.6492 33.6976C58.8269 34.0124 59.266 34.223 59.035 34.6316C59.6746 34.5403 59.8294 33.4058 59.3294 33.0124C59.8193 32.4464 59.2584 31.6545 58.6467 31.4489C59.9081 30.3906 60.4817 32.3804 59.9132 33.5047C60.5502 33.0961 60.5502 32.3474 60.5528 31.7078C62.2685 32.7433 66.4537 29.9667 66.7938 32.6443C67.606 31.6012 66.3674 30.987 65.0654 30.855C65.1111 30.152 64.2406 29.383 63.6365 29.9464C64.3522 29.8474 64.5451 30.8829 63.6949 31.1774C63.8878 30.4032 63.0045 29.7586 62.3015 30.1444C63.4944 30.5403 62.601 31.6647 61.5807 31.4515C61.5984 30.5149 62.6264 29.756 61.9055 28.7561C62.1594 28.7205 62.1517 28.4718 61.9309 28.35C62.2431 28.3982 62.3878 28.1139 62.0883 27.9464C62.2812 27.9718 62.4944 27.8627 62.3852 27.6774C64.3675 26.921 67.1618 26.7815 68.7837 25.8881L68.7354 25.9033L68.7405 25.9008ZM56.2559 29.5835C56.6087 28.5479 58.2203 28.0429 57.7432 29.4743C58.2 28.6495 59.8903 28.5555 58.7812 29.6545C59.1873 29.756 59.7051 29.4413 60.1264 29.4718C59.667 31.4971 57.4259 29.6063 56.2482 29.6012C56.2482 29.5961 56.2533 29.5885 56.2559 29.5835Z" fill="white"/>
</svg>
