<svg width="82" height="82" viewBox="0 0 82 82" fill="none" xmlns="http://www.w3.org/2000/svg">
<path d="M2.53809 20.3043V53.299H78.6795V20.3043C78.6795 14.6978 74.1339 10.1522 68.5273 10.1522H12.6903C7.08373 10.1522 2.53809 14.6978 2.53809 20.3043Z" fill="#BE2D27"/>
<path d="M68.5273 71.0653L12.6903 71.0653C7.08627 71.0653 2.53809 66.5171 2.53809 60.9131V50.7609L78.6795 50.7609V60.9131C78.6795 66.5171 74.1313 71.0653 68.5273 71.0653Z" fill="#367B37"/>
<path d="M10.1522 32.9946L12.6903 40.6087L10.1522 48.2229L7.6142 40.6087L10.1522 32.9946Z" fill="white"/>
<path d="M6.34512 20.3044L8.88316 27.9185L6.34512 35.5326L3.80707 27.9185L6.34512 20.3044Z" fill="white"/>
<path d="M13.9593 20.3044L16.4974 27.9185L13.9593 35.5326L11.4213 27.9185L13.9593 20.3044Z" fill="white"/>
<path d="M6.34512 45.6848L8.88316 53.299L6.34512 60.9131L3.80707 53.299L6.34512 45.6848Z" fill="white"/>
<path d="M13.9593 45.6848L16.4974 53.299L13.9593 60.9131L11.4213 53.299L13.9593 45.6848Z" fill="white"/>
<path d="M2.53809 32.9946V48.2229L5.07613 40.6087L2.53809 32.9946Z" fill="white"/>
<path d="M17.7663 32.9946L15.2283 40.6087L17.7663 48.2229V32.9946Z" fill="white"/>
<path d="M12.6903 15.2283L11.0533 10.3171C10.368 10.4288 9.70809 10.6039 9.07611 10.8451L7.6142 15.2283L10.1522 22.8424L12.6903 15.2283Z" fill="white"/>
<path d="M4.70304 14.1064C3.36803 15.8247 2.53809 17.9592 2.53809 20.3044V22.8424L5.07613 15.2283L4.70304 14.1064Z" fill="white"/>
<path d="M16.9211 10.1522L15.2283 15.2283L17.7663 22.8424V10.1522H16.9211Z" fill="white"/>
<path d="M12.6903 65.9892L11.0533 70.9003C10.368 70.7886 9.70809 70.6135 9.07611 70.3724L7.6142 65.9892L10.1522 58.3751L12.6903 65.9892Z" fill="white"/>
<path d="M4.70304 67.111C3.36803 65.3928 2.53809 63.2583 2.53809 60.9131V58.3751L5.07613 65.9892L4.70304 67.111Z" fill="white"/>
<path d="M16.9211 71.0653L15.2283 65.9892L17.7663 58.3751V71.0653H16.9211Z" fill="white"/>
<path opacity="0.15" d="M68.5273 10.1522H12.6903C7.08373 10.1522 2.53809 14.6978 2.53809 20.3043V60.9131C2.53809 66.5197 7.08373 71.0653 12.6903 71.0653H68.5273C74.1339 71.0653 78.6795 66.5197 78.6795 60.9131V20.3043C78.6795 14.6978 74.1339 10.1522 68.5273 10.1522ZM76.1415 60.9131C76.1415 65.111 72.7253 68.5272 68.5273 68.5272H12.6903C8.49234 68.5272 5.07613 65.111 5.07613 60.9131V20.3043C5.07613 16.1064 8.49234 12.6902 12.6903 12.6902H68.5273C72.7253 12.6902 76.1415 16.1064 76.1415 20.3043V60.9131Z" fill="black"/>
<path opacity="0.2" d="M68.5273 12.6902H12.6903C8.48471 12.6902 5.07611 16.0988 5.07611 20.3044V22.8424C5.07611 18.6369 8.48471 15.2283 12.6903 15.2283H68.5273C72.7328 15.2283 76.1414 18.6369 76.1414 22.8424V20.3044C76.1414 16.0988 72.7328 12.6902 68.5273 12.6902Z" fill="white"/>
</svg>
