<svg width="82" height="82" viewBox="0 0 82 82" fill="none" xmlns="http://www.w3.org/2000/svg">
<path d="M2.53809 20.3044H78.6795V60.9131H2.53809V20.3044Z" fill="#0F0E91"/>
<path d="M12.6903 10.1522H68.5273C74.1313 10.1522 78.6795 14.7003 78.6795 20.3043V22.8424H2.53809V20.3043C2.53809 14.7003 7.08627 10.1522 12.6903 10.1522Z" fill="#C82C24"/>
<path d="M68.5273 71.0653L12.6902 71.0653C7.0862 71.0653 2.53802 66.5171 2.53802 60.9131V58.3751L78.6794 58.3751V60.9131C78.6794 66.5171 74.1313 71.0653 68.5273 71.0653Z" fill="#C82C24"/>
<path opacity="0.15" d="M68.5273 10.1522H12.6903C7.08373 10.1522 2.53809 14.6978 2.53809 20.3043V60.9131C2.53809 66.5197 7.08373 71.0653 12.6903 71.0653H68.5273C74.1339 71.0653 78.6795 66.5197 78.6795 60.9131V20.3043C78.6795 14.6978 74.1339 10.1522 68.5273 10.1522ZM76.1415 60.9131C76.1415 65.111 72.7253 68.5272 68.5273 68.5272H12.6903C8.49234 68.5272 5.07613 65.111 5.07613 60.9131V20.3043C5.07613 16.1064 8.49234 12.6902 12.6903 12.6902H68.5273C72.7253 12.6902 76.1415 16.1064 76.1415 20.3043V60.9131Z" fill="black"/>
<path d="M40.6088 53.299C47.6174 53.299 53.2991 47.6173 53.2991 40.6087C53.2991 33.6001 47.6174 27.9185 40.6088 27.9185C33.6002 27.9185 27.9186 33.6001 27.9186 40.6087C27.9186 47.6173 33.6002 53.299 40.6088 53.299Z" fill="white"/>
<path d="M40.6089 32.9946C41.3097 32.9946 41.8779 32.4264 41.8779 31.7256C41.8779 31.0247 41.3097 30.4565 40.6089 30.4565C39.908 30.4565 39.3398 31.0247 39.3398 31.7256C39.3398 32.4264 39.908 32.9946 40.6089 32.9946Z" fill="#4B8A26"/>
<path d="M36.1672 34.1849C36.8681 34.1849 37.4362 33.6167 37.4362 32.9159C37.4362 32.215 36.8681 31.6469 36.1672 31.6469C35.4664 31.6469 34.8982 32.215 34.8982 32.9159C34.8982 33.6167 35.4664 34.1849 36.1672 34.1849Z" fill="#4B8A26"/>
<path d="M32.9159 37.4362C33.6167 37.4362 34.1849 36.868 34.1849 36.1672C34.1849 35.4663 33.6167 34.8981 32.9159 34.8981C32.215 34.8981 31.6469 35.4663 31.6469 36.1672C31.6469 36.868 32.215 37.4362 32.9159 37.4362Z" fill="#4B8A26"/>
<path d="M31.7256 41.8778C32.4264 41.8778 32.9946 41.3096 32.9946 40.6087C32.9946 39.9079 32.4264 39.3397 31.7256 39.3397C31.0247 39.3397 30.4565 39.9079 30.4565 40.6087C30.4565 41.3096 31.0247 41.8778 31.7256 41.8778Z" fill="#4B8A26"/>
<path d="M32.9159 46.3193C33.6167 46.3193 34.1849 45.7512 34.1849 45.0503C34.1849 44.3494 33.6167 43.7813 32.9159 43.7813C32.215 43.7813 31.6469 44.3494 31.6469 45.0503C31.6469 45.7512 32.215 46.3193 32.9159 46.3193Z" fill="#4B8A26"/>
<path d="M36.1672 49.5706C36.8681 49.5706 37.4362 49.0024 37.4362 48.3016C37.4362 47.6007 36.8681 47.0325 36.1672 47.0325C35.4664 47.0325 34.8982 47.6007 34.8982 48.3016C34.8982 49.0024 35.4664 49.5706 36.1672 49.5706Z" fill="#4B8A26"/>
<path d="M40.6089 50.7609C41.3097 50.7609 41.8779 50.1928 41.8779 49.4919C41.8779 48.791 41.3097 48.2229 40.6089 48.2229C39.908 48.2229 39.3398 48.791 39.3398 49.4919C39.3398 50.1928 39.908 50.7609 40.6089 50.7609Z" fill="#4B8A26"/>
<path d="M45.0504 49.5706C45.7513 49.5706 46.3194 49.0024 46.3194 48.3016C46.3194 47.6007 45.7513 47.0325 45.0504 47.0325C44.3495 47.0325 43.7814 47.6007 43.7814 48.3016C43.7814 49.0024 44.3495 49.5706 45.0504 49.5706Z" fill="#4B8A26"/>
<path d="M48.3016 46.3193C49.0025 46.3193 49.5706 45.7512 49.5706 45.0503C49.5706 44.3494 49.0025 43.7813 48.3016 43.7813C47.6008 43.7813 47.0326 44.3494 47.0326 45.0503C47.0326 45.7512 47.6008 46.3193 48.3016 46.3193Z" fill="#4B8A26"/>
<path d="M49.4919 41.8778C50.1928 41.8778 50.7609 41.3096 50.7609 40.6087C50.7609 39.9079 50.1928 39.3397 49.4919 39.3397C48.7911 39.3397 48.2229 39.9079 48.2229 40.6087C48.2229 41.3096 48.7911 41.8778 49.4919 41.8778Z" fill="#4B8A26"/>
<path d="M48.3016 37.4362C49.0025 37.4362 49.5706 36.868 49.5706 36.1672C49.5706 35.4663 49.0025 34.8981 48.3016 34.8981C47.6008 34.8981 47.0326 35.4663 47.0326 36.1672C47.0326 36.868 47.6008 37.4362 48.3016 37.4362Z" fill="#4B8A26"/>
<path d="M45.0504 34.1849C45.7513 34.1849 46.3194 33.6167 46.3194 32.9159C46.3194 32.215 45.7513 31.6469 45.0504 31.6469C44.3495 31.6469 43.7814 32.215 43.7814 32.9159C43.7814 33.6167 44.3495 34.1849 45.0504 34.1849Z" fill="#4B8A26"/>
<path opacity="0.2" d="M68.5274 12.6902H12.6903C8.48477 12.6902 5.07617 16.0988 5.07617 20.3044V22.8424C5.07617 18.6369 8.48477 15.2283 12.6903 15.2283H68.5274C72.7329 15.2283 76.1415 18.6369 76.1415 22.8424V20.3044C76.1415 16.0988 72.7329 12.6902 68.5274 12.6902Z" fill="white"/>
</svg>
