<svg width="82" height="82" viewBox="0 0 82 82" fill="none" xmlns="http://www.w3.org/2000/svg">
<path d="M20.3044 10.1522H60.9132V71.0653H20.3044V10.1522Z" fill="white"/>
<path d="M12.6903 10.1522H22.8425V71.0653H12.6903C7.08627 71.0653 2.53809 66.5171 2.53809 60.9131V20.3044C2.53809 14.7004 7.08627 10.1522 12.6903 10.1522Z" fill="#C53A28"/>
<path d="M68.5274 71.0653H58.3752L58.3752 10.1522H68.5274C74.1314 10.1522 78.6796 14.7004 78.6796 20.3044V60.9131C78.6796 66.5171 74.1314 71.0653 68.5274 71.0653Z" fill="#C53A28"/>
<path opacity="0.15" d="M68.5273 10.1522H12.6903C7.08373 10.1522 2.53809 14.6978 2.53809 20.3044V60.9131C2.53809 66.5197 7.08373 71.0653 12.6903 71.0653H68.5273C74.1339 71.0653 78.6795 66.5197 78.6795 60.9131V20.3044C78.6795 14.6978 74.1339 10.1522 68.5273 10.1522ZM76.1415 60.9131C76.1415 65.1111 72.7253 68.5273 68.5273 68.5273H12.6903C8.49234 68.5273 5.07613 65.1111 5.07613 60.9131V20.3044C5.07613 16.1065 8.49234 12.6902 12.6903 12.6902H68.5273C72.7253 12.6902 76.1415 16.1065 76.1415 20.3044V60.9131Z" fill="black"/>
<path d="M41.3067 56.2609L40.9565 49.5579C40.9387 49.1518 41.2534 48.8066 41.6595 48.7863C41.7128 48.7863 41.7661 48.7863 41.8194 48.7965L48.4919 49.9691L47.5909 47.4843C47.5148 47.2813 47.5782 47.0528 47.7457 46.9183L55.0553 40.9996L53.4081 40.2306C53.1772 40.1214 53.0655 39.86 53.1442 39.6164L54.5883 35.1722L50.3777 36.0656C50.1417 36.1139 49.9056 35.992 49.8117 35.7712L48.997 33.8525L45.7102 37.3778C45.5173 37.5809 45.2001 37.5885 44.997 37.3956C44.8727 37.2763 44.8168 37.1037 44.8498 36.9337L46.4336 28.7611L43.893 30.2281C43.6519 30.3703 43.3422 30.289 43.2026 30.0479C43.1976 30.0378 43.1925 30.0276 43.1874 30.0175L40.6087 24.9541L38.0301 30.0175C37.9057 30.2662 37.6012 30.3677 37.3524 30.2434C37.3423 30.2383 37.3321 30.2332 37.322 30.2281L34.7814 28.7611L36.3651 36.9337C36.4184 37.2078 36.2382 37.4717 35.9641 37.525C35.7941 37.558 35.6215 37.5022 35.5022 37.3778L32.2154 33.8525L31.4007 35.7712C31.3068 35.992 31.0682 36.1164 30.8347 36.0656L26.6241 35.1722L28.0683 39.6164C28.1469 39.8575 28.0353 40.1214 27.8043 40.2306L26.1571 40.9996L33.4667 46.9183C33.6342 47.0554 33.6976 47.2838 33.6215 47.4843L32.7205 49.9691L39.393 48.7965C39.794 48.728 40.1773 48.997 40.2458 49.398C40.256 49.4513 40.2585 49.5046 40.256 49.5579L39.9057 56.2609H41.3067Z" fill="#C53A28"/>
<path opacity="0.2" d="M68.5272 12.6902H12.6902C8.48465 12.6902 5.07605 16.0988 5.07605 20.3044V22.8424C5.07605 18.6369 8.48465 15.2283 12.6902 15.2283H68.5272C72.7328 15.2283 76.1414 18.6369 76.1414 22.8424V20.3044C76.1414 16.0988 72.7328 12.6902 68.5272 12.6902Z" fill="white"/>
</svg>
