<svg width="82" height="82" viewBox="0 0 82 82" fill="none" xmlns="http://www.w3.org/2000/svg">
<path d="M68.5274 10.1522H12.6904C7.0835 10.1522 2.53821 14.6975 2.53821 20.3043V60.9131C2.53821 66.52 7.0835 71.0653 12.6904 71.0653H68.5274C74.1343 71.0653 78.6796 66.52 78.6796 60.9131V20.3043C78.6796 14.6975 74.1343 10.1522 68.5274 10.1522Z" fill="#387EF7"/>
<path d="M23.5912 28.0936L30.1901 23.3018H22.0354L19.5151 15.5455L16.9948 23.3018H8.84009L15.4365 28.0936L12.9162 35.8499L19.5151 31.0555L26.1115 35.8499L23.5912 28.0936Z" fill="#F2D84B"/>
<path d="M78.6796 20.3044C78.6796 16.142 76.1695 12.576 72.5858 11.0075L2.53821 55.37V60.9131C2.53821 65.0755 5.04834 68.6415 8.63206 70.21L78.6796 25.8475V20.3044Z" fill="#F2D84B"/>
<path d="M74.9589 12.51L2.53821 58.3751V60.9131C2.53821 64.0654 4.0052 66.8471 6.25899 68.7075L78.6796 22.8424V20.3044C78.6796 17.1521 77.2126 14.3704 74.9589 12.51Z" fill="#BE2A28"/>
<path opacity="0.15" d="M2.53821 20.3043V60.9131C2.53821 66.5197 7.08385 71.0653 12.6904 71.0653H68.5274C74.134 71.0653 78.6796 66.5197 78.6796 60.9131V20.3043C78.6796 14.6978 74.134 10.1522 68.5274 10.1522H12.6904C7.08385 10.1522 2.53821 14.6978 2.53821 20.3043ZM5.07626 20.3043C5.07626 16.1064 8.49247 12.6902 12.6904 12.6902H68.5274C72.7254 12.6902 76.1416 16.1064 76.1416 20.3043V60.9131C76.1416 65.111 72.7254 68.5272 68.5274 68.5272H12.6904C8.49247 68.5272 5.07626 65.111 5.07626 60.9131V20.3043Z" fill="black"/>
<path opacity="0.2" d="M68.5274 12.6902H12.6903C8.48477 12.6902 5.07617 16.0988 5.07617 20.3044V22.8424C5.07617 18.6369 8.48477 15.2283 12.6903 15.2283H68.5274C72.7329 15.2283 76.1415 18.6369 76.1415 22.8424V20.3044C76.1415 16.0988 72.7329 12.6902 68.5274 12.6902Z" fill="white"/>
</svg>
