<svg width="82" height="82" viewBox="0 0 82 82" fill="none" xmlns="http://www.w3.org/2000/svg">
<path d="M78.6794 60.9133V20.3045C78.6794 14.698 74.1338 10.1523 68.5273 10.1523H65.9892L15.2283 71.0655H68.5273C74.1338 71.0655 78.6794 66.5198 78.6794 60.9133Z" fill="#C93039"/>
<path d="M12.6903 10.1523H65.9893L15.2283 71.0655H12.6903C7.08373 71.0655 2.53809 66.5198 2.53809 60.9133V20.3045C2.53809 14.698 7.08373 10.1523 12.6903 10.1523Z" fill="#42944B"/>
<path d="M68.5273 10.1523H53.299L5.26392 67.7939C7.11923 69.7939 9.74611 71.0655 12.6902 71.0655H27.9185L75.9536 13.4239C74.0983 11.4239 71.4714 10.1523 68.5273 10.1523Z" fill="#F7E065"/>
<path opacity="0.15" d="M68.5273 10.1523H12.6903C7.08373 10.1523 2.53809 14.698 2.53809 20.3045V60.9133C2.53809 66.5198 7.08373 71.0655 12.6903 71.0655H68.5273C74.1339 71.0655 78.6795 66.5198 78.6795 60.9133V20.3045C78.6795 14.698 74.1339 10.1523 68.5273 10.1523ZM76.1415 60.9133C76.1415 65.1112 72.7253 68.5274 68.5273 68.5274H12.6903C8.49234 68.5274 5.07613 65.1112 5.07613 60.9133V20.3045C5.07613 16.1066 8.49234 12.6904 12.6903 12.6904H68.5273C72.7253 12.6904 76.1415 16.1066 76.1415 20.3045V60.9133Z" fill="black"/>
<path opacity="0.2" d="M68.5272 12.6904H12.6902C8.48465 12.6904 5.07605 16.099 5.07605 20.3046V22.8426C5.07605 18.6371 8.48465 15.2285 12.6902 15.2285H68.5272C72.7328 15.2285 76.1414 18.6371 76.1414 22.8426V20.3046C76.1414 16.099 72.7328 12.6904 68.5272 12.6904Z" fill="white"/>
</svg>
