<svg width="82" height="82" viewBox="0 0 82 82" fill="none" xmlns="http://www.w3.org/2000/svg">
<path d="M25.3805 10.1522H55.8371V71.0653H25.3805V10.1522Z" fill="#BE2A2C"/>
<path d="M12.6902 10.1522H27.9184V71.0653H12.6902C7.08614 71.0653 2.53796 66.5171 2.53796 60.9131V20.3044C2.53796 14.7004 7.08614 10.1522 12.6902 10.1522Z" fill="#357960"/>
<path d="M68.5273 71.0653H53.299L53.299 10.1522H68.5273C74.1313 10.1522 78.6794 14.7004 78.6794 20.3044V60.9131C78.6794 66.5171 74.1313 71.0653 68.5273 71.0653Z" fill="#F6D44A"/>
<path opacity="0.15" d="M68.5272 10.1522H12.6902C7.08361 10.1522 2.53796 14.6978 2.53796 20.3044V60.9131C2.53796 66.5197 7.08361 71.0653 12.6902 71.0653H68.5272C74.1337 71.0653 78.6794 66.5197 78.6794 60.9131V20.3044C78.6794 14.6978 74.1337 10.1522 68.5272 10.1522ZM76.1413 60.9131C76.1413 65.1111 72.7251 68.5273 68.5272 68.5273H12.6902C8.49222 68.5273 5.07601 65.1111 5.07601 60.9131V20.3044C5.07601 16.1065 8.49222 12.6902 12.6902 12.6902H68.5272C72.7251 12.6902 76.1413 16.1065 76.1413 20.3044V60.9131Z" fill="black"/>
<path d="M44.4563 41.6012L50.6822 37.0784H42.9868L40.6087 29.7586L38.2305 37.0784H30.5352L36.761 41.6012L34.3828 48.9209L40.6087 44.3956L46.8345 48.9209L44.4563 41.6012Z" fill="#F6D44A"/>
<path opacity="0.2" d="M68.5272 12.6902H12.6902C8.48465 12.6902 5.07605 16.0988 5.07605 20.3044V22.8424C5.07605 18.6369 8.48465 15.2283 12.6902 15.2283H68.5272C72.7328 15.2283 76.1414 18.6369 76.1414 22.8424V20.3044C76.1414 16.0988 72.7328 12.6902 68.5272 12.6902Z" fill="white"/>
</svg>
