<svg width="82" height="82" viewBox="0 0 82 82" fill="none" xmlns="http://www.w3.org/2000/svg">
<path d="M68.5274 10.1522H12.6904C7.0835 10.1522 2.53821 14.6975 2.53821 20.3043V60.9131C2.53821 66.52 7.0835 71.0653 12.6904 71.0653H68.5274C74.1343 71.0653 78.6796 66.52 78.6796 60.9131V20.3043C78.6796 14.6975 74.1343 10.1522 68.5274 10.1522Z" fill="#DB362F"/>
<path opacity="0.15" d="M68.5274 10.1522H12.6904C7.08385 10.1522 2.53821 14.6978 2.53821 20.3043V60.9131C2.53821 66.5197 7.08385 71.0653 12.6904 71.0653H68.5274C74.134 71.0653 78.6796 66.5197 78.6796 60.9131V20.3043C78.6796 14.6978 74.134 10.1522 68.5274 10.1522ZM76.1416 60.9131C76.1416 65.111 72.7254 68.5272 68.5274 68.5272H12.6904C8.49247 68.5272 5.07626 65.111 5.07626 60.9131V20.3043C5.07626 16.1064 8.49247 12.6902 12.6904 12.6902H68.5274C72.7254 12.6902 76.1416 16.1064 76.1416 20.3043V60.9131Z" fill="black"/>
<path d="M20.1978 25.7663L18.2486 19.7613L16.2969 25.7663H9.98474L15.0913 29.4769L13.1395 35.4794L18.2486 31.7688L23.3552 35.4794L21.4034 29.4769L26.5125 25.7663H20.1978Z" fill="#FFFF00"/>
<path d="M32.2967 20.779L33.3805 22.5835L33.5632 20.4871L35.6139 20.015L33.6774 19.1927L33.8627 17.0963L32.482 18.6825L30.5455 17.8602L31.6267 19.6648L30.246 21.251L32.2967 20.779Z" fill="#FFFF00"/>
<path d="M37.728 26.3246L38.025 28.4084L39.0097 26.548L41.0833 26.9084L39.6188 25.3982L40.6011 23.5379L38.7128 24.4642L37.2458 22.9541L37.5453 25.0378L35.6544 25.9642L37.728 26.3246Z" fill="#FFFF00"/>
<path d="M39.586 34.5479L41.2433 33.2509L39.1393 33.3245L38.4185 31.3499L37.8398 33.3727L35.7383 33.4489L37.4845 34.624L36.9058 36.6468L38.5631 35.3499L40.3068 36.525L39.586 34.5479Z" fill="#FFFF00"/>
<path d="M33.6546 39.4286L33.751 37.3271L32.4363 38.9692L30.4693 38.2281L31.6242 39.9844L30.3094 41.6291L32.3399 41.0707L33.4972 42.8296L33.5937 40.7281L35.6241 40.1697L33.6546 39.4286Z" fill="#FFFF00"/>
<path opacity="0.2" d="M68.5274 12.6902H12.6903C8.48477 12.6902 5.07617 16.0988 5.07617 20.3044V22.8424C5.07617 18.6369 8.48477 15.2283 12.6903 15.2283H68.5274C72.7329 15.2283 76.1415 18.6369 76.1415 22.8424V20.3044C76.1415 16.0988 72.7329 12.6902 68.5274 12.6902Z" fill="white"/>
</svg>
