<svg width="82" height="82" viewBox="0 0 82 82" fill="none" xmlns="http://www.w3.org/2000/svg">
<path d="M12.6905 10.1522H68.5276C74.1316 10.1522 78.6797 14.7003 78.6797 20.3043V22.8424H2.53833V20.3043C2.53833 14.7003 7.08651 10.1522 12.6905 10.1522Z" fill="#030A85"/>
<path d="M68.5275 71.0653L12.6905 71.0653C7.08645 71.0653 2.53827 66.5171 2.53827 60.9131V58.3751L78.6797 58.3751V60.9131C78.6797 66.5171 74.1315 71.0653 68.5275 71.0653Z" fill="#030A85"/>
<path d="M2.53833 20.3043H78.6797V32.9946H2.53833V20.3043Z" fill="white"/>
<path d="M2.53833 48.2229H78.6797V60.9131H2.53833V48.2229Z" fill="white"/>
<path d="M2.53833 30.4566H78.6797V50.761H2.53833V30.4566Z" fill="#C93927"/>
<path opacity="0.15" d="M68.5276 10.1522H12.6905C7.08397 10.1522 2.53833 14.6978 2.53833 20.3043V60.9131C2.53833 66.5197 7.08397 71.0653 12.6905 71.0653H68.5276C74.1341 71.0653 78.6797 66.5197 78.6797 60.9131V20.3043C78.6797 14.6978 74.1341 10.1522 68.5276 10.1522ZM76.1417 60.9131C76.1417 65.111 72.7255 68.5272 68.5276 68.5272H12.6905C8.49259 68.5272 5.07638 65.111 5.07638 60.9131V20.3043C5.07638 16.1064 8.49259 12.6902 12.6905 12.6902H68.5276C72.7255 12.6902 76.1417 16.1064 76.1417 20.3043V60.9131Z" fill="black"/>
<path opacity="0.2" d="M68.5276 12.6902H12.6906C8.48501 12.6902 5.07642 16.0988 5.07642 20.3044V22.8424C5.07642 18.6369 8.48501 15.2283 12.6906 15.2283H68.5276C72.7331 15.2283 76.1417 18.6369 76.1417 22.8424V20.3044C76.1417 16.0988 72.7331 12.6902 68.5276 12.6902Z" fill="white"/>
</svg>
