<svg width="82" height="82" viewBox="0 0 82 82" fill="none" xmlns="http://www.w3.org/2000/svg">
<path d="M68.5273 10.1522H12.6903C7.08338 10.1522 2.53809 14.6975 2.53809 20.3044V60.9131C2.53809 66.52 7.08338 71.0653 12.6903 71.0653H68.5273C74.1342 71.0653 78.6795 66.52 78.6795 60.9131V20.3044C78.6795 14.6975 74.1342 10.1522 68.5273 10.1522Z" fill="#13348F"/>
<path d="M2.53809 43.1468H78.6795V53.299H2.53809V43.1468Z" fill="#BF312D"/>
<path d="M2.53809 40.6088H78.6795V45.6849H2.53809V40.6088Z" fill="white"/>
<path d="M2.53809 50.761H78.6795V55.8371H2.53809V50.761Z" fill="white"/>
<path opacity="0.15" d="M68.5273 10.1522H12.6903C7.08373 10.1522 2.53809 14.6978 2.53809 20.3044V60.9131C2.53809 66.5197 7.08373 71.0653 12.6903 71.0653H68.5273C74.1339 71.0653 78.6795 66.5197 78.6795 60.9131V20.3044C78.6795 14.6978 74.1339 10.1522 68.5273 10.1522ZM76.1415 60.9131C76.1415 65.1111 72.7253 68.5273 68.5273 68.5273H12.6903C8.49234 68.5273 5.07613 65.1111 5.07613 60.9131V20.3044C5.07613 16.1065 8.49234 12.6902 12.6903 12.6902H68.5273C72.7253 12.6902 76.1415 16.1065 76.1415 20.3044V60.9131Z" fill="black"/>
<path d="M17.7076 50.3929L18.3219 52.2838H20.3142L18.7026 53.4513L19.3193 55.3421L17.7076 54.1721L16.096 55.3421L16.7127 53.4513L15.1011 52.2838H17.0909L17.7076 50.3929Z" fill="#F7D116"/>
<path d="M17.543 40.5047L18.1597 42.393H20.1495L18.5379 43.5605L19.1546 45.4514L17.543 44.2839L15.9313 45.4514L16.5481 43.5605L14.9364 42.393H16.9288L17.543 40.5047Z" fill="#F7D116"/>
<path d="M45.6974 40.5098L46.3141 42.3955H48.3065L46.6948 43.5605L47.3091 45.4463L45.6999 44.2813L44.0883 45.4463L44.7025 43.5605L43.0908 42.3955H45.0832L45.6974 40.5098Z" fill="#F7D116"/>
<path d="M45.5149 50.398L46.1291 52.2837H48.1214L46.5098 53.4487L47.124 55.3345L45.5123 54.1695L43.9007 55.3345L44.5149 53.4487L42.9032 52.2837H44.893L45.5072 50.398H45.5149Z" fill="#F7D116"/>
<path d="M31.6191 30.3347L32.2333 32.2281H34.2257L32.614 33.3982L33.2308 35.2916L31.6191 34.1215L30.0075 35.2916L30.6217 33.3982L29.01 32.2281H30.9998L31.6166 30.3347H31.6191Z" fill="#F7D116"/>
<path d="M31.624 60.0096L32.2382 61.903H34.2306L32.6189 63.073L33.2331 64.9664L31.6215 63.7964L30.0098 64.9664L30.6266 63.073L29.0149 61.903H31.0047L31.6215 60.0096H31.624Z" fill="#F7D116"/>
<path d="M22.9133 33.1596L23.5275 35.053H25.5199L23.9082 36.223L24.525 38.1164L22.9133 36.9464L21.3017 38.1164L21.9159 36.223L20.3042 35.053H22.294L22.9133 33.1596Z" fill="#F7D116"/>
<path d="M40.3117 57.1924L40.9259 59.0857H42.9182L41.3066 60.2558L41.9233 62.1492L40.3117 60.9791L38.7 62.1492L39.3167 60.2558L37.7051 59.0857H39.6949L40.3117 57.1924Z" fill="#F7D116"/>
<path d="M23.2179 57.4157L23.8346 59.3091H25.8245L24.2128 60.4791L24.8296 62.375L23.2179 61.2024L21.6062 62.375L22.223 60.4791L20.6113 59.3091H22.6037L23.2179 57.4157Z" fill="#F7D116"/>
<path d="M40.0579 32.9438L40.6746 34.8372H42.667L41.0553 36.0073L41.6696 37.9007L40.0604 36.7306L38.4488 37.9007L39.063 36.0073L37.4539 34.8372H39.4437L40.0579 32.9438Z" fill="#F7D116"/>
<path opacity="0.2" d="M68.5272 12.6902H12.6902C8.48465 12.6902 5.07605 16.0988 5.07605 20.3044V22.8424C5.07605 18.6369 8.48465 15.2283 12.6902 15.2283H68.5272C72.7328 15.2283 76.1414 18.6369 76.1414 22.8424V20.3044C76.1414 16.0988 72.7328 12.6902 68.5272 12.6902Z" fill="white"/>
</svg>
