<svg width="82" height="82" viewBox="0 0 82 82" fill="none" xmlns="http://www.w3.org/2000/svg">
<path d="M68.5273 10.1522H12.6903C7.08338 10.1522 2.53809 14.6975 2.53809 20.3043V60.9131C2.53809 66.52 7.08338 71.0653 12.6903 71.0653H68.5273C74.1342 71.0653 78.6795 66.52 78.6795 60.9131V20.3043C78.6795 14.6975 74.1342 10.1522 68.5273 10.1522Z" fill="white"/>
<path opacity="0.15" d="M68.5273 10.1522H12.6903C7.08373 10.1522 2.53809 14.6978 2.53809 20.3043V60.9131C2.53809 66.5197 7.08373 71.0653 12.6903 71.0653H68.5273C74.1339 71.0653 78.6795 66.5197 78.6795 60.9131V20.3043C78.6795 14.6978 74.1339 10.1522 68.5273 10.1522ZM76.1415 60.9131C76.1415 65.111 72.7253 68.5272 68.5273 68.5272H12.6903C8.49234 68.5272 5.07613 65.111 5.07613 60.9131V20.3043C5.07613 16.1064 8.49234 12.6902 12.6903 12.6902H68.5273C72.7253 12.6902 76.1415 16.1064 76.1415 20.3043V60.9131Z" fill="black"/>
<path d="M25.6192 50.4767C25.576 50.4767 25.5329 50.4843 25.4897 50.4919C25.5735 51.4335 26.2537 52.0401 26.8121 52.3827C27.1877 52.6112 27.5912 52.7888 28.0126 52.9081C27.5811 51.931 27.0963 51.2355 26.571 50.8345C26.1598 50.5223 25.8172 50.4741 25.6522 50.4741C25.6395 50.4741 25.6293 50.4741 25.6192 50.4741V50.4767Z" fill="#4E5B31"/>
<path d="M23.8475 49.4487C24.3069 49.7127 24.7231 49.8929 24.9592 49.9335C24.9668 49.9335 24.9769 49.9335 24.9845 49.9335C24.9998 49.9335 25.015 49.931 25.0277 49.9259C25.0454 49.9157 25.0581 49.9005 25.0658 49.8802C25.0835 49.8218 25.0835 49.7584 25.0658 49.7025C25.0201 49.502 24.9515 49.3091 24.8627 49.1264C24.685 48.7254 24.4566 48.3142 24.4287 48.266V48.2609C24.1977 47.9817 23.9566 47.7127 23.7028 47.4589C23.5023 47.2559 23.284 47.0706 23.0505 46.9056C22.7942 46.7305 22.6064 46.6493 22.4287 46.6467C22.383 46.6467 22.3399 46.6518 22.2967 46.667C22.2739 46.9056 22.2714 47.1467 22.2891 47.3878C22.3272 47.9183 22.4592 48.3142 22.68 48.5655C22.9211 48.8421 23.3373 49.1569 23.8475 49.4487Z" fill="#4E5B31"/>
<path d="M29.4641 52.8573C29.1063 51.7203 28.69 50.8878 28.2205 50.3802C27.8119 49.9386 27.4413 49.837 27.2002 49.832C27.185 49.832 27.1697 49.832 27.1545 49.832C27.1444 49.832 27.1342 49.832 27.1241 49.832C27.0225 49.837 26.9261 49.8624 26.8347 49.903C27.2002 50.8066 27.7763 51.6111 28.5149 52.2482C28.8017 52.4969 29.1215 52.7025 29.4667 52.8599L29.4641 52.8573Z" fill="#4E5B31"/>
<path d="M25.1089 51.3751C25.081 51.1137 24.9693 50.87 24.7866 50.6797C24.4922 50.3599 23.8627 49.969 22.5277 49.931C22.5607 50.1467 22.6216 50.3574 22.7079 50.5604C22.8373 50.8548 23.081 51.2203 23.5125 51.299C23.883 51.3624 24.2561 51.3954 24.6317 51.3954C24.9185 51.3954 25.1064 51.3751 25.1089 51.3751Z" fill="#4E5B31"/>
<path d="M26.0252 53.0401C25.9998 53.0401 25.9769 53.0401 25.9516 53.0401C25.5962 53.0426 25.2434 53.0883 24.9008 53.1746C24.8983 53.2127 24.8983 53.2482 24.9008 53.2837C24.916 53.3751 24.9516 53.4614 25.0049 53.5376C25.1267 53.7228 25.4135 53.9766 26.0785 54.1416C26.4719 54.2381 26.8754 54.2863 27.279 54.2863C27.6901 54.2863 28.0987 54.2406 28.4972 54.1441C28.0987 53.6213 27.5277 53.2584 26.8856 53.1239C26.6013 53.068 26.3145 53.0401 26.0252 53.0401Z" fill="#4E5B31"/>
<path d="M33.8118 54.898C33.2179 53.1137 32.0555 52.8244 31.4159 52.8091C31.3981 52.8091 31.3778 52.8091 31.3601 52.8091C31.3423 52.8091 31.3245 52.8091 31.3068 52.8091C31.1748 52.8091 31.0428 52.8269 30.9159 52.8574C31.025 53.1848 31.2052 53.4843 31.4387 53.7355C31.8194 54.1594 32.5402 54.7051 33.8118 54.9005V54.898Z" fill="#4E5B31"/>
<path d="M38.8067 57.0985C37.6646 54.9361 36.4768 54.7026 36.0148 54.7026C35.926 54.7026 35.8346 54.7127 35.7484 54.733C35.7204 55.0884 35.8143 55.4411 36.0123 55.7356C36.3245 56.2203 37.0631 56.8498 38.8092 57.101L38.8067 57.0985Z" fill="#4E5B31"/>
<path d="M29.1952 53.3345H29.1571C29.0251 53.3345 28.8931 53.3548 28.7662 53.3929C28.7865 53.4792 28.817 53.5604 28.8576 53.6391C28.9642 53.8472 29.1089 54.0325 29.284 54.1873C29.6952 54.5553 30.515 55.0046 32.0962 55.0604C30.817 53.5604 29.7307 53.3371 29.1977 53.3371L29.1952 53.3345Z" fill="#4E5B31"/>
<path d="M35.9718 57.1669C35.4033 57.1669 35.0505 57.3395 34.8576 57.4842C34.7408 57.5679 34.6418 57.672 34.5682 57.7964C35.1723 58.1568 35.8626 58.3497 36.5682 58.3547C37.2256 58.3573 37.8702 58.1821 38.4337 57.8471C37.4819 57.3954 36.6571 57.1669 35.9845 57.1669H35.9718Z" fill="#4E5B31"/>
<path d="M30.7943 55.4919C30.7435 55.4919 30.6953 55.4919 30.6471 55.4919C30.1217 55.5097 29.5989 55.5782 29.0862 55.7001C29.7588 56.3752 30.84 56.6138 31.6242 56.6138H31.6851C32.1115 56.6061 32.4136 56.5376 32.5836 56.4107C32.6572 56.365 32.6978 56.2813 32.6902 56.195C32.6547 56.0782 32.576 55.9792 32.4719 55.9158C32.0963 55.6341 31.5303 55.4919 30.7943 55.4919Z" fill="#4E5B31"/>
<path d="M33.5454 56.3726C33.9185 56.6264 34.487 56.7533 35.2306 56.7533C35.619 56.7507 36.0048 56.7228 36.388 56.6695C35.4641 55.7736 34.5885 55.5858 34.0124 55.5858C33.9718 55.5858 33.9337 55.5858 33.8956 55.5883C33.6266 55.5984 33.3626 55.6543 33.1165 55.7533C33.1266 55.8243 33.1444 55.8929 33.1748 55.9563C33.2586 56.1264 33.3855 56.2685 33.5454 56.37V56.3726Z" fill="#4E5B31"/>
<path d="M49.7787 53.7355C50.0148 53.4843 50.1924 53.1848 50.3016 52.8574C50.1721 52.8269 50.0427 52.8117 49.9107 52.8091C49.8929 52.8091 49.8752 52.8091 49.8574 52.8091C49.8396 52.8091 49.8219 52.8091 49.8016 52.8091C49.162 52.8244 47.9995 53.1137 47.4056 54.898C48.6772 54.7051 49.398 54.1594 49.7787 53.7355Z" fill="#4E5B31"/>
<path d="M49.1239 55.0578C50.7051 55.002 51.5249 54.5528 51.9361 54.1848C52.1112 54.0299 52.2559 53.8447 52.3625 53.6365C52.4031 53.5579 52.4335 53.4766 52.4538 53.3903C52.3269 53.3523 52.1949 53.332 52.063 53.332H52.0249C51.4919 53.332 50.4056 53.5553 49.1264 55.0553L49.1239 55.0578Z" fill="#4E5B31"/>
<path d="M54.4057 52.3853C54.9615 52.0427 55.6443 51.4361 55.728 50.4945C55.6849 50.4843 55.6417 50.4792 55.5986 50.4792C55.5884 50.4792 55.5757 50.4792 55.5656 50.4792C55.3981 50.4792 55.058 50.5249 54.6468 50.8397C54.124 51.2381 53.6392 51.9361 53.2052 52.9107C53.6265 52.7914 54.0326 52.6137 54.4057 52.3853Z" fill="#4E5B31"/>
<path d="M56.2331 49.9335C56.2331 49.9335 56.2509 49.9335 56.2585 49.9335C56.4945 49.8929 56.9107 49.7127 57.3701 49.4487C57.8803 49.1569 58.2965 48.8421 58.5376 48.5655C58.7584 48.3142 58.8904 47.9158 58.9285 47.3878C58.9463 47.1493 58.9412 46.9081 58.9209 46.667C58.8777 46.6543 58.8346 46.6467 58.7889 46.6467C58.6112 46.6493 58.4234 46.7305 58.1671 46.9056C57.9336 47.0706 57.7153 47.2559 57.5148 47.4589C57.2585 47.7127 57.0173 47.9792 56.7915 48.2609V48.266C56.761 48.3142 56.5326 48.7254 56.3549 49.1264C56.2661 49.3117 56.1976 49.5046 56.1519 49.7025C56.1341 49.7609 56.1341 49.8218 56.1519 49.8802C56.1595 49.898 56.1722 49.9157 56.1899 49.9259C56.2026 49.931 56.2179 49.9335 56.2331 49.9335Z" fill="#4E5B31"/>
<path d="M50.5707 55.4944C50.5224 55.4944 50.4717 55.4944 50.4235 55.4944C49.6874 55.4944 49.124 55.6365 48.7484 55.9182C48.6443 55.9817 48.5656 56.0807 48.5301 56.1974C48.5225 56.2837 48.5631 56.3675 48.6367 56.4132C48.8067 56.5401 49.1088 56.6086 49.5352 56.6162H49.5961C50.3829 56.6162 51.4615 56.3751 52.1341 55.7025C51.6214 55.5807 51.1011 55.5122 50.5732 55.4944H50.5707Z" fill="#4E5B31"/>
<path d="M47.2026 55.5858C46.6265 55.5858 45.7509 55.7736 44.827 56.6695C45.2103 56.7228 45.5986 56.7507 45.9844 56.7533C46.7306 56.7533 47.2965 56.6238 47.6696 56.3726C47.8295 56.271 47.9564 56.1264 48.0402 55.9589C48.0706 55.8954 48.091 55.8269 48.0986 55.7558C47.8498 55.6543 47.5859 55.5984 47.3194 55.5908C47.2813 55.5908 47.2432 55.5883 47.2001 55.5883L47.2026 55.5858Z" fill="#4E5B31"/>
<path d="M41.4515 58.0579L42.02 57.7914L41.7154 57.4487L40.6697 57.8954L40.6088 57.9081L40.5479 57.8954L39.5022 57.4487L39.1977 57.7914L39.7662 58.0579L39.8525 58.0832L38.4464 59.1188C38.4464 59.1188 38.6571 59.2939 38.8627 59.4817C38.954 59.5655 39.0708 59.6721 39.152 59.7609C39.185 59.7964 39.218 59.8345 39.2459 59.8751C39.2637 59.903 39.2789 59.9335 39.2916 59.9639C39.3043 59.9589 39.317 59.9487 39.3271 59.9386L39.3398 59.9259C39.3956 59.8726 39.4489 59.8193 39.4997 59.7609C39.6342 59.6086 39.8119 59.3853 39.9718 59.1898C40.284 58.799 40.5428 58.4639 40.5911 58.4005L40.6088 58.3777L40.6266 58.4005C40.6748 58.4639 40.9337 58.799 41.2459 59.1898C41.4032 59.3853 41.5834 59.6086 41.718 59.7609C41.7687 59.8193 41.822 59.8726 41.8779 59.9259L41.8905 59.9386C41.8905 59.9386 41.9134 59.9589 41.9261 59.9639C41.9413 59.9335 41.9565 59.903 41.9718 59.8751C41.9997 59.8345 42.0327 59.7964 42.0657 59.7609C42.1469 59.6721 42.2636 59.5655 42.355 59.4817C42.5606 59.2939 42.7687 59.1213 42.7712 59.1188L41.3652 58.0832L41.4515 58.0579Z" fill="#4E5B31"/>
<path d="M45.2457 57.1669H45.233C44.5604 57.1669 43.7356 57.3954 42.7838 57.8471C43.3473 58.1821 43.9919 58.3573 44.6493 58.3547C45.3523 58.3471 46.0427 58.1542 46.6493 57.7964C46.5757 57.672 46.4767 57.5654 46.3599 57.4842C46.1645 57.3421 45.8142 57.1695 45.2457 57.1669Z" fill="#4E5B31"/>
<path d="M45.2078 55.7355C45.4058 55.4411 45.4997 55.0883 45.4718 54.7355C45.3829 54.7152 45.2941 54.7051 45.2053 54.7051C44.7408 54.7051 43.5555 54.9386 42.4109 57.101C44.1545 56.8523 44.8931 56.2228 45.2078 55.7355Z" fill="#4E5B31"/>
<path d="M56.4285 50.6797C56.2458 50.8701 56.1341 51.1137 56.1062 51.3752C56.1062 51.3752 56.2966 51.3929 56.5834 51.3929C56.959 51.3929 57.3321 51.3625 57.7026 51.2965C58.1341 51.2178 58.3778 50.8523 58.5072 50.5579C58.5935 50.3574 58.6544 50.1467 58.6874 49.9285C57.3524 49.9665 56.7229 50.3574 56.4285 50.6772V50.6797Z" fill="#4E5B31"/>
<path d="M55.2634 53.0426C55.2406 53.0426 55.2152 53.0426 55.1898 53.0426C54.9005 53.0426 54.6137 53.0705 54.3294 53.1264C53.6873 53.2609 53.1137 53.6213 52.7178 54.1441C53.1162 54.2406 53.5249 54.2888 53.936 54.2862C54.3396 54.2862 54.7457 54.2406 55.1365 54.1441C55.8015 53.9766 56.0883 53.7228 56.2101 53.5401C56.2634 53.4639 56.299 53.3776 56.3142 53.2863C56.3193 53.2507 56.3218 53.2152 56.3167 53.1797C55.9741 53.0934 55.6162 53.0451 55.2634 53.0426Z" fill="#4E5B31"/>
<path d="M54.096 49.8294C54.096 49.8294 54.0757 49.8294 54.0656 49.8294C54.0503 49.8294 54.0351 49.8294 54.0199 49.8294C53.7788 49.8371 53.4082 49.936 52.9996 50.3777C52.5301 50.8853 52.1113 51.7178 51.7534 52.8548C52.0986 52.6974 52.4209 52.4919 52.7077 52.2431C53.4463 51.6061 54.0224 50.8041 54.3879 49.898C54.2965 49.8548 54.1976 49.832 54.0986 49.8269L54.096 49.8294Z" fill="#4E5B31"/>
<path d="M68.6238 19.4973C66.9563 20.1318 65.634 20.6978 63.9944 21.3374C62.8955 21.9617 61.7026 23.0632 60.2838 23.0277C58.7559 23.6851 56.6595 25.8399 54.3752 26.1673C50.4159 26.85 47.4159 28.4008 43.2916 28.3551C39.8145 27.7155 36.1648 28.2079 33.0861 26.6825C33.8272 28.7358 33.7942 33.9083 30.4338 32.9566C28.779 31.7205 26.6039 31.9388 25.175 32.5784C22.0913 39.9869 17.4086 30.3627 20.0202 36.7408C20.3832 38.0073 19.8476 39.756 21.4035 40.3321C22.2994 40.7966 21.5558 42.5859 22.5557 42.7483C24.043 44.0174 26.2664 44.4032 28.2511 45.294C31.4262 44.8981 32.7308 43.8448 33.7257 47.1595C37.8703 47.5554 32.048 45.5173 37.6114 43.7737C41.553 44.4768 44.3246 41.7407 47.7484 41.0986C48.7484 40.0428 47.9692 38.0936 49.4083 37.3601C50.7712 36.9971 52.1519 37.3626 53.2407 38.1189C54.3321 37.3068 55.5986 36.7078 56.9336 37.322C58.1341 37.8931 57.9514 37.8245 57.7102 36.8448C56.4234 34.8804 54.0986 33.5835 53.9641 31.5987C54.228 28.8931 55.5529 29.0657 57.5351 28.5733C58.6138 25.3297 63.3929 25.0886 65.0503 22.4414C66.0629 21.0379 68.4183 21.3551 68.6213 19.4948L68.6238 19.4973Z" fill="#D57800"/>
<path opacity="0.2" d="M68.5274 12.6902H12.6903C8.48477 12.6902 5.07617 16.0988 5.07617 20.3044V22.8424C5.07617 18.6369 8.48477 15.2283 12.6903 15.2283H68.5274C72.7329 15.2283 76.1415 18.6369 76.1415 22.8424V20.3044C76.1415 16.0988 72.7329 12.6902 68.5274 12.6902Z" fill="white"/>
</svg>
