<svg width="82" height="82" viewBox="0 0 82 82" fill="none" xmlns="http://www.w3.org/2000/svg">
<path d="M68.5273 10.1522H12.6903C7.08338 10.1522 2.53809 14.6975 2.53809 20.3043V60.9131C2.53809 66.52 7.08338 71.0653 12.6903 71.0653H68.5273C74.1342 71.0653 78.6795 66.52 78.6795 60.9131V20.3043C78.6795 14.6975 74.1342 10.1522 68.5273 10.1522Z" fill="#2D693B"/>
<path d="M38.0708 10.1522H43.1469V71.0653H38.0708V10.1522Z" fill="black"/>
<path d="M32.9948 10.1522H38.0708V71.0653H32.9948V10.1522Z" fill="#F8D047"/>
<path d="M43.147 10.1522H48.2231V71.0653H43.147V10.1522Z" fill="white"/>
<path d="M78.6796 38.0707V43.1468L2.53815 43.1468V38.0707L78.6796 38.0707Z" fill="black"/>
<path d="M78.6796 32.9946V38.0707L2.53815 38.0707V32.9946L78.6796 32.9946Z" fill="#F8D047"/>
<path d="M78.6796 43.1468V48.2229L2.53815 48.2229V43.1468L78.6796 43.1468Z" fill="white"/>
<path opacity="0.15" d="M68.5273 10.1522H12.6903C7.08373 10.1522 2.53809 14.6978 2.53809 20.3043V60.9131C2.53809 66.5197 7.08373 71.0653 12.6903 71.0653H68.5273C74.1339 71.0653 78.6795 66.5197 78.6795 60.9131V20.3043C78.6795 14.6978 74.1339 10.1522 68.5273 10.1522ZM76.1415 60.9131C76.1415 65.111 72.7253 68.5272 68.5273 68.5272H12.6903C8.49234 68.5272 5.07613 65.111 5.07613 60.9131V20.3043C5.07613 16.1064 8.49234 12.6902 12.6903 12.6902H68.5273C72.7253 12.6902 76.1415 16.1064 76.1415 20.3043V60.9131Z" fill="black"/>
<path d="M40.6088 55.837C49.0191 55.837 55.8371 49.0191 55.8371 40.6087C55.8371 32.1984 49.0191 25.3804 40.6088 25.3804C32.1984 25.3804 25.3805 32.1984 25.3805 40.6087C25.3805 49.0191 32.1984 55.837 40.6088 55.837Z" fill="#C42936"/>
<path d="M40.5708 30.2408L39.3195 31.2027L39.7282 29.5759L38.4261 28.6825L40.1013 28.5683L40.5505 27.053L41.1749 28.6114L42.7561 28.5683L41.4667 29.6469L42.0556 31.3195L40.5708 30.2408Z" fill="#2D693B"/>
<path d="M40.6088 27.0733L41.1164 28.6317H42.7559L41.4285 29.5962L41.9362 31.1545L40.6088 30.1901L39.2814 31.1545L39.789 29.5962L38.4616 28.6317H40.1011L40.6088 27.0733ZM40.6088 26.6622L40.4869 27.0327L40.0098 28.5048H38.0732L38.3905 28.7332L39.6418 29.6418L39.1621 31.1114L39.0402 31.4819L39.3575 31.2535L40.6088 30.3449L41.86 31.2535L42.1773 31.4819L42.0554 31.1114L41.5757 29.6418L42.827 28.7332L43.1443 28.5048H41.2077L40.7306 27.0327L40.6088 26.6622Z" fill="black"/>
<path d="M46.675 32.2002L45.0938 32.2434L46.3805 31.1672L45.8526 29.6774L47.2765 30.5708L48.5277 29.6063L48.1191 31.2383L49.4237 32.1291L47.746 32.2434L47.2384 33.9464L46.675 32.2002Z" fill="#2D693B"/>
<path d="M48.5655 29.6571L48.0605 31.2155L49.3853 32.1774H47.7457L47.2407 33.7357L46.7331 32.1774H45.0935L46.4183 31.2155L45.9107 29.6571L47.2356 30.619L48.563 29.6546M48.8041 29.3221L48.4894 29.5505L47.2381 30.4591L45.9869 29.5505L45.6696 29.3221L45.7914 29.6926L46.2686 31.1647L45.0173 32.0733L44.7001 32.3017H45.0909H46.6366L47.1138 33.7738L47.2356 34.1444L47.3574 33.7738L47.8346 32.3017H49.3802H49.7711L49.4538 32.0733L48.2026 31.1647L48.6797 29.6926L48.8041 29.3221Z" fill="black"/>
<path d="M51.2991 38.0352L50.0478 38.9997L50.459 37.3702L49.1544 36.4768L50.8295 36.3626L51.2762 34.8474L51.9031 36.4058L53.4818 36.3626L52.1925 37.4388L52.7838 39.1139L51.2991 38.0352Z" fill="#2D693B"/>
<path d="M51.337 34.8677L51.8447 36.4261H53.4842L52.1568 37.3905L52.6619 38.9489L51.337 37.9844L50.0122 38.9489L50.5198 37.3905L49.1949 36.4261H50.8345L51.3396 34.8677M51.3396 34.4565L51.2178 34.8271L50.7406 36.2992H49.1949H48.8041L49.1213 36.5276L50.3726 37.4362L49.8954 38.9083L49.7736 39.2788L50.0909 39.0479L51.3421 38.1393L52.5934 39.0479L52.9106 39.2763L52.7888 38.9057L52.3117 37.4362L53.5629 36.5276L53.8776 36.2992H53.4868H51.9386L51.4614 34.8296L51.3396 34.4565Z" fill="black"/>
<path d="M50.7713 44.8118L49.1926 44.8549L50.482 43.7788L49.9515 42.289L51.3728 43.1824L52.6241 42.2179L52.2154 43.8473L53.52 44.7407L51.8449 44.8549L51.3373 46.5554L50.7713 44.8118Z" fill="#2D693B"/>
<path d="M50.0098 42.2686L51.3347 43.2331L52.6595 42.2686L52.1545 43.827L53.4819 44.7914H51.8423L51.3347 46.3498L50.8296 44.7914H49.19L50.5149 43.8295L50.0073 42.2711M49.7662 41.9387L49.888 42.3092L50.3651 43.7813L49.1139 44.6899L48.7966 44.9183H49.1875H50.7332L51.2103 46.3904L51.3321 46.7609L51.454 46.3904L51.9311 44.9209H53.4793H53.8702L53.5555 44.6924L52.3042 43.7838L52.7814 42.3143L52.9032 41.9437L52.5859 42.1722L51.3347 43.0808L50.0834 42.1722L49.7662 41.9387Z" fill="black"/>
<path d="M47.2027 50.6467L45.9489 51.6086L46.3601 49.9792L45.0555 49.0884L46.7332 48.9741L47.1799 47.4589L47.8042 49.0173L49.3854 48.9741L48.0961 50.0503L48.6875 51.7254L47.2027 50.6467Z" fill="#2D693B"/>
<path d="M47.2382 47.4793L47.7432 49.0376H49.3828L48.058 49.9996L48.563 51.5579L47.2356 50.5935L45.9108 51.5579L46.4184 49.9996L45.0935 49.0376H46.7331L47.2407 47.4793M47.2407 47.0681L47.1189 47.4387L46.6417 48.9107H45.0961H44.7052L45.0225 49.1392L46.2737 50.0478L45.7966 51.5198L45.6747 51.8904L45.992 51.662L47.2432 50.7534L48.4945 51.662L48.8092 51.8904L48.6874 51.5198L48.2102 50.0478L49.4615 49.1392L49.7788 48.9107H49.3879H47.8422L47.3651 47.4387L47.2407 47.0681Z" fill="black"/>
<path d="M40.0403 52.6061L38.4617 52.6492L39.751 51.5705L39.2231 50.0832L40.6469 50.9766L41.8982 50.0147L41.4896 51.6416L42.7916 52.535L41.1139 52.6492L40.6089 54.3522L40.0403 52.6061Z" fill="#2D693B"/>
<path d="M41.9362 50.063L41.4285 51.6213L42.7559 52.5858H41.1164L40.6088 54.1441L40.1011 52.5858H38.4616L39.789 51.6213L39.2814 50.063L40.6088 51.0274L41.9362 50.063ZM42.1773 49.7305L41.86 49.9589L40.6088 50.8675L39.3575 49.9589L39.0402 49.7305L39.1621 50.101L39.6418 51.5706L38.3905 52.4792L38.0732 52.7076H40.0098L40.4869 54.1797L40.6088 54.5502L40.7306 54.1797L41.2077 52.7076H43.1443L42.827 52.4792L41.5757 51.5706L42.0554 50.101L42.1773 49.7305Z" fill="black"/>
<path d="M33.0986 49.9792L31.7941 49.0884L33.4717 48.9741L33.9184 47.4589L34.5428 49.0173L36.124 48.9741L34.8372 50.0503L35.3651 51.5401L33.9413 50.6467L32.5301 51.7254L33.0986 49.9792Z" fill="#2D693B"/>
<path d="M33.9793 47.4793L34.4869 49.0376H36.1265L34.8016 49.9996L35.3092 51.5579L33.9844 50.5935L32.657 51.5579L33.1646 49.9996L31.8397 49.0376H33.4793L33.9844 47.4793M33.9844 47.0681L33.8625 47.4387L33.3854 48.9107H31.8397H31.4489L31.7661 49.1392L33.0174 50.0478L32.5402 51.5198L32.4184 51.8904L32.7331 51.662L33.9844 50.7534L35.2356 51.662L35.5529 51.8904L35.431 51.5198L34.9539 50.0478L36.2052 49.1392L36.5224 48.9107H36.1316H34.5833L34.1062 47.4387L33.9844 47.0681Z" fill="black"/>
<path d="M29.3144 44.8118L27.7357 44.8549L29.025 43.7763L28.4971 42.289L29.9184 43.1824L31.1697 42.2179L30.7585 43.8473L32.0631 44.7407L30.388 44.8549L29.8804 46.5554L29.3144 44.8118Z" fill="#2D693B"/>
<path d="M31.2054 42.2687L30.6978 43.827L32.0227 44.7915H30.3831L29.878 46.3499L29.3704 44.7915H27.7308L29.0582 43.827L28.5532 42.2687L29.878 43.2331L31.2029 42.2687M31.444 41.9362L31.1267 42.1672L29.8755 43.0758L28.6242 42.1672L28.307 41.9387L28.4288 42.3093L28.9059 43.7788L27.6547 44.6874L27.34 44.9159H27.7308H29.279L29.7562 46.3854L29.878 46.7559L29.9998 46.3854L30.477 44.9133H32.0227H32.4135L32.0963 44.6849L30.845 43.7763L31.3222 42.3042L31.444 41.9337V41.9362Z" fill="black"/>
<path d="M29.8449 38.0352L28.5937 38.9997L29.0023 37.3702L27.6978 36.4768L29.3729 36.3626L29.8221 34.8474L30.4465 36.4058L32.0251 36.3626L30.7358 37.4388L31.3297 39.1139L29.8449 38.0352Z" fill="#2D693B"/>
<path d="M29.8804 34.8677L30.3854 36.4261H32.025L30.7001 37.388L31.2078 38.9464L29.8829 37.9819L28.558 38.9464L29.0631 37.388L27.7357 36.4235H29.3753L29.8829 34.8652M29.8829 34.454L29.7611 34.8246L29.2839 36.2941H27.7357H27.3448L27.6596 36.5225L28.9108 37.4311L28.4337 38.9007L28.3118 39.2712L28.6291 39.0428L29.8804 38.1342L31.1316 39.0428L31.4489 39.2738L31.327 38.9032L30.8499 37.4311L32.1011 36.5225L32.4184 36.2941H32.0275H30.4819L30.0047 34.822L29.8829 34.454Z" fill="black"/>
<path d="M33.4135 32.2002L31.8323 32.2434L33.1216 31.1672L32.5937 29.6774L34.015 30.5708L35.2688 29.6089L34.8576 31.2383L36.1622 32.1292L34.4845 32.2434L33.9795 33.9464L33.4135 32.2002Z" fill="#2D693B"/>
<path d="M32.652 29.6571L33.9794 30.6216L35.3043 29.6596L34.7967 31.218L36.1215 32.1799H34.4819L33.9743 33.7383L33.4693 32.1799H31.8297L33.1545 31.218L32.6469 29.6596M32.4058 29.3271L32.5276 29.6977L33.0048 31.1698L31.7535 32.0784L31.4363 32.3068H31.8271H33.3728L33.85 33.7789L33.9718 34.1494L34.0936 33.7789L34.5708 32.3068H36.119H36.5098L36.1926 32.0784L34.9413 31.1698L35.4185 29.6977L35.5403 29.3271L35.223 29.5556L33.9718 30.4642L32.7205 29.5556L32.4058 29.3271Z" fill="black"/>
<path opacity="0.2" d="M68.5272 12.6902H12.6902C8.48465 12.6902 5.07605 16.0988 5.07605 20.3044V22.8424C5.07605 18.6369 8.48465 15.2283 12.6902 15.2283H68.5272C72.7328 15.2283 76.1414 18.6369 76.1414 22.8424V20.3044C76.1414 16.0988 72.7328 12.6902 68.5272 12.6902Z" fill="white"/>
</svg>
