<svg width="82" height="82" viewBox="0 0 82 82" fill="none" xmlns="http://www.w3.org/2000/svg">
<path d="M12.6905 10.1522C7.08397 10.1522 2.53833 14.6978 2.53833 20.3043V40.6087H40.609V10.1522H12.6905Z" fill="#0D285F"/>
<path d="M78.6797 20.3043C78.6797 14.6978 74.1341 10.1522 68.5275 10.1522H40.609V40.6087H78.6797V20.3043Z" fill="#BE2A2C"/>
<path d="M12.6905 71.0653C7.08397 71.0653 2.53833 66.5197 2.53833 60.9131V40.6088H40.609V71.0653H12.6905Z" fill="#BE2A2C"/>
<path d="M78.6797 60.9131C78.6797 66.5197 74.1341 71.0653 68.5275 71.0653H40.609V40.6088H78.6797V60.9131Z" fill="#0D285F"/>
<path d="M32.9949 10.1522H48.2232V71.0653H32.9949V10.1522Z" fill="white"/>
<path d="M2.53833 48.2229L2.53833 32.9946L78.6797 32.9946V48.2229L2.53833 48.2229Z" fill="white"/>
<path opacity="0.15" d="M68.5276 10.1522H12.6905C7.08397 10.1522 2.53833 14.6978 2.53833 20.3043V60.9131C2.53833 66.5197 7.08397 71.0653 12.6905 71.0653H68.5276C74.1341 71.0653 78.6797 66.5197 78.6797 60.9131V20.3043C78.6797 14.6978 74.1341 10.1522 68.5276 10.1522ZM76.1417 60.9131C76.1417 65.111 72.7255 68.5272 68.5276 68.5272H12.6905C8.49259 68.5272 5.07638 65.111 5.07638 60.9131V20.3043C5.07638 16.1064 8.49259 12.6902 12.6905 12.6902H68.5276C72.7255 12.6902 76.1417 16.1064 76.1417 20.3043V60.9131Z" fill="black"/>
<path d="M48.1901 35.9286C48.0378 35.6951 47.5658 35.4489 47.2942 35.3423L46.2105 34.9464C46.3094 34.756 46.3907 34.5986 46.2917 34.4438C46.1419 34.2154 45.2358 33.7712 45.0074 33.7078C44.6166 33.6012 44.2206 33.5174 43.8196 33.4514C43.4338 33.3905 42.6902 33.3372 42.6902 33.3372C42.6369 33.2814 42.7917 32.987 42.5531 32.7814C42.4135 32.6697 42.2105 32.6317 42.0024 32.6113C41.175 32.5327 40.0455 32.5555 39.2105 32.6113C38.9694 32.6266 38.7994 32.652 38.6598 32.7814C38.4922 32.9388 38.4694 33.0352 38.4846 33.3347C37.3679 33.3144 36.241 33.5707 35.3019 34.1519C34.8705 34.4184 34.7689 34.5098 35.0075 34.9387C34.9517 34.9768 34.5583 35.0961 34.4618 35.1316C34.104 35.2687 33.7385 35.4032 33.4339 35.5885C33.2486 35.7002 33.17 35.7839 33.0278 35.9311L33.9238 35.8626C33.8958 35.921 33.8299 36.0047 33.7943 36.0606C33.642 36.2814 33.5456 36.4565 33.4136 36.6875C33.6674 36.5149 33.8958 36.355 34.1877 36.2128C34.8273 35.8905 35.9796 35.8804 36.4517 35.3144C36.5735 35.1722 36.4999 35.0859 36.3984 34.8524C36.7486 34.7357 36.8806 34.6545 37.3044 34.558C38.3324 34.3296 39.0379 34.6012 39.5354 34.4794C39.6902 34.4413 39.8425 34.355 39.8526 34.1926L39.779 33.6748H41.4465C41.4465 33.9667 41.1673 34.3423 41.6851 34.4768C42.1521 34.5986 43.0988 34.3321 43.9161 34.558L44.8221 34.8499C44.8171 34.8931 44.7536 35.0073 44.7333 35.0682C44.6952 35.1722 44.6978 35.2281 44.7663 35.3042C44.8551 35.4057 44.9795 35.5047 45.114 35.5834C45.3805 35.7357 45.7257 35.8321 46.0556 35.9108C46.9972 36.1392 47.0861 36.2001 47.812 36.6824C47.7637 36.5402 47.4186 36.0377 47.3043 35.86L48.1952 35.9311L48.1901 35.9286Z" fill="#002D62"/>
<path d="M34.2841 43.629C34.3755 43.1823 33.774 42.8498 32.9364 43.0199C33.0303 43.3574 33.6344 43.7331 34.2841 43.629Z" fill="#00863D"/>
<path d="M37.9541 45.1408L37.9589 45.1336C37.9517 45.1167 37.9517 45.1215 37.9541 45.1408Z" fill="#00863D"/>
<path d="M43.2559 45.1408L43.2511 45.1336C43.2583 45.1167 43.2583 45.1215 43.2559 45.1408Z" fill="#00863D"/>
<path d="M47.7587 45.2635L47.8577 44.7762C47.8882 44.6417 47.9618 44.4437 47.977 44.3143C47.7613 44.5427 47.5709 44.7813 47.3805 44.9945C47.2917 45.1138 47.1902 45.2127 47.1014 45.3422C46.911 45.6341 46.9491 45.6442 46.8755 45.7381C46.2105 45.3701 45.9136 46.2686 45.4643 46.8193C44.6318 46.3523 43.906 46.2051 42.9288 46.0249C42.7105 46.0021 42.5126 45.9716 42.3324 45.9513C41.1014 45.8066 39.7461 45.8117 38.5202 45.997C37.8882 46.0782 37.4949 46.1924 36.939 46.3244C36.4872 46.4742 36.1852 46.5757 35.7538 46.8295C35.5888 46.5807 35.3629 46.2153 35.203 46.0021C35.1142 45.8879 34.9873 45.7635 34.8324 45.6848C34.5862 45.5706 34.4974 45.6061 34.3426 45.7407L34.2335 45.5325C34.0127 45.1442 33.7842 44.9666 33.538 44.6544L33.3172 44.3955C33.2868 44.36 33.2766 44.3371 33.2385 44.3168C33.3325 44.629 33.401 44.9259 33.4644 45.2635C33.3299 45.1899 33.2056 45.1138 33.0634 45.0554C32.9594 45.0148 32.6878 44.9564 32.5583 44.9716L32.7182 45.1163C32.9924 45.3599 33.1726 45.6823 33.2842 46.0427C33.4035 46.4335 33.6852 46.8523 33.9797 47.1391C34.0406 47.1975 34.2106 47.3523 34.3198 47.3929C34.6497 47.5122 34.6345 47.3878 34.7538 47.3295C35.0076 47.7584 35.1725 47.9741 35.4644 48.3015C35.7791 48.634 36.2741 48.7229 36.7258 48.6188C36.9263 48.568 37.0507 48.5147 37.2055 48.4259C37.7918 48.0883 37.5101 47.8269 37.4416 47.5579C37.6319 47.4995 38.3756 47.2736 38.6446 47.2229C39.5862 47.0478 41.3349 47.0249 42.4517 47.1873C42.5506 47.2026 43.6775 47.5021 43.7892 47.5655C43.7105 47.7533 43.6775 47.8447 43.6902 48.0503C43.7105 48.2406 43.873 48.3396 44.0176 48.4234C44.1725 48.5122 44.2968 48.568 44.4973 48.6163C44.6928 48.6619 44.9034 48.6696 45.1014 48.6416C45.5227 48.5731 45.741 48.3295 45.9212 48.1112C46.2207 47.7686 46.3146 47.563 46.4669 47.3219C46.4669 47.3219 46.5531 47.4005 46.6141 47.4208C46.6724 47.4386 46.8577 47.4056 46.9085 47.3853C47.0531 47.332 47.1445 47.2229 47.2435 47.1264C47.5531 46.8295 47.8146 46.4412 47.9389 46.0198C48.0887 45.5249 48.2942 45.2914 48.6597 44.9691C48.1876 44.9843 48.0252 45.1163 47.7587 45.2635Z" fill="#CE1126"/>
<path d="M36.9338 36.8499C36.944 36.9158 36.9389 42.3549 36.9389 42.9183C36.9389 43.4564 36.944 43.799 37.2003 44.1391C37.411 44.4335 37.7638 44.6772 38.109 44.7584C38.3526 44.8092 39.2511 44.7889 39.5633 44.7889C40.2561 44.7559 40.3399 44.9107 40.6039 45.2533C40.9033 44.7711 41.2308 44.7635 41.845 44.7889C42.1571 44.7889 42.8272 44.8142 43.1038 44.7533C43.4363 44.6747 43.6952 44.5148 43.9084 44.2508C44.2612 43.8472 44.2409 43.3447 44.2409 42.8168V37.0808C44.2409 36.8219 44.2104 36.8854 44.3424 36.7509L45.2053 35.8448L35.9719 35.8499L36.9288 36.8524L36.9338 36.8499Z" fill="white"/>
<path d="M39.817 39.5504V35.8423H35.9972L36.9464 36.8448L36.9566 39.5504H39.8195H39.817Z" fill="#002D62"/>
<path d="M41.3475 39.5504V35.8423H45.2383L44.2459 36.9057V39.5504H41.3475ZM39.8171 41.0808H36.9288L36.9211 43.4158C37.0531 44.4361 37.8069 44.7838 38.482 44.7787C38.9389 44.7838 39.0962 44.7762 39.8171 44.7711V41.0783V41.0808Z" fill="#CE1126"/>
<path d="M41.3477 41.0808H44.2537L44.2436 43.4158C44.175 44.4259 43.3578 44.7838 42.6827 44.7787L41.3477 44.7711V41.0782V41.0808Z" fill="#002D62"/>
<path d="M40.6015 45.3117L40.5685 45.261C40.5101 45.1696 40.4873 45.1341 40.4111 45.0605C40.17 44.8193 40 44.8193 39.6573 44.8219H39.5812C39.5228 44.8219 39.4441 44.8219 39.3528 44.8219C38.9416 44.8244 38.3223 44.832 38.1193 44.7889C37.6624 44.7178 37.3655 44.4183 37.1954 44.1823C36.9213 43.794 36.9213 43.464 36.9213 42.9158V42.3574C36.9213 40.9057 36.9238 37.0935 36.9162 36.86L35.9137 35.8093L45.3045 35.8042L44.3857 36.7687C44.3679 36.7864 44.3552 36.7991 44.3426 36.8118C44.3053 36.849 44.2876 36.8981 44.2893 36.959C44.2893 36.9895 44.2893 37.025 44.2893 37.0732V42.8879C44.2893 43.3955 44.2893 43.8727 43.9492 44.266C43.7385 44.5148 43.4289 44.7077 43.1268 44.7813C42.9009 44.8295 42.4289 44.8244 42.0862 44.8193C41.9999 44.8193 41.9213 44.8193 41.8578 44.8193C41.8096 44.8193 41.7563 44.8193 41.7004 44.8193C41.4771 44.8143 41.2258 44.8092 41.0634 44.8752C40.8984 44.9437 40.7563 45.1061 40.6269 45.2737L40.5964 45.3117H40.6015ZM39.7258 44.7534C40.0329 44.7534 40.2157 44.7686 40.4593 45.0122C40.5329 45.0833 40.5609 45.1214 40.6065 45.1924C40.7334 45.03 40.8756 44.8777 41.0431 44.8092C41.2182 44.7381 41.4771 44.7432 41.7055 44.7483C41.7614 44.7483 41.8121 44.7483 41.8603 44.7483C41.9238 44.7483 42.0025 44.7483 42.0888 44.7483C42.4289 44.7534 42.8959 44.7584 43.1141 44.7127C43.4035 44.6442 43.6979 44.4589 43.9009 44.2204C44.2258 43.8473 44.2258 43.3803 44.2258 42.8853V37.0707C44.2258 37.0225 44.2258 36.9869 44.2258 36.9565C44.2233 36.8397 44.2258 36.8296 44.2994 36.7585C44.3121 36.7484 44.3248 36.7331 44.34 36.7179L45.1497 35.8676L36.0761 35.8727L36.9848 36.8245V36.8372C36.9924 36.8778 36.9949 38.5275 36.9924 42.3549V42.9133C36.9924 43.4463 36.9924 43.7686 37.2538 44.1391C37.4162 44.365 37.7005 44.6493 38.1345 44.7178C38.3299 44.7584 38.972 44.7534 39.3553 44.7483C39.4467 44.7483 39.5253 44.7483 39.5837 44.7483H39.6599C39.6827 44.7483 39.7055 44.7483 39.7258 44.7483V44.7534Z" fill="black"/>
<path d="M34.6751 37.1748C35.1954 38.1824 35.9238 38.2357 34.8172 39.3854C34.8477 39.5504 35.3249 39.3854 35.3249 39.3854C35.0482 40.8042 34.1447 40.6545 36.0736 40.0733C35.7589 40.2966 35.8477 40.6316 35.8477 40.6316L36.2817 40.7128C36.2817 40.7128 36.4314 40.921 35.67 40.9514C34.604 41.393 35.3122 42.4235 35.9568 42.8118C36.4213 43.2534 35.4416 44.025 36.0736 44.2661C38.7182 44.3575 36.2512 47.6011 35.3249 45.8625C35.3249 45.8625 35.5634 46.0707 35.9137 45.8321C36.3604 45.19 34.7132 45.6493 34.4568 45.0072C34.8172 45.0707 35.2056 44.7813 35.2056 44.7813C34.4492 44.8245 33.4467 43.4666 32.9391 43.0199C32.9391 43.0199 33.7233 42.7585 34.2411 43.058C34.2411 42.6113 33.4898 42.2839 33.3553 41.7306C33.2208 41.1773 33.8655 40.7941 33.6167 40.5606C33.368 40.3271 33.3731 38.5047 34.6751 37.1748Z" fill="#00863D"/>
<path d="M46.5355 37.1748C46.0152 38.1824 45.2867 38.2357 46.3933 39.3854C46.3629 39.5504 45.8857 39.3854 45.8857 39.3854C46.1624 40.8042 47.0659 40.6545 45.137 40.0733C45.4517 40.2966 45.3629 40.6316 45.3629 40.6316L44.9289 40.7128C44.9289 40.7128 44.7791 40.921 45.5406 40.9514C46.6065 41.393 45.8984 42.4235 45.2538 42.8118C44.7893 43.2534 45.769 44.025 45.137 44.2661C42.4924 44.3575 44.9593 47.6011 45.8857 45.8625C45.8857 45.8625 45.6472 46.0707 45.2969 45.8321C44.8502 45.19 46.4974 45.6493 46.7537 45.0072C46.3933 45.0707 46.005 44.7813 46.005 44.7813C46.7614 44.8245 47.7639 43.4666 48.2715 43.0199C48.2715 43.0199 47.4872 42.7585 46.9695 43.058C46.9695 42.6113 47.7207 42.2839 47.8552 41.7306C47.9898 41.1773 47.3451 40.7941 47.5938 40.5606C47.8426 40.3271 47.8375 38.5047 46.5355 37.1748Z" fill="#00863D"/>
<path opacity="0.2" d="M68.5276 12.6902H12.6906C8.48501 12.6902 5.07642 16.0988 5.07642 20.3044V22.8424C5.07642 18.6369 8.48501 15.2283 12.6906 15.2283H68.5276C72.7331 15.2283 76.1417 18.6369 76.1417 22.8424V20.3044C76.1417 16.0988 72.7331 12.6902 68.5276 12.6902Z" fill="white"/>
</svg>
