<svg width="82" height="82" viewBox="0 0 82 82" fill="none" xmlns="http://www.w3.org/2000/svg">
<path d="M68.5273 71.0653H38.0707L38.0707 10.1522L68.5273 10.1522C74.1313 10.1522 78.6794 14.7004 78.6794 20.3044V60.9131C78.6794 66.5171 74.1313 71.0653 68.5273 71.0653Z" fill="white"/>
<path d="M12.6902 10.1522H40.6087V71.0653H12.6902C7.08614 71.0653 2.53796 66.5171 2.53796 60.9131V20.3044C2.53796 14.7004 7.08614 10.1522 12.6902 10.1522Z" fill="#2B6536"/>
<path opacity="0.15" d="M68.5272 10.1522H12.6902C7.08361 10.1522 2.53796 14.6978 2.53796 20.3044V60.9131C2.53796 66.5197 7.08361 71.0653 12.6902 71.0653H68.5272C74.1337 71.0653 78.6794 66.5197 78.6794 60.9131V20.3044C78.6794 14.6978 74.1337 10.1522 68.5272 10.1522ZM76.1413 60.9131C76.1413 65.1111 72.7251 68.5273 68.5272 68.5273H12.6902C8.49222 68.5273 5.07601 65.1111 5.07601 60.9131V20.3044C5.07601 16.1065 8.49222 12.6902 12.6902 12.6902H68.5272C72.7251 12.6902 76.1413 16.1065 76.1413 20.3044V60.9131Z" fill="black"/>
<path d="M48.4538 44.2305L52.7126 50.0934V42.8473L59.6009 40.6088L52.7126 38.3702V31.1241L48.4538 36.987L41.563 34.7484L45.8218 40.6088L41.563 46.4691L48.4538 44.2305Z" fill="#C22B38"/>
<path d="M36.4083 53.063C29.5302 47.5554 28.4185 37.5149 33.9261 30.6368C39.4336 23.7587 49.4741 22.647 56.3523 28.1546C57.2685 28.8881 58.101 29.7205 58.8345 30.6368C53.3269 21.0988 41.129 17.8298 31.5911 23.3373C22.0531 28.8449 18.7841 41.0428 24.2916 50.5807C29.7992 60.1187 41.9971 63.3877 51.535 57.8802C54.568 56.1289 57.0858 53.6112 58.8345 50.5807C53.3269 57.4589 43.2864 58.5705 36.4083 53.063Z" fill="#C22B38"/>
<path opacity="0.2" d="M68.5272 12.6902H12.6902C8.48465 12.6902 5.07605 16.0988 5.07605 20.3044V22.8424C5.07605 18.6369 8.48465 15.2283 12.6902 15.2283H68.5272C72.7328 15.2283 76.1414 18.6369 76.1414 22.8424V20.3044C76.1414 16.0988 72.7328 12.6902 68.5272 12.6902Z" fill="white"/>
</svg>
