<svg width="82" height="82" viewBox="0 0 82 82" fill="none" xmlns="http://www.w3.org/2000/svg">
<path d="M2.53809 60.9131C2.53809 66.5196 7.08373 71.0653 12.6903 71.0653H68.5273C74.1339 71.0653 78.6795 66.5196 78.6795 60.9131V53.299H2.53809V60.9131Z" fill="#DA352E"/>
<path d="M2.53809 38.0707H78.6795V55.837H2.53809V38.0707Z" fill="#1F4C9E"/>
<path d="M68.5273 10.1522H12.6903C7.08373 10.1522 2.53809 14.6978 2.53809 20.3043V40.6087H78.6795V20.3043C78.6795 14.6978 74.1339 10.1522 68.5273 10.1522Z" fill="#FADF4B"/>
<path opacity="0.15" d="M68.5273 10.1522H12.6903C7.08373 10.1522 2.53809 14.6978 2.53809 20.3043V60.9131C2.53809 66.5197 7.08373 71.0653 12.6903 71.0653H68.5273C74.1339 71.0653 78.6795 66.5197 78.6795 60.9131V20.3043C78.6795 14.6978 74.1339 10.1522 68.5273 10.1522ZM76.1415 60.9131C76.1415 65.111 72.7253 68.5272 68.5273 68.5272H12.6903C8.49234 68.5272 5.07613 65.111 5.07613 60.9131V20.3043C5.07613 16.1064 8.49234 12.6902 12.6903 12.6902H68.5273C72.7253 12.6902 76.1415 16.1064 76.1415 20.3043V60.9131Z" fill="black"/>
<path d="M30.5378 30.2789C30.5251 30.2662 30.5124 30.2688 30.5074 30.2713C30.4769 30.284 30.4134 30.3094 30.3804 32.185C30.3627 33.2281 30.3551 34.7078 30.3627 36.4667V36.4743L33.0555 39.1925L34.0479 40.1951L34.5124 39.0504L34.5987 38.3626L35.5606 35.4413V35.4311C35.5606 35.4311 31.1038 30.8627 30.5378 30.2789Z" fill="#FADF4B"/>
<path d="M34.0936 40.421L30.2384 36.5251V36.4718C30.2307 34.7154 30.2384 33.2332 30.2561 32.1799C30.2891 30.2206 30.3424 30.1977 30.4617 30.152L30.5404 30.1216L30.6318 30.1901C31.1952 30.7713 35.6571 35.3423 35.6571 35.3423L35.7078 35.3931L35.6901 35.4616L34.7231 38.4007L34.6343 39.0987L34.0962 40.421H34.0936ZM33.1825 39.1418L34.0048 39.9717L34.3906 39.02L34.4744 38.3474L35.4236 35.4667C34.9464 34.9794 31.4338 31.3805 30.5759 30.4998C30.5556 30.7053 30.5277 31.1622 30.5099 32.1876C30.4922 33.2282 30.4871 34.6926 30.4922 36.421L33.185 39.1393L33.1825 39.1418Z" fill="black"/>
<path d="M30.1241 51.8422L29.8221 51.4767L28.015 53.2001L28.0099 53.2052L27.9997 53.3625L28.015 53.3752V53.3803C27.9871 53.3955 27.7637 53.5046 27.5251 53.5224H27.5124L27.5099 53.5351C27.5099 53.5427 27.2713 54.2838 26.9998 54.5097L27.0201 54.5376C27.3525 54.3117 27.8805 54.1138 28.0023 54.1011H28.0175V54.0833C28.0251 53.8879 28.0581 53.6392 28.1825 53.563L28.2104 53.5579H28.3348L30.1139 51.8524L30.1241 51.8422Z" fill="#B4BBC0"/>
<path d="M31.0404 56.3751L31.0353 56.3801L31.0251 56.5375L31.0404 56.5527C31.0404 56.5527 31.0404 56.5578 31.0378 56.5578C31.0099 56.5705 30.7942 56.6796 30.5581 56.6974C30.5581 56.6974 30.5531 56.6974 30.5505 56.6974H30.5378L30.5353 56.7101C30.5353 56.7177 30.2967 57.4588 30.0251 57.6847L30.0455 57.7126C30.3779 57.4867 30.9058 57.2888 31.0277 57.2761H31.0429V57.2583C31.048 57.0629 31.0835 56.8141 31.2079 56.738L31.2383 56.7304H31.3602L34.6545 53.5299L34.3525 53.1644L31.0404 56.3751Z" fill="#B4BBC0"/>
<path d="M30.4692 29.0048C30.4616 28.9921 30.4464 28.9769 30.4286 28.9591L30.4007 28.9363L30.4058 28.9718C30.4489 29.2358 30.4184 29.4946 30.3195 29.7205C30.2865 29.7916 30.2484 29.8601 30.2027 29.9236L30.1951 29.9185L30.1824 29.9109C30.1773 29.8982 30.0377 29.5962 30.0225 29.2738V29.2662L30.0149 29.2637C30.0073 29.2611 29.1266 28.9439 28.8626 28.5886L28.8398 28.6038C29.091 29.0124 29.3271 29.6977 29.3423 29.8779V29.888H29.355C29.5885 29.9007 29.888 29.949 29.9768 30.1165L29.9819 30.1444H29.987C29.6824 30.3779 29.2763 30.4236 28.8956 30.2662L28.8829 30.2891L28.8905 30.2941C28.8905 30.2941 28.8982 30.2992 28.9032 30.3043C28.9362 30.3271 28.9718 30.3474 29.0073 30.3703C29.2408 30.5048 29.4921 30.5759 29.7281 30.5759C29.8449 30.5759 29.9591 30.5581 30.0657 30.5226C30.3042 30.4439 30.4921 30.2789 30.5885 30.0581C30.7256 29.751 30.6799 29.3576 30.4692 29.0048Z" fill="#B4BBC0"/>
<path d="M28.3627 34.2941C28.3754 34.2307 28.3627 34.1774 28.3297 34.1419C28.3043 34.1165 28.2688 34.1038 28.2257 34.1038C28.2079 34.1038 28.1901 34.1063 28.1698 34.1114C28.2053 34.0657 28.2231 34.0327 28.2231 34.015L28.2079 33.9744C28.3602 33.8018 28.6064 33.4997 28.5886 33.3424C28.5835 33.3094 28.5708 33.2865 28.5454 33.2688C28.4109 33.1799 28.0353 33.4794 27.8754 33.619L27.8145 33.5936C27.7967 33.5936 27.7688 33.6114 27.7282 33.6444C27.6546 33.4921 27.4998 33.1292 27.4642 32.7332V32.7256L27.4541 32.7231C27.4414 32.718 26.0683 32.2992 25.6394 31.7739L25.6191 31.7891C26.0302 32.3957 26.4414 33.4287 26.4769 33.7002V33.7104H26.4896L26.4947 33.7155L26.4998 33.7104C26.8247 33.7104 27.246 33.7586 27.4262 33.9667C27.4084 33.9921 27.3881 34.0251 27.3881 34.0429C27.383 34.0733 27.3906 34.1089 27.4084 34.152C27.3551 34.2053 27.1927 34.3551 26.9871 34.3906C26.7358 34.4363 26.4998 34.1546 26.4972 34.152V34.1469H26.4744V34.1571C26.4414 34.2561 26.4262 34.3601 26.4262 34.4667C26.4262 35.02 26.8551 35.4718 27.383 35.4718C27.5125 35.4718 27.6394 35.4464 27.7561 35.3931L27.7739 35.3855L27.7485 35.3601C27.7485 35.3601 27.5074 35.2155 27.4845 34.9287C27.4693 34.7332 27.6013 34.553 27.6851 34.4566C27.7079 34.4743 27.751 34.4997 27.7764 34.4997H27.7815L27.8196 34.4769C27.8043 34.5429 27.8145 34.6012 27.85 34.6393C27.883 34.6723 27.9363 34.685 27.9972 34.6723C28.0175 34.7688 28.0708 34.8627 28.1444 34.9388C28.2434 35.0403 28.3703 35.0962 28.4896 35.0962C28.5734 35.0962 28.647 35.0657 28.7003 35.0099C28.8322 34.8728 28.7993 34.6165 28.6241 34.4414C28.5505 34.3652 28.4566 34.3145 28.3627 34.2941Z" fill="#B4BBC0"/>
<path d="M45.3092 53.5857C45.2661 53.0908 43.5884 50.8141 43.5174 50.7177L43.5123 50.7126H43.5047C43.5047 50.7126 42.4945 50.5832 41.959 50.568C41.7636 50.5629 41.6798 50.573 41.6443 50.5857C41.624 50.4258 41.6037 50.2812 41.5859 50.1593V50.1365C41.5504 49.8751 41.5225 49.7177 41.5225 49.7177L41.5174 49.6873L40.6342 50.3624L39.7509 49.6873L39.7458 49.7177C39.7458 49.7177 39.723 49.8751 39.6849 50.1365L39.6824 50.1593C39.6646 50.2812 39.6443 50.4258 39.624 50.5857C39.5859 50.573 39.5047 50.5629 39.3093 50.568C38.7738 50.5832 37.7738 50.7101 37.7636 50.7126H37.756L37.7509 50.7202C37.6799 50.8167 35.9997 53.0933 35.9591 53.5882C35.9362 53.8623 35.9312 54.0857 36.0834 54.2278C36.19 54.3293 36.3652 54.3776 36.6215 54.3776C36.756 54.3776 36.9134 54.3649 37.0936 54.337C37.0987 54.337 37.586 54.2431 38.0225 54.1999C37.9083 54.7227 37.7814 55.4486 37.7332 55.7126C37.723 55.7507 37.7154 55.7836 37.7154 55.8166C37.7129 55.875 37.7306 55.9232 37.7662 55.9588C37.8195 56.0121 37.9159 56.04 38.058 56.04C38.0834 56.04 38.1113 56.04 38.1418 56.0375C38.5885 56.0095 38.9032 55.9309 39.1342 55.8725H39.1443C39.1291 56.2253 39.1113 56.6643 39.0859 56.9689C39.0859 56.9689 39.0859 56.974 39.0859 56.9765C39.0834 57.0171 39.0783 57.0527 39.0758 57.0907C39.0758 57.106 39.0783 57.1212 39.0834 57.1364C39.1316 57.3547 39.3854 57.441 39.5834 57.441C39.6113 57.441 39.6367 57.441 39.6595 57.4359C39.992 57.3928 40.5885 57.0095 40.6316 56.9816C40.6748 57.0095 41.2737 57.3953 41.6037 57.4359C41.6265 57.4385 41.6545 57.441 41.6798 57.441C41.8778 57.441 42.1316 57.3547 42.1798 57.1364C42.1824 57.1212 42.1849 57.106 42.1874 57.0882C42.1849 57.0527 42.1798 57.0171 42.1773 56.974C42.1773 56.974 42.1773 56.9689 42.1773 56.9664C42.1519 56.6567 42.1316 56.1973 42.1189 55.8699H42.1291C42.36 55.9309 42.6747 56.0121 43.1214 56.0375C43.1519 56.0375 43.1773 56.04 43.2052 56.04C43.3473 56.04 43.4438 56.0146 43.4971 55.9588C43.5326 55.9232 43.5504 55.875 43.5478 55.8166C43.5478 55.7862 43.5402 55.7507 43.5301 55.7151C43.4844 55.4512 43.3549 54.7253 43.2407 54.2024C43.6773 54.2431 44.1646 54.337 44.1722 54.3395C44.3524 54.3674 44.5098 54.3801 44.6443 54.3801C44.9006 54.3801 45.0757 54.3319 45.1823 54.2304C45.3346 54.0857 45.3295 53.8649 45.3067 53.5908L45.3092 53.5857Z" fill="#FADF4B"/>
<path d="M41.6824 57.5629C41.6494 57.5629 41.6215 57.5629 41.591 57.5603C41.2864 57.5197 40.8093 57.2405 40.6316 57.1289C40.454 57.2405 39.9768 57.5223 39.6748 57.5603C39.3905 57.5883 39.0301 57.474 38.9591 57.1619C38.954 57.1441 38.9514 57.1212 38.9514 57.1009L38.9641 56.936C38.9844 56.6771 39.0022 56.3268 39.0124 56.0324C38.789 56.0857 38.5124 56.1416 38.1494 56.1644C37.9032 56.1746 37.7687 56.139 37.6773 56.0502C37.6164 55.9944 37.5834 55.9081 37.5885 55.8167C37.5885 55.7786 37.5961 55.7329 37.6114 55.6822C37.6596 55.4106 37.7611 54.8319 37.8626 54.3497C37.4845 54.3954 37.119 54.4639 37.119 54.4639C36.52 54.5553 36.1901 54.5071 35.9946 54.3243C35.7992 54.1416 35.8043 53.8776 35.8322 53.5807C35.8804 53.035 37.5784 50.7457 37.6494 50.6492L37.6799 50.6086L37.7357 50.5934C37.8525 50.5782 38.7865 50.4614 39.3068 50.4487C39.3981 50.4462 39.4667 50.4487 39.5174 50.4487C39.5327 50.3396 39.5453 50.2381 39.5606 50.1492C39.6012 49.8624 39.624 49.7051 39.624 49.7051L39.6291 49.6721L39.6646 49.4665L40.6367 50.2101L41.6189 49.4614L41.6469 49.6797C41.6469 49.7051 41.6722 49.8624 41.7103 50.1264C41.7255 50.233 41.7408 50.3371 41.756 50.4487C41.8093 50.4487 41.8778 50.4487 41.9666 50.4487C42.4869 50.4614 43.4184 50.5782 43.5225 50.5909L43.5732 50.5985L43.6138 50.6391C43.6925 50.7457 45.3905 53.035 45.4387 53.5807C45.4641 53.8802 45.4692 54.1416 45.2763 54.3243C45.0808 54.5096 44.7357 54.5527 44.1595 54.4665C44.1519 54.4665 43.7864 54.3954 43.4083 54.3522C43.5098 54.8421 43.6164 55.4385 43.6595 55.6796C43.6748 55.7304 43.6824 55.7786 43.6824 55.8218C43.6874 55.9157 43.6544 55.9969 43.591 56.0578C43.5047 56.1441 43.3499 56.1695 43.124 56.1695C42.756 56.1466 42.4768 56.0908 42.2585 56.0375C42.2737 56.4182 42.289 56.7253 42.3067 56.936L42.3194 57.0832C42.3194 57.1289 42.3169 57.1492 42.3093 57.172C42.2484 57.4461 41.9514 57.5705 41.6875 57.5705L41.6824 57.5629ZM40.6316 56.8243L40.7002 56.87C40.8677 56.9791 41.3601 57.2735 41.6189 57.3065C41.7281 57.3268 42.0149 57.2811 42.0555 57.106L42.0479 56.974C42.0276 56.7279 42.0073 56.3573 41.992 55.8725L41.9869 55.7076L42.1469 55.7431C42.393 55.804 42.7001 55.8827 43.1316 55.9081C43.157 55.9081 43.1824 55.9081 43.2078 55.9081C43.355 55.9081 43.3981 55.8751 43.4083 55.8649C43.4159 55.8598 43.4235 55.8497 43.4235 55.8192C43.4235 55.7939 43.4184 55.771 43.4108 55.7482L43.4057 55.7152C43.3575 55.4461 43.2306 54.7355 43.1215 54.2253L43.0834 54.0553L43.256 54.0705C43.6976 54.1137 44.1951 54.2076 44.2001 54.2076C44.657 54.271 44.9692 54.2507 45.0986 54.1289C45.2001 54.0324 45.2052 53.8725 45.1824 53.5934C45.1519 53.2355 44.0148 51.601 43.4413 50.8269C43.2306 50.8015 42.4133 50.7051 41.954 50.6898C41.7458 50.6873 41.6951 50.6975 41.6875 50.7L41.5403 50.7533L41.5199 50.5985C41.4971 50.4386 41.4768 50.2939 41.4616 50.1721C41.4489 50.0706 41.4362 49.9843 41.426 49.9157L40.6367 50.5198L39.8474 49.9157C39.8372 49.9792 39.8271 50.0604 39.8118 50.1492C39.7915 50.2964 39.7712 50.4386 39.7535 50.5985L39.7332 50.7558L39.586 50.7025C39.586 50.7025 39.5327 50.6873 39.3169 50.6924C38.855 50.7051 38.0352 50.8041 37.8296 50.8294C37.2535 51.6061 36.1215 53.238 36.0885 53.5959C36.0657 53.8751 36.0708 54.0375 36.1723 54.1314C36.3043 54.2533 36.5987 54.2786 37.0784 54.2076C37.0784 54.2076 37.5631 54.1137 38.0149 54.0705L38.1875 54.0553L38.1494 54.2253C38.0403 54.7304 37.9185 55.4157 37.8677 55.7076L37.8601 55.7482C37.8525 55.7761 37.8474 55.7989 37.8474 55.8167C37.8474 55.8522 37.855 55.8624 37.8601 55.8649C37.8753 55.8801 37.921 55.9106 38.0631 55.9106C38.0885 55.9106 38.1139 55.9106 38.1418 55.9106C38.5682 55.8852 38.8778 55.8065 39.1012 55.7507L39.2662 55.7076L39.2763 55.8725C39.2636 56.1999 39.2433 56.6593 39.2205 56.9766L39.2078 57.1009C39.2509 57.2837 39.5225 57.3243 39.6494 57.3091C39.9083 57.2761 40.3981 56.9842 40.5656 56.8725L40.6342 56.8268L40.6316 56.8243ZM42.0504 56.9715C42.0504 56.9715 42.0504 56.9842 42.0504 56.9893V56.9715Z" fill="black"/>
<path d="M54.1772 25.9692C51.5071 24.6698 45.0808 21.015 43.2001 24.2484C42.0529 25.5428 39.9793 24.3779 38.6138 25.2662C36.8626 21.954 33.1114 22.5657 29.5353 24.4007C26.7865 26.0809 25.4515 26.1291 28.3982 26.0225C28.0581 26.4794 29.2002 26.1266 29.7662 26.0251C29.3601 26.5606 30.3322 26.3576 31.1215 26.119C30.4363 26.7687 31.85 26.5352 32.3119 26.3043C31.6571 26.8956 32.5682 26.6291 33.1494 26.4515C32.4565 27.2027 33.4032 27.1875 34.1672 26.6393C33.4971 27.4007 34.2611 27.3398 34.8601 27.0631C34.2586 27.7763 34.9337 27.8626 35.5327 27.5251C35.053 28.1393 35.5327 28.3347 36.0885 28.086C35.7865 28.7484 36.3931 28.7357 36.7535 28.3347C36.7002 29.3068 37.1291 28.8601 37.5047 28.3347C37.355 29.0352 37.7103 29.4616 38.1646 28.7509C38.19 29.1164 38.0529 29.4134 38.3727 29.3601C37.8474 30.0936 35.9337 33.822 37.0377 32.7966C37.3575 32.7661 37.6519 32.4133 38.1316 32.0428C38.0606 32.2788 38.2179 32.1494 38.3448 32.0555C38.1139 33.36 39.1595 31.02 38.9793 32.091C38.9286 32.2128 38.921 32.4311 39.1189 32.5301C39.0605 32.2534 39.5149 32.0199 39.6037 31.6646C39.6621 32.1494 39.8651 31.2509 40.3042 31.7534C40.3245 31.7357 40.4286 31.7534 40.393 31.7103C40.4742 31.6925 40.4945 31.8271 40.5199 31.9007C40.6316 31.7915 40.5783 31.5758 40.5453 31.4946C39.6011 30.0783 42.8905 29.1418 40.6341 31.7509C41.8981 30.6621 41.2788 33.1367 41.7864 32.1875C41.926 32.289 41.7661 31.6519 41.7382 31.5453C42.162 31.6875 42.3295 31.8372 42.4844 32.1189C42.9158 31.4057 41.4285 31.3194 41.7534 30.4235L41.7737 30.4819L41.7788 30.4717C42.0021 30.9235 42.3499 29.7002 42.2915 29.7129C42.3118 29.7357 42.3473 29.8017 42.3651 29.8423C42.4133 29.7129 42.596 29.4134 42.6214 29.1646L42.6392 29.1748C42.6417 29.1164 42.6468 29.0225 42.6519 28.8322C42.9945 29.4134 43.4184 29.2459 43.3092 28.5657C43.728 29.091 44.1519 29.1799 44.0377 28.4235C44.4463 28.8956 44.992 28.8855 44.7305 28.2256C45.2711 28.4946 45.7635 28.3195 45.3041 27.685C45.9082 28.0555 46.5732 27.9743 45.9742 27.2383C46.6087 27.5606 47.3346 27.6444 46.6975 26.855C47.4209 27.421 48.3803 27.4921 47.7407 26.756C48.2026 26.8804 49.0884 27.1697 48.6747 26.7154C49.0884 26.8931 50.4615 27.0175 49.7356 26.4439C50.4285 26.7053 51.4386 26.9159 50.9208 26.3576C51.7685 26.6469 52.6721 26.7738 51.667 26.0784C52.4589 26.4972 53.7939 26.6748 52.563 26.0327C53.4284 26.388 53.7787 26.1545 52.8523 25.7408C53.5249 25.9362 54.4843 26.2966 54.1695 25.9692H54.1772Z" fill="#3F2921"/>
<path d="M50.7304 30.2789C50.7431 30.2662 50.7558 30.2688 50.7609 30.2713C50.7913 30.284 50.8548 30.3094 50.8878 32.185C50.9056 33.2281 50.9132 34.7078 50.9056 36.4667V36.4743L48.2127 39.1925L47.2203 40.1951L46.7559 39.0504L46.6696 38.3626L45.7076 35.4413V35.4311C45.7076 35.4311 50.1645 30.8627 50.7304 30.2789Z" fill="#FADF4B"/>
<path d="M47.1721 40.4209L46.6289 39.0681L46.5401 38.3803L45.5604 35.4108L45.6112 35.3448C45.6112 35.3448 50.0731 30.7763 50.6365 30.1926C50.6822 30.1393 50.7533 30.1316 50.8142 30.1596C50.9182 30.2027 50.9741 30.2255 51.0096 32.1849C51.0299 33.2382 51.035 34.7204 51.0274 36.4691V36.5224L50.9918 36.5681L47.1695 40.426L47.1721 40.4209ZM46.8777 39.0199L47.2635 39.9716L50.7761 36.4235C50.7812 34.6874 50.7761 33.2281 50.7583 32.19C50.7406 31.1646 50.7127 30.7078 50.6898 30.5022C49.8345 31.3804 46.3218 34.9793 45.8447 35.4692L46.7863 38.327L46.8777 39.0224V39.0199Z" fill="black"/>
<path d="M51.1443 51.8422L51.4463 51.4767L53.2534 53.2001L53.2585 53.2052L53.2686 53.3625L53.2534 53.3752V53.3803C53.2813 53.3955 53.5046 53.5046 53.7432 53.5224H53.7559L53.7585 53.5351C53.7585 53.5427 53.997 54.2838 54.2686 54.5097L54.2483 54.5376C53.9158 54.3117 53.3879 54.1138 53.2661 54.1011H53.2508V54.0833C53.2432 53.8879 53.2102 53.6392 53.0859 53.563L53.058 53.5579H52.9336L51.1544 51.8524L51.1443 51.8422Z" fill="#B4BBC0"/>
<path d="M50.2254 56.3751L50.2305 56.3801L50.2406 56.5375L50.2254 56.5527C50.2254 56.5527 50.2254 56.5578 50.2279 56.5578C50.2558 56.5705 50.4716 56.6796 50.7076 56.6974C50.7076 56.6974 50.7127 56.6974 50.7152 56.6974H50.7279L50.7305 56.7101C50.7305 56.7177 50.969 57.4588 51.2406 57.6847L51.2203 57.7126C50.8878 57.4867 50.3599 57.2888 50.2381 57.2761H50.2228V57.2583C50.2178 57.0629 50.1822 56.8141 50.0579 56.738L50.0274 56.7304H49.9056L46.6112 53.5299L46.9132 53.1644L50.2254 56.3751Z" fill="#B4BBC0"/>
<path d="M50.799 29.0048C50.8066 28.9921 50.8219 28.9769 50.8396 28.9591L50.8676 28.9363L50.8625 28.9718C50.8193 29.2358 50.8498 29.4946 50.9488 29.7205C50.9818 29.7916 51.0198 29.8601 51.0655 29.9236L51.0731 29.9185L51.0858 29.9109C51.0909 29.8982 51.2305 29.5962 51.2457 29.2738V29.2662L51.2533 29.2637C51.261 29.2611 52.1417 28.9439 52.4056 28.5886L52.4285 28.6038C52.1772 29.0124 51.9411 29.6977 51.9259 29.8779V29.888H51.9132C51.6797 29.9007 51.3802 29.949 51.2914 30.1165L51.2863 30.1444H51.2813C51.5858 30.3779 51.9919 30.4236 52.3726 30.2662L52.3853 30.2891L52.3777 30.2941C52.3777 30.2941 52.3701 30.2992 52.365 30.3043C52.332 30.3271 52.2965 30.3474 52.2609 30.3703C52.0274 30.5048 51.7762 30.5759 51.5401 30.5759C51.4234 30.5759 51.3092 30.5581 51.2026 30.5226C50.964 30.4439 50.7762 30.2789 50.6797 30.0581C50.5427 29.751 50.5884 29.3576 50.799 29.0048Z" fill="#B4BBC0"/>
<path d="M52.9056 34.2941C52.8929 34.2307 52.9056 34.1774 52.9386 34.1419C52.964 34.1165 52.9995 34.1038 53.0426 34.1038C53.0604 34.1038 53.0782 34.1063 53.0985 34.1114C53.0629 34.0657 53.0452 34.0327 53.0452 34.015L53.0604 33.9744C52.9081 33.8018 52.6619 33.4997 52.6797 33.3424C52.6848 33.3094 52.6975 33.2865 52.7228 33.2688C52.8574 33.1799 53.233 33.4794 53.3929 33.619L53.4538 33.5936C53.4716 33.5936 53.4995 33.6114 53.5401 33.6444C53.6137 33.4921 53.7685 33.1292 53.804 32.7332V32.7256L53.8142 32.7231C53.8269 32.718 55.2 32.2992 55.6289 31.7739L55.6492 31.7891C55.238 32.3957 54.8269 33.4287 54.7913 33.7002V33.7104H54.7787L54.7736 33.7155L54.7685 33.7104C54.4436 33.7104 54.0223 33.7586 53.8421 33.9667C53.8599 33.9921 53.8802 34.0251 53.8802 34.0429C53.8853 34.0733 53.8777 34.1089 53.8599 34.152C53.9132 34.2053 54.0756 34.3551 54.2812 34.3906C54.5325 34.4363 54.7685 34.1546 54.771 34.152V34.1469H54.7939V34.1571C54.8269 34.2561 54.8421 34.3601 54.8421 34.4667C54.8421 35.02 54.4132 35.4718 53.8853 35.4718C53.7558 35.4718 53.6289 35.4464 53.5122 35.3931L53.4944 35.3855L53.5198 35.3601C53.5198 35.3601 53.7609 35.2155 53.7837 34.9287C53.799 34.7332 53.667 34.553 53.5832 34.4566C53.5604 34.4743 53.5172 34.4997 53.4919 34.4997H53.4868L53.4487 34.4769C53.4639 34.5429 53.4538 34.6012 53.4183 34.6393C53.3853 34.6723 53.332 34.685 53.2711 34.6723C53.2508 34.7688 53.1975 34.8627 53.1238 34.9388C53.0249 35.0403 52.898 35.0962 52.7787 35.0962C52.6949 35.0962 52.6213 35.0657 52.568 35.0099C52.436 34.8728 52.469 34.6165 52.6442 34.4414C52.7178 34.3652 52.8117 34.3145 52.9056 34.2941Z" fill="#B4BBC0"/>
<path opacity="0.2" d="M68.5273 12.6902H12.6903C8.48471 12.6902 5.07611 16.0988 5.07611 20.3044V22.8424C5.07611 18.6369 8.48471 15.2283 12.6903 15.2283H68.5273C72.7328 15.2283 76.1414 18.6369 76.1414 22.8424V20.3044C76.1414 16.0988 72.7328 12.6902 68.5273 12.6902Z" fill="white"/>
<path d="M41.0072 50.1569C40.7813 50.1569 40.5504 50.1416 40.3219 50.1137H40.3169H40.3118C40.3549 50.1137 40.2788 50.1061 40.2788 50.1061L40.2357 50.101C38.5682 49.8574 37.1062 48.9487 36.0073 47.4741C34.921 46.0148 34.2382 44.0655 34.0327 41.8422C34.0124 41.6341 33.9997 40.9082 33.9997 40.1113V40.1037L33.9946 40.0986C33.8169 39.9184 29.4845 35.5199 28.7205 34.7281C28.7078 34.7154 28.6951 34.7179 28.6901 34.7205C28.5429 34.7814 28.5606 38.2103 28.6012 43.4336C28.6139 45.0427 28.6266 46.563 28.6266 47.6924C28.6266 48.3447 28.7561 49.4157 29.1165 50.4716C29.322 51.0731 29.5835 51.6086 29.8906 52.0604C30.251 52.5908 30.6799 53.0122 31.1621 53.3116C31.7662 53.6873 32.4565 53.8751 33.2306 53.8751C34.2281 53.8751 35.3601 53.5629 36.6164 52.9386C36.624 52.936 37.4793 52.6213 38.4438 52.1264C39.3346 51.6695 40.5047 50.9614 41.0199 50.1822L41.0377 50.1543H41.0047L41.0072 50.1569Z" fill="#FADF4B"/>
<path d="M33.2306 54.0046C32.4362 54.0046 31.7179 53.8091 31.0961 53.4234C30.5987 53.1137 30.157 52.6822 29.7865 52.134C29.4718 51.6721 29.2078 51.1264 28.9972 50.5148C28.6291 49.4437 28.4997 48.3549 28.4997 47.695C28.4997 46.6442 28.4895 45.2534 28.4769 43.7661V43.4361C28.4058 35.0758 28.454 34.6799 28.6393 34.6037L28.7205 34.5707L28.8119 34.6443C29.4159 35.2712 32.289 38.1875 33.5149 39.4336L34.1189 40.0478L34.124 40.1037C34.124 40.8829 34.1392 41.6214 34.157 41.8321C34.36 44.0326 35.0352 45.959 36.1062 47.4006C37.1849 48.8498 38.6164 49.7406 40.2509 49.9792L40.294 49.9843C40.294 49.9843 40.3118 49.9843 40.3245 49.9868C40.563 50.0173 40.7864 50.0325 41.0072 50.0325H41.2711L41.129 50.2533C40.596 51.0604 39.4082 51.7812 38.5047 52.2432C37.5174 52.7508 36.6595 53.063 36.6544 53.0655C35.4057 53.6873 34.2458 54.0071 33.2332 54.0071L33.2306 54.0046ZM28.7611 34.9565C28.6647 35.8601 28.7002 40.0301 28.7281 43.4336V43.7635C28.7433 45.2508 28.7535 46.6417 28.7535 47.695C28.7535 48.3371 28.8804 49.3929 29.2383 50.4335C29.4413 51.0249 29.6977 51.5477 29.9971 51.9944C30.3474 52.5122 30.7611 52.9208 31.2281 53.2102C32.5733 54.0426 34.3778 53.9107 36.5605 52.832C36.5834 52.8244 37.4311 52.5122 38.3854 52.0198C39.1976 51.6036 40.2458 50.9767 40.794 50.2838C40.6443 50.2787 40.497 50.266 40.3498 50.2483L39.9057 50.1797C38.3321 49.8701 36.9539 48.9665 35.9032 47.5554C34.8042 46.0757 34.1113 44.1087 33.9032 41.8575C33.8854 41.6468 33.8702 40.9209 33.8702 40.1595L33.3347 39.6164C32.1824 38.4463 29.5733 35.7966 28.7611 34.9616V34.9565Z" fill="black"/>
<path d="M40.261 50.1569C40.4869 50.1569 40.7179 50.1416 40.9463 50.1137H40.9514H40.9565C40.9133 50.1137 40.9895 50.1061 40.9895 50.1061L41.0326 50.101C42.7001 49.8574 44.162 48.9487 45.261 47.4741C46.3473 46.0148 47.03 44.0655 47.2356 41.8422C47.2559 41.6341 47.2686 40.9082 47.2686 40.1113V40.1037L47.2737 40.0986C47.4513 39.9184 51.7838 35.5199 52.5477 34.7281C52.5604 34.7154 52.5731 34.7179 52.5782 34.7205C52.7254 34.7814 52.7076 38.2103 52.667 43.4336C52.6543 45.0427 52.6416 46.563 52.6416 47.6924C52.6416 48.3447 52.5122 49.4157 52.1518 50.4716C51.9462 51.0731 51.6848 51.6086 51.3777 52.0604C51.0173 52.5908 50.5884 53.0122 50.1061 53.3116C49.5021 53.6873 48.8117 53.8751 48.0376 53.8751C47.0402 53.8751 45.9082 53.5629 44.6519 52.9386C44.6443 52.936 43.7889 52.6213 42.8245 52.1264C41.9336 51.6695 40.7636 50.9614 40.2484 50.1822L40.2306 50.1543H40.2636L40.261 50.1569Z" fill="#FADF4B"/>
<path d="M48.0376 54.0045C47.0249 54.0045 45.865 53.6873 44.596 53.0553C44.596 53.0553 43.7432 52.7431 42.7661 52.2406C41.8625 51.7787 40.6747 51.0579 40.1417 50.2533L39.9971 50.03H40.261C40.4844 50.03 40.7077 50.0147 40.9285 49.9843H40.9412C40.9539 49.9843 40.9641 49.9817 40.9742 49.9792L41.0174 49.9741C42.6493 49.7356 44.0833 48.8447 45.1595 47.3955C46.2305 45.9513 46.9056 44.0249 47.1087 41.827C47.1264 41.629 47.1417 40.9235 47.1442 40.1062V40.0529L47.1823 40.0072L47.7533 39.426C48.9792 38.1798 51.8523 35.2636 52.4589 34.6342L52.5122 34.5809L52.6137 34.591C52.8142 34.6722 52.865 35.0656 52.7964 43.4285V43.7584C52.7838 45.2432 52.7711 46.6366 52.7711 47.6873C52.7711 48.3498 52.6416 49.4386 52.2736 50.5071C52.0629 51.1188 51.799 51.6645 51.4843 52.1264C51.1137 52.6746 50.6721 53.1086 50.1746 53.4157C49.5528 53.8015 48.8345 53.9969 48.0401 53.9969L48.0376 54.0045ZM40.4742 50.2812C41.0224 50.9741 42.0707 51.601 42.8828 52.0173C43.8346 52.5071 44.6848 52.8193 44.6925 52.8218C46.9006 53.9132 48.6975 54.0375 50.0376 53.2076C50.5046 52.9183 50.9208 52.5096 51.2711 51.9919C51.5731 51.5452 51.8294 51.0223 52.03 50.431C52.3878 49.3904 52.5147 48.3346 52.5147 47.6924C52.5147 46.6391 52.5249 45.2483 52.5376 43.761V43.431C52.568 39.8524 52.601 35.8372 52.5071 34.954C51.6899 35.7941 49.0833 38.4387 47.9335 39.6087L47.398 40.1519C47.398 40.9717 47.3828 41.6468 47.3625 41.8498C47.1544 44.096 46.464 46.0655 45.365 47.5452C44.3143 48.9589 42.9361 49.8599 41.3625 50.1696L40.9108 50.2406C40.7686 50.2584 40.624 50.2685 40.4742 50.2762V50.2812ZM52.6442 34.8169H52.6416H52.6442Z" fill="black"/>
<path d="M40.6087 50.1162C44.2841 50.1162 47.2635 45.9914 47.2635 40.9031C47.2635 35.8149 44.2841 31.69 40.6087 31.69C36.9334 31.69 33.954 35.8149 33.954 40.9031C33.954 45.9914 36.9334 50.1162 40.6087 50.1162Z" fill="#B4BBC0"/>
<path d="M40.6087 50.2431C36.8677 50.2431 33.8271 46.0554 33.8271 40.9031C33.8271 35.7509 36.8702 31.5631 40.6087 31.5631C44.3473 31.5631 47.3904 35.7534 47.3904 40.9031C47.3904 46.0528 44.3473 50.2431 40.6087 50.2431ZM40.6087 31.8169C37.0098 31.8169 34.0784 35.893 34.0784 40.9057C34.0784 45.9183 37.0073 49.9919 40.6087 49.9919C44.2102 49.9919 47.1391 45.9158 47.1391 40.9057C47.1391 35.8956 44.2102 31.8169 40.6087 31.8169Z" fill="black"/>
<path d="M40.6088 32.8347C37.6189 32.8347 35.0961 36.5301 35.0961 40.9057C35.0961 45.2813 37.6215 48.9767 40.6088 48.9767C43.5961 48.9767 46.1214 45.2813 46.1214 40.9057C46.1214 36.5301 43.5961 32.8347 40.6088 32.8347Z" fill="#7BC1DD"/>
<path d="M40.6088 49.1011C37.5504 49.1011 34.9692 45.3473 34.9692 40.9057C34.9692 36.4641 37.553 32.7078 40.6088 32.7078C43.6646 32.7078 46.2483 36.4616 46.2483 40.9057C46.2483 45.3498 43.6646 49.1011 40.6088 49.1011ZM40.6088 32.9591C37.69 32.9591 35.2205 36.5986 35.2205 40.9032C35.2205 45.2077 37.6875 48.8473 40.6088 48.8473C43.5301 48.8473 45.9971 45.2077 45.9971 40.9032C45.9971 36.5986 43.5301 32.9591 40.6088 32.9591Z" fill="black"/>
</svg>
