<svg width="82" height="82" viewBox="0 0 82 82" fill="none" xmlns="http://www.w3.org/2000/svg">
<path d="M2.53796 27.9185H78.6794V53.2989H2.53796V27.9185Z" fill="black"/>
<path d="M12.6902 10.1522H68.5272C74.1312 10.1522 78.6794 14.7003 78.6794 20.3043V30.4565H2.53796V20.3043C2.53796 14.7003 7.08614 10.1522 12.6902 10.1522Z" fill="#3271C9"/>
<path d="M68.5273 71.0654L12.6902 71.0654C7.0862 71.0654 2.53802 66.5172 2.53802 60.9132V50.761L78.6794 50.761V60.9132C78.6794 66.5172 74.1313 71.0654 68.5273 71.0654Z" fill="white"/>
<path opacity="0.15" d="M68.5272 10.1522H12.6902C7.08361 10.1522 2.53796 14.6978 2.53796 20.3043V60.9131C2.53796 66.5197 7.08361 71.0653 12.6902 71.0653H68.5272C74.1337 71.0653 78.6794 66.5197 78.6794 60.9131V20.3043C78.6794 14.6978 74.1337 10.1522 68.5272 10.1522ZM76.1413 60.9131C76.1413 65.111 72.7251 68.5272 68.5272 68.5272H12.6902C8.49222 68.5272 5.07601 65.111 5.07601 60.9131V20.3043C5.07601 16.1064 8.49222 12.6902 12.6902 12.6902H68.5272C72.7251 12.6902 76.1413 16.1064 76.1413 20.3043V60.9131Z" fill="black"/>
<path opacity="0.2" d="M68.5272 12.6902H12.6902C8.48465 12.6902 5.07605 16.0988 5.07605 20.3044V22.8424C5.07605 18.6369 8.48465 15.2283 12.6902 15.2283H68.5272C72.7328 15.2283 76.1414 18.6369 76.1414 22.8424V20.3044C76.1414 16.0988 72.7328 12.6902 68.5272 12.6902Z" fill="white"/>
</svg>
