<svg width="82" height="82" viewBox="0 0 82 82" fill="none" xmlns="http://www.w3.org/2000/svg">
<path d="M2.53809 27.9185H78.6795V53.2989H2.53809V27.9185Z" fill="white"/>
<path d="M12.6903 10.1522H68.5273C74.1313 10.1522 78.6795 14.7003 78.6795 20.3043V30.4565H2.53809V20.3043C2.53809 14.7003 7.08627 10.1522 12.6903 10.1522Z" fill="#BE2A2C"/>
<path d="M68.5273 71.0654L12.6903 71.0654C7.08627 71.0654 2.53809 66.5172 2.53809 60.9132V50.761L78.6795 50.761V60.9132C78.6795 66.5172 74.1313 71.0654 68.5273 71.0654Z" fill="black"/>
<path opacity="0.15" d="M68.5273 10.1522H12.6903C7.08373 10.1522 2.53809 14.6978 2.53809 20.3043V60.9131C2.53809 66.5197 7.08373 71.0653 12.6903 71.0653H68.5273C74.1339 71.0653 78.6795 66.5197 78.6795 60.9131V20.3043C78.6795 14.6978 74.1339 10.1522 68.5273 10.1522ZM76.1415 60.9131C76.1415 65.111 72.7253 68.5272 68.5273 68.5272H12.6903C8.49234 68.5272 5.07613 65.111 5.07613 60.9131V20.3043C5.07613 16.1064 8.49234 12.6902 12.6903 12.6902H68.5273C72.7253 12.6902 76.1415 16.1064 76.1415 20.3043V60.9131Z" fill="black"/>
<path fill-rule="evenodd" clip-rule="evenodd" d="M46.9539 46.6162C46.8625 44.3777 46.6037 38.36 46.5072 36.0427C46.1773 33.393 43.6367 36.1493 42.1875 35.9107C41.4032 34.7965 42.2941 31.1164 40.1088 32.096C39.6037 31.9971 39.119 31.8524 38.9921 32.2839C38.9337 32.4844 38.9438 32.7356 39.0301 32.6646C39.4007 32.36 39.8118 32.794 39.8728 33.1646C40.0301 33.8905 39.492 35.3371 39.0047 35.9107C37.5657 36.1315 35.0352 33.4031 34.7104 36.0427L34.2637 46.6162L37.69 43.5528L36.9565 46.1543C36.7027 46.1111 36.4692 45.9208 36.2459 46.0985C35.8449 46.0782 35.6621 46.5528 35.7992 46.8269C35.817 46.7888 35.8525 46.7609 35.8931 46.7355C35.8347 46.8116 35.7967 46.9157 35.7967 47.0502C35.4515 46.9766 35.3728 47.4918 35.1165 47.4918C35.3373 47.5528 35.1698 48.0071 35.5733 48.1416C36.2459 49.6593 44.9565 49.6695 45.6367 48.1416C46.0402 48.0071 45.8752 47.5528 46.0935 47.4918C45.8372 47.4918 45.7559 46.9766 45.4133 47.0502C45.4133 46.9157 45.3778 46.8142 45.3194 46.7355C45.3626 46.7583 45.3955 46.7863 45.4133 46.8269C45.5504 46.5528 45.3676 46.0782 44.9666 46.0985C44.7433 45.9208 44.5072 46.1111 44.2534 46.1543L43.5199 43.5528C43.5199 43.5528 46.9438 46.6111 46.9488 46.6162H46.9539Z" fill="#C09300"/>
<path fill-rule="evenodd" clip-rule="evenodd" d="M46.1519 47.4844C46.1316 47.4844 46.1138 47.4869 46.0986 47.492C46.1163 47.492 46.1341 47.492 46.1519 47.4844Z" fill="#C09300"/>
<path fill-rule="evenodd" clip-rule="evenodd" d="M35.1189 47.492C35.1037 47.4869 35.0859 47.4844 35.0656 47.4844C35.0834 47.4895 35.1037 47.492 35.1189 47.492Z" fill="#C09300"/>
<path opacity="0.2" d="M68.5273 12.6902H12.6903C8.48471 12.6902 5.07611 16.0988 5.07611 20.3044V22.8424C5.07611 18.6369 8.48471 15.2283 12.6903 15.2283H68.5273C72.7328 15.2283 76.1414 18.6369 76.1414 22.8424V20.3044C76.1414 16.0988 72.7328 12.6902 68.5273 12.6902Z" fill="white"/>
</svg>
