<svg width="82" height="82" viewBox="0 0 82 82" fill="none" xmlns="http://www.w3.org/2000/svg">
<path d="M2.53809 60.9131C2.53809 66.5197 7.08373 71.0653 12.6903 71.0653H68.5273C74.1339 71.0653 78.6795 66.5197 78.6795 60.9131V38.0707H2.53809V60.9131Z" fill="#568FD9"/>
<path d="M68.5273 10.1522H12.6903C7.08373 10.1522 2.53809 14.6978 2.53809 20.3043V40.6087H78.6795V20.3043C78.6795 14.6978 74.1339 10.1522 68.5273 10.1522Z" fill="#62AF3F"/>
<path d="M2.53809 20.3043V60.9131C2.53809 64.3953 4.29441 67.4638 6.96698 69.2937L78.6795 40.6087L6.96698 11.9237C4.29441 13.7511 2.53809 16.8221 2.53809 20.3043Z" fill="#D22D32"/>
<path d="M32.5911 43.8118C35.5758 41.4285 36.2002 38.3067 34.8652 36.5986C35.053 37.3651 33.5682 39.9032 33.3423 39.0758C36.2535 36.5859 33.4515 29.7129 32.8627 35.5834C33.4616 33.4388 32.5073 30.0758 30.6647 30.0885C31.3982 30.6444 31.3677 32.8728 30.9287 32.1266C30.9515 28.6444 25.6622 26.3931 28.8779 30.4413C28.0759 29.2104 23.7079 26.4033 26.2967 29.4134C25.9414 29.0936 24.5328 27.9972 23.647 28.4337C23.7993 29.2891 26.3399 29.449 26.3526 29.7891C22.6216 29.2814 27.4439 31.4007 28.2434 30.6444C29.8982 31.1748 27.7612 31.3855 27.0125 31.1469C27.2764 32.69 30.0023 33.3575 30.5733 32.454C31.916 33.4159 29.383 33.3753 29.0226 32.9616C28.6749 34.8702 34.7763 36.4768 31.8957 36.1621C30.7688 36.0377 30.7561 35.8068 30.4007 35.1037C29.2688 35.9286 35.0048 41.0808 32.1875 39.4235C28.685 35.5758 32.7484 42.8448 31.7561 44.2635C29.8551 37.4159 29.7028 45.3321 29.7383 47.0046C28.0505 49.1772 28.9896 45.9767 29.4947 44.2508C26.5201 45.5148 23.2181 55.1721 23.3044 46.4006C24.7358 44.464 28.1444 45.9361 28.6038 43.2559C27.0683 44.459 26.279 44.3676 27.9008 43.2001C30.5073 39.6011 23.3298 45.0224 26.6977 41.0986C24.18 41.5986 24.4922 43.6798 24.6673 44.2001C22.5963 48.266 22.1902 41.992 22.378 40.8752C23.8247 40.1113 24.18 40.1646 26.114 40.3118C28.9871 38.6138 26.2333 39.8372 25.6419 39.2128C28.2713 38.9616 27.9465 36.9844 25.4389 38.058C27.1013 35.2509 23.7231 38.3245 23.6876 39.5758C21.3932 41.69 24.1825 34.3448 27.1724 35.3271C29.0378 33.4971 27.1013 35.1342 26.5886 34.52C27.3373 34.5149 28.1495 33.1291 27.8881 32.9616C27.5404 33.586 26.2282 33.0149 25.949 33.9007C26.3424 32.69 26.685 31.9565 25.3018 33.2129C24.7104 35.6621 24.2003 36.4184 24.4617 33.289C24.2866 31.5327 23.548 26.9617 23.3754 30.7307C21.9897 28.0581 21.6293 30.4515 22.6039 31.1545C19.911 29.4337 22.9922 33.0352 23.6394 32.0454C24.4719 33.52 23.6292 36.3144 23.1952 37.4286C21.7029 37.1342 20.0861 30.855 20.7181 35.0428C18.7892 33.1114 17.7765 34.6291 19.8983 35.9108C15.6445 36.954 25.7003 35.6672 21.8729 40.195C21.0785 48.195 21.7079 39.289 18.4719 39.3194C20.779 41.4032 17.6496 40.2864 16.6014 39.3905C16.3628 41.5047 20.5201 42.8397 16.6369 41.4361C18.1293 44.662 20.6496 41.8346 21.9643 44.7052C23.8957 54.4817 20.0125 47.3701 16.4212 44.2508C16.9339 45.9716 17.8603 49.1848 16.1775 47.0072C16.4745 46.8574 15.7156 37.6367 14.8552 42.9158C13.9263 43.8904 14.2842 44.7102 13.6801 43.2838C14.7435 42.0529 15.4187 38.8727 14.807 37.9083C14.5913 39.1824 12.5837 40.723 12.8654 39.2382C14.2638 38.4869 15.9466 35.8981 15.5151 35.1063C15.2994 36.0809 12.241 37.1951 13.6522 35.4337C20.3882 33.289 13.8197 33.3601 15.3425 32.4565C15.9136 33.3601 18.6394 32.6926 18.9034 31.1469C18.1496 31.3753 16.0227 31.1824 17.6724 30.6469C18.4922 31.4185 23.279 29.2738 19.5658 29.7916C19.5785 29.4515 22.1191 29.2916 22.2714 28.4363C21.3958 28.0251 19.9643 29.0657 19.6217 29.4185C22.2155 26.4236 17.8323 29.2028 17.0405 30.4489C20.2562 26.4008 14.9643 28.6495 14.9872 32.1317C14.5303 32.8626 14.538 30.6672 15.2511 30.0936C13.4187 30.0911 12.4441 33.4337 13.0532 35.5885C12.4263 29.7459 9.68775 36.6291 12.5735 39.0808C12.3121 39.9082 10.8984 37.3727 11.0507 36.6037C9.73343 38.3118 10.3273 41.4336 13.3248 43.8168C7.23853 38.6291 12.2207 47.7001 16.1623 47.8092C12.4974 47.2001 9.76897 46.1315 15.4034 50.0376C16.6395 51.6366 24.6368 49.8269 20.147 52.6518C20.8019 54.1975 22.9516 50.2838 22.2409 52.7914C22.345 52.8954 23.2485 52.7152 23.4592 52.931C23.0226 50.6366 24.6013 52.7711 25.1851 53.1543C26.5048 52.4462 24.5302 51.7254 23.6495 50.9995C29.5454 52.2812 38.7281 45.261 29.7561 47.8117C33.6951 47.7051 38.6799 38.624 32.5936 43.8194L32.5911 43.8118Z" fill="#F5C851"/>
<path opacity="0.15" d="M68.5273 10.1522H12.6903C7.08373 10.1522 2.53809 14.6978 2.53809 20.3043V60.9131C2.53809 66.5197 7.08373 71.0653 12.6903 71.0653H68.5273C74.1339 71.0653 78.6795 66.5197 78.6795 60.9131V20.3043C78.6795 14.6978 74.1339 10.1522 68.5273 10.1522ZM76.1415 60.9131C76.1415 65.111 72.7253 68.5272 68.5273 68.5272H12.6903C8.49234 68.5272 5.07613 65.111 5.07613 60.9131V20.3043C5.07613 16.1064 8.49234 12.6902 12.6903 12.6902H68.5273C72.7253 12.6902 76.1415 16.1064 76.1415 20.3043V60.9131Z" fill="black"/>
<path opacity="0.2" d="M68.5272 12.6902H12.6902C8.48465 12.6902 5.07605 16.0988 5.07605 20.3044V22.8424C5.07605 18.6369 8.48465 15.2283 12.6902 15.2283H68.5272C72.7328 15.2283 76.1414 18.6369 76.1414 22.8424V20.3044C76.1414 16.0988 72.7328 12.6902 68.5272 12.6902Z" fill="white"/>
</svg>
