<svg width="82" height="82" viewBox="0 0 82 82" fill="none" xmlns="http://www.w3.org/2000/svg">
<path d="M2.53809 25.3806H78.6795V55.8372H2.53809V25.3806Z" fill="#F1C142"/>
<path d="M12.6903 10.1523H68.5273C74.1313 10.1523 78.6795 14.7005 78.6795 20.3045V27.9187H2.53809V20.3045C2.53809 14.7005 7.08627 10.1523 12.6903 10.1523Z" fill="#A0251E"/>
<path d="M68.5273 71.0654L12.6903 71.0654C7.08627 71.0654 2.53809 66.5172 2.53809 60.9132V53.2991L78.6795 53.2991V60.9132C78.6795 66.5172 74.1313 71.0654 68.5273 71.0654Z" fill="#A0251E"/>
<path opacity="0.15" d="M68.5273 10.1523H12.6903C7.08373 10.1523 2.53809 14.698 2.53809 20.3045V60.9133C2.53809 66.5198 7.08373 71.0655 12.6903 71.0655H68.5273C74.1339 71.0655 78.6795 66.5198 78.6795 60.9133V20.3045C78.6795 14.698 74.1339 10.1523 68.5273 10.1523ZM76.1415 60.9133C76.1415 65.1112 72.7253 68.5274 68.5273 68.5274H12.6903C8.49234 68.5274 5.07613 65.1112 5.07613 60.9133V20.3045C5.07613 16.1066 8.49234 12.6904 12.6903 12.6904H68.5273C72.7253 12.6904 76.1415 16.1066 76.1415 20.3045V60.9133Z" fill="black"/>
<path opacity="0.2" d="M68.5273 12.6904H12.6903C8.48471 12.6904 5.07611 16.099 5.07611 20.3046V22.8426C5.07611 18.6371 8.48471 15.2285 12.6903 15.2285H68.5273C72.7328 15.2285 76.1414 18.6371 76.1414 22.8426V20.3046C76.1414 16.099 72.7328 12.6904 68.5273 12.6904Z" fill="white"/>
<path d="M32.015 33.2258C32.1825 33.1472 32.1546 32.8705 31.9744 32.8274C32.1191 32.7081 32.0252 32.4467 31.8348 32.4517C31.9363 32.3071 31.8044 32.0863 31.6267 32.1218C31.68 31.9644 31.5201 31.7995 31.3627 31.8553C31.3881 31.6827 31.1825 31.5533 31.0404 31.6497C31.0505 31.4771 30.8348 31.3655 30.7003 31.4746C30.6749 31.2944 30.4211 31.2335 30.3196 31.3858C30.2841 31.2132 30.0379 31.165 29.9414 31.3147C29.8729 31.1751 29.6521 31.17 29.5759 31.3045C29.4998 31.1853 29.3044 31.1903 29.2308 31.3096C29.1851 31.2386 29.0861 31.1979 29.0023 31.2233C29.0252 31.0584 28.8348 30.9314 28.6927 31.0152C28.6978 30.8375 28.4719 30.7335 28.3425 30.8528C28.3095 30.6903 28.081 30.632 27.977 30.7614C27.9262 30.6015 27.6876 30.571 27.6013 30.7183C27.51 30.5761 27.2739 30.6117 27.2283 30.7741C27.1242 30.6345 26.8856 30.6954 26.8577 30.8655C26.8298 30.8452 26.7993 30.8299 26.7638 30.8249C26.779 30.8045 26.7892 30.7842 26.8019 30.7614H26.8069C26.9541 30.4898 26.8171 30.1117 26.5379 30.0051V29.7563H26.7892V29.3655H26.5379V29.1091H26.1547V29.3655H25.9034V29.7563H26.1547V30C25.8679 30.1015 25.7257 30.4848 25.8755 30.7589H25.8805C25.8907 30.7792 25.9034 30.802 25.9161 30.8198C25.878 30.8249 25.8425 30.8401 25.8146 30.8629C25.7866 30.6929 25.5455 30.632 25.444 30.7716C25.3983 30.6091 25.1623 30.5736 25.0709 30.7157C24.9846 30.571 24.746 30.599 24.6953 30.7589C24.5912 30.6269 24.3628 30.6878 24.3298 30.8502C24.2004 30.7309 23.977 30.835 23.9796 31.0127C23.8374 30.9289 23.6471 31.0558 23.6699 31.2208C23.5836 31.1954 23.4872 31.236 23.4389 31.3071C23.3653 31.1878 23.1699 31.1827 23.0938 31.302C23.0176 31.1649 22.7968 31.1726 22.7308 31.3122C22.6369 31.1624 22.3882 31.2106 22.3527 31.3832C22.2537 31.2309 21.9973 31.2893 21.972 31.4721C21.8374 31.3629 21.6217 31.4721 21.6319 31.6472C21.4897 31.5507 21.2841 31.6802 21.3095 31.8528C21.1522 31.7995 20.9923 31.9644 21.0456 32.1193C20.9187 32.0964 20.8019 32.203 20.8019 32.3325C20.8019 32.3756 20.8146 32.4162 20.8374 32.4517C20.6471 32.4467 20.5557 32.7081 20.6979 32.8274C20.5177 32.8705 20.4897 33.1446 20.6572 33.2258C20.5024 33.3147 20.538 33.5761 20.7131 33.6167C20.6801 33.6548 20.6598 33.703 20.6598 33.7563C20.6598 33.8629 20.7359 33.9517 20.8349 33.9695C20.7765 34.0913 20.8578 34.2487 20.9872 34.269C20.9542 34.3451 20.9567 34.4543 20.9567 34.538C21.1852 34.4898 21.4643 34.5532 21.5633 34.8172C21.5253 34.9898 21.7283 35.2131 21.9136 35.1878C22.0659 35.4035 22.2511 35.6065 22.5506 35.6877C22.4973 35.9238 22.7131 35.9238 22.8628 35.9872C22.8298 36.0278 22.7537 36.1471 22.7232 36.1928C22.7841 36.2258 22.944 36.2969 23.01 36.3223C23.0227 36.3705 23.0202 36.3933 23.0202 36.4009C23.2511 37.6725 29.4516 37.675 29.6597 36.3984V36.3933C29.6597 36.3933 29.6699 36.4009 29.6699 36.4035C29.6699 36.3959 29.6673 36.3756 29.68 36.3248L29.9795 36.2182L29.8221 35.9898C29.9643 35.9187 30.1902 35.9263 30.1343 35.6877C30.4363 35.6065 30.6242 35.4035 30.7764 35.1852C30.9617 35.2106 31.1648 34.9872 31.1267 34.8147C31.2257 34.5507 31.5074 34.4873 31.7333 34.5355C31.7333 34.4466 31.7384 34.3375 31.7003 34.2588C31.812 34.2233 31.878 34.0786 31.8247 33.967C31.982 33.9441 32.0556 33.7309 31.9465 33.6142C32.1216 33.5736 32.1571 33.3096 32.0023 33.2233L32.015 33.2258ZM31.2637 32.9365C31.2637 33.0609 31.2333 33.1852 31.1775 33.2944C30.6749 32.9467 29.9668 32.6903 29.416 32.7512C29.411 32.7284 29.4008 32.7081 29.3881 32.6903C29.3881 32.6903 29.3881 32.6878 29.3881 32.6852C29.5506 32.6319 29.5759 32.3807 29.4262 32.2969C29.548 32.2157 29.5404 32.0101 29.4135 31.9391C30.246 31.8401 31.2637 32.1675 31.2637 32.9365ZM28.8374 32.2385C28.8374 32.3984 28.7866 32.5533 28.7003 32.6827C28.0049 32.533 27.6546 32.2538 26.8805 32.2132C26.8628 32.005 26.8678 31.7792 26.8526 31.5685C27.477 31.0863 28.9059 31.4111 28.8374 32.2385ZM25.8146 31.8223C25.8095 31.9492 25.8069 32.0812 25.7968 32.2055C25.0303 32.2385 24.6572 32.5152 23.9719 32.6751C23.312 31.6446 25.0252 30.9594 25.8247 31.5685C25.8196 31.6523 25.812 31.736 25.8146 31.8223ZM23.1598 32.1193C23.1598 32.1903 23.1953 32.2538 23.2461 32.2944C23.0988 32.3781 23.1217 32.6294 23.2841 32.6802C23.2841 32.6802 23.2841 32.6827 23.2841 32.6852C23.2714 32.703 23.2638 32.7233 23.2562 32.7462C22.7004 32.6852 21.9999 32.9162 21.4847 33.269C21.0913 32.3121 22.3044 31.8071 23.2562 31.9365C23.1978 31.9746 23.1572 32.0406 23.1572 32.1193H23.1598ZM23.0379 36.3908V36.3959C23.0379 36.3959 23.0329 36.3959 23.0303 36.4009C23.0303 36.3984 23.0354 36.3908 23.0379 36.3908Z" fill="#9B8028"/>
<path d="M35.8702 42.7816C36.5681 41.1318 36.3803 41.4922 35.0605 40.7841V38.5684C35.4387 38.3171 34.822 38.2613 35.1874 37.972H35.3702V37.1116H32.8575V37.972H33.0479C33.393 38.2309 32.8169 38.3425 33.1748 38.5684V40.4973C31.8448 40.4796 31.2179 40.6648 31.4514 41.9592H31.5504L31.591 42.0506C31.9463 41.8907 32.5352 41.779 33.1748 41.7486V42.3171C32.2002 42.3907 32.1088 43.8602 33.1748 44.3475V47.6242C33.0402 47.6673 32.9996 47.85 33.1139 47.9363C33.1316 48.1013 32.9666 48.1698 32.8271 48.147C32.8271 48.213 32.8271 48.7485 32.8271 48.8297C32.7154 48.8906 32.5403 48.9059 32.3956 48.9008V49.1749V49.4465V49.7181V49.9922V50.4642C33.5605 50.2916 34.6671 50.2916 35.8296 50.4642V48.9008C35.6849 48.9059 35.5148 48.8906 35.3981 48.8297C35.3981 48.746 35.3981 48.2181 35.3981 48.1495C35.261 48.1698 35.0986 48.1064 35.1113 47.944C35.2331 47.8602 35.1976 47.6698 35.058 47.6242V45.2587C35.1544 45.3019 35.2433 45.3475 35.3245 45.3932C35.058 45.6952 35.091 46.2206 35.4032 46.482L35.5478 46.3475C36.1113 45.5125 36.5529 44.4618 35.058 44.0734V43.1851C35.5072 43.1369 35.7915 42.9973 35.8676 42.7841L35.8702 42.7816Z" fill="#9B8028"/>
<path d="M21.2182 40.7561C20.8298 40.5987 20.2283 40.5074 19.5608 40.4972V38.5683C19.7994 38.4642 19.6471 38.2764 19.5278 38.1648C19.5786 38.0683 19.7613 38.0201 19.67 37.8729H19.7791V37.2104H17.4644V37.8729H17.5634C17.4695 38.0226 17.6624 38.0708 17.7081 38.1648C17.5888 38.2714 17.4339 38.4642 17.6725 38.5683V40.784C16.038 41.1216 16.1218 42.6825 17.6725 43.1825V44.0708C16.1751 44.4617 16.6192 45.5099 17.1827 46.3449L17.3273 46.4794C17.6395 46.218 17.6725 45.6926 17.406 45.3906C17.4872 45.3449 17.5761 45.2992 17.6725 45.2561V47.6215C17.5329 47.6672 17.4974 47.8576 17.6192 47.9413C17.6319 48.1037 17.4695 48.1672 17.3324 48.1469C17.3324 48.2129 17.3324 48.7459 17.3324 48.8271C17.2182 48.888 17.0456 48.9058 16.901 48.8982V49.9159V50.4616C18.0659 50.289 19.1725 50.289 20.3324 50.4616V49.9895V49.7154V49.4438V49.1723V48.8982C20.1903 48.9032 20.0177 48.888 19.9035 48.8271C19.9035 48.7433 19.9035 48.2154 19.9035 48.1444C19.7639 48.1647 19.6014 48.0987 19.6167 47.9337C19.7309 47.8474 19.6928 47.6621 19.5558 47.619V44.3449C20.6243 43.8576 20.5278 42.3855 19.5558 42.3145V41.7459C21.0151 41.8348 21.576 42.5429 21.2131 40.751L21.2182 40.7561Z" fill="#9B8028"/>
<path d="M31.8042 36.8855H20.9414L20.949 43.4134V47.1824C20.949 48.2788 21.5226 49.2686 22.449 49.7686C23.6495 50.4082 25.048 50.761 26.3881 50.761C27.7281 50.761 29.0885 50.4184 30.3068 49.7686C31.2306 49.2686 31.8068 48.2788 31.8068 47.1824L31.8042 36.8855Z" fill="#A0251E"/>
</svg>
