<svg width="82" height="82" viewBox="0 0 82 82" fill="none" xmlns="http://www.w3.org/2000/svg">
<path d="M2.53833 27.9185H78.6797V53.2989H2.53833V27.9185Z" fill="#F7DF4B"/>
<path d="M12.6905 10.1522H68.5276C74.1316 10.1522 78.6797 14.7003 78.6797 20.3043V30.4565H2.53833V20.3043C2.53833 14.7003 7.08651 10.1522 12.6905 10.1522Z" fill="#3C883A"/>
<path d="M68.5275 71.0654L12.6905 71.0654C7.08645 71.0654 2.53827 66.5172 2.53827 60.9132V50.761L78.6797 50.761V60.9132C78.6797 66.5172 74.1315 71.0654 68.5275 71.0654Z" fill="#C92D25"/>
<path opacity="0.15" d="M68.5276 10.1522H12.6905C7.08397 10.1522 2.53833 14.6978 2.53833 20.3043V60.9131C2.53833 66.5197 7.08397 71.0653 12.6905 71.0653H68.5276C74.1341 71.0653 78.6797 66.5197 78.6797 60.9131V20.3043C78.6797 14.6978 74.1341 10.1522 68.5276 10.1522ZM76.1417 60.9131C76.1417 65.111 72.7255 68.5272 68.5276 68.5272H12.6905C8.49259 68.5272 5.07638 65.111 5.07638 60.9131V20.3043C5.07638 16.1064 8.49259 12.6902 12.6905 12.6902H68.5276C72.7255 12.6902 76.1417 16.1064 76.1417 20.3043V60.9131Z" fill="black"/>
<path d="M40.6089 55.837C49.0192 55.837 55.8372 49.0191 55.8372 40.6087C55.8372 32.1984 49.0192 25.3804 40.6089 25.3804C32.1986 25.3804 25.3806 32.1984 25.3806 40.6087C25.3806 49.0191 32.1986 55.837 40.6089 55.837Z" fill="#1E44AA"/>
<path d="M40.6089 27.6875L40.0429 29.4286L42.3779 36.6138H39.2637L38.9135 37.6899H48.8956L50.3778 36.6138H43.5099L40.6089 27.6849V27.6875Z" fill="#F6DD4C"/>
<path d="M43.8708 35.6592L47.988 29.9981L48.4252 30.3161L44.3081 35.9772L43.8708 35.6592Z" fill="#F6DD4C"/>
<path d="M52.8982 36.6164H51.0657L44.9516 41.058L43.9896 38.0961H42.8577L45.9414 47.5909L47.4236 48.667L45.3018 42.1341L52.8982 36.6164Z" fill="#F6DD4C"/>
<path d="M52.8144 44.8574L46.1571 42.695L46.3246 42.1823L52.9819 44.3447L52.8144 44.8574Z" fill="#F6DD4C"/>
<path d="M48.2029 51.0629L47.6369 49.3218L41.5228 44.8802L44.0405 43.0503L43.6903 41.9742L35.6142 47.8421L35.0482 49.5832L40.6065 45.5452L48.2004 51.0629H48.2029Z" fill="#F6DD4C"/>
<path d="M40.3398 46.53H40.8804V53.5299H40.3398V46.53Z" fill="#F6DD4C"/>
<path d="M33.0151 51.0629L34.4973 49.9868L36.8323 42.8016L39.3501 44.6315L40.2663 43.9665L32.1903 38.0986H30.3578L35.9161 42.1366L33.0151 51.0655V51.0629Z" fill="#F6DD4C"/>
<path d="M28.4034 44.8574L28.2358 44.3447L34.8931 42.1823L35.0606 42.695L28.4034 44.8574Z" fill="#F6DD4C"/>
<path d="M28.3198 36.6164L29.802 37.6925H37.3578L36.3959 40.6544L37.3121 41.3194L40.3959 31.8245L39.8299 30.0834L37.7081 36.6164H28.3198Z" fill="#F6DD4C"/>
<path d="M32.7977 30.3147L33.2351 29.9969L37.3499 35.6597L36.9126 35.9775L32.7977 30.3147Z" fill="#F6DD4C"/>
<path opacity="0.2" d="M68.5276 12.6902H12.6906C8.48501 12.6902 5.07642 16.0988 5.07642 20.3044V22.8424C5.07642 18.6369 8.48501 15.2283 12.6906 15.2283H68.5276C72.7331 15.2283 76.1417 18.6369 76.1417 22.8424V20.3044C76.1417 16.0988 72.7331 12.6902 68.5276 12.6902Z" fill="white"/>
</svg>
