<svg width="82" height="82" viewBox="0 0 82 82" fill="none" xmlns="http://www.w3.org/2000/svg">
<path d="M68.5272 10.1521H12.6902C7.08325 10.1521 2.53796 14.6974 2.53796 20.3043V60.913C2.53796 66.5199 7.08325 71.0652 12.6902 71.0652H68.5272C74.1341 71.0652 78.6794 66.5199 78.6794 60.913V20.3043C78.6794 14.6974 74.1341 10.1521 68.5272 10.1521Z" fill="white"/>
<path d="M78.6794 35.5326H38.0706V10.1521H27.9184V35.5326H2.53796V45.6848H27.9184V71.0652H38.0706V45.6848H78.6794V35.5326Z" fill="#0E2A69"/>
<path opacity="0.15" d="M68.5272 10.1521H12.6902C7.08361 10.1521 2.53796 14.6977 2.53796 20.3043V60.913C2.53796 66.5196 7.08361 71.0652 12.6902 71.0652H68.5272C74.1337 71.0652 78.6794 66.5196 78.6794 60.913V20.3043C78.6794 14.6977 74.1337 10.1521 68.5272 10.1521ZM76.1413 60.913C76.1413 65.111 72.7251 68.5272 68.5272 68.5272H12.6902C8.49222 68.5272 5.07601 65.111 5.07601 60.913V20.3043C5.07601 16.1064 8.49222 12.6901 12.6902 12.6901H68.5272C72.7251 12.6901 76.1413 16.1064 76.1413 20.3043V60.913Z" fill="black"/>
<path opacity="0.2" d="M68.5272 12.6902H12.6902C8.48465 12.6902 5.07605 16.0988 5.07605 20.3043V22.8424C5.07605 18.6368 8.48465 15.2282 12.6902 15.2282H68.5272C72.7328 15.2282 76.1414 18.6368 76.1414 22.8424V20.3043C76.1414 16.0988 72.7328 12.6902 68.5272 12.6902Z" fill="white"/>
</svg>
