<svg width="82" height="82" viewBox="0 0 82 82" fill="none" xmlns="http://www.w3.org/2000/svg">
<path d="M68.5273 10.1521H12.6903C7.08338 10.1521 2.53809 14.6974 2.53809 20.3043V60.913C2.53809 66.5199 7.08338 71.0652 12.6903 71.0652H68.5273C74.1342 71.0652 78.6795 66.5199 78.6795 60.913V20.3043C78.6795 14.6974 74.1342 10.1521 68.5273 10.1521Z" fill="#77B5E1"/>
<path d="M12.6903 10.1521H40.6088V40.6087H2.53809V20.3043C2.53809 14.7003 7.08627 10.1521 12.6903 10.1521Z" fill="#071B65"/>
<path d="M16.4973 34.959V40.6087H26.6495V34.9564L34.3576 40.6087H40.6088V37.459L31.0607 30.4565H40.6088V20.3043H33.6545L40.6088 15.2054V10.1521H36.9515L26.6495 17.7079V10.1521H16.4973V17.2434L8.23093 11.18C6.28424 12.1292 4.70558 13.6749 3.69797 15.5911L10.1243 20.3068H2.53809V30.459H12.0888L2.53809 37.464V40.6112H8.79183L16.4973 34.959Z" fill="white"/>
<path d="M4.58386 14.185L12.9213 20.3043H16.3832L5.98994 12.6774C5.47218 13.1343 5.0001 13.6343 4.58386 14.185Z" fill="#B92932"/>
<path d="M2.53809 40.6087L16.3806 30.4565V32.9945L5.99744 40.6087H2.53809Z" fill="#B92932"/>
<path d="M24.1115 40.6087H19.0354V27.9184H2.53809V22.8423H19.0354V10.1521H24.1115V22.8423H40.6088V27.9184H24.1115V40.6087Z" fill="#B92932"/>
<path d="M40.6088 39.7635L27.9186 30.4565V32.9945L38.3017 40.6087H40.6088V39.7635Z" fill="#B92932"/>
<path d="M40.6089 10.1521H39.9794L26.1191 20.3144H29.581L40.6089 12.2282V10.1521Z" fill="#B92932"/>
<path d="M59.4944 53.5807L59.3624 53.5122C53.5274 50.4767 50.4792 48.7762 50.4412 46.2559L50.5097 30.1393H68.842V46.2787C68.8801 48.6036 65.7329 50.6162 59.9132 53.5172L59.7685 53.5883L59.4944 53.5807Z" fill="white"/>
<path d="M68.5273 30.4565V46.2787C68.5628 48.4284 65.3446 50.4563 59.7736 53.233L59.6416 53.299L59.5096 53.2304C53.7863 50.2533 50.7965 48.5883 50.761 46.2508L50.8295 30.4565H68.5273ZM69.1618 29.822H50.1975V30.454L50.1265 46.2483C50.1671 48.9614 53.2711 50.7025 59.2178 53.7939L59.3497 53.8624L59.6365 54.0122L59.9259 53.8675L60.0578 53.8015C65.9943 50.8447 69.2024 48.7685 69.1618 46.2686V30.4565V29.822Z" fill="black"/>
<path opacity="0.15" d="M68.5273 10.1521H12.6903C7.08373 10.1521 2.53809 14.6977 2.53809 20.3043V60.913C2.53809 66.5196 7.08373 71.0652 12.6903 71.0652H68.5273C74.1339 71.0652 78.6795 66.5196 78.6795 60.913V20.3043C78.6795 14.6977 74.1339 10.1521 68.5273 10.1521ZM76.1415 60.913C76.1415 65.111 72.7253 68.5272 68.5273 68.5272H12.6903C8.49234 68.5272 5.07613 65.111 5.07613 60.913V20.3043C5.07613 16.1064 8.49234 12.6901 12.6903 12.6901H68.5273C72.7253 12.6901 76.1415 16.1064 76.1415 20.3043V60.913Z" fill="black"/>
<path d="M50.761 30.4565H68.5273V35.5326H50.761V30.4565Z" fill="#B92932"/>
<path d="M60.9132 52.6517V35.5326H58.3751V52.634C58.7508 52.8319 59.1086 53.0197 59.5096 53.2304L59.6416 53.2989L59.7736 53.2329C60.1746 53.0324 60.535 52.8446 60.9132 52.6517Z" fill="#B92932"/>
<path d="M50.761 43.1468V40.6087H68.5273V43.1468H50.761Z" fill="#B92932"/>
<path opacity="0.2" d="M68.5274 12.6902H12.6903C8.48477 12.6902 5.07617 16.0988 5.07617 20.3043V22.8424C5.07617 18.6368 8.48477 15.2282 12.6903 15.2282H68.5274C72.7329 15.2282 76.1415 18.6368 76.1415 22.8424V20.3043C76.1415 16.0988 72.7329 12.6902 68.5274 12.6902Z" fill="white"/>
</svg>
