<svg width="82" height="82" viewBox="0 0 82 82" fill="none" xmlns="http://www.w3.org/2000/svg">
<path d="M68.5273 10.1522H12.6903C7.08338 10.1522 2.53809 14.6975 2.53809 20.3044V60.9132C2.53809 66.5201 7.08338 71.0654 12.6903 71.0654H68.5273C74.1342 71.0654 78.6795 66.5201 78.6795 60.9132V20.3044C78.6795 14.6975 74.1342 10.1522 68.5273 10.1522Z" fill="#83B2DA"/>
<path opacity="0.15" d="M68.5273 10.1522H12.6903C7.08373 10.1522 2.53809 14.6979 2.53809 20.3044V60.9132C2.53809 66.5197 7.08373 71.0654 12.6903 71.0654H68.5273C74.1339 71.0654 78.6795 66.5197 78.6795 60.9132V20.3044C78.6795 14.6979 74.1339 10.1522 68.5273 10.1522ZM76.1415 60.9132C76.1415 65.1111 72.7253 68.5273 68.5273 68.5273H12.6903C8.49234 68.5273 5.07613 65.1111 5.07613 60.9132V20.3044C5.07613 16.1065 8.49234 12.6903 12.6903 12.6903H68.5273C72.7253 12.6903 76.1415 16.1065 76.1415 20.3044V60.9132Z" fill="black"/>
<path opacity="0.2" d="M68.5272 12.6902H12.6902C8.48465 12.6902 5.07605 16.0988 5.07605 20.3043V22.8424C5.07605 18.6368 8.48465 15.2282 12.6902 15.2282H68.5272C72.7328 15.2282 76.1414 18.6368 76.1414 22.8424V20.3043C76.1414 16.0988 72.7328 12.6902 68.5272 12.6902Z" fill="white"/>
<path d="M40.6087 19.3654L39.1138 23.9643H34.2762L38.1899 26.8094L36.695 31.4084L40.6087 28.5658L44.5223 31.4084L43.0274 26.8094L46.9411 23.9643H42.1036L40.6087 19.3654Z" fill="white"/>
<path d="M57.1847 42.0325L61.5629 40.6087L57.1847 39.1848V34.5808L54.4766 38.3067L50.0985 36.8828L52.8041 40.6087L50.0985 44.3345L54.4766 42.9107L57.1847 46.6365V42.0325Z" fill="white"/>
<path d="M43.0274 54.4081L44.5223 49.8092L40.6087 52.6518L36.695 49.8092L38.1899 54.4081L34.2762 57.2533H39.1138L40.6087 61.8522L42.1036 57.2533H46.9411L43.0274 54.4081Z" fill="white"/>
<path d="M26.7409 38.3067L24.0328 34.5808V39.1848L19.6547 40.6087L24.0328 42.0325V46.6365L26.7409 42.9107L31.119 44.3345L28.4135 40.6087L31.119 36.8828L26.7409 38.3067Z" fill="white"/>
</svg>
