<svg width="82" height="82" viewBox="0 0 82 82" fill="none" xmlns="http://www.w3.org/2000/svg">
<path d="M25.3806 10.1521H55.8372V71.0652H25.3806V10.1521Z" fill="white"/>
<path d="M12.6904 10.1521H27.9187V71.0652H12.6904C7.08639 71.0652 2.53821 66.5171 2.53821 60.913V20.3043C2.53821 14.7003 7.08639 10.1521 12.6904 10.1521Z" fill="#092050"/>
<path d="M68.5273 71.0653H53.299L53.299 10.1522H68.5273C74.1313 10.1522 78.6794 14.7004 78.6794 20.3044V60.9131C78.6794 66.5171 74.1313 71.0653 68.5273 71.0653Z" fill="#BE2A2C"/>
<path opacity="0.15" d="M68.5274 10.1521H12.6904C7.08385 10.1521 2.53821 14.6977 2.53821 20.3043V60.913C2.53821 66.5196 7.08385 71.0652 12.6904 71.0652H68.5274C74.134 71.0652 78.6796 66.5196 78.6796 60.913V20.3043C78.6796 14.6977 74.134 10.1521 68.5274 10.1521ZM76.1416 60.913C76.1416 65.111 72.7254 68.5272 68.5274 68.5272H12.6904C8.49247 68.5272 5.07626 65.111 5.07626 60.913V20.3043C5.07626 16.1064 8.49247 12.6901 12.6904 12.6901H68.5274C72.7254 12.6901 76.1416 16.1064 76.1416 20.3043V60.913Z" fill="black"/>
<path opacity="0.2" d="M68.5274 12.6902H12.6903C8.48477 12.6902 5.07617 16.0988 5.07617 20.3043V22.8424C5.07617 18.6368 8.48477 15.2282 12.6903 15.2282H68.5274C72.7329 15.2282 76.1415 18.6368 76.1415 22.8424V20.3043C76.1415 16.0988 72.7329 12.6902 68.5274 12.6902Z" fill="white"/>
</svg>
