<svg width="82" height="82" viewBox="0 0 82 82" fill="none" xmlns="http://www.w3.org/2000/svg">
<path d="M68.5273 10.1522H12.6903C7.08338 10.1522 2.53809 14.6975 2.53809 20.3043V60.9131C2.53809 66.52 7.08338 71.0653 12.6903 71.0653H68.5273C74.1342 71.0653 78.6795 66.52 78.6795 60.9131V20.3043C78.6795 14.6975 74.1342 10.1522 68.5273 10.1522Z" fill="#BE2A2C"/>
<path opacity="0.15" d="M68.5273 10.1522H12.6903C7.08373 10.1522 2.53809 14.6978 2.53809 20.3043V60.9131C2.53809 66.5197 7.08373 71.0653 12.6903 71.0653H68.5273C74.1339 71.0653 78.6795 66.5197 78.6795 60.9131V20.3043C78.6795 14.6978 74.1339 10.1522 68.5273 10.1522ZM76.1415 60.9131C76.1415 65.111 72.7253 68.5272 68.5273 68.5272H12.6903C8.49234 68.5272 5.07613 65.111 5.07613 60.9131V20.3043C5.07613 16.1064 8.49234 12.6902 12.6903 12.6902H68.5273C72.7253 12.6902 76.1415 16.1064 76.1415 20.3043V60.9131Z" fill="black"/>
<path d="M15.2283 22.8424H65.9892V58.3751H15.2283V22.8424Z" fill="#F6D44A"/>
<path d="M15.2283 22.8424L40.6087 40.6087L15.2283 58.3751V22.8424Z" fill="#357960"/>
<path d="M65.9891 22.8424L40.6086 40.6087L65.9891 58.3751V22.8424Z" fill="#357960"/>
<path d="M40.6089 48.2229C44.8141 48.2229 48.223 44.8139 48.223 40.6087C48.223 36.4035 44.8141 32.9946 40.6089 32.9946C36.4037 32.9946 32.9948 36.4035 32.9948 40.6087C32.9948 44.8139 36.4037 48.2229 40.6089 48.2229Z" fill="#BE2A2C"/>
<path d="M43.1469 41.4666L47.256 38.4818H42.1773L40.6088 33.6519L39.0403 38.4818H33.9617L38.0708 41.4666L36.4997 46.2965L40.6088 43.3117L44.7179 46.2965L43.1469 41.4666Z" fill="#F6D44A"/>
<path d="M41.987 18.2358L44.2205 16.614H41.4616L40.6088 13.9922L39.756 16.614H36.9972L39.2307 18.2358L38.3779 20.8601L40.6088 19.2383L42.8398 20.8601L41.987 18.2358Z" fill="#F6D44A"/>
<path d="M29.6952 18.2358L31.9262 16.614H29.1673L28.3145 13.9922L27.4618 16.614H24.7054L26.9364 18.2358L26.0836 20.8601L28.3145 19.2383L30.5455 20.8601L29.6952 18.2358Z" fill="#F6D44A"/>
<path d="M51.5224 18.2358L49.2915 16.614H52.0504L52.9031 13.9922L53.7559 16.614H56.5123L54.2813 18.2358L55.1341 20.8601L52.9031 19.2383L50.6722 20.8601L51.5224 18.2358Z" fill="#F6D44A"/>
<path d="M41.987 64.0476L44.2205 62.4258H41.4616L40.6088 59.8015L39.756 62.4258H36.9972L39.2307 64.0476L38.3779 66.6719L40.6088 65.0501L42.8398 66.6719L41.987 64.0476Z" fill="#F6D44A"/>
<path d="M29.6952 64.0476L31.9262 62.4258H29.1673L28.3145 59.8015L27.4618 62.4258H24.7054L26.9364 64.0476L26.0836 66.6719L28.3145 65.0501L30.5455 66.6719L29.6952 64.0476Z" fill="#F6D44A"/>
<path d="M51.5224 64.0476L49.2915 62.4258H52.0504L52.9031 59.8015L53.7559 62.4258H56.5123L54.2813 64.0476L55.1341 66.6719L52.9031 65.0501L50.6722 66.6719L51.5224 64.0476Z" fill="#F6D44A"/>
<path d="M20.4694 40.9412C21.3323 42.662 23.048 44.5604 24.5759 45.2533C24.6495 43.5325 24.1013 41.3067 23.3171 39.525L20.4694 40.9412Z" fill="#BE2A2C"/>
<path d="M18.9212 35.1519C20.2055 37.9209 15.3756 44.4234 23.2587 46.0655C22.3019 44.7229 21.7765 42.4767 22.0379 40.7153C23.675 41.4133 25.3171 43.0326 25.9618 44.5528C28.68 36.9742 20.6116 37.6925 18.9212 35.1519Z" fill="#F6D44A"/>
<path opacity="0.2" d="M68.5272 12.6902H12.6902C8.48465 12.6902 5.07605 16.0988 5.07605 20.3043V22.8424C5.07605 18.6368 8.48465 15.2282 12.6902 15.2282H68.5272C72.7328 15.2282 76.1414 18.6368 76.1414 22.8424V20.3043C76.1414 16.0988 72.7328 12.6902 68.5272 12.6902Z" fill="white"/>
</svg>
