<svg width="82" height="82" viewBox="0 0 82 82" fill="none" xmlns="http://www.w3.org/2000/svg">
<path d="M68.5273 10.1521H12.6903C7.08338 10.1521 2.53809 14.6974 2.53809 20.3043V60.913C2.53809 66.5199 7.08338 71.0652 12.6903 71.0652H68.5273C74.1342 71.0652 78.6795 66.5199 78.6795 60.913V20.3043C78.6795 14.6974 74.1342 10.1521 68.5273 10.1521Z" fill="white"/>
<path d="M78.6795 35.5326H45.6849V10.1521H35.5327V35.5326H2.53809V45.6848H35.5327V71.0652H45.6849V45.6848H78.6795V35.5326Z" fill="#EA3323"/>
<path opacity="0.15" d="M68.5273 10.1521H12.6903C7.08373 10.1521 2.53809 14.6977 2.53809 20.3043V60.913C2.53809 66.5196 7.08373 71.0652 12.6903 71.0652H68.5273C74.1339 71.0652 78.6795 66.5196 78.6795 60.913V20.3043C78.6795 14.6977 74.1339 10.1521 68.5273 10.1521ZM76.1415 60.913C76.1415 65.111 72.7253 68.5272 68.5273 68.5272H12.6903C8.49234 68.5272 5.07613 65.111 5.07613 60.913V20.3043C5.07613 16.1064 8.49234 12.6901 12.6903 12.6901H68.5273C72.7253 12.6901 76.1415 16.1064 76.1415 20.3043V60.913Z" fill="black"/>
<path d="M25.3803 20.6622C23.8092 20.9769 22.2179 21.1749 20.624 21.2536C20.7027 19.6597 20.9006 18.0708 21.2154 16.4973C19.7687 16.6876 18.3017 16.6876 16.855 16.4973C17.1697 18.0683 17.3677 19.6597 17.4464 21.2536C15.8525 21.1749 14.2637 20.9769 12.6901 20.6622C12.8804 22.1089 12.8804 23.5759 12.6901 25.0226C14.2611 24.7078 15.8525 24.5099 17.4464 24.4312C17.3677 26.0251 17.1697 27.6139 16.855 29.1875C18.3017 28.9971 19.7687 28.9971 21.2154 29.1875C20.9006 27.6164 20.7027 26.0251 20.624 24.4312C22.2179 24.5099 23.8067 24.7078 25.3803 25.0226C25.1899 23.5759 25.1899 22.1089 25.3803 20.6622Z" fill="#EA3323"/>
<path d="M55.8368 20.6622C57.4078 20.9769 58.9992 21.1749 60.5931 21.2536C60.5144 19.6597 60.3164 18.0708 60.0017 16.4973C61.4484 16.6876 62.9154 16.6876 64.3621 16.4973C64.0474 18.0683 63.8494 19.6597 63.7707 21.2536C65.3646 21.1749 66.9534 20.9769 68.527 20.6622C68.3367 22.1089 68.3367 23.5759 68.527 25.0226C66.956 24.7078 65.3646 24.5099 63.7707 24.4312C63.8494 26.0251 64.0474 27.6139 64.3621 29.1875C62.9154 28.9971 61.4484 28.9971 60.0017 29.1875C60.3164 27.6164 60.5144 26.0251 60.5931 24.4312C58.9992 24.5099 57.4104 24.7078 55.8368 25.0226C56.0271 23.5759 56.0271 22.1089 55.8368 20.6622Z" fill="#EA3323"/>
<path d="M25.3803 60.5553C23.8092 60.2405 22.2179 60.0426 20.624 59.9639C20.7027 61.5578 20.9006 63.1466 21.2154 64.7202C19.7687 64.5299 18.3017 64.5299 16.855 64.7202C17.1697 63.1492 17.3677 61.5578 17.4464 59.9639C15.8525 60.0426 14.2637 60.2405 12.6901 60.5553C12.8804 59.1086 12.8804 57.6416 12.6901 56.1949C14.2611 56.5096 15.8525 56.7076 17.4464 56.7863C17.3677 55.1924 17.1697 53.6036 16.855 52.03C18.3017 52.2203 19.7687 52.2203 21.2154 52.03C20.9006 53.601 20.7027 55.1924 20.624 56.7863C22.2179 56.7076 23.8067 56.5096 25.3803 56.1949C25.1899 57.6416 25.1899 59.1086 25.3803 60.5553Z" fill="#EA3323"/>
<path d="M55.8368 60.5553C57.4078 60.2405 58.9992 60.0426 60.5931 59.9639C60.5144 61.5578 60.3164 63.1466 60.0017 64.7202C61.4484 64.5299 62.9154 64.5299 64.3621 64.7202C64.0474 63.1492 63.8494 61.5578 63.7707 59.9639C65.3646 60.0426 66.9534 60.2405 68.527 60.5553C68.3367 59.1086 68.3367 57.6416 68.527 56.1949C66.956 56.5096 65.3646 56.7076 63.7707 56.7863C63.8494 55.1924 64.0474 53.6036 64.3621 52.03C62.9154 52.2203 61.4484 52.2203 60.0017 52.03C60.3164 53.601 60.5144 55.1924 60.5931 56.7863C58.9992 56.7076 57.4104 56.5096 55.8368 56.1949C56.0271 57.6416 56.0271 59.1086 55.8368 60.5553Z" fill="#EA3323"/>
<path opacity="0.2" d="M68.5272 12.6902H12.6902C8.48465 12.6902 5.07605 16.0988 5.07605 20.3043V22.8424C5.07605 18.6368 8.48465 15.2282 12.6902 15.2282H68.5272C72.7328 15.2282 76.1414 18.6368 76.1414 22.8424V20.3043C76.1414 16.0988 72.7328 12.6902 68.5272 12.6902Z" fill="white"/>
</svg>
