<svg width="82" height="82" viewBox="0 0 82 82" fill="none" xmlns="http://www.w3.org/2000/svg">
<path d="M2.53833 32.9946H78.6797V48.2229H2.53833V32.9946Z" fill="#0A1488"/>
<path d="M12.6905 10.1521H68.5276C74.1316 10.1521 78.6797 14.7003 78.6797 20.3043V35.5326H2.53833V20.3043C2.53833 14.7003 7.08651 10.1521 12.6905 10.1521Z" fill="#BE2A2C"/>
<path d="M68.5275 71.0653L12.6905 71.0653C7.08645 71.0653 2.53827 66.5171 2.53827 60.9131V45.6848L78.6797 45.6848V60.9131C78.6797 66.5171 74.1315 71.0653 68.5275 71.0653Z" fill="#487730"/>
<path d="M2.53833 30.4565H78.6797V35.5326H2.53833V30.4565Z" fill="white"/>
<path d="M2.53833 45.6848H78.6797V50.7609H2.53833V45.6848Z" fill="white"/>
<path opacity="0.15" d="M68.5276 10.1521H12.6905C7.08397 10.1521 2.53833 14.6977 2.53833 20.3043V60.913C2.53833 66.5196 7.08397 71.0652 12.6905 71.0652H68.5276C74.1341 71.0652 78.6797 66.5196 78.6797 60.913V20.3043C78.6797 14.6977 74.1341 10.1521 68.5276 10.1521ZM76.1417 60.913C76.1417 65.111 72.7255 68.5272 68.5276 68.5272H12.6905C8.49259 68.5272 5.07638 65.111 5.07638 60.913V20.3043C5.07638 16.1064 8.49259 12.6901 12.6905 12.6901H68.5276C72.7255 12.6901 76.1417 16.1064 76.1417 20.3043V60.913Z" fill="black"/>
<path opacity="0.2" d="M68.5276 12.6902H12.6906C8.48501 12.6902 5.07642 16.0988 5.07642 20.3043V22.8424C5.07642 18.6368 8.48501 15.2282 12.6906 15.2282H68.5276C72.7331 15.2282 76.1417 18.6368 76.1417 22.8424V20.3043C76.1417 16.0988 72.7331 12.6902 68.5276 12.6902Z" fill="white"/>
</svg>
