<svg width="82" height="82" viewBox="0 0 82 82" fill="none" xmlns="http://www.w3.org/2000/svg">
<path d="M2.53821 27.9185H78.6796V53.2989H2.53821V27.9185Z" fill="white"/>
<path d="M12.6904 10.1522H68.5274C74.1314 10.1522 78.6796 14.7003 78.6796 20.3043V30.4565H2.53821V20.3043C2.53821 14.7003 7.08639 10.1522 12.6904 10.1522Z" fill="#579A2C"/>
<path d="M68.5273 71.0654L12.6902 71.0654C7.0862 71.0654 2.53802 66.5172 2.53802 60.9132V50.761L78.6794 50.761V60.9132C78.6794 66.5172 74.1313 71.0654 68.5273 71.0654Z" fill="#D13626"/>
<path d="M34.3425 32.756H46.8728V45.8828C46.8728 50.299 41.4186 46.8523 40.6064 49.2533C39.8628 46.8548 34.373 50.332 34.373 45.6213C34.373 41.0402 34.34 32.756 34.34 32.756H34.3425Z" fill="#DCDCDC"/>
<path d="M27.9187 40.6087L5.26407 13.4237C3.58642 15.2359 2.53821 17.6394 2.53821 20.3044V60.9131C2.53821 63.5781 3.58642 65.9816 5.26407 67.7938L27.9187 40.6087Z" fill="#3272C9"/>
<path opacity="0.15" d="M68.5274 10.1522H12.6904C7.08385 10.1522 2.53821 14.6978 2.53821 20.3043V60.9131C2.53821 66.5197 7.08385 71.0653 12.6904 71.0653H68.5274C74.134 71.0653 78.6796 66.5197 78.6796 60.9131V20.3043C78.6796 14.6978 74.134 10.1522 68.5274 10.1522ZM76.1416 60.9131C76.1416 65.111 72.7254 68.5272 68.5274 68.5272H12.6904C8.49247 68.5272 5.07626 65.111 5.07626 60.9131V20.3043C5.07626 16.1064 8.49247 12.6902 12.6904 12.6902H68.5274C72.7254 12.6902 76.1416 16.1064 76.1416 20.3043V60.9131Z" fill="black"/>
<path opacity="0.2" d="M68.5274 12.6902H12.6903C8.48477 12.6902 5.07617 16.0988 5.07617 20.3044V22.8424C5.07617 18.6369 8.48477 15.2283 12.6903 15.2283H68.5274C72.7329 15.2283 76.1415 18.6369 76.1415 22.8424V20.3044C76.1415 16.0988 72.7329 12.6902 68.5274 12.6902Z" fill="white"/>
</svg>
