<svg width="82" height="82" viewBox="0 0 82 82" fill="none" xmlns="http://www.w3.org/2000/svg">
<path d="M68.5272 10.1522H12.6902C7.08325 10.1522 2.53796 14.6975 2.53796 20.3043V60.9131C2.53796 66.52 7.08325 71.0653 12.6902 71.0653H68.5272C74.1341 71.0653 78.6794 66.52 78.6794 60.9131V20.3043C78.6794 14.6975 74.1341 10.1522 68.5272 10.1522Z" fill="white"/>
<path d="M3.15735 16.9287H78.0602C76.6643 12.9897 72.9435 10.1522 68.5273 10.1522H12.6903C8.27405 10.1522 4.55327 12.9897 3.15735 16.9287Z" fill="#295CAB"/>
<path d="M2.53796 23.7053H78.6794V30.4819H2.53796V23.7053Z" fill="#295CAB"/>
<path d="M2.53796 37.2585H78.6794V44.0351H2.53796V37.2585Z" fill="#295CAB"/>
<path d="M2.53796 50.8116H78.6794V57.5882H2.53796V50.8116Z" fill="#295CAB"/>
<path d="M3.18018 64.3648C4.59641 68.2632 8.30195 71.0652 12.6902 71.0652H68.5273C72.9156 71.0652 76.6186 68.2632 78.0373 64.3648H3.18018Z" fill="#295CAB"/>
<path d="M36.4209 10.1522H12.6902C7.08361 10.1522 2.53796 14.6978 2.53796 20.3043V44.0351H36.4209V10.1522Z" fill="#295CAB"/>
<path d="M2.53796 23.7053H36.4209V30.4819H2.53796V23.7053Z" fill="white"/>
<path d="M22.8678 10.1522L22.8678 44.0351H16.0912V10.1522H22.8678Z" fill="white"/>
<path opacity="0.15" d="M68.5272 10.1522H12.6902C7.08361 10.1522 2.53796 14.6978 2.53796 20.3043V60.9131C2.53796 66.5197 7.08361 71.0653 12.6902 71.0653H68.5272C74.1337 71.0653 78.6794 66.5197 78.6794 60.9131V20.3043C78.6794 14.6978 74.1337 10.1522 68.5272 10.1522ZM76.1413 60.9131C76.1413 65.111 72.7251 68.5272 68.5272 68.5272H12.6902C8.49222 68.5272 5.07601 65.111 5.07601 60.9131V20.3043C5.07601 16.1064 8.49222 12.6902 12.6902 12.6902H68.5272C72.7251 12.6902 76.1413 16.1064 76.1413 20.3043V60.9131Z" fill="black"/>
<path opacity="0.2" d="M68.5272 12.6902H12.6902C8.48465 12.6902 5.07605 16.0988 5.07605 20.3043V22.8424C5.07605 18.6368 8.48465 15.2282 12.6902 15.2282H68.5272C72.7328 15.2282 76.1414 18.6368 76.1414 22.8424V20.3043C76.1414 16.0988 72.7328 12.6902 68.5272 12.6902Z" fill="white"/>
</svg>
