<svg width="82" height="82" viewBox="0 0 82 82" fill="none" xmlns="http://www.w3.org/2000/svg">
<path d="M25.3805 10.1522H55.8371V71.0653H25.3805V10.1522Z" fill="white"/>
<path d="M12.6903 10.1522H27.9186V71.0653H12.6903C7.08627 71.0653 2.53809 66.5171 2.53809 60.9131V20.3043C2.53809 14.7003 7.08627 10.1522 12.6903 10.1522Z" fill="#5D97CC"/>
<path d="M68.5274 71.0654H53.2991L53.2991 10.1522H68.5274C74.1314 10.1522 78.6796 14.7004 78.6796 20.3044V60.9132C78.6796 66.5172 74.1314 71.0654 68.5274 71.0654Z" fill="#5D97CC"/>
<path opacity="0.15" d="M68.5273 10.1522H12.6903C7.08373 10.1522 2.53809 14.6978 2.53809 20.3043V60.9131C2.53809 66.5197 7.08373 71.0653 12.6903 71.0653H68.5273C74.1339 71.0653 78.6795 66.5197 78.6795 60.9131V20.3043C78.6795 14.6978 74.1339 10.1522 68.5273 10.1522ZM76.1415 60.9131C76.1415 65.111 72.7253 68.5272 68.5273 68.5272H12.6903C8.49234 68.5272 5.07613 65.111 5.07613 60.9131V20.3043C5.07613 16.1064 8.49234 12.6902 12.6903 12.6902H68.5273C72.7253 12.6902 76.1415 16.1064 76.1415 20.3043V60.9131Z" fill="black"/>
<path d="M41.5124 50.6264C41.421 50.4792 41.2687 50.3878 41.1342 50.3142C40.2408 49.8371 39.3525 49.6264 38.3449 49.4614C38.1114 49.4208 37.8804 49.2 37.6418 49.0858C37.0682 48.8066 36.4286 48.7 35.8703 48.4158C35.8322 48.398 35.6926 48.3142 35.6266 48.233C35.4058 47.9716 35.0048 47.8904 34.7535 47.6467C33.7891 46.7204 32.7662 45.865 32.2358 44.6366C31.5911 43.1417 30.7891 41.5986 30.8982 39.8981C30.9693 38.8219 30.8119 37.7357 31.0708 36.7128C31.4566 35.1951 31.949 33.6926 32.8525 32.4362L32.7003 32.5327C31.7916 33.789 31.2967 35.2915 30.9135 36.8118C30.6546 37.8346 30.8094 38.9235 30.7409 39.9971C30.6317 41.6976 31.4338 43.2407 32.0784 44.7407C32.6089 45.964 33.6368 46.8168 34.5962 47.7508C34.8449 47.9894 35.2459 48.0681 35.4693 48.3371C35.5353 48.4107 35.6799 48.5021 35.7129 48.5198C36.2713 48.8041 36.9109 48.9132 37.4845 49.1848C37.723 49.3041 37.9565 49.5198 38.1875 49.5604C39.1951 49.7254 40.0834 49.9411 40.9768 50.4132C41.1164 50.4868 41.2636 50.5782 41.355 50.7254L41.5124 50.6264Z" fill="#528132"/>
<path d="M41.3473 50.728C41.2534 50.5808 41.1036 50.4894 40.9716 50.4184C40.0148 49.9133 39.0656 49.7102 38.1849 49.5656C38.0326 49.5402 37.8828 49.4412 37.7356 49.3448C37.6519 49.2889 37.5656 49.2331 37.4793 49.1899C37.2052 49.0605 36.9108 48.9666 36.6265 48.8727C36.3169 48.7737 35.9996 48.6696 35.7077 48.5224C35.6722 48.5021 35.525 48.4133 35.459 48.3372C35.3397 48.1925 35.1671 48.1036 34.9971 48.0148C34.8524 47.9387 34.7027 47.8625 34.5885 47.7509C34.4463 47.6138 34.3042 47.4768 34.1595 47.3397C33.3169 46.5402 32.52 45.7813 32.0682 44.7382C31.987 44.5504 31.9057 44.3626 31.822 44.1722C31.2382 42.8499 30.6342 41.4793 30.7281 39.9895C30.7535 39.6088 30.7509 39.223 30.7459 38.8474C30.7408 38.1672 30.7332 37.4642 30.9032 36.7992C31.2535 35.4236 31.7382 33.8373 32.6925 32.5175L32.8474 32.4185L32.86 32.4312C31.9083 33.7535 31.4261 35.3347 31.0783 36.7078C30.9108 37.3677 30.9184 38.0707 30.9235 38.7509C30.9261 39.124 30.9311 39.5124 30.9058 39.8931C30.8093 41.3829 31.4159 42.7509 31.9997 44.0732C32.0809 44.2585 32.1621 44.4438 32.2433 44.6265C32.7002 45.6849 33.5073 46.4488 34.3626 47.2585C34.4946 47.3828 34.6265 47.5072 34.7585 47.6341C34.8753 47.7458 35.025 47.827 35.1722 47.9031C35.3397 47.9894 35.5123 48.0783 35.6316 48.2204C35.695 48.2991 35.8346 48.3828 35.8727 48.3981C36.1595 48.5453 36.4742 48.6468 36.7763 48.7458C37.0656 48.8397 37.3625 48.9361 37.6417 49.0706C37.7331 49.1138 37.8245 49.1747 37.9108 49.2305C38.0529 49.3244 38.2001 49.4209 38.3422 49.4437C39.3752 49.6113 40.2458 49.8219 41.1341 50.2965C41.2711 50.3727 41.4234 50.464 41.5148 50.6138L41.5199 50.6214L41.3473 50.728ZM32.8169 32.4667L32.7052 32.5378C31.756 33.8525 31.2712 35.4363 30.921 36.8119C30.7535 37.4718 30.7611 38.1748 30.7662 38.855C30.7687 39.2281 30.7738 39.6164 30.7484 39.9971C30.6545 41.4819 31.256 42.8499 31.8398 44.1722C31.9235 44.3626 32.0047 44.5504 32.0859 44.7382C32.5377 45.7788 33.3321 46.5351 34.1748 47.3321C34.3169 47.4691 34.4616 47.6037 34.6012 47.7433C34.7154 47.8498 34.8626 47.9285 35.0072 48.0047C35.1773 48.0935 35.3524 48.1849 35.4742 48.3295C35.5377 48.4031 35.6824 48.4894 35.7154 48.5097C36.0047 48.6569 36.3219 48.761 36.6316 48.86C36.9158 48.9514 37.2103 49.0453 37.4844 49.1772C37.5732 49.2204 37.6595 49.2788 37.7433 49.3346C37.8905 49.431 38.0402 49.5275 38.1849 49.5529C39.0681 49.6975 40.0173 49.9006 40.9793 50.4057C41.1112 50.4767 41.261 50.5681 41.3549 50.7153L41.497 50.629C41.4057 50.4869 41.2584 50.398 41.1265 50.327C40.2407 49.8524 39.3727 49.6442 38.3422 49.4742C38.195 49.4488 38.0453 49.3524 37.9032 49.2585C37.8143 49.2001 37.7255 49.1417 37.6367 49.0986C37.3575 48.964 37.0605 48.8676 36.7737 48.7737C36.4692 48.6747 36.1544 48.5732 35.8676 48.426C35.8245 48.4082 35.6849 48.3219 35.6189 48.2432C35.5022 48.1036 35.3321 48.0148 35.1646 47.9285C35.0174 47.8524 34.8651 47.7712 34.7458 47.657C34.6138 47.5301 34.4819 47.4057 34.3499 47.2813C33.4946 46.4717 32.6849 45.7077 32.2255 44.6443C32.1469 44.4616 32.0656 44.2763 31.9819 44.091C31.3981 42.7661 30.7915 41.3956 30.8854 39.9032C30.9108 39.5225 30.9083 39.1367 30.9032 38.7611C30.8981 38.0809 30.8905 37.3779 31.0606 36.7129C31.4032 35.3525 31.8829 33.7865 32.8144 32.4718L32.8169 32.4667Z" fill="#528132"/>
<path d="M32.0963 48.4411C32.0963 48.4411 33.9516 47.8472 35.4592 48.3345C35.4085 48.8295 34.675 49.0046 34.3171 49.0071C33.977 49.0097 32.7511 48.8878 32.0963 48.4386V48.4411Z" fill="#528132"/>
<path d="M30.6293 45.3777C30.6293 45.3777 32.5049 45.9031 33.4973 47.1392C33.1825 47.5249 32.4744 47.2686 32.1724 47.0732C31.8856 46.8879 30.9313 46.1138 30.6318 45.3777H30.6293Z" fill="#528132"/>
<path d="M29.0049 43.4767C29.0049 43.4767 30.6927 43.4996 31.7282 44.4006C31.5175 44.8371 30.8703 44.7712 30.581 44.6671C30.3069 44.5681 29.3703 44.0833 29.0023 43.4767H29.0049Z" fill="#528132"/>
<path d="M28.9541 41.6544C28.9541 41.6544 30.4262 41.9868 31.1571 42.9741C30.8856 43.3193 30.3323 43.1442 30.1013 42.997C29.883 42.8574 29.1571 42.2584 28.9541 41.6544Z" fill="#528132"/>
<path d="M28.4009 39.7813C28.4009 39.7813 29.8729 40.1138 30.6039 41.1011C30.3323 41.4463 29.779 41.2711 29.5481 41.1239C29.3298 40.9843 28.6039 40.3854 28.4009 39.7813Z" fill="#528132"/>
<path d="M28.9541 37.7153C28.9541 37.7153 30.2054 38.5579 30.5302 39.7432C30.1521 39.9691 29.7003 39.6036 29.5379 39.3828C29.383 39.1746 28.9262 38.3523 28.9541 37.7153Z" fill="#528132"/>
<path d="M29.8248 35.3803C29.8248 35.3803 30.7055 36.6062 30.5963 37.8295C30.1648 37.9082 29.8679 37.4107 29.7918 37.1468C29.7207 36.8981 29.5735 35.9666 29.8248 35.3803Z" fill="#528132"/>
<path d="M30.4336 33.2509C30.4336 33.2509 31.1595 34.4692 30.9565 35.6037C30.5428 35.6418 30.3067 35.1519 30.256 34.9006C30.2103 34.6621 30.1494 33.7788 30.4336 33.2509Z" fill="#528132"/>
<path d="M31.7359 31.7307C31.7359 31.7307 32.1268 32.9286 31.7156 33.8702C31.3451 33.822 31.2359 33.3499 31.2435 33.1215C31.2511 32.9058 31.3806 32.1317 31.7359 31.7307Z" fill="#528132"/>
<path d="M33.4288 50.1315C33.4288 50.1315 35.2029 48.8929 36.9491 49.129C37.0506 49.7787 36.3298 50.1899 35.9517 50.2863C35.5938 50.3777 34.2613 50.535 33.4288 50.129V50.1315Z" fill="#528132"/>
<path d="M36.076 45.5706C36.076 45.5706 37.7511 46.9386 38.0023 48.6848C37.4059 48.9589 36.812 48.3802 36.6166 48.0427C36.4313 47.7229 35.9135 46.4843 36.0785 45.5732L36.076 45.5706Z" fill="#528132"/>
<path d="M34.2053 44.9107C34.2053 44.9107 35.6063 46.2076 35.7332 47.7558C35.1926 47.9665 34.7028 47.4233 34.5454 47.1137C34.3982 46.8218 34.0099 45.7051 34.2053 44.9107Z" fill="#528132"/>
<path d="M32.8981 42.4869C32.8981 42.4869 33.6926 44.1112 33.2738 45.5249C32.7256 45.5249 32.4768 44.8777 32.4438 44.5529C32.4134 44.2457 32.454 43.1239 32.8981 42.4869Z" fill="#528132"/>
<path d="M32.1774 40.5428C32.1774 40.5428 32.784 41.9742 32.3145 43.1519C31.8195 43.1189 31.6419 42.5529 31.6343 42.2737C31.6267 42.0098 31.7383 41.058 32.1774 40.5428Z" fill="#528132"/>
<path d="M32.3755 38.2027C32.3755 38.2027 32.3374 39.7585 31.4237 40.6367C30.9872 40.4032 31.0583 39.8118 31.1674 39.5555C31.2715 39.3118 31.7638 38.4895 32.3755 38.2052V38.2027Z" fill="#528132"/>
<path d="M32.9592 36.1442C32.9592 36.1442 32.3551 37.5782 31.1825 38.0605C30.8627 37.6823 31.1445 37.1594 31.3399 36.9589C31.5252 36.7711 32.284 36.1874 32.9592 36.1442Z" fill="#528132"/>
<path d="M33.3297 34.4286C33.3297 34.4286 32.6901 35.6012 31.6774 35.9997C31.4515 35.6926 31.7358 35.2637 31.916 35.1012C32.086 34.9464 32.7713 34.4667 33.3297 34.4312V34.4286Z" fill="#528132"/>
<path d="M34.5202 32.1164C34.5202 32.1164 33.6775 33.6367 32.3603 34.1646C32.0709 33.7712 32.444 33.2154 32.6801 33.0022C32.9034 32.7991 33.7943 32.1722 34.5176 32.1189L34.5202 32.1164Z" fill="#528132"/>
<path d="M39.7052 50.6264L39.8626 50.7228C39.9539 50.5756 40.1011 50.4842 40.2407 50.4106C41.1341 49.9386 42.0224 49.7228 43.03 49.5579C43.2635 49.5172 43.4945 49.3015 43.7331 49.1822C44.3067 48.9081 44.9463 48.8015 45.5046 48.5173C45.5376 48.4995 45.6823 48.4081 45.7483 48.3345C45.9691 48.068 46.3701 47.9868 46.6214 47.7482C47.5808 46.8142 48.6087 45.9614 49.1391 44.7381C49.7838 43.2356 50.5858 41.695 50.4767 39.9945C50.4056 38.9184 50.563 37.8321 50.3041 36.8092C49.9183 35.2915 49.4259 33.789 48.5173 32.5301L48.365 32.4337C49.2686 33.69 49.7609 35.1925 50.1467 36.7103C50.4056 37.7331 50.2508 38.8219 50.3193 39.8955C50.4285 41.596 49.6264 43.1391 48.9818 44.634C48.4513 45.8625 47.4285 46.7152 46.464 47.6442C46.2153 47.8878 45.8143 47.969 45.5909 48.2305C45.5249 48.3091 45.3854 48.3954 45.3473 48.4132C44.7889 48.6975 44.1493 48.8066 43.5757 49.0832C43.3371 49.1975 43.1036 49.4183 42.8727 49.4589C41.8651 49.6238 40.9768 49.8345 40.0834 50.3117C39.9489 50.3853 39.7966 50.4766 39.7052 50.6238" fill="#528132"/>
<path d="M49.1213 48.4411C49.1213 48.4411 47.266 47.8472 45.7584 48.3345C45.8092 48.8295 46.5427 49.0046 46.9005 49.0071C47.2406 49.0097 48.4665 48.8878 49.1213 48.4386V48.4411Z" fill="#528132"/>
<path d="M50.5885 45.3777C50.5885 45.3777 48.7128 45.9031 47.7205 47.1392C48.0352 47.5249 48.7433 47.2686 49.0453 47.0732C49.3321 46.8879 50.289 46.1138 50.5885 45.3777Z" fill="#528132"/>
<path d="M52.2127 43.4767C52.2127 43.4767 50.5249 43.4996 49.4894 44.4006C49.7 44.8371 50.3472 44.7712 50.6366 44.6671C50.9107 44.5681 51.8447 44.0833 52.2127 43.4767Z" fill="#528132"/>
<path d="M52.2636 41.6544C52.2636 41.6544 50.7915 41.9868 50.0605 42.9741C50.3321 43.3193 50.8854 43.1442 51.1164 42.997C51.3346 42.8574 52.0605 42.2584 52.2636 41.6544Z" fill="#528132"/>
<path d="M52.8168 39.7813C52.8168 39.7813 51.3447 40.1138 50.6138 41.1011C50.8853 41.4463 51.4386 41.2711 51.6696 41.1239C51.8879 40.9843 52.6138 40.3854 52.8168 39.7813Z" fill="#528132"/>
<path d="M52.2636 37.7153C52.2636 37.7153 51.0124 38.5579 50.6875 39.7432C51.0657 39.9691 51.5174 39.6036 51.6799 39.3828C51.8347 39.1746 52.2915 38.3523 52.2636 37.7153Z" fill="#528132"/>
<path d="M51.393 35.3803C51.393 35.3803 50.5123 36.6062 50.6214 37.8295C51.0529 37.9082 51.3498 37.4107 51.426 37.1468C51.4971 36.8981 51.6417 35.9666 51.3905 35.3803H51.393Z" fill="#528132"/>
<path d="M50.7838 33.2509C50.7838 33.2509 50.0579 34.4692 50.2609 35.6037C50.6746 35.6418 50.9107 35.1519 50.9614 34.9006C51.0071 34.6621 51.068 33.7788 50.7838 33.2509Z" fill="#528132"/>
<path d="M49.4819 31.7307C49.4819 31.7307 49.0911 32.9286 49.5022 33.8702C49.8728 33.822 49.9819 33.3499 49.9743 33.1215C49.9667 32.9058 49.8373 32.1317 49.4819 31.7307Z" fill="#528132"/>
<path d="M47.789 50.1315C47.789 50.1315 46.0149 48.8929 44.2687 49.129C44.1672 49.7787 44.888 50.1899 45.2662 50.2863C45.624 50.3777 46.9565 50.535 47.789 50.129V50.1315Z" fill="#528132"/>
<path d="M45.1417 45.5706C45.1417 45.5706 43.4666 46.9386 43.2153 48.6848C43.8118 48.9589 44.4057 48.3802 44.6011 48.0427C44.7864 47.7229 45.3041 46.4843 45.1392 45.5732L45.1417 45.5706Z" fill="#528132"/>
<path d="M47.0124 44.9107C47.0124 44.9107 45.6114 46.2076 45.4845 47.7558C46.0251 47.9665 46.5149 47.4233 46.6723 47.1137C46.8195 46.8218 47.2078 45.7051 47.0124 44.9107Z" fill="#528132"/>
<path d="M48.3195 42.4869C48.3195 42.4869 47.525 44.1112 47.9438 45.5249C48.492 45.5249 48.7408 44.8777 48.7738 44.5529C48.8042 44.2457 48.7636 43.1239 48.3195 42.4869Z" fill="#528132"/>
<path d="M49.0402 40.5428C49.0402 40.5428 48.4336 41.9742 48.9031 43.1519C49.398 43.1189 49.5757 42.5529 49.5833 42.2737C49.5909 42.0098 49.4792 41.058 49.0402 40.5428Z" fill="#528132"/>
<path d="M48.8423 38.2027C48.8423 38.2027 48.8804 39.7585 49.7941 40.6367C50.2306 40.4032 50.1595 39.8118 50.0504 39.5555C49.9463 39.3118 49.454 38.4895 48.8423 38.2052V38.2027Z" fill="#528132"/>
<path d="M48.2584 36.1442C48.2584 36.1442 48.8625 37.5782 50.0351 38.0605C50.3549 37.6823 50.0731 37.1594 49.8777 36.9589C49.6924 36.7711 48.9335 36.1874 48.2584 36.1442Z" fill="#528132"/>
<path d="M47.8879 34.4286C47.8879 34.4286 48.5275 35.6012 49.5402 35.9997C49.7661 35.6926 49.4818 35.2637 49.3016 35.1012C49.1316 34.9464 48.4463 34.4667 47.8879 34.4312V34.4286Z" fill="#528132"/>
<path d="M46.6976 32.1164C46.6976 32.1164 47.5403 33.6367 48.8575 34.1646C49.1468 33.7712 48.7738 33.2154 48.5377 33.0022C48.3144 32.7991 47.4235 32.1722 46.7002 32.1189L46.6976 32.1164Z" fill="#528132"/>
<path d="M39.7484 30.822C39.7484 30.822 39.8931 30.6774 40.0352 30.6317C40.0174 30.3068 40.2788 30.0225 40.6722 30.0631C41.0656 30.1038 41.2915 30.6241 41.0504 30.9971C41.0504 30.9971 42.6773 32.0174 44.1062 33.5479C45.5351 35.0783 47.2889 37.6468 46.7534 41.0377C46.2179 44.4285 42.5479 49.1366 41.7915 51.1594C41.7915 51.1594 42.2484 48.7762 43.7712 46.7305C43.7712 46.7305 41.3448 49.8726 39.5276 50.1086C42.5479 48.1493 45.1544 44.3524 45.8169 41.9463C45.8169 41.9463 45.0326 43.3549 44.4362 43.7914C44.4362 43.7914 45.5605 42.0732 45.8042 40.9209C45.8042 40.9209 45.0859 42.6722 44.3194 43.0656C45.3194 41.8118 46.2839 39.6443 45.7991 37.3524C45.3143 35.0606 43.7864 33.9413 43.1012 33.756C42.4159 33.5707 40.8702 33.5352 40.2103 32.7205C39.5504 31.9058 40.1063 31.0022 40.1063 31.0022C40.1063 31.0022 40.1519 30.8855 40.0428 30.8576C39.9362 30.8576 39.8702 30.8423 39.7459 30.822H39.7484Z" fill="#528132"/>
<path d="M42.8855 33.5073C42.8855 33.5073 37.3424 33.5936 36.9008 33.6291C36.4591 33.6646 36.152 34.2636 36.2053 34.6925C36.2586 35.1215 36.3729 35.4666 36.7891 36.3296C37.2053 37.1925 38.2307 39.3143 38.4008 40.5377C38.4008 40.5377 37.6393 40.6036 37.2358 40.6569C36.8322 40.7102 36.5784 41.1747 36.6901 41.8321C36.8018 42.4894 37.0277 42.6874 37.5911 42.7661C38.1546 42.8447 44.2078 42.3803 44.2078 42.3803C44.2078 42.3803 44.8931 41.9082 44.9819 41.0808C45.0707 40.2534 44.6494 38.7026 44.1545 37.7458C43.6596 36.789 42.6621 35.1367 42.6621 35.1367C42.6621 35.1367 43.0022 35.0707 43.1824 34.7509C43.3626 34.4311 43.3322 33.9387 42.8906 33.5123L42.8855 33.5073Z" fill="#F8F1B3"/>
<path opacity="0.2" d="M68.5272 12.6902H12.6902C8.48465 12.6902 5.07605 16.0988 5.07605 20.3043V22.8424C5.07605 18.6368 8.48465 15.2282 12.6902 15.2282H68.5272C72.7328 15.2282 76.1414 18.6368 76.1414 22.8424V20.3043C76.1414 16.0988 72.7328 12.6902 68.5272 12.6902Z" fill="white"/>
</svg>
