<svg width="82" height="82" viewBox="0 0 82 82" fill="none" xmlns="http://www.w3.org/2000/svg">
<path d="M68.5273 10.1522H30.4566V40.6088H78.6795V20.3044C78.6795 14.6974 74.1344 10.1522 68.5273 10.1522Z" fill="#FDD310"/>
<path d="M30.4566 40.6086V71.0652H68.5273C74.1344 71.0652 78.6795 66.5201 78.6795 60.913V40.6086H30.4566Z" fill="#049F48"/>
<path d="M12.6903 10.1522H32.9947V71.0654H12.6903C7.08703 71.0654 2.53809 66.5164 2.53809 60.9132V20.3044C2.53809 14.7012 7.08703 10.1522 12.6903 10.1522Z" fill="#CF0922"/>
<path opacity="0.15" d="M68.5273 10.1522H12.6903C7.08347 10.1522 2.53809 14.6974 2.53809 20.3044V60.9132C2.53809 66.5202 7.08347 71.0654 12.6903 71.0654H68.5273C74.1344 71.0654 78.6795 66.5202 78.6795 60.9132V20.3044C78.6795 14.6974 74.1344 10.1522 68.5273 10.1522ZM76.1415 60.9132C76.1415 65.1119 72.726 68.5273 68.5273 68.5273H12.6903C8.49158 68.5273 5.07613 65.1119 5.07613 60.9132V20.3044C5.07613 16.1057 8.49158 12.6903 12.6903 12.6903H68.5273C72.726 12.6903 76.1415 16.1057 76.1415 20.3044V60.9132Z" fill="black"/>
<path opacity="0.2" d="M68.5273 12.6903H12.6903C8.48496 12.6903 5.07611 16.0992 5.07611 20.3044V22.8425C5.07611 18.6372 8.48496 15.2284 12.6903 15.2284H68.5273C72.7326 15.2284 76.1414 18.6372 76.1414 22.8425V20.3044C76.1414 16.0992 72.7326 12.6903 68.5273 12.6903Z" fill="white"/>
<path d="M24.4792 49.9622L22.1574 42.8168L28.2358 38.4006H20.7227L18.4009 31.2552L16.079 38.4006H8.56592L14.6443 42.8168L12.3225 49.9622L18.4009 45.5462L24.4792 49.9622Z" fill="black"/>
</svg>
