<svg width="82" height="82" viewBox="0 0 82 82" fill="none" xmlns="http://www.w3.org/2000/svg">
<path d="M68.5273 10.1522H12.6903C7.08338 10.1522 2.53809 14.6975 2.53809 20.3044V60.9132C2.53809 66.5201 7.08338 71.0654 12.6903 71.0654H68.5273C74.1342 71.0654 78.6795 66.5201 78.6795 60.9132V20.3044C78.6795 14.6975 74.1342 10.1522 68.5273 10.1522Z" fill="#4A926D"/>
<path d="M2.53809 20.3045V60.9132C2.53809 64.3954 4.29441 67.4639 6.96698 69.2938L78.6795 40.6088L6.96698 11.9238C4.29441 13.7512 2.53809 16.8223 2.53809 20.3045Z" fill="white"/>
<path d="M7.4035 66.3851C5.92889 64.9587 5.07611 62.9917 5.07611 60.9131V20.3043C5.07611 18.2256 5.92889 16.2561 7.4035 14.8323L71.8471 40.6087L7.4035 66.3851Z" fill="#F6C644"/>
<path d="M5.76394 68.3014L38.0707 40.6088L5.76394 12.9161C3.78934 14.7689 2.53809 17.3831 2.53809 20.3044V60.9131C2.53809 63.8344 3.78934 66.4486 5.76394 68.3014Z" fill="black"/>
<path d="M4.12944 14.8907C3.13453 16.4593 2.53809 18.3095 2.53809 20.3044V60.9132C2.53809 62.9182 3.1396 64.7761 4.14213 66.3522L34.1723 40.6088L4.12944 14.8907Z" fill="#B02D30"/>
<path opacity="0.15" d="M68.5273 10.1522H12.6903C7.08373 10.1522 2.53809 14.6979 2.53809 20.3044V60.9132C2.53809 66.5197 7.08373 71.0654 12.6903 71.0654H68.5273C74.1339 71.0654 78.6795 66.5197 78.6795 60.9132V20.3044C78.6795 14.6979 74.1339 10.1522 68.5273 10.1522ZM76.1415 60.9132C76.1415 65.1111 72.7253 68.5273 68.5273 68.5273H12.6903C8.49234 68.5273 5.07613 65.1111 5.07613 60.9132V20.3044C5.07613 16.1065 8.49234 12.6903 12.6903 12.6903H68.5273C72.7253 12.6903 76.1415 16.1065 76.1415 20.3044V60.9132Z" fill="black"/>
<path opacity="0.2" d="M68.5273 12.6903H12.6903C8.48471 12.6903 5.07611 16.0989 5.07611 20.3044V22.8425C5.07611 18.637 8.48471 15.2284 12.6903 15.2284H68.5273C72.7328 15.2284 76.1414 18.637 76.1414 22.8425V20.3044C76.1414 16.0989 72.7328 12.6903 68.5273 12.6903Z" fill="white"/>
</svg>
