<svg width="82" height="82" viewBox="0 0 82 82" fill="none" xmlns="http://www.w3.org/2000/svg">
<path d="M2.53821 27.9185H78.6796V53.2989H2.53821V27.9185Z" fill="white"/>
<path d="M12.6904 10.1522H68.5274C74.1314 10.1522 78.6796 14.7004 78.6796 20.3044V30.4566H2.53821V20.3044C2.53821 14.7004 7.08639 10.1522 12.6904 10.1522Z" fill=" #0D3B99"/>
<path d="M68.5273 71.0653L12.6902 71.0653C7.0862 71.0653 2.53802 66.5171 2.53802 60.9131V50.7609L78.6794 50.7609V60.9131C78.6794 66.5171 74.1313 71.0653 68.5273 71.0653Z" fill=" #0D3B99"/>
<path opacity="0.15" d="M68.5274 10.1522H12.6904C7.08385 10.1522 2.53821 14.6979 2.53821 20.3044V60.9132C2.53821 66.5197 7.08385 71.0654 12.6904 71.0654H68.5274C74.134 71.0654 78.6796 66.5197 78.6796 60.9132V20.3044C78.6796 14.6979 74.134 10.1522 68.5274 10.1522ZM76.1416 60.9132C76.1416 65.1111 72.7254 68.5273 68.5274 68.5273H12.6904C8.49247 68.5273 5.07626 65.1111 5.07626 60.9132V20.3044C5.07626 16.1065 8.49247 12.6903 12.6904 12.6903H68.5274C72.7254 12.6903 76.1416 16.1065 76.1416 20.3044V60.9132Z" fill="black"/>
<path d="M23.5532 32.4058L22.7867 34.7636H20.307L22.3121 36.2204L21.5481 38.5783L23.5532 37.1215L25.5582 38.5783L24.7917 36.2204L26.7968 34.7636H24.3171L23.5532 32.4058Z" fill=" #0D3B99"/>
<path d="M24.3171 44.997L23.5532 42.6392L22.7867 44.997H20.307L22.3121 46.4538L21.5481 48.8117L23.5532 47.3549L25.5582 48.8117L24.7917 46.4538L26.7968 44.997H24.3171Z" fill=" #0D3B99"/>
<path d="M41.3753 39.8803L40.6089 37.5225L39.8424 39.8803H37.3652L39.3703 41.3371L38.6038 43.695L40.6089 42.2382L42.6139 43.695L41.8474 41.3371L43.8525 39.8803H41.3753Z" fill=" #0D3B99"/>
<path d="M56.426 36.2204L55.6595 38.5783L57.6645 37.1215L59.6696 38.5783L58.9056 36.2204L60.9107 34.7636H58.431L57.6645 32.4058L56.9006 34.7636H54.4209L56.426 36.2204Z" fill=" #0D3B99"/>
<path d="M58.431 44.997L57.6645 42.6392L56.9006 44.997H54.4209L56.426 46.4538L55.6595 48.8117L57.6645 47.3549L59.6696 48.8117L58.9056 46.4538L60.9107 44.997H58.431Z" fill=" #0D3B99"/>
<path opacity="0.2" d="M68.5274 12.6903H12.6903C8.48477 12.6903 5.07617 16.0989 5.07617 20.3044V22.8425C5.07617 18.637 8.48477 15.2284 12.6903 15.2284H68.5274C72.7329 15.2284 76.1415 18.637 76.1415 22.8425V20.3044C76.1415 16.0989 72.7329 12.6903 68.5274 12.6903Z" fill="white"/>
</svg>
