<svg width="82" height="82" viewBox="0 0 82 82" fill="none" xmlns="http://www.w3.org/2000/svg">
<path d="M2.53809 27.9185H78.6795V53.299H2.53809V27.9185Z" fill="white"/>
<path d="M12.6903 10.1522H68.5273C74.1313 10.1522 78.6795 14.7003 78.6795 20.3043V30.4565H2.53809V20.3043C2.53809 14.7003 7.08627 10.1522 12.6903 10.1522Z" fill="#EA3323"/>
<path d="M68.5271 71.0653L12.6901 71.0653C7.08608 71.0653 2.5379 66.5171 2.5379 60.9131V50.7609L78.6793 50.7609V60.9131C78.6793 66.5171 74.1311 71.0653 68.5271 71.0653Z" fill="#100E91"/>
<path opacity="0.15" d="M68.5273 10.1522H12.6903C7.08373 10.1522 2.53809 14.6978 2.53809 20.3043V60.9131C2.53809 66.5197 7.08373 71.0653 12.6903 71.0653H68.5273C74.1339 71.0653 78.6795 66.5197 78.6795 60.9131V20.3043C78.6795 14.6978 74.1339 10.1522 68.5273 10.1522ZM76.1415 60.9131C76.1415 65.111 72.7253 68.5272 68.5273 68.5272H12.6903C8.49234 68.5272 5.07613 65.111 5.07613 60.9131V20.3043C5.07613 16.1064 8.49234 12.6902 12.6903 12.6902H68.5273C72.7253 12.6902 76.1415 16.1064 76.1415 20.3043V60.9131Z" fill="black"/>
<path d="M40.6111 55.8371C47.0171 55.8371 52.2607 50.596 52.2607 44.1874V30.3449H28.964V44.1874C28.964 50.5935 34.2051 55.8371 40.6136 55.8371H40.6111Z" fill="#EA3323"/>
<path d="M40.6112 55.6492C46.8954 55.6492 52.0375 50.5071 52.0375 44.2229V30.5682H29.1849V44.2229C29.1849 50.5071 34.327 55.6492 40.6112 55.6492Z" fill="white"/>
<path d="M34.0072 30.9997H29.6088V35.8321H34.0072V30.9997Z" fill="#EA3323"/>
<path d="M34.0073 40.6621H38.4058V35.8297H34.0073V40.6621Z" fill="#EA3323"/>
<path d="M29.6113 44.1975C29.6113 44.6366 29.6392 45.0681 29.69 45.4945H34.0098V40.662H29.6113V44.1975Z" fill="#EA3323"/>
<path d="M42.8041 40.662H38.4056V45.4945H42.8041V40.662Z" fill="#EA3323"/>
<path d="M42.8041 50.3244H47.2025V45.4919H42.8041V50.3244Z" fill="#FF0000"/>
<path d="M47.2026 52.9691C48.1772 52.233 49.0275 51.3396 49.7128 50.327H47.2026V52.9691Z" fill="#EA3323"/>
<path d="M34.0099 50.3244H38.4083V45.4919H34.0099V50.3244Z" fill="#EA3323"/>
<path d="M31.4948 50.3244C32.1826 51.3396 33.0328 52.233 34.01 52.9716V50.3244H31.4948Z" fill="#EA3323"/>
<path d="M41.3701 55.1568C41.8574 55.1239 42.3345 55.0579 42.8041 54.9614V50.3244H38.4056V54.9614C38.8726 55.0579 39.3498 55.1213 39.8346 55.1568C40.3472 55.1873 40.8599 55.1873 41.3701 55.1568Z" fill="#EA3323"/>
<path d="M51.5173 45.4945C51.5681 45.0681 51.596 44.6341 51.596 44.1925V40.662H47.2026V45.4945H51.5173Z" fill="#EA3323"/>
<path d="M42.8041 40.6621H47.2025V35.8297H42.8041V40.6621Z" fill="#EA3323"/>
<path d="M42.8041 30.9997H38.4056V35.8321H42.8041V30.9997Z" fill="#EA3323"/>
<path d="M51.596 35.8296V30.9972H47.2026V35.8296H51.596Z" fill="#EA3323"/>
<path d="M51.8422 30.2027L54.568 24.0226L52.4919 20.6673L49.0503 21.9414L46.6341 19.18L43.4488 21.0048L40.6088 18.68L37.7687 21.0048L34.5834 19.18L32.1672 21.9414L28.7256 20.6673L26.647 24.0226L29.3703 30.2053C32.8017 28.652 36.6063 27.7865 40.6062 27.7865C44.6062 27.7865 48.4082 28.652 51.8396 30.2027H51.8422Z" fill="white"/>
<path d="M32.2458 22.2155L32.2407 22.2206L28.827 20.9567L26.9159 24.0404L27.6469 25.7028L29.4996 29.9109C30.8829 29.2992 32.327 28.7967 33.8168 28.4185L32.2458 22.2155Z" fill="#0093DD"/>
<path d="M37.7989 21.2865L37.7938 21.2916L34.6364 19.482L32.2456 22.2155L33.8192 28.4185C35.2811 28.0454 36.7862 27.7916 38.3293 27.6647L37.8014 21.2865H37.7989Z" fill="#100E91"/>
<path d="M43.4308 21.2891L43.4231 21.2942L40.6084 18.9896L37.7988 21.2916L38.3267 27.6697C39.078 27.6088 39.8394 27.5733 40.6084 27.5733C41.3775 27.5733 42.144 27.6063 42.9003 27.6697L43.4308 21.2916V21.2891Z" fill="#0093DD"/>
<path d="M48.9842 22.218H48.9766L46.5807 19.482L43.431 21.2865L42.9005 27.6647C44.4436 27.7916 45.9487 28.0479 47.4106 28.4185L48.9868 22.2155L48.9842 22.218Z" fill="#100E91"/>
<path d="M51.7125 29.9109L54.3013 24.0429L52.3901 20.9592L48.9841 22.2206L47.408 28.4236C48.8927 28.8017 50.3318 29.3043 51.7099 29.9134L51.7125 29.9109Z" fill="#0093DD"/>
<path opacity="0.2" d="M68.5272 12.6902H12.6902C8.48465 12.6902 5.07605 16.0988 5.07605 20.3044V22.8424C5.07605 18.6369 8.48465 15.2283 12.6902 15.2283H68.5272C72.7328 15.2283 76.1414 18.6369 76.1414 22.8424V20.3044C76.1414 16.0988 72.7328 12.6902 68.5272 12.6902Z" fill="white"/>
</svg>
