<svg width="82" height="82" viewBox="0 0 82 82" fill="none" xmlns="http://www.w3.org/2000/svg">
<path d="M2.53809 60.9131C2.53809 66.5197 7.08373 71.0653 12.6903 71.0653H68.5273C74.1339 71.0653 78.6795 66.5197 78.6795 60.9131V38.0707H2.53809V60.9131Z" fill="#C22B38"/>
<path d="M68.5273 10.1522H12.6903C7.08373 10.1522 2.53809 14.6979 2.53809 20.3044V40.6088H78.6795V20.3044C78.6795 14.6979 74.1339 10.1522 68.5273 10.1522Z" fill="#061A9A"/>
<path opacity="0.15" d="M68.5273 10.1522H12.6903C7.08373 10.1522 2.53809 14.6979 2.53809 20.3044V60.9132C2.53809 66.5197 7.08373 71.0654 12.6903 71.0654H68.5273C74.1339 71.0654 78.6795 66.5197 78.6795 60.9132V20.3044C78.6795 14.6979 74.1339 10.1522 68.5273 10.1522ZM76.1415 60.9132C76.1415 65.1111 72.7253 68.5273 68.5273 68.5273H12.6903C8.49234 68.5273 5.07613 65.1111 5.07613 60.9132V20.3044C5.07613 16.1065 8.49234 12.6903 12.6903 12.6903H68.5273C72.7253 12.6903 76.1415 16.1065 76.1415 20.3044V60.9132Z" fill="black"/>
<path d="M30.4565 32.9946H50.7609V48.2229H30.4565V32.9946Z" fill="white"/>
<path d="M40.7713 37.7866C42.4352 37.7866 43.784 37.0161 43.784 36.0658C43.784 35.1154 42.4352 34.345 40.7713 34.345C39.1075 34.345 37.7587 35.1154 37.7587 36.0658C37.7587 37.0161 39.1075 37.7866 40.7713 37.7866Z" fill="#2D6920"/>
<path d="M40.5555 35.7078H40.9844L41.2001 44.1062H40.3397L40.5555 35.7078Z" fill="#E8B942"/>
<path d="M40.7713 42.8448L37.2917 38.6849C37.2917 38.6849 36.8602 39.9032 36.8983 40.4413L35.9668 39.5098C35.9668 39.5098 35.7866 41.0529 35.9668 41.6621L35.213 41.0174C35.213 41.0174 35.2485 43.8854 36.0023 45.1773L40.7713 44.1087V42.8448Z" fill="#112E88"/>
<path d="M40.7712 42.8448L44.2509 38.6849C44.2509 38.6849 44.6824 39.9032 44.6443 40.4413L45.5758 39.5098C45.5758 39.5098 45.756 41.0529 45.5758 41.6621L46.3296 41.0174C46.3296 41.0174 46.294 43.8854 45.5402 45.1773L40.7712 44.1087V42.8448Z" fill="#112E88"/>
<path d="M30.4565 47.1113C31.7383 47.0047 36.3296 43.5961 40.794 43.5961C45.2584 43.5961 49.3955 47.1113 50.7609 47.1113V48.2229H30.4565V47.1113Z" fill="#2D6920"/>
<path opacity="0.2" d="M68.5274 12.6903H12.6903C8.48477 12.6903 5.07617 16.0989 5.07617 20.3044V22.8425C5.07617 18.637 8.48477 15.2284 12.6903 15.2284H68.5274C72.7329 15.2284 76.1415 18.637 76.1415 22.8425V20.3044C76.1415 16.0989 72.7329 12.6903 68.5274 12.6903Z" fill="white"/>
</svg>
