<svg width="82" height="82" viewBox="0 0 82 82" fill="none" xmlns="http://www.w3.org/2000/svg">
<path d="M68.5274 10.1522H12.6904C7.0835 10.1522 2.53821 14.6975 2.53821 20.3044V60.9132C2.53821 66.5201 7.0835 71.0654 12.6904 71.0654H68.5274C74.1343 71.0654 78.6796 66.5201 78.6796 60.9132V20.3044C78.6796 14.6975 74.1343 10.1522 68.5274 10.1522Z" fill="white"/>
<path d="M2.53821 20.3043H78.6796V30.4565H2.53821V20.3043Z" fill="#1433B3"/>
<path d="M2.53821 50.761H78.6796V60.9132H2.53821V50.761Z" fill="#1433B3"/>
<path opacity="0.15" d="M68.5274 10.1522H12.6904C7.08385 10.1522 2.53821 14.6979 2.53821 20.3044V60.9132C2.53821 66.5197 7.08385 71.0654 12.6904 71.0654H68.5274C74.134 71.0654 78.6796 66.5197 78.6796 60.9132V20.3044C78.6796 14.6979 74.134 10.1522 68.5274 10.1522ZM76.1416 60.9132C76.1416 65.1111 72.7254 68.5273 68.5274 68.5273H12.6904C8.49247 68.5273 5.07626 65.1111 5.07626 60.9132V20.3044C5.07626 16.1065 8.49247 12.6903 12.6904 12.6903H68.5274C72.7254 12.6903 76.1416 16.1065 76.1416 20.3044V60.9132Z" fill="black"/>
<path d="M40.6088 49.4005L38.0707 45.0046H32.9946L35.5327 40.6087L32.9946 36.2128H38.0707L40.6088 31.8169L43.1468 36.2128H48.2229L45.6849 40.6087L48.2229 45.0046H43.1468L40.6088 49.4005ZM39.6824 45.0046L40.6088 46.6086L41.5352 45.0046H39.6824ZM43.9514 43.6087H45.8042L44.8778 42.0046L43.9514 43.6087ZM38.8753 43.6087H42.3397L44.0707 40.6087L42.3397 37.6087H38.8753L37.1443 40.6087L38.8753 43.6087ZM35.4108 43.6087H37.2636L36.3372 42.0046L35.4108 43.6087ZM43.9514 37.6087L44.8778 39.2128L45.8042 37.6087H43.9514ZM35.4108 37.6087L36.3372 39.2128L37.2636 37.6087H35.4108ZM39.6798 36.2128H41.5326L40.6062 34.6087L39.6798 36.2128Z" fill="#1437B0"/>
<path opacity="0.2" d="M68.5274 12.6903H12.6903C8.48477 12.6903 5.07617 16.0989 5.07617 20.3044V22.8425C5.07617 18.637 8.48477 15.2284 12.6903 15.2284H68.5274C72.7329 15.2284 76.1415 18.637 76.1415 22.8425V20.3044C76.1415 16.0989 72.7329 12.6903 68.5274 12.6903Z" fill="white"/>
</svg>
