<svg width="82" height="82" viewBox="0 0 82 82" fill="none" xmlns="http://www.w3.org/2000/svg">
<path d="M2.53833 27.9185H78.6797V53.2989H2.53833V27.9185Z" fill="white"/>
<path d="M12.6905 10.1522H68.5276C74.1316 10.1522 78.6797 14.7004 78.6797 20.3044V30.4566H2.53833V20.3044C2.53833 14.7004 7.08651 10.1522 12.6905 10.1522Z" fill="#E06535"/>
<path d="M68.5275 71.0653L12.6905 71.0653C7.08645 71.0653 2.53827 66.5171 2.53827 60.9131V50.7609L78.6797 50.7609V60.9131C78.6797 66.5171 74.1315 71.0653 68.5275 71.0653Z" fill="#2C6837"/>
<path opacity="0.15" d="M68.5276 10.1522H12.6905C7.08397 10.1522 2.53833 14.6979 2.53833 20.3044V60.9132C2.53833 66.5197 7.08397 71.0654 12.6905 71.0654H68.5276C74.1341 71.0654 78.6797 66.5197 78.6797 60.9132V20.3044C78.6797 14.6979 74.1341 10.1522 68.5276 10.1522ZM76.1417 60.9132C76.1417 65.1111 72.7255 68.5273 68.5276 68.5273H12.6905C8.49259 68.5273 5.07638 65.1111 5.07638 60.9132V20.3044C5.07638 16.1065 8.49259 12.6903 12.6905 12.6903H68.5276C72.7255 12.6903 76.1417 16.1065 76.1417 20.3044V60.9132Z" fill="black"/>
<path d="M40.6088 31.1976C35.4109 31.1976 31.1978 35.4108 31.1978 40.6087C31.1978 45.8066 35.4109 50.0198 40.6088 50.0198C45.8068 50.0198 50.0199 45.8066 50.0199 40.6087C50.0199 35.4108 45.8068 31.1976 40.6088 31.1976ZM48.327 41.6265C48.3017 41.8194 48.4336 41.9945 48.624 42.0249C48.5402 42.497 48.4209 42.9564 48.261 43.3955C48.0808 43.3244 47.8753 43.4107 47.8017 43.5909C47.7281 43.7711 47.8118 43.9742 47.9869 44.0528C47.8854 44.2686 47.7763 44.4767 47.657 44.6823L43.5682 41.9691L42.0657 41.3371C42.0987 41.2711 42.1266 41.2026 42.152 41.1315L43.6621 41.7458L48.4717 42.7178L43.8195 41.1544L42.2053 40.9336C42.2205 40.8625 42.2281 40.7889 42.2332 40.7128L43.8525 40.9158L48.7509 40.6112L43.8525 40.3067L42.2332 40.5097C42.2281 40.4336 42.2205 40.36 42.2053 40.2889L43.8195 40.0681L48.4717 38.5047L43.6621 39.4767L42.152 40.0909C42.1291 40.0199 42.0987 39.9514 42.0657 39.8854L43.5682 39.2534L47.657 36.5402C47.7763 36.7458 47.8854 36.9539 47.9869 37.1697C47.8093 37.2483 47.7255 37.4514 47.8017 37.6316C47.8753 37.8118 48.0808 37.8981 48.261 37.827C48.4209 38.2661 48.5428 38.7255 48.624 39.1976C48.4336 39.228 48.3017 39.4031 48.327 39.596C48.3524 39.7889 48.525 39.9234 48.7179 39.9031C48.7382 40.1366 48.7509 40.3727 48.7509 40.6112C48.7509 40.8498 48.7382 41.0859 48.7179 41.3194C48.5275 41.2991 48.3524 41.4336 48.327 41.6265ZM46.8448 35.3778C46.6951 35.4996 46.6672 35.7179 46.7864 35.8702C46.9032 36.0225 47.1215 36.0529 47.2788 35.9412C47.4133 36.1341 47.5402 36.3346 47.657 36.5402L43.2662 38.7255L41.9667 39.7102C41.9261 39.6493 41.8804 39.591 41.8296 39.5351L43.119 38.5351L46.3677 34.855L42.6875 38.1037L41.6875 39.393C41.6317 39.3448 41.5733 39.2965 41.5124 39.2559L42.4971 37.9565L44.6824 33.5631C44.888 33.6824 45.0885 33.8093 45.2814 33.9438C45.1672 34.0986 45.1976 34.3169 45.3524 34.4362C45.5073 34.5529 45.7255 34.5276 45.8448 34.3778C46.025 34.5301 46.2027 34.69 46.3702 34.8575C46.5377 35.025 46.6976 35.2001 46.8499 35.3829L46.8448 35.3778ZM41.3195 32.5022C41.2992 32.6925 41.4337 32.8677 41.6266 32.893C41.8195 32.9184 41.9946 32.7865 42.0251 32.5961C42.4971 32.6799 42.9565 32.7991 43.3956 32.959C43.3245 33.1392 43.4108 33.3448 43.591 33.4184C43.7712 33.492 43.9743 33.4083 44.053 33.2331C44.2687 33.3347 44.4768 33.4438 44.6824 33.5631L41.9692 37.6519L41.3373 39.1544C41.2713 39.1214 41.2027 39.0935 41.1317 39.0681L41.7459 37.558L42.7179 32.7484L41.1545 37.4006L40.9337 39.0148C40.8626 38.9996 40.789 38.992 40.7129 38.9869L40.9159 37.3676L40.6114 32.4692L40.3068 37.3676L40.5099 38.9869C40.4337 38.992 40.3601 38.9996 40.289 39.0148L40.0682 37.4006L38.5048 32.7484L39.4769 37.558L40.0911 39.0681C40.02 39.091 39.9515 39.1214 39.8855 39.1544L39.2535 37.6519L36.5403 33.5631C36.7459 33.4438 36.954 33.3347 37.1698 33.2331C37.2485 33.4108 37.4515 33.4946 37.6317 33.4184C37.8119 33.3448 37.8982 33.1392 37.8271 32.959C38.2662 32.7991 38.7256 32.6773 39.1977 32.5961C39.2281 32.7865 39.4033 32.9184 39.5962 32.893C39.789 32.8677 39.9236 32.6951 39.9033 32.5022C40.1368 32.4819 40.3728 32.4692 40.6114 32.4692C40.8499 32.4692 41.086 32.4819 41.3195 32.5022ZM33.4185 43.5884C33.3449 43.4082 33.1394 43.3219 32.9592 43.3929C32.7993 42.9539 32.6774 42.4945 32.5962 42.0224C32.7866 41.9919 32.9186 41.8168 32.8932 41.6239C32.8678 41.431 32.6952 41.2965 32.5023 41.3168C32.482 41.0833 32.4693 40.8473 32.4693 40.6087C32.4693 40.3701 32.482 40.1341 32.5023 39.9006C32.6927 39.9209 32.8678 39.7864 32.8932 39.5935C32.9186 39.4006 32.7866 39.2255 32.5962 39.195C32.68 38.7229 32.7993 38.2636 32.9592 37.8245C33.1394 37.8955 33.3449 37.8092 33.4185 37.629C33.4921 37.4488 33.4084 37.2458 33.2333 37.1671C33.3348 36.9514 33.4439 36.7433 33.5632 36.5377L37.652 39.2509L39.1545 39.8828C39.1215 39.9488 39.0936 40.0173 39.0682 40.0884L37.5581 39.4742L32.7485 38.5021L37.4007 40.0656L39.0149 40.2864C38.9997 40.3574 38.9921 40.431 38.987 40.5072L37.3677 40.3041L32.4693 40.6087L37.3677 40.9133L38.987 40.7102C38.9921 40.7864 38.9997 40.86 39.0149 40.931L37.4007 41.1519L32.7485 42.7153L37.5581 41.7432L39.0682 41.129C39.0911 41.2001 39.1215 41.2686 39.1545 41.3346L37.652 41.9666L33.5632 44.6797C33.4439 44.4742 33.3348 44.266 33.2333 44.0503C33.4109 43.9716 33.4947 43.7686 33.4185 43.5884ZM35.3779 34.3753C35.4997 34.525 35.718 34.5529 35.8703 34.4336C36.0226 34.3169 36.053 34.0986 35.9414 33.9413C36.1343 33.8067 36.3348 33.6773 36.5403 33.5606L38.7256 37.9539L39.7104 39.2534C39.6495 39.294 39.5911 39.3397 39.5352 39.3904L38.5352 38.1011L34.8551 34.8524L38.1038 38.5326L39.3931 39.5326C39.3449 39.5884 39.2967 39.6468 39.2561 39.7077L37.9566 38.7229L33.5632 36.5377C33.6825 36.3321 33.8094 36.1316 33.9439 35.9387C34.0987 36.0529 34.317 36.0225 34.4363 35.8676C34.5531 35.7128 34.5277 35.4945 34.3779 35.3753C34.5302 35.1951 34.6901 35.0174 34.8576 34.8499C35.0251 34.6824 35.2003 34.5225 35.383 34.3702L35.3779 34.3753ZM34.3754 45.8422C34.5251 45.7203 34.5531 45.5021 34.4338 45.3498C34.317 45.1975 34.0987 45.167 33.9414 45.2787C33.8069 45.0858 33.6774 44.8853 33.5607 44.6797L37.954 42.4945L39.2535 41.5097C39.2941 41.5706 39.3398 41.629 39.3906 41.6848L38.1012 42.6848L34.8525 46.365L38.5327 43.1163L39.5327 41.827C39.5885 41.8752 39.6469 41.9234 39.7078 41.964L38.7231 43.2635L36.5378 47.6569C36.3322 47.5376 36.1317 47.4107 35.9388 47.2762C36.053 47.1213 36.0226 46.9031 35.8678 46.7838C35.7129 46.667 35.4947 46.6924 35.3754 46.8422C35.1952 46.6899 35.0175 46.53 34.85 46.3625C34.6825 46.195 34.5226 46.0198 34.3703 45.8371L34.3754 45.8422ZM39.9007 48.7178C39.921 48.5274 39.7865 48.3523 39.5936 48.3269C39.4007 48.3015 39.2256 48.4335 39.1951 48.6239C38.7231 48.5401 38.2637 48.4208 37.8246 48.2609C37.8957 48.0807 37.8094 47.8751 37.6292 47.8015C37.449 47.7279 37.2459 47.8117 37.1672 47.9868C36.9515 47.8853 36.7434 47.7762 36.5378 47.6569L39.251 43.5681L39.883 42.0655C39.9489 42.0985 40.0175 42.1265 40.0885 42.1518L39.4743 43.662L38.5023 48.4716L40.0657 43.8193L40.2865 42.2051C40.3576 42.2204 40.4312 42.228 40.5073 42.2331L40.3043 43.8523L40.6088 48.7508L40.9134 43.8523L40.7104 42.2331C40.7865 42.228 40.8601 42.2204 40.9312 42.2051L41.152 43.8193L42.7154 48.4716L41.7433 43.662L41.1291 42.1518C41.2002 42.129 41.2687 42.0985 41.3347 42.0655L41.9667 43.5681L44.6799 47.6569C44.4743 47.7762 44.2662 47.8853 44.0504 47.9868C43.9717 47.8091 43.7687 47.7254 43.5885 47.8015C43.4083 47.8751 43.322 48.0807 43.3931 48.2609C42.954 48.4208 42.4946 48.5426 42.0225 48.6239C41.9921 48.4335 41.8169 48.3015 41.6241 48.3269C41.4312 48.3523 41.2966 48.5249 41.3169 48.7178C41.0834 48.7381 40.8474 48.7508 40.6088 48.7508C40.3703 48.7508 40.1342 48.7381 39.9007 48.7178ZM45.8423 46.8447C45.7205 46.6949 45.5022 46.667 45.3499 46.7863C45.1976 46.9031 45.1672 47.1213 45.2788 47.2787C45.0859 47.4132 44.8854 47.5401 44.6799 47.6569L42.4946 43.266L41.5098 41.9666C41.5708 41.926 41.6291 41.8803 41.685 41.8295L42.685 43.1188L46.3651 46.3675L43.1164 42.6874L41.8271 41.6874C41.8753 41.6315 41.9235 41.5732 41.9642 41.5123L43.2636 42.497L47.657 44.6823C47.5377 44.8879 47.4108 45.0884 47.2763 45.2813C47.1215 45.167 46.9032 45.1975 46.7839 45.3523C46.6672 45.5071 46.6925 45.7254 46.8423 45.8447C46.69 46.0249 46.5301 46.2026 46.3626 46.3701C46.1951 46.5376 46.0199 46.6975 45.8372 46.8498L45.8423 46.8447Z" fill="#2C2C6B"/>
<path opacity="0.2" d="M68.5276 12.6903H12.6906C8.48501 12.6903 5.07642 16.0989 5.07642 20.3044V22.8425C5.07642 18.637 8.48501 15.2284 12.6906 15.2284H68.5276C72.7331 15.2284 76.1417 18.637 76.1417 22.8425V20.3044C76.1417 16.0989 72.7331 12.6903 68.5276 12.6903Z" fill="white"/>
</svg>
