<svg width="82" height="82" viewBox="0 0 82 82" fill="none" xmlns="http://www.w3.org/2000/svg">
<path d="M2.53809 27.9186H78.6795V53.2991H2.53809V27.9186Z" fill="white"/>
<path d="M12.6903 10.1522H68.5273C74.1313 10.1522 78.6795 14.7004 78.6795 20.3044V30.4566H2.53809V20.3044C2.53809 14.7004 7.08627 10.1522 12.6903 10.1522Z" fill="#BD2A2B"/>
<path d="M68.5273 71.0653L12.6903 71.0653C7.08627 71.0653 2.53809 66.5171 2.53809 60.9131V50.7609L78.6795 50.7609V60.9131C78.6795 66.5171 74.1313 71.0653 68.5273 71.0653Z" fill="black"/>
<path opacity="0.15" d="M68.5273 10.1522H12.6903C7.08373 10.1522 2.53809 14.6979 2.53809 20.3044V60.9132C2.53809 66.5197 7.08373 71.0654 12.6903 71.0654H68.5273C74.1339 71.0654 78.6795 66.5197 78.6795 60.9132V20.3044C78.6795 14.6979 74.1339 10.1522 68.5273 10.1522ZM76.1415 60.9132C76.1415 65.1111 72.7253 68.5273 68.5273 68.5273H12.6903C8.49234 68.5273 5.07613 65.1111 5.07613 60.9132V20.3044C5.07613 16.1065 8.49234 12.6903 12.6903 12.6903H68.5273C72.7253 12.6903 76.1415 16.1065 76.1415 20.3044V60.9132Z" fill="black"/>
<path d="M38.619 45.3905H21.9567C21.8273 46.5656 20.6141 47.426 19.2512 47.3118C19.104 47.2991 18.9568 47.2762 18.8146 47.2407C21.1471 46.096 21.0024 44.9336 19.5304 42.3499C20.3476 42.058 20.4771 41.9793 21.3045 41.421C20.7182 43.1951 22.8197 42.9793 24.3704 42.9793C24.3704 42.36 24.4313 41.6545 23.9669 41.558C24.5684 41.3423 24.6217 41.2738 25.576 40.4641V42.8499H37.0708V41.2128C37.0708 41.0225 36.916 40.8677 36.7256 40.8677C36.5353 40.8677 36.3805 41.0225 36.3805 41.2128V42.1595C36.3805 42.3017 36.2637 42.4184 36.1216 42.4184H27.3374V40.8677L33.9338 34.4946C33.8906 34.822 34.5708 35.7002 34.8551 35.8474C34.6394 35.8829 34.3982 35.8398 34.2434 35.9946L28.845 41.2128H34.8297C34.8297 39.8271 36.1216 39.8271 36.7231 39.3347C37.3246 39.8245 38.6165 39.8245 38.6165 41.2128V45.3879L38.619 45.3905Z" fill="#357A42"/>
<path d="M39.8677 45.3904V34.4971C40.4793 34.8321 40.9514 35.2204 41.7103 35.4108C41.6748 35.8422 41.289 35.9793 41.289 36.2813V42.9818C42.1316 43.1721 42.322 42.6797 42.7281 42.431C42.8321 43.4995 43.5123 44.5503 43.4869 45.3929H39.8702L39.8677 45.3904Z" fill="#357A42"/>
<path d="M51.2508 38.1137L52.5858 36.9944V42.8497H53.5325V36.1924C53.9969 35.8041 54.601 35.3828 54.8675 34.8929V45.3903H46.4716C46.3523 43.2203 46.3523 40.9893 48.8828 41.4716V40.5858C48.8828 40.3802 48.5731 40.5426 48.5731 40.3523L50.3041 38.9056V42.8497H51.2508V38.1137Z" fill="#357A42"/>
<path d="M56.1162 45.3904V34.4971C56.7279 34.8321 57.2 35.2204 57.9588 35.4108C57.9233 35.8422 57.5375 35.9793 57.5375 36.2813V42.9818C58.3801 43.1721 58.5705 42.6797 58.9766 42.431C59.0806 43.4995 59.7608 44.5503 59.7355 45.3929H56.1187L56.1162 45.3904Z" fill="#357A42"/>
<path opacity="0.2" d="M68.5273 12.6903H12.6903C8.48471 12.6903 5.07611 16.0989 5.07611 20.3044V22.8425C5.07611 18.637 8.48471 15.2284 12.6903 15.2284H68.5273C72.7328 15.2284 76.1414 18.637 76.1414 22.8425V20.3044C76.1414 16.0989 72.7328 12.6903 68.5273 12.6903Z" fill="white"/>
</svg>
