<svg width="82" height="82" viewBox="0 0 82 82" fill="none" xmlns="http://www.w3.org/2000/svg">
<path d="M2.53809 27.9186H78.6795V53.2991H2.53809V27.9186Z" fill="white"/>
<path d="M12.6903 10.1522H68.5273C74.1313 10.1522 78.6795 14.7004 78.6795 20.3044V30.4566H2.53809V20.3044C2.53809 14.7004 7.08627 10.1522 12.6903 10.1522Z" fill="#4D9E4A"/>
<path d="M68.5273 71.0653L12.6903 71.0653C7.08627 71.0653 2.53809 66.5171 2.53809 60.9131V50.7609L78.6795 50.7609V60.9131C78.6795 66.5171 74.1313 71.0653 68.5273 71.0653Z" fill="#C92A1D"/>
<path opacity="0.15" d="M68.5273 10.1522H12.6903C7.08373 10.1522 2.53809 14.6979 2.53809 20.3044V60.9132C2.53809 66.5197 7.08373 71.0654 12.6903 71.0654H68.5273C74.1339 71.0654 78.6795 66.5197 78.6795 60.9132V20.3044C78.6795 14.6979 74.1339 10.1522 68.5273 10.1522ZM76.1415 60.9132C76.1415 65.1111 72.7253 68.5273 68.5273 68.5273H12.6903C8.49234 68.5273 5.07613 65.1111 5.07613 60.9132V20.3044C5.07613 16.1065 8.49234 12.6903 12.6903 12.6903H68.5273C72.7253 12.6903 76.1415 16.1065 76.1415 20.3044V60.9132Z" fill="black"/>
<path d="M45.8396 42.6519C46.8295 39.6088 45.8929 36.2713 43.4691 34.1824C46.1036 38.0809 45.1544 43.3473 41.3752 46.091L41.6392 39.5936V34.4794C41.2305 34.284 40.8752 33.987 40.6112 33.6165C40.3473 33.9845 39.9945 34.2814 39.5833 34.4794V39.5936L39.8473 46.091C36.0681 43.3473 35.1164 38.0809 37.7534 34.1824C35.327 36.2687 34.393 39.6088 35.3829 42.6519C36.0504 44.7052 37.4768 46.2991 39.2483 47.228C38.1646 47.6239 37.0072 47.8041 35.8423 47.7458C37.2103 48.1899 38.6113 48.2407 39.9234 47.964L39.9336 48.2381L40.6112 49.1696L41.2889 48.2381L41.2991 47.964C42.6112 48.2407 44.0122 48.1899 45.3802 47.7458C44.2153 47.8016 43.0579 47.6214 41.9742 47.228C43.7483 46.2991 45.1721 44.7052 45.8396 42.6519Z" fill="#C92A1D"/>
<path d="M48.4183 37.1417C47.5173 35.5833 46.0249 34.4564 44.2787 34.0199C48.1188 36.9082 48.8929 42.3625 46.0046 46.2051C45.9995 46.2127 45.9945 46.2178 45.9894 46.2254C49.167 44.3878 50.2559 40.3219 48.4183 37.1442V37.1417Z" fill="#C92A1D"/>
<path d="M36.9387 34.02C35.1925 34.4565 33.6976 35.5834 32.7992 37.1418C30.9616 40.3194 32.0504 44.3854 35.2281 46.2229C35.223 46.2153 35.2179 46.2102 35.2129 46.2026C32.3246 42.3626 33.0987 36.9058 36.9387 34.0175V34.02Z" fill="#C92A1D"/>
<path d="M38.8601 33.5403C39.426 33.9388 40.2103 33.8018 40.6088 33.2358C41.0072 33.8018 41.7915 33.9388 42.3575 33.5403C42.8321 33.2053 43.0174 32.5886 42.8016 32.048C42.6798 32.6926 42.0605 33.1165 41.4159 32.9947C41.0758 32.9312 40.7814 32.7231 40.6088 32.4236C40.4362 32.7231 40.1418 32.9312 39.8017 32.9947C39.157 33.1165 38.5377 32.6926 38.4159 32.048C38.2002 32.5886 38.3829 33.2053 38.8601 33.5403Z" fill="#C92A1D"/>
<path opacity="0.2" d="M68.5273 12.6903H12.6903C8.48471 12.6903 5.07611 16.0989 5.07611 20.3044V22.8425C5.07611 18.637 8.48471 15.2284 12.6903 15.2284H68.5273C72.7328 15.2284 76.1414 18.637 76.1414 22.8425V20.3044C76.1414 16.0989 72.7328 12.6903 68.5273 12.6903Z" fill="white"/>
</svg>
