<svg width="82" height="82" viewBox="0 0 82 82" fill="none" xmlns="http://www.w3.org/2000/svg">
<path d="M25.3806 10.1522H55.8372V71.0654H25.3806V10.1522Z" fill="white"/>
<path d="M12.6903 10.1522H27.9186V71.0654H12.6903C7.08627 71.0654 2.53809 66.5172 2.53809 60.9132V20.3044C2.53809 14.7004 7.08627 10.1522 12.6903 10.1522Z" fill="#41914D"/>
<path d="M68.5274 71.0653H53.2991L53.2991 10.1522H68.5274C74.1314 10.1522 78.6796 14.7004 78.6796 20.3044V60.9131C78.6796 66.5171 74.1314 71.0653 68.5274 71.0653Z" fill="#BF393B"/>
<path opacity="0.15" d="M68.5273 10.1522H12.6903C7.08373 10.1522 2.53809 14.6979 2.53809 20.3044V60.9132C2.53809 66.5197 7.08373 71.0654 12.6903 71.0654H68.5273C74.1339 71.0654 78.6795 66.5197 78.6795 60.9132V20.3044C78.6795 14.6979 74.1339 10.1522 68.5273 10.1522ZM76.1415 60.9132C76.1415 65.1111 72.7253 68.5273 68.5273 68.5273H12.6903C8.49234 68.5273 5.07613 65.1111 5.07613 60.9132V20.3044C5.07613 16.1065 8.49234 12.6903 12.6903 12.6903H68.5273C72.7253 12.6903 76.1415 16.1065 76.1415 20.3044V60.9132Z" fill="black"/>
<path opacity="0.2" d="M68.5272 12.6903H12.6902C8.48465 12.6903 5.07605 16.0989 5.07605 20.3044V22.8425C5.07605 18.637 8.48465 15.2284 12.6902 15.2284H68.5272C72.7328 15.2284 76.1414 18.637 76.1414 22.8425V20.3044C76.1414 16.0989 72.7328 12.6903 68.5272 12.6903Z" fill="white"/>
</svg>
