<svg width="82" height="82" viewBox="0 0 82 82" fill="none" xmlns="http://www.w3.org/2000/svg">
<path d="M68.5273 10.1522H12.6903C7.08338 10.1522 2.53809 14.6975 2.53809 20.3044V60.9132C2.53809 66.5201 7.08338 71.0654 12.6903 71.0654H68.5273C74.1342 71.0654 78.6795 66.5201 78.6795 60.9132V20.3044C78.6795 14.6975 74.1342 10.1522 68.5273 10.1522Z" fill="black"/>
<path d="M40.6088 40.6088L75.3395 12.8248C73.5349 11.1801 71.1593 10.1522 68.5273 10.1522H12.6903C10.0583 10.1522 7.68019 11.1801 5.87817 12.8248L40.6088 40.6088Z" fill="#33764C"/>
<path d="M40.6088 40.6088L75.3395 68.3928C73.5349 70.0374 71.1593 71.0653 68.5273 71.0653H12.6903C10.0583 71.0653 7.68019 70.0374 5.87817 68.3928L40.6088 40.6088Z" fill="#33764C"/>
<path d="M71.8369 10.7511L40.6088 35.7331L9.38065 10.7511C6.83498 11.6343 4.76648 13.4795 3.59644 15.8754L34.5149 40.6112L3.59644 65.3445C4.76648 67.7404 6.83752 69.5855 9.38065 70.4688L40.6088 45.4868L71.8369 70.4688C74.3826 69.5855 76.4511 67.7404 77.6211 65.3445L46.7026 40.6087L77.6211 15.8729C76.4511 13.4769 74.38 11.6343 71.8369 10.7511Z" fill="#F5BD45"/>
<path opacity="0.15" d="M68.5273 10.1522H12.6903C7.08373 10.1522 2.53809 14.6979 2.53809 20.3044V60.9132C2.53809 66.5197 7.08373 71.0654 12.6903 71.0654H68.5273C74.1339 71.0654 78.6795 66.5197 78.6795 60.9132V20.3044C78.6795 14.6979 74.1339 10.1522 68.5273 10.1522ZM76.1415 60.9132C76.1415 65.1111 72.7253 68.5273 68.5273 68.5273H12.6903C8.49234 68.5273 5.07613 65.1111 5.07613 60.9132V20.3044C5.07613 16.1065 8.49234 12.6903 12.6903 12.6903H68.5273C72.7253 12.6903 76.1415 16.1065 76.1415 20.3044V60.9132Z" fill="black"/>
<path opacity="0.2" d="M68.5272 12.6903H12.6902C8.48465 12.6903 5.07605 16.0989 5.07605 20.3044V22.8425C5.07605 18.637 8.48465 15.2284 12.6902 15.2284H68.5272C72.7328 15.2284 76.1414 18.637 76.1414 22.8425V20.3044C76.1414 16.0989 72.7328 12.6903 68.5272 12.6903Z" fill="white"/>
</svg>
