<svg width="82" height="82" viewBox="0 0 82 82" fill="none" xmlns="http://www.w3.org/2000/svg">
<path d="M2.53809 27.9186H78.6795V53.2991H2.53809V27.9186Z" fill="white"/>
<path d="M12.6903 10.1522H68.5273C74.1313 10.1522 78.6795 14.7004 78.6795 20.3044V30.4566H2.53809V20.3044C2.53809 14.7004 7.08627 10.1522 12.6903 10.1522Z" fill="black"/>
<path d="M68.5273 71.0653L12.6903 71.0653C7.08627 71.0653 2.53809 66.5171 2.53809 60.9131V50.7609L78.6795 50.7609V60.9131C78.6795 66.5171 74.1313 71.0653 68.5273 71.0653Z" fill="#357942"/>
<path d="M5.87816 68.3927L40.6088 40.6087L5.87816 12.8247C3.8401 14.6826 2.53809 17.3323 2.53809 20.3043V60.9131C2.53809 63.8877 3.8401 66.5374 5.87816 68.3927Z" fill="#BE2A2C"/>
<path opacity="0.15" d="M68.5273 10.1522H12.6903C7.08373 10.1522 2.53809 14.6979 2.53809 20.3044V60.9132C2.53809 66.5197 7.08373 71.0654 12.6903 71.0654H68.5273C74.1339 71.0654 78.6795 66.5197 78.6795 60.9132V20.3044C78.6795 14.6979 74.1339 10.1522 68.5273 10.1522ZM76.1415 60.9132C76.1415 65.1111 72.7253 68.5273 68.5273 68.5273H12.6903C8.49234 68.5273 5.07613 65.1111 5.07613 60.9132V20.3044C5.07613 16.1065 8.49234 12.6903 12.6903 12.6903H68.5273C72.7253 12.6903 76.1415 16.1065 76.1415 20.3044V60.9132Z" fill="black"/>
<path d="M17.2258 33.6951L15.6496 37.6976L11.5456 36.4438L13.6877 40.1646L10.1294 42.5909L14.3959 43.2381L14.0735 47.5249L17.2283 44.6137L20.4034 47.5249L20.0811 43.2381L24.3272 42.5909L20.7892 40.1646L22.9313 36.4438L18.8273 37.6976L17.2309 33.6951H17.2258Z" fill="white"/>
<path opacity="0.2" d="M68.5273 12.6902H12.6903C8.48471 12.6902 5.07611 16.0988 5.07611 20.3043V22.8424C5.07611 18.6368 8.48471 15.2282 12.6903 15.2282H68.5273C72.7328 15.2282 76.1414 18.6368 76.1414 22.8424V20.3043C76.1414 16.0988 72.7328 12.6902 68.5273 12.6902Z" fill="white"/>
</svg>
