<svg width="82" height="82" viewBox="0 0 82 82" fill="none" xmlns="http://www.w3.org/2000/svg">
<path d="M2.53809 30.4565H78.6795V50.7609H2.53809V30.4565Z" fill="#AD2317"/>
<path d="M12.6903 10.1522H68.5273C74.1313 10.1522 78.6795 14.7004 78.6795 20.3044V32.9946H2.53809V20.3044C2.53809 14.7004 7.08627 10.1522 12.6903 10.1522Z" fill="black"/>
<path d="M68.5273 71.0653L12.6902 71.0653C7.0862 71.0653 2.53802 66.5171 2.53802 60.9131V48.2229L78.6794 48.2229V60.9131C78.6794 66.5171 74.1313 71.0653 68.5273 71.0653Z" fill="#2B6519"/>
<path d="M2.53809 27.9186H78.6795V32.9947H2.53809V27.9186Z" fill="white"/>
<path d="M2.53809 48.2229H78.6795V53.299H2.53809V48.2229Z" fill="white"/>
<path d="M49.0985 28.1621C50.4564 25.8094 51.0528 23.7028 51.3142 22.3526L51.4031 21.8906L51.0477 22.1977C50.0071 23.0987 48.4818 24.6672 47.1239 27.02C46.6391 27.8626 46.1366 28.7307 46.3523 29.6621L40.6138 39.6037L34.8753 29.6621C35.091 28.7307 34.5885 27.8626 34.1037 27.02C32.7459 24.6672 31.2205 23.0987 30.1799 22.1977L29.8246 21.8906L29.9134 22.3526C30.1748 23.7028 30.7687 25.8094 32.1291 28.1621C32.6139 29.0048 33.1164 29.8728 34.0301 30.152L40.0529 40.5808L31.0758 56.1289L31.9235 56.6187L40.6189 41.558L49.3142 56.6187L50.162 56.1289L41.1849 40.5808L47.2077 30.152C48.1214 29.8728 48.6239 29.0048 49.1087 28.1621H49.0985Z" fill="white"/>
<path d="M43.7382 27.7992C42.8905 26.8145 42.0048 26.0023 41.1469 25.3348C40.8296 25.0886 40.3855 25.0886 40.0682 25.3348C39.2104 26.0023 38.3246 26.8145 37.4769 27.7992C33.416 32.5098 32.8602 38.0834 32.7815 40.5808C32.8348 42.8625 33.2891 47.9513 36.8677 52.5807C37.8703 53.8777 38.9363 54.903 39.9312 55.7101C40.3246 56.0299 40.8906 56.0299 41.284 55.7101C42.2789 54.9056 43.3448 53.8777 44.3474 52.5807C47.926 47.9513 48.3803 42.8625 48.4336 40.5808C48.355 38.0834 47.7991 32.5073 43.7382 27.7992Z" fill="#AD2317"/>
<path d="M34.3475 48.1519C35.8729 46.02 36.7942 43.4286 36.7942 40.6088C36.7942 37.7891 35.8627 35.1749 34.3272 33.0378C33.0937 36.1241 32.8348 38.9845 32.7841 40.5835C32.8196 42.1418 33.0709 45.0174 34.35 48.1519H34.3475Z" fill="black"/>
<path d="M46.8701 48.1519C45.3448 46.02 44.4235 43.4286 44.4235 40.6088C44.4235 37.7764 45.3549 35.1749 46.8904 33.0378C48.1239 36.1241 48.3828 38.9845 48.4336 40.5835C48.398 42.1418 48.1493 45.0174 46.8701 48.1519Z" fill="black"/>
<path opacity="0.15" d="M68.5273 10.1522H12.6903C7.08373 10.1522 2.53809 14.6979 2.53809 20.3044V60.9132C2.53809 66.5197 7.08373 71.0654 12.6903 71.0654H68.5273C74.1339 71.0654 78.6795 66.5197 78.6795 60.9132V20.3044C78.6795 14.6979 74.1339 10.1522 68.5273 10.1522ZM76.1415 60.9132C76.1415 65.1111 72.7253 68.5273 68.5273 68.5273H12.6903C8.49234 68.5273 5.07613 65.1111 5.07613 60.9132V20.3044C5.07613 16.1065 8.49234 12.6903 12.6903 12.6903H68.5273C72.7253 12.6903 76.1415 16.1065 76.1415 20.3044V60.9132Z" fill="black"/>
<path opacity="0.2" d="M68.5274 12.6902H12.6903C8.48477 12.6902 5.07617 16.0988 5.07617 20.3043V22.8424C5.07617 18.6368 8.48477 15.2282 12.6903 15.2282H68.5274C72.7329 15.2282 76.1415 18.6368 76.1415 22.8424V20.3043C76.1415 16.0988 72.7329 12.6902 68.5274 12.6902Z" fill="white"/>
</svg>
