<svg width="82" height="82" viewBox="0 0 82 82" fill="none" xmlns="http://www.w3.org/2000/svg">
<path d="M68.5273 10.1522H12.6903C7.08338 10.1522 2.53809 14.6975 2.53809 20.3044V60.9132C2.53809 66.5201 7.08338 71.0654 12.6903 71.0654H68.5273C74.1342 71.0654 78.6795 66.5201 78.6795 60.9132V20.3044C78.6795 14.6975 74.1342 10.1522 68.5273 10.1522Z" fill="#EA3323"/>
<path opacity="0.15" d="M68.5273 10.1522H12.6903C7.08373 10.1522 2.53809 14.6979 2.53809 20.3044V60.9132C2.53809 66.5197 7.08373 71.0654 12.6903 71.0654H68.5273C74.1339 71.0654 78.6795 66.5197 78.6795 60.9132V20.3044C78.6795 14.6979 74.1339 10.1522 68.5273 10.1522ZM76.1415 60.9132C76.1415 65.1111 72.7253 68.5273 68.5273 68.5273H12.6903C8.49234 68.5273 5.07613 65.1111 5.07613 60.9132V20.3044C5.07613 16.1065 8.49234 12.6903 12.6903 12.6903H68.5273C72.7253 12.6903 76.1415 16.1065 76.1415 20.3044V60.9132Z" fill="black"/>
<path d="M40.6089 58.375L40.0023 52.3192C39.982 52.1162 40.053 51.9081 40.2104 51.7761C40.3043 51.6974 40.4337 51.6365 40.6089 51.6416C40.8677 51.6467 41.0251 51.7862 41.1165 51.9233C41.1977 52.0451 41.2307 52.1923 41.2155 52.3395L40.6063 58.375H40.6089ZM58.3752 40.6087L52.3194 40.0021C52.1164 39.9818 51.9082 40.0529 51.7763 40.2102C51.6976 40.3041 51.6367 40.4336 51.6418 40.6087C51.6468 40.8676 51.7864 41.0249 51.9235 41.1163C52.0453 41.1975 52.1925 41.2305 52.3397 41.2153L58.3752 40.6061V40.6087ZM58.1569 43.3878L52.2712 41.8422C52.0732 41.7914 51.8575 41.827 51.7027 41.9615C51.6113 42.0427 51.5301 42.1594 51.5072 42.3346C51.4717 42.5934 51.5834 42.7686 51.7052 42.8802C51.8118 42.9792 51.9539 43.0351 52.1011 43.0427L58.1595 43.3853L58.1569 43.3878ZM57.5046 46.0985L51.9336 43.6518C51.7458 43.5706 51.5275 43.5731 51.355 43.6823C51.2509 43.7483 51.1544 43.8498 51.1037 44.0198C51.0275 44.2685 51.1113 44.4614 51.2128 44.5909C51.3042 44.7051 51.4336 44.7838 51.5783 44.8142L57.5072 46.101L57.5046 46.0985ZM56.4387 48.6746L51.3169 45.3853C51.1443 45.2762 50.9286 45.2432 50.7382 45.3244C50.624 45.3726 50.5149 45.4589 50.4362 45.6163C50.322 45.8498 50.3753 46.0528 50.4539 46.1975C50.525 46.3244 50.6418 46.4208 50.7788 46.4741L56.4336 48.6721L56.4387 48.6746ZM54.9818 51.0527L50.4387 47.0046C50.2864 46.87 50.0758 46.8041 49.8778 46.8548C49.7585 46.8853 49.6342 46.9538 49.5352 47.0985C49.3854 47.3117 49.4057 47.5198 49.4616 47.6746C49.5123 47.8117 49.6113 47.9259 49.7408 47.9995L54.9818 51.0527ZM53.1722 53.1695L49.3194 48.4589C49.19 48.3015 48.9946 48.2051 48.789 48.2228C48.6672 48.233 48.5326 48.2812 48.4134 48.4081C48.2332 48.5959 48.2205 48.804 48.2535 48.9665C48.2814 49.1111 48.3626 49.238 48.4768 49.332L53.1722 53.1695ZM51.0529 54.9791L47.9844 49.7253C47.8829 49.5502 47.7027 49.4233 47.4971 49.4081C47.3753 49.4005 47.2357 49.4259 47.0961 49.5325C46.888 49.6898 46.8448 49.8954 46.8499 50.0578C46.855 50.205 46.9159 50.3421 47.0149 50.4538L51.0529 54.9791ZM48.6748 56.4359L46.4667 50.766C46.3931 50.5756 46.2357 50.4233 46.0352 50.3776C45.9159 50.3497 45.7738 50.3548 45.619 50.4385C45.388 50.5604 45.3119 50.7558 45.2941 50.9182C45.2763 51.0629 45.3144 51.2101 45.3931 51.3345L48.6748 56.4359ZM46.0987 57.5019L44.8043 51.5553C44.7611 51.3548 44.6291 51.1797 44.4388 51.1035C44.3246 51.0578 44.185 51.0401 44.0175 51.0984C43.7713 51.1822 43.6647 51.3649 43.6215 51.5223C43.5809 51.6644 43.5961 51.8142 43.6545 51.9487L46.0987 57.5019ZM43.388 58.1542L43.0378 52.0781C43.0276 51.8725 42.9236 51.6796 42.7484 51.5756C42.6444 51.5121 42.5073 51.4741 42.3347 51.5045C42.0784 51.5502 41.9464 51.7126 41.8753 51.8598C41.8144 51.9918 41.8043 52.1441 41.8424 52.2862L43.388 58.1542ZM22.8425 40.6061L28.8983 39.9996C29.1014 39.9792 29.3095 40.0503 29.4415 40.2077C29.5201 40.3016 29.581 40.431 29.576 40.6061C29.5709 40.865 29.4313 41.0224 29.2942 41.1138C29.1724 41.195 29.0252 41.228 28.878 41.2127L22.8425 40.6061ZM23.0608 37.827L29.1369 38.1772C29.3425 38.1874 29.5354 38.2914 29.6394 38.4666C29.7029 38.5706 29.7409 38.7077 29.7105 38.8803C29.6648 39.1366 29.5024 39.2686 29.3552 39.3397C29.2232 39.4006 29.0709 39.4107 28.9288 39.3727L23.0608 37.827ZM23.7131 35.1164L29.6597 36.4108C29.8602 36.4539 30.0354 36.5859 30.1115 36.7762C30.1572 36.8904 30.1749 37.03 30.1166 37.1976C30.0328 37.4437 29.8501 37.5503 29.6927 37.5935C29.5506 37.6341 29.4008 37.6189 29.2663 37.5605L23.7131 35.1164ZM24.7791 32.5402L30.4491 34.7483C30.6394 34.8219 30.7917 34.9793 30.8374 35.1798C30.8653 35.2991 30.8602 35.4412 30.7765 35.596C30.6546 35.827 30.4592 35.9031 30.2968 35.9209C30.1521 35.9387 30.0049 35.9006 29.8805 35.8219L24.7791 32.5402ZM26.2359 30.1621L31.4897 33.2306C31.6648 33.3321 31.7917 33.5123 31.8069 33.7179C31.8145 33.8397 31.7891 33.9793 31.6825 34.1189C31.5252 34.327 31.3196 34.3702 31.1572 34.3651C31.01 34.36 30.8729 34.2991 30.7612 34.2001L26.2359 30.1621ZM28.0455 28.0428L32.7561 31.8956C32.9135 32.025 33.0099 32.2204 32.9922 32.426C32.982 32.5478 32.9338 32.6824 32.8069 32.8017C32.6191 32.9819 32.411 32.9945 32.2485 32.9616C32.1039 32.9336 31.977 32.8524 31.8831 32.7382L28.0455 28.0428ZM30.1648 26.2332L34.213 30.7763C34.3475 30.9286 34.4135 31.1392 34.3627 31.3372C34.3323 31.4565 34.2637 31.5809 34.1191 31.6798C33.9059 31.8296 33.6978 31.8093 33.5429 31.7534C33.4059 31.7027 33.2917 31.6037 33.2181 31.4743L30.1623 26.2332H30.1648ZM32.5429 24.7763L35.8323 29.8981C35.9414 30.0707 35.9744 30.2864 35.8932 30.4768C35.8449 30.591 35.7587 30.7001 35.6013 30.7788C35.3678 30.893 35.1648 30.8397 35.0201 30.7611C34.8932 30.69 34.7967 30.5732 34.7434 30.4362L32.5455 24.7814L32.5429 24.7763ZM35.1191 23.7078L37.5657 29.2788C37.647 29.4667 37.6444 29.6849 37.5353 29.8575C37.4693 29.9616 37.3678 30.058 37.1977 30.1088C36.949 30.1849 36.7561 30.1012 36.6267 29.9996C36.5125 29.9083 36.4338 29.7788 36.4033 29.6342L35.1165 23.7053L35.1191 23.7078ZM37.8297 23.0556L39.3754 28.9413C39.4261 29.1393 39.3906 29.355 39.2561 29.5098C39.1749 29.6012 39.0581 29.6824 38.883 29.7052C38.6241 29.7408 38.449 29.6291 38.3373 29.5073C38.2383 29.4007 38.1825 29.2585 38.1749 29.1113L37.8322 23.053L37.8297 23.0556ZM40.6089 22.8373L41.2155 28.8931C41.2358 29.0961 41.1647 29.3042 41.0073 29.4362C40.9134 29.5149 40.784 29.5758 40.6089 29.5707C40.35 29.5656 40.1926 29.4261 40.1013 29.289C40.02 29.1672 39.987 29.02 40.0023 28.8728L40.6089 22.8373ZM37.8297 58.1517L39.3754 52.2659C39.4261 52.068 39.3906 51.8522 39.2561 51.6974C39.1749 51.606 39.0581 51.5248 38.883 51.502C38.6241 51.4664 38.449 51.5781 38.3373 51.7C38.2383 51.8066 38.1825 51.9487 38.1749 52.0959L37.8322 58.1542L37.8297 58.1517ZM35.1191 57.4994L37.5657 51.9284C37.647 51.7406 37.6444 51.5223 37.5353 51.3497C37.4693 51.2456 37.3678 51.1492 37.1977 51.0984C36.949 51.0223 36.7561 51.1061 36.6267 51.2076C36.5125 51.2989 36.4338 51.4284 36.4033 51.573L35.1165 57.5019L35.1191 57.4994ZM32.5429 56.4334L35.8323 51.3116C35.9414 51.139 35.9744 50.9233 35.8932 50.733C35.8449 50.6187 35.7587 50.5096 35.6013 50.4309C35.3678 50.3167 35.1648 50.37 35.0201 50.4487C34.8932 50.5198 34.7967 50.6365 34.7434 50.7736L32.5455 56.4283L32.5429 56.4334ZM30.1648 54.9766L34.213 50.4335C34.3475 50.2812 34.4135 50.0705 34.3627 49.8726C34.3323 49.7533 34.2637 49.6289 34.1191 49.5299C33.9059 49.3802 33.6978 49.4005 33.5429 49.4563C33.4059 49.5071 33.2917 49.6061 33.2181 49.7355L30.1623 54.9766H30.1648ZM28.0455 53.1669L32.7561 49.3142C32.9135 49.1847 33.0099 48.9893 32.9922 48.7837C32.982 48.6619 32.9338 48.5274 32.8069 48.4081C32.6191 48.2279 32.411 48.2152 32.2485 48.2482C32.1039 48.2761 31.977 48.3573 31.8831 48.4716L28.0455 53.1669ZM26.2359 51.0477L31.4897 47.9792C31.6648 47.8777 31.7917 47.6975 31.8069 47.4919C31.8145 47.37 31.7891 47.2305 31.6825 47.0909C31.5252 46.8827 31.3196 46.8396 31.1572 46.8447C31.01 46.8497 30.8729 46.9107 30.7612 47.0096L26.2359 51.0477ZM24.7791 48.6695L30.4491 46.4614C30.6394 46.3878 30.7917 46.2305 30.8374 46.03C30.8653 45.9107 30.8602 45.7685 30.7765 45.6137C30.6546 45.3828 30.4592 45.3066 30.2968 45.2888C30.1521 45.2711 30.0049 45.3091 29.8805 45.3878L24.7791 48.6695ZM23.7131 46.0934L29.6597 44.799C29.8602 44.7559 30.0354 44.6239 30.1115 44.4335C30.1572 44.3193 30.1749 44.1797 30.1166 44.0122C30.0328 43.766 29.8501 43.6594 29.6927 43.6163C29.5506 43.5757 29.4008 43.5909 29.2663 43.6493L23.7131 46.0934ZM23.0608 43.3828L29.1369 43.0325C29.3425 43.0224 29.5354 42.9183 29.6394 42.7432C29.7029 42.6391 29.7409 42.5021 29.7105 42.3295C29.6648 42.0731 29.5024 41.9412 29.3552 41.8701C29.2232 41.8092 29.0709 41.799 28.9288 41.8371L23.0608 43.3828ZM43.388 23.0556L43.0378 29.1316C43.0276 29.3372 42.9236 29.5301 42.7484 29.6342C42.6444 29.6976 42.5073 29.7357 42.3347 29.7052C42.0784 29.6596 41.9464 29.4971 41.8753 29.3499C41.8144 29.2179 41.8043 29.0656 41.8424 28.9235L43.388 23.0556ZM46.0987 23.7078L44.8043 29.6545C44.7611 29.855 44.6291 30.0301 44.4388 30.1062C44.3246 30.1519 44.185 30.1697 44.0175 30.1113C43.7713 30.0276 43.6647 29.8448 43.6215 29.6875C43.5809 29.5453 43.5961 29.3956 43.6545 29.2611L46.0987 23.7078ZM48.6748 24.7738L46.4667 30.4438C46.3931 30.6342 46.2357 30.7864 46.0352 30.8321C45.9159 30.86 45.7738 30.855 45.619 30.7712C45.388 30.6494 45.3119 30.454 45.2941 30.2915C45.2763 30.1469 45.3144 29.9996 45.3931 29.8753L48.6748 24.7738ZM51.0529 26.2306L47.9844 31.4844C47.8829 31.6595 47.7027 31.7864 47.4971 31.8017C47.3753 31.8093 47.2357 31.7839 47.0961 31.6773C46.888 31.5199 46.8448 31.3144 46.8499 31.1519C46.855 31.0047 46.9159 30.8677 47.0149 30.756L51.0529 26.2306ZM53.1722 28.0403L49.3194 32.7509C49.19 32.9083 48.9946 33.0047 48.789 32.9869C48.6672 32.9768 48.5326 32.9286 48.4134 32.8017C48.2332 32.6138 48.2205 32.4057 48.2535 32.2433C48.2814 32.0986 48.3626 31.9717 48.4768 31.8778L53.1722 28.0403ZM54.9818 30.1595L50.4387 34.2077C50.2864 34.3422 50.0758 34.4082 49.8778 34.3575C49.7585 34.327 49.6342 34.2585 49.5352 34.1138C49.3854 33.9006 49.4057 33.6925 49.4616 33.5377C49.5123 33.4006 49.6113 33.2864 49.7408 33.2128L54.9818 30.157V30.1595ZM56.4387 32.5377L51.3169 35.827C51.1443 35.9361 50.9286 35.9691 50.7382 35.8879C50.624 35.8397 50.5149 35.7534 50.4362 35.596C50.322 35.3625 50.3753 35.1595 50.4539 35.0148C50.525 34.8879 50.6418 34.7915 50.7788 34.7382L56.4336 32.5402L56.4387 32.5377ZM57.5046 35.1138L51.9336 37.5605C51.7458 37.6417 51.5275 37.6392 51.355 37.53C51.2509 37.464 51.1544 37.3625 51.1037 37.1925C51.0275 36.9437 51.1113 36.7509 51.2128 36.6214C51.3042 36.5072 51.4336 36.4285 51.5783 36.3981L57.5072 35.1113L57.5046 35.1138ZM58.1569 37.8244L52.2712 39.3701C52.0732 39.4209 51.8575 39.3853 51.7027 39.2508C51.6113 39.1696 51.5301 39.0529 51.5072 38.8777C51.4717 38.6189 51.5834 38.4437 51.7052 38.3321C51.8118 38.2331 51.9539 38.1772 52.1011 38.1696L58.1595 37.827L58.1569 37.8244Z" fill="#FFFF55"/>
<path d="M40.6087 51.3498C46.5408 51.3498 51.3497 46.5409 51.3497 40.6088C51.3497 34.6767 46.5408 29.8678 40.6087 29.8678C34.6766 29.8678 29.8677 34.6767 29.8677 40.6088C29.8677 46.5409 34.6766 51.3498 40.6087 51.3498Z" fill="#FFFF55"/>
<path d="M40.6087 49.7863C35.5479 49.7863 31.4312 45.6696 31.4312 40.6087C31.4312 35.5479 35.5479 31.4312 40.6087 31.4312C45.6696 31.4312 49.7863 35.5479 49.7863 40.6087C49.7863 45.6696 45.6696 49.7863 40.6087 49.7863ZM40.6087 32.1646C35.954 32.1646 32.1646 35.954 32.1646 40.6087C32.1646 45.2635 35.954 49.0528 40.6087 49.0528C45.2635 49.0528 49.0528 45.2635 49.0528 40.6087C49.0528 35.954 45.2635 32.1646 40.6087 32.1646Z" fill="#EA3323"/>
<path opacity="0.2" d="M68.5272 12.6902H12.6902C8.48465 12.6902 5.07605 16.0988 5.07605 20.3043V22.8424C5.07605 18.6368 8.48465 15.2282 12.6902 15.2282H68.5272C72.7328 15.2282 76.1414 18.6368 76.1414 22.8424V20.3043C76.1414 16.0988 72.7328 12.6902 68.5272 12.6902Z" fill="white"/>
</svg>
