<svg width="82" height="82" viewBox="0 0 82 82" fill="none" xmlns="http://www.w3.org/2000/svg">
<path d="M2.53809 20.3044H78.6795V60.9131H2.53809V20.3044Z" fill="#CE2C2D"/>
<path d="M12.6903 10.1522H68.5273C74.1313 10.1522 78.6795 14.7004 78.6795 20.3044V25.3805H2.53809V20.3044C2.53809 14.7004 7.08627 10.1522 12.6903 10.1522Z" fill="#0F299C"/>
<path d="M68.5274 71.0653L12.6903 71.0653C7.08633 71.0653 2.53815 66.5171 2.53815 60.9131V55.837L78.6796 55.837V60.9131C78.6796 66.5171 74.1314 71.0653 68.5274 71.0653Z" fill="#0F299C"/>
<path opacity="0.15" d="M68.5273 10.1522H12.6903C7.08373 10.1522 2.53809 14.6978 2.53809 20.3044V60.9131C2.53809 66.5197 7.08373 71.0653 12.6903 71.0653H68.5273C74.1339 71.0653 78.6795 66.5197 78.6795 60.9131V20.3044C78.6795 14.6978 74.1339 10.1522 68.5273 10.1522ZM76.1415 60.9131C76.1415 65.1111 72.7253 68.5273 68.5273 68.5273H12.6903C8.49234 68.5273 5.07613 65.1111 5.07613 60.9131V20.3044C5.07613 16.1065 8.49234 12.6902 12.6903 12.6902H68.5273C72.7253 12.6902 76.1415 16.1065 76.1415 20.3044V60.9131Z" fill="black"/>
<path d="M58.3751 49.6442H57.4893V47.9285H56.6035V46.464H55.7228V45.36H55.1975V44.5047C52.2 44.8092 55.0934 39.2255 54.5173 37.6367C54.2939 37.6139 54.1061 37.756 54.0071 37.9057C54.1619 37.4997 53.7685 36.3601 53.5401 37.2915H53.0807V36.0555C51.9284 37.1342 52.8066 36.2789 52.4208 35.218C52.3955 35.388 52.1924 35.7154 52.1087 35.6875C52.2812 35.2687 52.5046 34.9642 52.2 34.3956C51.8269 35.5784 52.3066 34.2763 51.9411 33.7535C51.9234 33.8906 51.7889 34.284 51.766 34.2535C51.8929 32.2332 49.8143 32.2358 49.9437 34.2535C49.9209 34.284 49.7863 33.8906 49.7686 33.7535C49.4056 34.2763 49.8828 35.5784 49.5097 34.3956C49.2026 34.9667 49.4259 35.2687 49.6011 35.6875C49.5173 35.7154 49.3143 35.3905 49.2889 35.2205C48.9031 36.2814 49.7813 37.1367 48.629 36.058V38.2205H48.0732C48.1341 37.9743 47.5909 37.9844 47.6696 38.2255H44.3701L44.3752 36.2382C43.8651 36.4362 43.8879 36.7027 43.8955 37.0174C43.3194 37.2662 43.223 36.2103 43.7864 36.2459V35.4261C43.6823 35.4489 43.3854 35.4438 43.1214 35.8449V35.6367C42.7737 35.6063 42.7712 35.9337 42.7636 36.5682H42.6722C42.4235 35.685 43.4488 35.2865 42.9158 34.4235C42.0605 35.7992 43.5808 33.3956 42.8397 32.9769C42.162 34.8093 43.0554 32.3017 42.4742 31.9591C42.0301 33.6368 42.5884 31.4083 42.2103 31.2738C41.6214 32.3627 42.3752 30.9946 41.9717 30.7282C41.5504 31.4363 41.8118 30.4439 41.8473 30.2611H41.69L41.7458 29.8271H41.5453L41.5935 29.4667H41.2458L41.2788 29.1013H40.9615C41.0402 28.3754 40.1443 28.3779 40.2204 29.1013H39.9032L39.9362 29.4667H39.5885L39.6367 29.8271H39.4362L39.492 30.2611H39.3372C39.3626 30.4312 39.6088 31.4363 39.2128 30.7282C38.8144 31.0073 39.558 32.3677 38.9692 31.2561C38.591 31.5124 39.1748 33.5022 38.7103 31.9591C38.1291 32.2992 39.0225 34.8119 38.3448 32.9769C37.6037 33.3931 39.124 35.7992 38.2687 34.4235C37.7357 35.289 38.7636 35.6875 38.5123 36.5682H38.4692C38.4666 35.8905 38.4692 35.6114 38.091 35.6367V35.8423C37.8271 35.4464 37.5326 35.4515 37.4286 35.4261V36.2459C37.9819 36.1976 37.9057 37.2636 37.3423 37.0174C37.3575 36.6951 37.3499 36.4413 36.8423 36.2408V38.2281H33.5505C33.6291 37.987 33.086 37.9768 33.1469 38.223H32.5936V36.0606C31.4413 37.1393 32.3195 36.2839 31.9337 35.223C31.9083 35.3931 31.7053 35.7205 31.6215 35.69C31.7941 35.2713 32.0175 34.9667 31.7129 34.3982C31.3424 35.5809 31.8195 34.2789 31.454 33.756C31.4363 33.8931 31.3017 34.2865 31.2789 34.256C31.4058 32.2357 29.3271 32.2383 29.4566 34.256C29.4337 34.2865 29.2992 33.8931 29.2815 33.756C28.9185 34.2789 29.3957 35.5809 29.0226 34.3982C28.7155 34.9692 28.9414 35.2713 29.1139 35.69C29.0302 35.718 28.8271 35.3931 28.8018 35.2205C28.416 36.2839 29.2941 37.1367 28.1419 36.058V37.2941H27.6825C27.4541 36.3601 27.0607 37.5047 27.2155 37.9083C27.1165 37.7611 26.9262 37.6164 26.7053 37.6393C26.1292 39.2281 29.0251 44.8067 26.0226 44.5072V45.3625H25.4972V46.4742L24.6165 46.4666V47.9336H23.7307V49.6493H22.845V51.4868H29.1723C29.7688 51.4868 30.9058 51.4868 31.5022 51.4868H39.4489C40.0453 51.4868 41.1824 51.4868 41.7788 51.4868H49.7102C50.3066 51.4868 51.4437 51.4868 52.0401 51.4868H58.3827V49.6493L58.3751 49.6442Z" fill="white"/>
<path opacity="0.2" d="M68.5272 12.6902H12.6902C8.48465 12.6902 5.07605 16.0988 5.07605 20.3044V22.8424C5.07605 18.6369 8.48465 15.2283 12.6902 15.2283H68.5272C72.7328 15.2283 76.1414 18.6369 76.1414 22.8424V20.3044C76.1414 16.0988 72.7328 12.6902 68.5272 12.6902Z" fill="white"/>
</svg>
