<svg width="82" height="82" viewBox="0 0 82 82" fill="none" xmlns="http://www.w3.org/2000/svg">
<path d="M68.5272 10.1522H12.6902C7.08325 10.1522 2.53796 14.6975 2.53796 20.3044V60.9132C2.53796 66.5201 7.08325 71.0654 12.6902 71.0654H68.5272C74.1341 71.0654 78.6794 66.5201 78.6794 60.9132V20.3044C78.6794 14.6975 74.1341 10.1522 68.5272 10.1522Z" fill="#B9291D"/>
<path d="M54.4437 16.0482C42.8321 14.939 44.8321 15.2106 41.5123 18.9771C41.1951 18.8451 40.8905 18.7283 40.5961 18.6167C40.124 18.4415 39.6773 18.2867 39.256 18.1598C38.1012 17.807 37.1063 17.6218 36.1241 17.5304C35.921 17.5126 35.718 17.4949 35.5149 17.4847C34.6977 17.4339 33.7561 17.4314 32.9794 17.5583C30.7155 17.906 29.2992 18.8349 26.8678 18.9136C26.9592 19.0177 27.0581 19.1116 27.18 19.1979V19.203C27.4059 19.3502 27.6724 19.505 27.9896 19.6192C29.7282 20.2664 32.6368 20.2359 34.0962 18.9009C36.652 19.17 37.2789 19.8654 37.9311 20.6801C36.8271 20.5024 35.6241 20.241 34.586 21.3705C33.4693 21.8121 30.7459 20.4542 30.8145 22.4923C32.3551 21.2816 35.7256 22.5684 37.2256 23.576C41.1519 23.7105 46.7356 21.4111 50.898 21.3679H46.8219L51.6797 20.3933H46.0377C45.9285 20.274 45.6925 20.1243 45.4945 19.9948C46.8321 19.1141 47.9996 17.5659 48.3194 16.7969C48.898 16.7918 49.426 16.7715 49.9209 16.7436C50.332 16.7208 50.7153 16.6878 51.0833 16.6497C51.6493 16.5913 52.1721 16.5126 52.6823 16.4238C53.2762 16.3172 53.8574 16.1903 54.4462 16.0507L54.4437 16.0482Z" fill="#F2D347"/>
<path d="M51.5731 39.8372L55.7939 38.4971L50.8092 37.8829C52.0452 37.1012 53.4919 36.6646 54.9792 36.6367C53.6696 36.0174 52.2229 35.7586 50.8067 35.8779L54.2584 33.1038L49.3853 34.3322C50.2559 33.1571 51.4488 32.2256 52.8244 31.6596C51.3802 31.5556 49.9386 31.8373 48.6595 32.4591L50.8752 28.6241L46.7737 31.5302C47.1595 30.119 47.9361 28.8195 49.0173 27.7967C47.6316 28.2206 46.3904 29.0048 45.4235 30.048L46.1037 25.6698L43.3321 29.8576C43.1824 28.4033 43.4387 26.9135 44.0757 25.5683C42.9362 26.4642 42.0631 27.6444 41.5352 28.9642L40.5885 24.6368L39.5149 29.548C38.8499 28.2459 38.5479 26.7637 38.657 25.2764C37.9184 26.5226 37.5301 27.9388 37.5149 29.3627L35.0708 25.6698L35.8449 30.6368C34.7535 29.6622 33.9362 28.3881 33.5022 26.9642C33.2637 28.3932 33.4134 29.8551 33.9134 31.185L30.2992 28.6241L32.8119 32.9743C31.4439 32.4591 30.2231 31.5682 29.3043 30.3982C29.5987 31.817 30.2637 33.1266 31.2129 34.185L26.9185 33.1038L30.8348 36.2535C29.3728 36.2687 27.9109 35.8779 26.6292 35.119C27.416 36.3347 28.5099 37.3144 29.7764 37.9616L25.3805 38.5047L32.3094 40.7052C32.8347 49.4183 45.9742 50.8701 48.459 42.5935C50.5122 41.4438 52.9792 41.2509 55.1899 42.0605C54.1924 41.0098 52.9386 40.2458 51.5731 39.8448V39.8372Z" fill="#F2D347"/>
<path d="M2.53796 43.1467H78.6794V60.9131C78.6794 66.5171 74.1312 71.0652 68.5272 71.0652H12.6902C7.08614 71.0652 2.53796 66.5171 2.53796 60.9131V43.1467Z" fill="#182C6D"/>
<path d="M74.0551 60.6619C70.2607 62.1797 66.5704 62.1797 62.7811 60.6619C57.7684 58.6543 52.4512 58.6442 46.9868 60.6315C42.695 62.1898 38.525 62.1898 34.2331 60.6315C28.7738 58.6442 23.4566 58.6543 18.4389 60.6619C14.6495 62.1797 10.9592 62.1797 7.16485 60.6619C5.62933 60.0477 4.0862 59.6416 2.54053 59.403V60.9157C2.54053 62.3929 2.87047 63.7862 3.439 65.0502C4.02528 65.2126 4.60904 65.3446 5.19786 65.5806C10.241 67.5984 15.3602 67.6009 20.4084 65.5806C24.2281 64.0527 28.1646 64.0604 32.4235 65.6111C37.8574 67.5882 43.365 67.5882 48.7964 65.6111C53.0578 64.0629 56.9918 64.0527 60.8116 65.5806C65.8597 67.6009 70.979 67.5984 76.0221 65.5806C76.6109 65.3446 77.1972 65.2126 77.7809 65.0502C78.3469 63.7837 78.6794 62.3903 78.6794 60.9157V59.403C77.1337 59.6442 75.5906 60.0477 74.0551 60.6619Z" fill="white"/>
<path d="M78.6794 48.8092C77.1337 49.0503 75.5906 49.4538 74.0551 50.068C70.2658 51.5833 66.5755 51.5858 62.7811 50.068C57.7684 48.0604 52.4512 48.0503 46.9868 50.0376C42.695 51.5959 38.525 51.5959 34.2331 50.0376C28.7687 48.0503 23.4566 48.0604 18.4389 50.068C14.6495 51.5833 10.9592 51.5858 7.16485 50.068C5.62933 49.4538 4.0862 49.0477 2.54053 48.8092V54.1848C3.42123 54.3726 4.30701 54.6289 5.19786 54.9868C10.246 57.0045 15.3653 57.002 20.4084 54.9868C24.2281 53.4589 28.1646 53.4665 32.4235 55.0172C37.8574 56.9918 43.365 56.9918 48.7964 55.0172C53.0578 53.4665 56.9918 53.4589 60.8116 54.9868C65.8597 57.0045 70.979 57.002 76.0221 54.9868C76.9129 54.6314 77.7962 54.3751 78.6794 54.1848V48.8092Z" fill="white"/>
<path d="M78.6794 38.2153C77.1337 38.4564 75.5906 38.86 74.0551 39.4742C70.2658 40.9894 66.5755 40.9919 62.7811 39.4742C57.7684 37.4666 52.4512 37.4564 46.9868 39.4437C42.695 41.0021 38.525 41.0021 34.2331 39.4437C28.7687 37.4564 23.4566 37.4666 18.4389 39.4742C14.6495 40.9894 10.9592 40.9919 7.16485 39.4742C5.62933 38.86 4.0862 38.4539 2.54053 38.2153V43.5909C3.42123 43.7787 4.30701 44.035 5.19786 44.3929C10.246 46.4106 15.3653 46.4081 20.4084 44.3929C24.2281 42.8625 28.1646 42.8726 32.4235 44.4234C37.8574 46.398 43.365 46.398 48.7964 44.4234C53.0578 42.8751 56.9918 42.865 60.8116 44.3929C65.8597 46.4106 70.979 46.4081 76.0221 44.3929C76.9129 44.0376 77.7962 43.7812 78.6794 43.5909V38.2153Z" fill="white"/>
<path opacity="0.15" d="M68.5272 10.1522H12.6902C7.08361 10.1522 2.53796 14.6979 2.53796 20.3044V60.9132C2.53796 66.5197 7.08361 71.0654 12.6902 71.0654H68.5272C74.1337 71.0654 78.6794 66.5197 78.6794 60.9132V20.3044C78.6794 14.6979 74.1337 10.1522 68.5272 10.1522ZM76.1413 60.9132C76.1413 65.1111 72.7251 68.5273 68.5272 68.5273H12.6902C8.49222 68.5273 5.07601 65.1111 5.07601 60.9132V20.3044C5.07601 16.1065 8.49222 12.6903 12.6902 12.6903H68.5272C72.7251 12.6903 76.1413 16.1065 76.1413 20.3044V60.9132Z" fill="black"/>
<path opacity="0.2" d="M68.5272 12.6902H12.6902C8.48465 12.6902 5.07605 16.0988 5.07605 20.3043V22.8424C5.07605 18.6368 8.48465 15.2282 12.6902 15.2282H68.5272C72.7328 15.2282 76.1414 18.6368 76.1414 22.8424V20.3043C76.1414 16.0988 72.7328 12.6902 68.5272 12.6902Z" fill="white"/>
</svg>
