<svg width="82" height="82" viewBox="0 0 82 82" fill="none" xmlns="http://www.w3.org/2000/svg">
<path d="M2.53796 38.0707H78.6794V55.837H2.53796V38.0707Z" fill="#DD4446"/>
<path d="M2.53796 22.8424H78.6794V40.6087H2.53796V22.8424Z" fill="white"/>
<path d="M12.6902 10.1522H68.5272C74.1312 10.1522 78.6794 14.7003 78.6794 20.3043V25.3804H2.53796V20.3043C2.53796 14.7003 7.08614 10.1522 12.6902 10.1522Z" fill="#F8D448"/>
<path d="M68.5273 71.0653L12.6902 71.0653C7.0862 71.0653 2.53802 66.5171 2.53802 60.9131V55.837L78.6794 55.837V60.9131C78.6794 66.5171 74.1313 71.0653 68.5273 71.0653Z" fill="#163AA0"/>
<path d="M5.87803 68.3928L40.6087 40.6088L5.87803 12.8248C3.83998 14.6826 2.53796 17.3323 2.53796 20.3044V60.9132C2.53796 63.8877 3.83998 66.5375 5.87803 68.3928Z" fill="#439543"/>
<path opacity="0.15" d="M68.5272 10.1522H12.6902C7.08361 10.1522 2.53796 14.6978 2.53796 20.3043V60.9131C2.53796 66.5197 7.08361 71.0653 12.6902 71.0653H68.5272C74.1337 71.0653 78.6794 66.5197 78.6794 60.9131V20.3043C78.6794 14.6978 74.1337 10.1522 68.5272 10.1522ZM76.1413 60.9131C76.1413 65.111 72.7251 68.5272 68.5272 68.5272H12.6902C8.49222 68.5272 5.07601 65.111 5.07601 60.9131V20.3043C5.07601 16.1064 8.49222 12.6902 12.6902 12.6902H68.5272C72.7251 12.6902 76.1413 16.1064 76.1413 20.3043V60.9131Z" fill="black"/>
<path d="M12.581 41.9667C11.8297 35.718 16.2865 30.0429 22.5352 29.2891C20.4819 28.7206 18.3144 28.7206 16.2611 29.2891C10.0125 31.0226 6.35007 37.4921 8.08356 43.7433C9.81705 49.992 16.2865 53.6544 22.5377 51.9209C17.3221 51.294 13.2104 47.1824 12.5835 41.9667H12.581Z" fill="white"/>
<path d="M23.081 32.2611L22.5379 30.5911L21.9947 32.2611H20.2384L21.6597 33.2941L21.1166 34.9641L22.5379 33.9337L23.9592 34.9641L23.416 33.2941L24.8373 32.2611H23.081Z" fill="white"/>
<path d="M22.5379 35.7712L21.9947 37.4413H20.2384L21.6597 38.4743L21.1166 40.1468L22.5379 39.1138L23.9592 40.1468L23.416 38.4743L24.8373 37.4413H23.081L22.5379 35.7712Z" fill="white"/>
<path d="M22.5379 40.9514L21.9947 42.624H20.2384L21.6597 43.6544L21.1166 45.327L22.5379 44.294L23.9592 45.327L23.416 43.657L24.8373 42.624H23.0785L22.5379 40.9514Z" fill="white"/>
<path d="M23.0785 47.8041L22.5379 46.1341L21.9947 47.8041H20.2384L21.6597 48.8371L21.1166 50.5071L22.5379 49.4742L23.9592 50.5071L23.416 48.8371L24.8373 47.8041H23.0785Z" fill="white"/>
<path opacity="0.2" d="M68.5272 12.6902H12.6902C8.48465 12.6902 5.07605 16.0988 5.07605 20.3044V22.8424C5.07605 18.6369 8.48465 15.2283 12.6902 15.2283H68.5272C72.7328 15.2283 76.1414 18.6369 76.1414 22.8424V20.3044C76.1414 16.0988 72.7328 12.6902 68.5272 12.6902Z" fill="white"/>
</svg>
