<svg width="82" height="82" viewBox="0 0 82 82" fill="none" xmlns="http://www.w3.org/2000/svg">
<path d="M5.87816 68.3929L75.3394 12.8249C73.5349 11.1803 71.1593 10.1523 68.5273 10.1523H12.6903C7.08373 10.1523 2.53809 14.698 2.53809 20.3045V60.9133C2.53809 63.8879 3.8401 66.5376 5.87816 68.3929Z" fill="#439643"/>
<path d="M75.3395 12.8247L5.87817 68.3927C7.68273 70.0374 10.0583 71.0653 12.6903 71.0653H68.5273C74.1339 71.0653 78.6795 66.5196 78.6795 60.9131V20.3043C78.6795 17.3297 77.3775 14.68 75.3395 12.8247Z" fill="#B92932"/>
<path d="M68.5273 10.1523H64.4588L2.53809 59.6899V60.9133C2.53809 66.5198 7.08373 71.0655 12.6903 71.0655H16.7588L78.6795 21.5279V20.3045C78.6795 14.698 74.1339 10.1523 68.5273 10.1523Z" fill="#F2D84B"/>
<path d="M68.5271 10.1523H68.522L2.72571 62.7889C3.60641 67.497 7.72566 71.0655 12.6901 71.0655H12.6952L78.4915 18.4289C77.6108 13.7208 73.4915 10.1523 68.5271 10.1523Z" fill="black"/>
<path d="M31.629 49.1343L32.7585 45.0632L29.4514 47.6927L25.9286 45.3602L27.4083 49.3195L24.1012 51.949L28.322 51.7662L29.8016 55.723L30.9311 51.652L35.1544 51.4667L31.629 49.1343Z" fill="white"/>
<path d="M53.4767 33.7205L57.6975 33.5378L54.1747 31.2053L55.3041 27.1343L51.9971 29.7637L48.4742 27.4312L49.9539 31.388L46.6469 34.02L50.8676 33.8347L52.3473 37.7941L53.4767 33.7205Z" fill="white"/>
<path opacity="0.15" d="M68.5273 10.1523H12.6903C7.08373 10.1523 2.53809 14.698 2.53809 20.3045V60.9133C2.53809 66.5198 7.08373 71.0655 12.6903 71.0655H68.5273C74.1339 71.0655 78.6795 66.5198 78.6795 60.9133V20.3045C78.6795 14.698 74.1339 10.1523 68.5273 10.1523ZM76.1415 60.9133C76.1415 65.1112 72.7253 68.5274 68.5273 68.5274H12.6903C8.49234 68.5274 5.07613 65.1112 5.07613 60.9133V20.3045C5.07613 16.1066 8.49234 12.6904 12.6903 12.6904H68.5273C72.7253 12.6904 76.1415 16.1066 76.1415 20.3045V60.9133Z" fill="black"/>
<path opacity="0.2" d="M68.5272 12.6904H12.6902C8.48465 12.6904 5.07605 16.099 5.07605 20.3046V22.8426C5.07605 18.6371 8.48465 15.2285 12.6902 15.2285H68.5272C72.7328 15.2285 76.1414 18.6371 76.1414 22.8426V20.3046C76.1414 16.099 72.7328 12.6904 68.5272 12.6904Z" fill="white"/>
</svg>
