<svg width="82" height="82" viewBox="0 0 82 82" fill="none" xmlns="http://www.w3.org/2000/svg">
<path d="M2.53809 20.3044H78.6795V60.9132H2.53809V20.3044Z" fill="#DA3530"/>
<path d="M12.6903 10.1522H68.5273C74.1313 10.1522 78.6795 14.7004 78.6795 20.3044V22.8425H2.53809V20.3044C2.53809 14.7004 7.08627 10.1522 12.6903 10.1522Z" fill="#1F4D9E"/>
<path d="M68.5271 71.0654L12.6901 71.0654C7.08608 71.0654 2.5379 66.5172 2.5379 60.9132V58.3752L78.6793 58.3752V60.9132C78.6793 66.5172 74.1311 71.0654 68.5271 71.0654Z" fill="#1F4D9E"/>
<path d="M2.53809 22.8425H78.6795V25.3806H2.53809V22.8425Z" fill="white"/>
<path d="M2.53809 55.837H78.6795V58.3751H2.53809V55.837Z" fill="white"/>
<path opacity="0.15" d="M68.5273 10.1522H12.6903C7.08373 10.1522 2.53809 14.6979 2.53809 20.3044V60.9132C2.53809 66.5197 7.08373 71.0654 12.6903 71.0654H68.5273C74.1339 71.0654 78.6795 66.5197 78.6795 60.9132V20.3044C78.6795 14.6979 74.1339 10.1522 68.5273 10.1522ZM76.1415 60.9132C76.1415 65.1111 72.7253 68.5273 68.5273 68.5273H12.6903C8.49234 68.5273 5.07613 65.1111 5.07613 60.9132V20.3044C5.07613 16.1065 8.49234 12.6903 12.6903 12.6903H68.5273C72.7253 12.6903 76.1415 16.1065 76.1415 20.3044V60.9132Z" fill="black"/>
<path opacity="0.2" d="M68.5272 12.6903H12.6902C8.48465 12.6903 5.07605 16.0989 5.07605 20.3044V22.8425C5.07605 18.637 8.48465 15.2284 12.6902 15.2284H68.5272C72.7328 15.2284 76.1414 18.637 76.1414 22.8425V20.3044C76.1414 16.0989 72.7328 12.6903 68.5272 12.6903Z" fill="white"/>
<path d="M26.1722 30.4564C21.0022 30.4564 16.8145 34.6467 16.8145 39.8167C16.8145 44.9867 21.0048 49.1771 26.1722 49.1771C31.3397 49.1771 35.5326 44.9867 35.5326 39.8167C35.5326 34.6467 31.3422 30.4564 26.1722 30.4564ZM31.5021 47.1517L26.1722 43.2786L20.8423 47.1517L22.8778 40.8878L17.5479 37.0147H24.1342L26.1697 30.7508L28.2052 37.0147H34.7914L29.4615 40.8878L31.4971 47.1517H31.5021Z" fill="white"/>
</svg>
