<svg width="82" height="82" viewBox="0 0 82 82" fill="none" xmlns="http://www.w3.org/2000/svg">
<path d="M68.5273 10.1523H12.6903C7.08338 10.1523 2.53809 14.6976 2.53809 20.3045V60.9133C2.53809 66.5202 7.08338 71.0655 12.6903 71.0655H68.5273C74.1342 71.0655 78.6795 66.5202 78.6795 60.9133V20.3045C78.6795 14.6976 74.1342 10.1523 68.5273 10.1523Z" fill="white"/>
<path opacity="0.15" d="M68.5273 10.1523H12.6903C7.08373 10.1523 2.53809 14.698 2.53809 20.3045V60.9133C2.53809 66.5198 7.08373 71.0655 12.6903 71.0655H68.5273C74.1339 71.0655 78.6795 66.5198 78.6795 60.9133V20.3045C78.6795 14.698 74.1339 10.1523 68.5273 10.1523ZM76.1415 60.9133C76.1415 65.1112 72.7253 68.5274 68.5273 68.5274H12.6903C8.49234 68.5274 5.07613 65.1112 5.07613 60.9133V20.3045C5.07613 16.1066 8.49234 12.6904 12.6903 12.6904H68.5273C72.7253 12.6904 76.1415 16.1066 76.1415 20.3045V60.9133Z" fill="black"/>
<path d="M16.6787 31.5676L23.0605 21.9949L24.6549 23.0578L18.2731 32.6306L16.6787 31.5676Z" fill="black"/>
<path d="M19.0729 33.165L25.4547 23.5923L27.0491 24.6552L20.6673 34.228L19.0729 33.165Z" fill="black"/>
<path d="M21.4608 34.759L27.8426 25.1863L29.437 26.2492L23.0552 35.822L21.4608 34.759Z" fill="black"/>
<path d="M60.0195 52.9727L62.9436 48.5865L64.538 49.6494L61.6139 54.0356L60.0195 52.9727Z" fill="black"/>
<path d="M56.5607 58.1592L59.4862 53.7709L61.0806 54.8338L58.1551 59.2221L56.5607 58.1592Z" fill="black"/>
<path d="M57.624 51.3772L60.5481 46.991L62.1425 48.054L59.2184 52.4401L57.624 51.3772Z" fill="black"/>
<path d="M54.1676 56.5635L57.0917 52.1773L58.6861 53.2402L55.762 57.6264L54.1676 56.5635Z" fill="black"/>
<path d="M55.2335 49.7834L58.1576 45.3973L59.752 46.4602L56.8279 50.8464L55.2335 49.7834Z" fill="black"/>
<path d="M51.7775 54.9653L54.7016 50.5792L56.296 51.6421L53.3719 56.0283L51.7775 54.9653Z" fill="black"/>
<path d="M31.0377 34.2281C34.5631 28.9413 41.7051 27.5124 46.9919 31.0377C52.2786 34.5631 53.7076 41.7051 50.1822 46.9919L31.0377 34.2281Z" fill="#BE3B3E"/>
<path d="M31.0377 34.2283C27.5124 39.515 28.9413 46.6571 34.2281 50.1824C39.5148 53.7078 46.6569 52.2789 50.1822 46.9921C51.9436 44.35 51.2304 40.7764 48.5858 39.015C45.9411 37.2536 42.3701 37.9668 40.6087 40.6115L31.0377 34.2308V34.2283Z" fill="#1C449C"/>
<path d="M35.822 43.1697C38.9983 43.1697 41.5732 40.5948 41.5732 37.4185C41.5732 34.2421 38.9983 31.6672 35.822 31.6672C32.6457 31.6672 30.0708 34.2421 30.0708 37.4185C30.0708 40.5948 32.6457 43.1697 35.822 43.1697Z" fill="#BE3B3E"/>
<path d="M16.6787 49.6499L18.2731 48.587L24.6549 58.1597L23.0605 59.2226L16.6787 49.6499Z" fill="black"/>
<path d="M21.4673 46.4607L23.0617 45.3978L29.4435 54.9705L27.8491 56.0334L21.4673 46.4607Z" fill="black"/>
<path d="M54.1708 24.6553L55.7652 23.5923L62.147 33.1651L60.5526 34.228L54.1708 24.6553Z" fill="black"/>
<path d="M19.0713 48.0532L20.6657 46.9903L23.5898 51.3765L21.9954 52.4394L19.0713 48.0532Z" fill="black"/>
<path d="M22.5267 53.239L24.1211 52.1761L27.0453 56.5622L25.4509 57.6251L22.5267 53.239Z" fill="black"/>
<path d="M51.7761 26.25L53.3705 25.1871L56.2946 29.5733L54.7002 30.6362L51.7761 26.25Z" fill="black"/>
<path d="M55.2343 31.4351L56.8287 30.3721L59.7528 34.7583L58.1584 35.8212L55.2343 31.4351Z" fill="black"/>
<path d="M56.5607 23.0613L58.1551 21.9984L61.0792 26.3845L59.4848 27.4475L56.5607 23.0613Z" fill="black"/>
<path d="M60.0193 28.2476L61.6137 27.1846L64.5379 31.5707L62.9435 32.6337L60.0193 28.2476Z" fill="black"/>
<path opacity="0.2" d="M68.5272 12.6904H12.6902C8.48465 12.6904 5.07605 16.099 5.07605 20.3046V22.8426C5.07605 18.6371 8.48465 15.2285 12.6902 15.2285H68.5272C72.7328 15.2285 76.1414 18.6371 76.1414 22.8426V20.3046C76.1414 16.099 72.7328 12.6904 68.5272 12.6904Z" fill="white"/>
</svg>
