<svg width="82" height="82" viewBox="0 0 82 82" fill="none" xmlns="http://www.w3.org/2000/svg">
<path d="M2.53796 27.9186H78.6794V53.2991H2.53796V27.9186Z" fill="white"/>
<path d="M12.6902 10.1522H68.5272C74.1312 10.1522 78.6794 14.7004 78.6794 20.3044V30.4566H2.53796V20.3044C2.53796 14.7004 7.08614 10.1522 12.6902 10.1522Z" fill="#357942"/>
<path d="M68.5273 71.0653L12.6902 71.0653C7.0862 71.0653 2.53802 66.5171 2.53802 60.9131V50.7609L78.6794 50.7609V60.9131C78.6794 66.5171 74.1313 71.0653 68.5273 71.0653Z" fill="#BE2A2C"/>
<path d="M27.9184 30.4565L5.87803 12.8247C3.83998 14.6826 2.53796 17.3323 2.53796 20.3043V60.9131C2.53796 63.8877 3.83998 66.5374 5.87803 68.3927L27.9184 50.7609V30.4565Z" fill="black"/>
<path opacity="0.15" d="M68.5272 10.1522H12.6902C7.08361 10.1522 2.53796 14.6979 2.53796 20.3044V60.9132C2.53796 66.5197 7.08361 71.0654 12.6902 71.0654H68.5272C74.1337 71.0654 78.6794 66.5197 78.6794 60.9132V20.3044C78.6794 14.6979 74.1337 10.1522 68.5272 10.1522ZM76.1413 60.9132C76.1413 65.1111 72.7251 68.5273 68.5272 68.5273H12.6902C8.49222 68.5273 5.07601 65.1111 5.07601 60.9132V20.3044C5.07601 16.1065 8.49222 12.6903 12.6902 12.6903H68.5272C72.7251 12.6903 76.1413 16.1065 76.1413 20.3044V60.9132Z" fill="black"/>
<path opacity="0.2" d="M68.5272 12.6902H12.6902C8.48465 12.6902 5.07605 16.0988 5.07605 20.3043V22.8424C5.07605 18.6368 8.48465 15.2282 12.6902 15.2282H68.5272C72.7328 15.2282 76.1414 18.6368 76.1414 22.8424V20.3043C76.1414 16.0988 72.7328 12.6902 68.5272 12.6902Z" fill="white"/>
</svg>
