<svg width="82" height="82" viewBox="0 0 82 82" fill="none" xmlns="http://www.w3.org/2000/svg">
<path d="M68.5273 10.1522H12.6903C7.08338 10.1522 2.53809 14.6975 2.53809 20.3044V60.9132C2.53809 66.5201 7.08338 71.0654 12.6903 71.0654H68.5273C74.1342 71.0654 78.6795 66.5201 78.6795 60.9132V20.3044C78.6795 14.6975 74.1342 10.1522 68.5273 10.1522Z" fill="#4DAAC1"/>
<path opacity="0.15" d="M68.5273 10.1522H12.6903C7.08373 10.1522 2.53809 14.6979 2.53809 20.3044V60.9132C2.53809 66.5197 7.08373 71.0654 12.6903 71.0654H68.5273C74.1339 71.0654 78.6795 66.5197 78.6795 60.9132V20.3044C78.6795 14.6979 74.1339 10.1522 68.5273 10.1522ZM76.1415 60.9132C76.1415 65.1111 72.7253 68.5273 68.5273 68.5273H12.6903C8.49234 68.5273 5.07613 65.1111 5.07613 60.9132V20.3044C5.07613 16.1065 8.49234 12.6903 12.6903 12.6903H68.5273C72.7253 12.6903 76.1415 16.1065 76.1415 20.3044V60.9132Z" fill="black"/>
<path d="M40.629 44.2964C45.5561 44.2964 49.5502 40.3023 49.5502 35.3752C49.5502 30.4482 45.5561 26.454 40.629 26.454C35.7019 26.454 31.7078 30.4482 31.7078 35.3752C31.7078 40.3023 35.7019 44.2964 40.629 44.2964Z" fill="#FBEC5A"/>
<path d="M40.6291 25.2358C41.1596 25.2282 41.3575 24.8983 41.3575 24.4998C41.3575 23.9693 40.6291 21.444 40.6291 21.444C40.6291 21.444 39.9007 23.9693 39.9007 24.4998C39.9007 24.8983 40.0987 25.2358 40.6291 25.2358Z" fill="#FBEC5A"/>
<path d="M50.7686 35.3754C50.7762 35.9058 51.1061 36.1038 51.5046 36.1038C52.035 36.1038 54.5604 35.3754 54.5604 35.3754C54.5604 35.3754 52.035 34.647 51.5046 34.647C51.1061 34.647 50.7686 34.8449 50.7686 35.3754Z" fill="#FBEC5A"/>
<path d="M40.6291 45.5148C40.0987 45.5224 39.9007 45.8523 39.9007 46.2508C39.9007 46.7813 40.6291 49.3066 40.6291 49.3066C40.6291 49.3066 41.3575 46.7813 41.3575 46.2508C41.3575 45.8523 41.1596 45.5148 40.6291 45.5148Z" fill="#FBEC5A"/>
<path d="M30.4921 35.3754C30.4845 34.8449 30.1545 34.647 29.7561 34.647C29.2256 34.647 26.7003 35.3754 26.7003 35.3754C26.7003 35.3754 29.2256 36.1038 29.7561 36.1038C30.1545 36.1038 30.4921 35.9058 30.4921 35.3754Z" fill="#FBEC5A"/>
<path d="M44.5097 26.0075C45.0021 26.2055 45.3142 25.9745 45.4665 25.6065C45.6696 25.1166 45.9614 22.5024 45.9614 22.5024C45.9614 22.5024 44.3219 24.5583 44.1188 25.0481C43.9665 25.4161 44.0173 25.8044 44.5097 26.0075Z" fill="#FBEC5A"/>
<path d="M49.9971 39.2559C49.7991 39.7483 50.0301 40.0605 50.3981 40.2128C50.8879 40.4158 53.5021 40.7077 53.5021 40.7077C53.5021 40.7077 51.4463 39.0681 50.9564 38.8651C50.5884 38.7128 50.2001 38.7661 49.9971 39.2585V39.2559Z" fill="#FBEC5A"/>
<path d="M36.7509 44.7433C36.2585 44.5453 35.9463 44.7763 35.7941 45.1443C35.591 45.6341 35.2991 48.2483 35.2991 48.2483C35.2991 48.2483 36.9387 46.1925 37.1418 45.7027C37.294 45.3346 37.2433 44.9463 36.7509 44.7433Z" fill="#FBEC5A"/>
<path d="M31.2637 31.4946C31.4617 31.0022 31.2307 30.69 30.8627 30.5378C30.3729 30.3347 27.7587 30.0428 27.7587 30.0428C27.7587 30.0428 29.8145 31.6824 30.3043 31.8855C30.6723 32.0378 31.0607 31.9845 31.2637 31.4921V31.4946Z" fill="#FBEC5A"/>
<path d="M47.7991 28.2054C48.1798 28.576 48.5529 28.4821 48.8346 28.2003C49.2102 27.8247 50.4792 25.5227 50.4792 25.5227C50.4792 25.5227 48.1772 26.7943 47.8016 27.1674C47.5199 27.4491 47.4209 27.8273 47.7965 28.2029L47.7991 28.2054Z" fill="#FBEC5A"/>
<path d="M47.799 42.5453C47.4284 42.926 47.5224 43.2991 47.8041 43.5808C48.1797 43.9564 50.4817 45.2255 50.4817 45.2255C50.4817 45.2255 49.2102 42.9234 48.8371 42.5478C48.5553 42.2661 48.1772 42.1671 47.8015 42.5427L47.799 42.5453Z" fill="#FBEC5A"/>
<path d="M33.4615 42.5452C33.0808 42.1747 32.7077 42.2686 32.426 42.5503C32.0504 42.9259 30.7814 45.2279 30.7814 45.2279C30.7814 45.2279 33.0834 43.9564 33.459 43.5833C33.7407 43.3016 33.8397 42.9234 33.4641 42.5478L33.4615 42.5452Z" fill="#FBEC5A"/>
<path d="M33.4616 28.2053C33.8322 27.8246 33.7383 27.4515 33.4566 27.1698C33.0809 26.7942 30.7789 25.5251 30.7789 25.5251C30.7789 25.5251 32.0505 27.8272 32.4236 28.2028C32.7053 28.4845 33.0835 28.5835 33.4591 28.2079L33.4616 28.2053Z" fill="#FBEC5A"/>
<path d="M49.997 31.4946C50.2051 31.9819 50.5884 32.0403 50.9564 31.888C51.4462 31.685 53.5021 30.0454 53.5021 30.0454C53.5021 30.0454 50.8879 30.3373 50.398 30.5403C50.03 30.6926 49.794 31.0023 49.997 31.4946Z" fill="#FBEC5A"/>
<path d="M44.5096 44.7432C44.0223 44.9513 43.9639 45.3346 44.1162 45.7026C44.3192 46.1925 45.9588 48.2483 45.9588 48.2483C45.9588 48.2483 45.6669 45.6341 45.4639 45.1442C45.3116 44.7762 44.9994 44.5402 44.5071 44.7432H44.5096Z" fill="#FBEC5A"/>
<path d="M31.2637 39.2561C31.0556 38.7688 30.6723 38.7104 30.3043 38.8627C29.8145 39.0658 27.7587 40.7053 27.7587 40.7053C27.7587 40.7053 30.3729 40.4135 30.8627 40.2104C31.2307 40.0581 31.4668 39.746 31.2637 39.2536V39.2561Z" fill="#FBEC5A"/>
<path d="M36.7509 26.0075C37.2382 25.7994 37.2966 25.4161 37.1443 25.0481C36.9413 24.5583 35.3017 22.5024 35.3017 22.5024C35.3017 22.5024 35.5936 25.1166 35.7966 25.6065C35.9489 25.9745 36.2611 26.2105 36.7535 26.0075H36.7509Z" fill="#FBEC5A"/>
<path d="M42.6087 25.4313C43.1316 25.5277 43.3904 25.2409 43.4666 24.8526C43.5706 24.3323 43.3473 21.713 43.3473 21.713C43.3473 21.713 42.1392 24.048 42.0351 24.5683C41.9564 24.9592 42.0859 25.3297 42.6062 25.4338L42.6087 25.4313Z" fill="#FBEC5A"/>
<path d="M50.5758 37.3525C50.4793 37.8753 50.7661 38.1342 51.1544 38.2104C51.6747 38.3144 54.294 38.0911 54.294 38.0911C54.294 38.0911 51.959 36.883 51.4387 36.7789C51.0478 36.7002 50.6773 36.8297 50.5732 37.35L50.5758 37.3525Z" fill="#FBEC5A"/>
<path d="M38.6519 45.3193C38.1291 45.2229 37.8702 45.5097 37.7941 45.898C37.69 46.4183 37.9133 49.0376 37.9133 49.0376C37.9133 49.0376 39.1215 46.7026 39.2255 46.1823C39.3042 45.7914 39.1747 45.4209 38.6545 45.3168L38.6519 45.3193Z" fill="#FBEC5A"/>
<path d="M30.685 33.3982C30.7815 32.8754 30.4947 32.6165 30.1064 32.5403C29.5861 32.4363 26.9668 32.6596 26.9668 32.6596C26.9668 32.6596 29.3018 33.8677 29.8221 33.9718C30.213 34.0505 30.5835 33.921 30.6876 33.4007L30.685 33.3982Z" fill="#FBEC5A"/>
<path d="M46.2635 26.944C46.7077 27.2333 47.0579 27.0684 47.2787 26.7384C47.5731 26.2968 48.3701 23.7917 48.3701 23.7917C48.3701 23.7917 46.3599 25.4872 46.0655 25.9288C45.8447 26.2587 45.8219 26.6496 46.2635 26.944Z" fill="#FBEC5A"/>
<path d="M49.0605 41.0072C48.7712 41.4514 48.9362 41.8016 49.2661 42.0224C49.7077 42.3168 52.2128 43.1138 52.2128 43.1138C52.2128 43.1138 50.5174 41.1037 50.0758 40.8092C49.7458 40.5884 49.355 40.5656 49.0605 41.0072Z" fill="#FBEC5A"/>
<path d="M34.997 43.8041C34.5529 43.5148 34.2026 43.6798 33.9818 44.0097C33.6874 44.4513 32.8904 46.9564 32.8904 46.9564C32.8904 46.9564 34.9006 45.261 35.195 44.8194C35.4158 44.4894 35.4386 44.096 34.997 43.8016V43.8041Z" fill="#FBEC5A"/>
<path d="M32.2002 29.7409C32.4895 29.2967 32.3245 28.9464 31.9946 28.7256C31.553 28.4312 29.0479 27.6343 29.0479 27.6343C29.0479 27.6343 30.7433 29.6444 31.1849 29.9388C31.5149 30.1596 31.9058 30.1825 32.2002 29.7409Z" fill="#FBEC5A"/>
<path d="M49.0604 29.7409C49.3599 30.1774 49.7457 30.1596 50.0782 29.9388C50.5198 29.6444 52.2152 27.6343 52.2152 27.6343C52.2152 27.6343 49.7101 28.4312 49.2685 28.7256C48.9386 28.9464 48.7634 29.2992 49.0604 29.7409Z" fill="#FBEC5A"/>
<path d="M46.2635 43.8041C45.827 44.1036 45.8448 44.4894 46.0656 44.8219C46.36 45.2635 48.3701 46.9589 48.3701 46.9589C48.3701 46.9589 47.5732 44.4538 47.2788 44.0122C47.0579 43.6823 46.7052 43.5072 46.2635 43.8041Z" fill="#FBEC5A"/>
<path d="M32.2001 41.0073C31.9007 40.5708 31.5149 40.5885 31.1824 40.8093C30.7408 41.1038 29.0453 43.1139 29.0453 43.1139C29.0453 43.1139 31.5504 42.3169 31.992 42.0225C32.322 41.8017 32.4946 41.4489 32.1976 41.0073H32.2001Z" fill="#FBEC5A"/>
<path d="M34.997 26.944C35.4336 26.6445 35.4158 26.2587 35.195 25.9262C34.9006 25.4846 32.8904 23.7892 32.8904 23.7892C32.8904 23.7892 33.6874 26.2942 33.9818 26.7359C34.2026 27.0658 34.5554 27.2384 34.997 26.9414V26.944Z" fill="#FBEC5A"/>
<path d="M50.5757 33.3982C50.6848 33.9159 51.0503 34.0479 51.4411 33.9692C51.9614 33.8652 54.2964 32.6571 54.2964 32.6571C54.2964 32.6571 51.6772 32.4337 51.1569 32.5378C50.766 32.6164 50.4741 32.8753 50.5782 33.3956L50.5757 33.3982Z" fill="#FBEC5A"/>
<path d="M42.6087 45.3194C42.091 45.4285 41.959 45.794 42.0377 46.1848C42.1417 46.7051 43.3498 49.0401 43.3498 49.0401C43.3498 49.0401 43.5732 46.4209 43.4691 45.9006C43.3905 45.5097 43.1316 45.2178 42.6113 45.3219L42.6087 45.3194Z" fill="#FBEC5A"/>
<path d="M30.6851 37.3525C30.5759 36.8347 30.2105 36.7027 29.8196 36.7814C29.2993 36.8855 26.9643 38.0936 26.9643 38.0936C26.9643 38.0936 29.5836 38.3169 30.1039 38.2128C30.4947 38.1342 30.7866 37.8753 30.6825 37.355L30.6851 37.3525Z" fill="#FBEC5A"/>
<path d="M38.6519 25.4312C39.1696 25.3221 39.3016 24.9566 39.2229 24.5658C39.1189 24.0455 37.9108 21.7104 37.9108 21.7104C37.9108 21.7104 37.6874 24.3297 37.7915 24.85C37.8702 25.2409 38.129 25.5327 38.6493 25.4287L38.6519 25.4312Z" fill="#FBEC5A"/>
<path d="M39.0378 54.7024C38.3728 54.7354 37.751 55.012 37.0885 55.0603C37.2561 55.512 36.6901 55.913 36.3373 55.5729C36.0886 55.6516 35.8322 55.5983 35.619 55.4537C34.7916 55.7735 34.5073 57.1592 35.5505 56.3597C35.8221 56.1871 35.4363 56.7531 35.6266 56.6288C37.718 55.9232 40.223 56.4943 42.3423 56.2557C40.9997 56.007 39.5225 56.1668 38.2383 55.9181C38.3931 55.7049 38.5784 55.5146 38.7484 55.3166C38.6114 55.2938 38.4794 55.2658 38.3423 55.2328C38.5835 55.0679 38.8068 54.8801 39.0403 54.7024H39.0378Z" fill="#FBEC5A"/>
<path d="M49.365 56.9944C48.8853 57.2837 48.5173 56.7711 48.1163 56.6188C47.8168 57.0325 47.1188 58.4487 46.8498 57.0807C46.4666 57.403 46.2737 58.1365 45.6518 58.0375C44.9945 56.8497 44.728 58.8802 43.992 58.1238C43.9133 57.7507 43.728 57.3117 43.525 57.9056C43.3854 58.3243 42.9387 58.634 42.5047 58.4487C42.2686 58.2558 42.695 57.5376 42.393 57.5883C41.9412 57.8853 41.6798 58.6264 41.0504 58.568C40.8067 58.2939 41.1976 57.8294 40.9311 57.5249C40.6138 57.931 40.2636 58.5249 39.7153 58.568C39.4514 58.3548 39.7255 57.7381 39.558 57.6492C38.9971 57.9868 38.4032 58.5858 37.6976 58.3979C38.9819 55.6492 42.8346 57.5249 45.1036 56.464C45.3625 56.3066 45.9894 56.0832 45.7661 55.7178C45.5681 55.4284 46.2813 55.5426 46.3498 55.2051C47.5021 54.0706 50.2178 55.3142 51.8624 55.1289C51.9843 55.9132 51.1137 56.4665 50.4107 56.2228C50.0757 56.2761 49.5731 55.4538 49.6721 56.0528C49.6036 56.3675 49.6518 56.7837 49.365 56.9944ZM35.6113 55.3853C37.9032 55.431 39.7153 52.8447 41.7661 52.0325C43.3676 51.5478 45.0706 51.6061 46.6798 51.1594C47.9031 49.4843 49.9843 48.8853 51.7254 47.9209C53.1035 46.563 54.2863 43.8448 56.7203 44.1976C56.6797 44.8803 56.2863 45.4869 55.8142 45.959C56.2025 45.9514 56.535 45.7052 56.9258 45.7204C57.0604 46.4209 56.3015 46.7889 55.9005 47.2255C57.7076 47.3981 55.1188 48.1848 54.6847 48.7483C55.9132 48.9894 53.8269 49.2457 53.865 49.7584C54.5147 50.3726 52.1289 50.2889 53.1721 50.8955C52.964 51.2102 52.5173 51.2762 52.1543 51.2457C52.5122 52.8066 49.6239 53.3802 48.4082 53.6416C49.7051 53.9564 55.6086 52.5681 52.8751 51.5325C53.6289 51.0681 54.5782 51.233 55.3878 50.9564C55.4081 50.695 54.771 50.766 54.535 50.7077C53.2812 50.4589 56.3421 50.294 56.6035 49.794C56.1314 49.5757 55.535 49.7686 55.0299 49.5884C55.6543 49.4158 59.0578 48.4082 56.9842 48.3549C56.5096 48.4387 56.2913 48.2102 56.8294 48.0148C58.6619 46.9031 62.073 44.2763 57.4944 45.9793C61.2558 43.1392 63.1212 39.4565 57.5121 44.4057C61.0121 41.3017 62.3903 35.8652 57.4614 42.525C60.1441 37.8804 59.2405 33.2154 56.8294 41.2763C57.1264 40.5834 57.4791 36.8499 56.3294 38.4413C54.9868 45.5224 48.3802 50.5808 41.3651 50.9919C39.9362 53.1721 37.2433 53.8371 35.6164 55.3878" fill="#FBEC5A"/>
<path d="M40.3194 50.9538C40.0885 51.3752 39.9514 51.8599 39.6519 52.2355C37.9718 50.7432 35.3068 52.0655 33.6241 50.5833C30.4363 48.2762 27.5861 46.1265 24.9414 43.1341C24.6749 43.2001 24.7968 43.7737 24.4693 43.4793C24.2917 43.3524 23.8501 43.3422 23.8095 43.5174C24.2105 44.0453 24.6115 44.6468 24.6673 45.3219C24.3932 45.3498 23.9084 45.2635 23.7739 45.3651C24.1369 45.9082 24.6013 46.3904 25.1292 46.7762C24.8754 46.8168 24.3754 46.794 24.279 46.898C24.8044 47.3244 25.3653 47.7635 26.0531 47.8726C26.1927 48.0579 25.8475 48.4158 26.1394 48.5732C26.3069 48.6417 26.8653 48.7584 26.482 48.9488C25.8424 49.6087 27.2561 49.5351 27.3805 49.8549C26.1749 50.4894 28.0353 50.8549 28.6368 50.9005C28.3703 51.1264 28.0404 51.2533 27.7637 51.464C29.4972 52.4259 31.4134 53.1061 33.3398 53.568C30.8525 53.4767 28.6546 52.2559 26.378 51.3955C26.7206 51.2178 27.1165 51.1746 27.4719 51.0198C26.7333 50.8726 25.9287 50.8244 25.279 50.4183C25.378 50.2406 25.7561 50.233 25.9643 50.1417C27.1673 49.8041 24.6267 49.8625 24.3577 49.4792C24.6369 49.1645 25.5201 49.365 25.8805 48.9995C23.8754 48.5985 21.581 47.9716 25.2815 47.9894C23.3501 47.4564 18.9922 44.2077 23.6369 46.0199C20.5024 43.4971 17.6014 39.0935 23.5353 44.327C20.977 42.0453 18.1496 35.3068 23.7587 42.5301C21.0861 37.8753 21.944 33.1139 24.3907 41.2813C23.1952 31.1774 26.8247 52.1416 40.3169 50.9462" fill="#FBEC5A"/>
<path opacity="0.2" d="M68.5273 12.6902H12.6903C8.48471 12.6902 5.07611 16.0988 5.07611 20.3043V22.8424C5.07611 18.6368 8.48471 15.2282 12.6903 15.2282H68.5273C72.7328 15.2282 76.1414 18.6368 76.1414 22.8424V20.3043C76.1414 16.0988 72.7328 12.6902 68.5273 12.6902Z" fill="white"/>
</svg>
