<svg width="82" height="82" viewBox="0 0 82 82" fill="none" xmlns="http://www.w3.org/2000/svg">
<path d="M2.53833 25.3805H78.6797V55.8371H2.53833V25.3805Z" fill="#0B2364"/>
<path d="M12.6905 10.1522H68.5276C74.1316 10.1522 78.6797 14.7004 78.6797 20.3044V27.9186H2.53833V20.3044C2.53833 14.7004 7.08651 10.1522 12.6905 10.1522Z" fill="#BE2A2C"/>
<path d="M68.5275 71.0653L12.6905 71.0653C7.08645 71.0653 2.53827 66.5171 2.53827 60.9131V53.299L78.6797 53.299V60.9131C78.6797 66.5171 74.1315 71.0653 68.5275 71.0653Z" fill="#BE2A2C"/>
<path opacity="0.15" d="M68.5276 10.1522H12.6905C7.08397 10.1522 2.53833 14.6979 2.53833 20.3044V60.9132C2.53833 66.5197 7.08397 71.0654 12.6905 71.0654H68.5276C74.1341 71.0654 78.6797 66.5197 78.6797 60.9132V20.3044C78.6797 14.6979 74.1341 10.1522 68.5276 10.1522ZM76.1417 60.9132C76.1417 65.1111 72.7255 68.5273 68.5276 68.5273H12.6905C8.49259 68.5273 5.07638 65.1111 5.07638 60.9132V20.3044C5.07638 16.1065 8.49259 12.6903 12.6905 12.6903H68.5276C72.7255 12.6903 76.1417 16.1065 76.1417 20.3044V60.9132Z" fill="black"/>
<path d="M40.609 50.7609C46.2159 50.7609 50.7612 46.2156 50.7612 40.6087C50.7612 35.0018 46.2159 30.4565 40.609 30.4565C35.0021 30.4565 30.4568 35.0018 30.4568 40.6087C30.4568 46.2156 35.0021 50.7609 40.609 50.7609Z" fill="white"/>
<path opacity="0.2" d="M68.5276 12.6902H12.6906C8.48501 12.6902 5.07642 16.0988 5.07642 20.3043V22.8424C5.07642 18.6368 8.48501 15.2282 12.6906 15.2282H68.5276C72.7331 15.2282 76.1417 18.6368 76.1417 22.8424V20.3043C76.1417 16.0988 72.7331 12.6902 68.5276 12.6902Z" fill="white"/>
</svg>
