<svg width="82" height="82" viewBox="0 0 82 82" fill="none" xmlns="http://www.w3.org/2000/svg">
<path d="M2.53809 25.3805H78.6795V55.8371H2.53809V25.3805Z" fill="white"/>
<path d="M12.6903 10.1522H68.5273C74.1313 10.1522 78.6795 14.7004 78.6795 20.3044V27.9186H2.53809V20.3044C2.53809 14.7004 7.08627 10.1522 12.6903 10.1522Z" fill="#DA352E"/>
<path d="M68.5273 71.0653L12.6903 71.0653C7.08627 71.0653 2.53809 66.5171 2.53809 60.9131V53.299L78.6795 53.299V60.9131C78.6795 66.5171 74.1313 71.0653 68.5273 71.0653Z" fill="#DA352E"/>
<path opacity="0.15" d="M68.5273 10.1522H12.6903C7.08373 10.1522 2.53809 14.6979 2.53809 20.3044V60.9132C2.53809 66.5197 7.08373 71.0654 12.6903 71.0654H68.5273C74.1339 71.0654 78.6795 66.5197 78.6795 60.9132V20.3044C78.6795 14.6979 74.1339 10.1522 68.5273 10.1522ZM76.1415 60.9132C76.1415 65.1111 72.7253 68.5273 68.5273 68.5273H12.6903C8.49234 68.5273 5.07613 65.1111 5.07613 60.9132V20.3044C5.07613 16.1065 8.49234 12.6903 12.6903 12.6903H68.5273C72.7253 12.6903 76.1415 16.1065 76.1415 20.3044V60.9132Z" fill="black"/>
<path d="M40.0021 29.1724C39.6646 30.4921 37.6062 31.1064 37.4438 32.1876C39.1747 32.1571 36.2661 33.3855 35.9133 33.8195C37.9869 34.9946 35.5682 34.454 35.1849 35.6825C34.8702 36.4261 31.2611 37.3677 33.0073 37.9921C33.7865 37.6367 35.0276 37.4997 34.6722 38.7586C34.3068 40.1367 29.6342 41.1316 31.2662 42.4286C31.8626 42.3905 32.2738 41.9032 32.7814 41.6545C33.9032 41.3981 33.7662 43.0199 32.8068 43.1316C28.152 45.9285 28.5226 47.3702 33.586 44.6138C36.9286 45.8448 29.3246 46.4692 30.4286 47.6493C32.7535 48.5554 35.4235 44.86 37.2509 46.7686C38.9793 49.1366 31.7256 52.1493 33.7103 51.8219C34.4971 50.9513 35.9768 51.5402 36.8118 50.6595C37.5961 49.7407 39.4945 49.5047 40.2864 50.2661C40.5301 50.6747 41.596 51.794 41.9285 51.3955C42.1443 49.2559 44.662 52.3549 45.3295 52.0275C45.4894 51.228 44.1519 50.997 43.7711 50.3777C42.5605 49.6113 41.761 45.4438 43.8904 45.8397C45.3397 46.8803 47.0934 46.1519 48.6924 46.5707C49.4411 46.7407 52.2305 49.2179 51.5756 47.2255C50.8371 45.8879 47.096 45.5148 47.7686 43.926C48.3777 43.1976 51.6721 45.5301 50.299 43.6671C49.0579 42.954 48.2635 41.2408 46.6163 41.4819C46.3092 40.4032 48.3549 41.0301 48.9944 40.7992C50.2432 40.9286 49.3523 39.9083 48.5706 39.9743C45.931 39.5301 46.0072 38.4718 48.6823 39.1545C49.5071 38.251 41.959 35.3195 44.4107 34.7738C46.9868 35.7459 46.7381 35.119 44.7001 33.8754C44.3321 33.5606 45.0122 33.4236 45.2457 33.5429C45.8574 31.6647 40.0961 31.9439 39.9996 29.18L40.0021 29.1724Z" fill="#4AA25A"/>
<path opacity="0.2" d="M68.5273 12.6903H12.6903C8.48471 12.6903 5.07611 16.0989 5.07611 20.3044V22.8425C5.07611 18.637 8.48471 15.2284 12.6903 15.2284H68.5273C72.7328 15.2284 76.1414 18.637 76.1414 22.8425V20.3044C76.1414 16.0989 72.7328 12.6903 68.5273 12.6903Z" fill="white"/>
</svg>
