<svg width="82" height="82" viewBox="0 0 82 82" fill="none" xmlns="http://www.w3.org/2000/svg">
<path d="M78.6796 20.3044C78.6796 14.6979 74.134 10.1522 68.5274 10.1522H12.6904C7.08385 10.1522 2.53821 14.6979 2.53821 20.3044V43.1468H78.6796V20.3044Z" fill="#0C267B"/>
<path d="M12.6904 71.0653H68.5274C74.134 71.0653 78.6796 66.5197 78.6796 60.9131V40.6088H2.53821V60.9131C2.53821 66.5197 7.08385 71.0653 12.6904 71.0653Z" fill="#BE2A2C"/>
<path opacity="0.15" d="M12.6904 71.0654H68.5274C74.134 71.0654 78.6796 66.5197 78.6796 60.9132V20.3044C78.6796 14.6979 74.134 10.1522 68.5274 10.1522H12.6904C7.08385 10.1522 2.53821 14.6979 2.53821 20.3044V60.9132C2.53821 66.5197 7.08385 71.0654 12.6904 71.0654ZM5.07626 20.3044C5.07626 16.1065 8.49247 12.6903 12.6904 12.6903H68.5274C72.7254 12.6903 76.1416 16.1065 76.1416 20.3044V60.9132C76.1416 65.1111 72.7254 68.5273 68.5274 68.5273H12.6904C8.49247 68.5273 5.07626 65.1111 5.07626 60.9132V20.3044Z" fill="black"/>
<path d="M32.1699 28.1876C31.9085 27.9794 31.6242 27.8297 31.3349 27.7383C31.779 27.6622 31.8907 27.0074 31.4948 26.7891C32.0049 26.7256 32.0785 25.9541 31.5938 25.7916C32.1115 25.6292 32.0049 24.8043 31.4567 24.7866C31.9161 24.482 31.5684 23.7079 31.0303 23.8627C31.3577 23.4211 30.7816 22.8196 30.3273 23.1292C30.4872 22.6039 29.7435 22.2358 29.4212 22.6724C29.4313 22.1267 28.6293 21.9744 28.4288 22.4693C28.2918 21.9693 27.5075 22.01 27.4263 22.5226C27.2461 22.0353 26.4618 22.147 26.4314 22.6698C26.2232 22.1648 25.4009 22.35 25.4415 22.9059C25.2334 22.4313 24.4593 22.5835 24.4568 23.1115C24.3654 22.9516 24.1903 22.8399 23.9923 22.8475C24.3908 22.378 24.1928 21.5683 23.637 21.3298C23.9009 21.1292 23.4695 20.6318 23.3959 20.4364C23.472 20.3983 23.5355 20.3374 23.5761 20.2638C24.0304 20.7485 24.5304 20.4237 24.8984 20.043C24.5481 19.6597 23.9999 19.345 23.5684 19.8272C23.5253 19.7562 23.4619 19.7003 23.3882 19.6648C23.3984 19.6115 23.7994 18.9821 23.7334 18.9364C23.6522 18.8958 23.2969 17.8349 23.1294 18.0937C22.774 18.642 22.5405 19.0963 23.0253 19.6648C22.9492 19.7003 22.8883 19.7562 22.8451 19.8272C22.4136 19.345 21.8629 19.6572 21.5152 20.043C21.8832 20.4262 22.3832 20.7485 22.8375 20.2638C22.8806 20.3374 22.9416 20.3983 23.0177 20.4364C22.9441 20.6343 22.5126 21.1292 22.7766 21.3298C22.2182 21.5683 22.0202 22.378 22.4213 22.8475C22.2233 22.8399 22.0482 22.9516 21.9568 23.1115C21.9568 22.5835 21.1827 22.4313 20.972 22.9059C21.0126 22.35 20.1903 22.1648 19.9822 22.6698C19.9492 22.1445 19.1675 22.0353 18.9873 22.5226C18.9061 22.01 18.1193 21.9693 17.9847 22.4693C17.7842 21.9744 16.9822 22.1292 16.9924 22.6724C16.67 22.2384 15.9264 22.6039 16.0863 23.1292C15.632 22.8196 15.0558 23.4211 15.3832 23.8627C14.8452 23.7079 14.4975 24.482 14.9569 24.7866C14.4086 24.8069 14.302 25.6292 14.8198 25.7916C14.335 25.9541 14.4086 26.7231 14.9188 26.7891C14.5254 27.0074 14.6345 27.6622 15.0787 27.7383C13.368 27.8119 16.1751 31.6393 16.604 32.7129C17 33.9971 29.4212 33.9971 29.8146 32.7129C30.6674 31.6139 31.345 29.1292 32.175 28.1876H32.1699Z" fill="#F9DB5C"/>
<path opacity="0.2" d="M68.5274 12.6903H12.6903C8.48477 12.6903 5.07617 16.0989 5.07617 20.3044V22.8425C5.07617 18.637 8.48477 15.2284 12.6903 15.2284H68.5274C72.7329 15.2284 76.1415 18.637 76.1415 22.8425V20.3044C76.1415 16.0989 72.7329 12.6903 68.5274 12.6903Z" fill="white"/>
</svg>
