<svg width="82" height="82" viewBox="0 0 82 82" fill="none" xmlns="http://www.w3.org/2000/svg">
<path d="M68.5273 10.1523H12.6903C7.08338 10.1523 2.53809 14.6976 2.53809 20.3045V60.9133C2.53809 66.5202 7.08338 71.0655 12.6903 71.0655H68.5273C74.1342 71.0655 78.6795 66.5202 78.6795 60.9133V20.3045C78.6795 14.6976 74.1342 10.1523 68.5273 10.1523Z" fill="#F6C24C"/>
<path opacity="0.15" d="M68.5273 10.1523H12.6903C7.08373 10.1523 2.53809 14.698 2.53809 20.3045V60.9133C2.53809 66.5198 7.08373 71.0655 12.6903 71.0655H68.5273C74.1339 71.0655 78.6795 66.5198 78.6795 60.9133V20.3045C78.6795 14.698 74.1339 10.1523 68.5273 10.1523ZM76.1415 60.9133C76.1415 65.1112 72.7253 68.5274 68.5273 68.5274H12.6903C8.49234 68.5274 5.07613 65.1112 5.07613 60.9133V20.3045C5.07613 16.1066 8.49234 12.6904 12.6903 12.6904H68.5273C72.7253 12.6904 76.1415 16.1066 76.1415 20.3045V60.9133Z" fill="black"/>
<path opacity="0.2" d="M68.5274 12.6904H12.6903C8.48477 12.6904 5.07617 16.099 5.07617 20.3046V22.8426C5.07617 18.6371 8.48477 15.2285 12.6903 15.2285H68.5274C72.7329 15.2285 76.1415 18.6371 76.1415 22.8426V20.3046C76.1415 16.099 72.7329 12.6904 68.5274 12.6904Z" fill="white"/>
<path d="M10.1522 17.7666H17.7664V63.4515H10.1522V17.7666Z" fill="#21514D"/>
<path d="M17.7664 17.7666H25.3805V63.4515H17.7664V17.7666Z" fill="#DD7B2E"/>
<path d="M30.4565 17.7666H71.0653V63.4515H30.4565V17.7666Z" fill="#821E39"/>
<path d="M66.0807 32.6038C65.7153 31.8195 64.431 32.2459 64.6188 33.0682C60.4082 28.6571 50.1443 27.6393 53.5885 35.8702C54.3702 36.9337 54.0808 35.5022 54.5707 35.3474C55.7763 36.5885 68.3142 34.4844 62.2001 38.1951C60.063 37.9717 52.7509 40.0326 52.1088 37.322C53.0935 37.926 52.4108 36.7332 52.3727 36.119C52.9565 36.3271 52.7458 32.2941 52.2331 32.2992C52.9387 31.7078 53.0758 30.9058 53.1824 30.0936C52.058 32.3119 50.3728 28.8703 49.6976 30.8779C49.0225 30.1089 47.7916 29.6419 47.8449 30.9591C47.256 30.4718 46.2484 30.3017 45.3347 30.5302C46.1139 32.0479 43.4084 31.7027 42.4921 32.0352C40.0987 28.6013 40.3652 34.69 43.2865 35.2814L43.2205 34.7636C43.5403 35.0784 44.0429 35.2789 44.0403 34.6824C44.1723 34.9261 44.5809 35.4108 44.85 35.7256C44.3373 36.0733 39.4008 33.3931 41.2307 35.6469C40.9287 35.8372 40.6952 37.0733 40.548 37.388C40.9211 37.3524 41.5987 37.3017 41.9337 37.2154C41.9312 37.2205 41.581 37.855 41.5784 37.8601C41.9566 37.7839 42.5327 37.6925 42.8703 37.5123C42.9972 37.8321 43.5784 38.3118 43.7129 37.6392C44.2535 39.1976 44.5708 37.5758 45.1469 37.9565C43.6723 39.4235 40.6622 41.393 41.5023 44.1189C41.0784 43.6544 39.7231 42.4006 39.1597 41.86L39.2967 41.7991L39.251 41.7763C40.1546 41.19 39.6394 39.9184 38.6114 40.0352C40.8525 22.4896 36.1495 26.8754 36.4693 40.0631C34.845 39.8753 35.0379 41.9818 36.5226 42.0808C36.4363 42.1367 36.378 42.3803 36.4719 42.5174C36.0556 42.5834 36.1572 43.2229 36.5302 43.4031C36.3196 43.6113 36.3907 43.9158 36.6368 44.058C36.4973 44.3245 36.6165 44.662 36.8805 44.7686C36.8348 44.8498 36.85 44.9691 36.8399 45.0656C35.8171 44.4387 35.6394 46.0935 36.8374 45.8422C35.9693 46.4209 37.2231 47.1518 36.5226 47.832C35.4389 46.8803 35.411 48.8879 36.5531 48.8092C36.4947 48.9056 35.9287 49.294 35.8297 49.3752C36.85 49.096 36.8729 50.53 37.6571 50.1391C37.8703 49.5071 38.2739 49.4082 38.949 49.3828C38.8551 49.3041 38.2942 48.8879 38.2257 48.8066C39.4921 48.8726 39.2764 46.8473 38.2714 47.8447C37.5277 47.1924 38.7764 46.4336 37.9186 45.7737C39.0607 46.2864 39.1216 44.7407 37.9033 45.0072C38.2434 44.8701 38.3856 45.1569 38.7003 44.86C39.4236 45.063 38.6724 47.2001 39.6038 47.0935C40.5023 46.0706 41.8906 49.8752 43.6266 47.0732C45.7535 47.5326 47.3702 51.8218 44.3931 51.5173C42.8449 50.964 41.8043 53.9792 43.5302 52.9614C43.8297 53.5249 44.5682 53.0223 44.954 53.0249C45.7535 53.1924 47.2154 53.4665 47.8449 52.8396C47.8855 50.6924 48.9032 51.365 49.8372 49.8371C45.4337 48.2077 54.0402 45.2559 55.492 45.4336C55.393 47.3092 58.4742 49.3269 57.2686 51.5376C57.1392 51.8472 55.3879 51.6823 55.2433 52.0427C54.4996 52.5376 54.6519 53.7279 55.6214 53.0147C56.058 52.8345 56.6341 53.6315 57.1189 52.9208C57.393 53.3396 58.1976 53.365 58.4311 52.9107C58.827 53.1899 59.3244 53.3853 59.6569 53.1239C59.8422 53.4005 60.2762 53.101 60.5782 52.9107C60.8321 53.3345 61.3904 53.3168 61.7661 53.0071C62.1671 52.9005 62.9056 53.6188 63.294 52.9081C65.3168 54.0274 64.3549 52.1239 64.0198 51.3117C63.8117 50.5909 66.4361 49.4234 64.8802 49.0148C62.1265 46.8803 67.4056 41.3702 64.1163 38.8803C68.1416 35.0784 61.6899 33.8246 58.6747 34.789C56.7991 35.2839 57.2433 32.7433 55.9159 34.3372C55.2966 33.6774 56.1874 33.1951 56.8473 32.9591C56.1747 32.3652 54.9844 32.3017 54.5098 33.1748C52.6621 30.4997 56.6925 32.9718 56.0554 30.9312C57.4336 31.0657 57.6138 32.5835 56.7001 33.5149C57.9209 33.4718 59.1849 32.5454 58.596 31.2434C59.7534 31.6824 59.2407 32.6596 58.9564 33.3855C59.4437 33.7662 60.3118 33.1164 60.4742 32.5784C61.1595 33.5098 63.0427 34.2205 61.8498 32.4439C62.7965 33.6723 66.7305 35.6748 66.0731 32.6012L66.0807 32.6038ZM60.3041 50.228C61.1696 49.3853 60.7229 49.0934 59.7686 48.8853C59.563 45.9463 65.1087 51.1417 59.9361 52.2508C59.8041 51.4259 59.4107 51.1645 60.3041 50.228Z" fill="#F6C24C"/>
</svg>
