<svg width="82" height="82" viewBox="0 0 82 82" fill="none" xmlns="http://www.w3.org/2000/svg">
<path d="M68.5273 10.1522H12.6903C7.08338 10.1522 2.53809 14.6975 2.53809 20.3044V60.9132C2.53809 66.5201 7.08338 71.0654 12.6903 71.0654H68.5273C74.1342 71.0654 78.6795 66.5201 78.6795 60.9132V20.3044C78.6795 14.6975 74.1342 10.1522 68.5273 10.1522Z" fill="white"/>
<path d="M3.69543 15.6902H77.5222C75.8369 12.4162 72.4638 10.1522 68.5273 10.1522H12.6903C8.75376 10.1522 5.3807 12.4162 3.69543 15.6902Z" fill="#B12532"/>
<path d="M2.53809 21.2283H78.6795V26.7663H2.53809V21.2283Z" fill="#B12532"/>
<path d="M2.53809 32.3018H78.6795V37.8398H2.53809V32.3018Z" fill="#B12532"/>
<path d="M2.53809 43.3778H78.6795V48.9158H2.53809V43.3778Z" fill="#B12532"/>
<path d="M2.53809 54.4513H78.6795V59.9893H2.53809V54.4513Z" fill="#B12532"/>
<path d="M77.5222 65.5272H3.69543C5.3807 68.8013 8.75376 71.0652 12.6903 71.0652H68.5273C72.4638 71.0652 75.8369 68.8013 77.5222 65.5272Z" fill="#B12532"/>
<path d="M12.6903 10.1522H30.2256V37.8398H2.53809V20.3044C2.53809 14.7004 7.08627 10.1522 12.6903 10.1522Z" fill="#0B2364"/>
<path opacity="0.15" d="M68.5273 10.1522H12.6903C7.08373 10.1522 2.53809 14.6979 2.53809 20.3044V60.9132C2.53809 66.5197 7.08373 71.0654 12.6903 71.0654H68.5273C74.1339 71.0654 78.6795 66.5197 78.6795 60.9132V20.3044C78.6795 14.6979 74.1339 10.1522 68.5273 10.1522ZM76.1415 60.9132C76.1415 65.1111 72.7253 68.5273 68.5273 68.5273H12.6903C8.49234 68.5273 5.07613 65.1111 5.07613 60.9132V20.3044C5.07613 16.1065 8.49234 12.6903 12.6903 12.6903H68.5273C72.7253 12.6903 76.1415 16.1065 76.1415 20.3044V60.9132Z" fill="black"/>
<path d="M18.9212 25.4897L23.0303 22.505H17.9516L16.3831 17.675L14.8121 22.505H9.73596L13.8425 25.4897L12.274 30.3171L16.3831 27.3323L20.4897 30.3171L18.9212 25.4897Z" fill="white"/>
<path opacity="0.2" d="M68.5274 12.6903H12.6903C8.48477 12.6903 5.07617 16.0989 5.07617 20.3044V22.8425C5.07617 18.637 8.48477 15.2284 12.6903 15.2284H68.5274C72.7329 15.2284 76.1415 18.637 76.1415 22.8425V20.3044C76.1415 16.0989 72.7329 12.6903 68.5274 12.6903Z" fill="white"/>
</svg>
