<svg width="82" height="82" viewBox="0 0 82 82" fill="none" xmlns="http://www.w3.org/2000/svg">
<path d="M2.53809 27.9186H78.6795V53.2991H2.53809V27.9186Z" fill="white"/>
<path d="M12.6903 10.1522H68.5273C74.1313 10.1522 78.6795 14.7004 78.6795 20.3044V30.4566H2.53809V20.3044C2.53809 14.7004 7.08627 10.1522 12.6903 10.1522Z" fill="#030A85"/>
<path d="M68.5273 71.0653L12.6903 71.0653C7.08627 71.0653 2.53809 66.5171 2.53809 60.9131V50.7609L78.6795 50.7609V60.9131C78.6795 66.5171 74.1313 71.0653 68.5273 71.0653Z" fill="#45994D"/>
<path opacity="0.15" d="M68.5273 10.1522H12.6903C7.08373 10.1522 2.53809 14.6979 2.53809 20.3044V60.9132C2.53809 66.5197 7.08373 71.0654 12.6903 71.0654H68.5273C74.1339 71.0654 78.6795 66.5197 78.6795 60.9132V20.3044C78.6795 14.6979 74.1339 10.1522 68.5273 10.1522ZM76.1415 60.9132C76.1415 65.1111 72.7253 68.5273 68.5273 68.5273H12.6903C8.49234 68.5273 5.07613 65.1111 5.07613 60.9132V20.3044C5.07613 16.1065 8.49234 12.6903 12.6903 12.6903H68.5273C72.7253 12.6903 76.1415 16.1065 76.1415 20.3044V60.9132Z" fill="black"/>
<path d="M40.6087 31.6368C40.8651 31.6368 41.0986 31.779 41.2153 32.0074C42.662 32.18 43.4209 33.2257 43.6848 34.4439C43.9945 35.8678 43.6671 37.8018 42.662 39.8322L46.5198 44.9489C46.7254 44.8524 46.9259 44.7535 47.1264 44.6469L48.5452 47.6468C43.5681 50.223 37.6494 50.223 32.6722 47.6468L34.091 44.6469C34.2915 44.7535 34.492 44.8524 34.6976 44.9489L38.5554 39.8322C37.5504 37.8018 37.223 35.8652 37.5326 34.4439C37.7966 33.2257 38.558 32.18 40.0021 32.0074C40.1189 31.779 40.3549 31.6368 40.6087 31.6368ZM42.1366 39.1317C42.9183 37.3855 43.1721 35.7307 42.926 34.6368C42.7077 33.6673 42.2178 32.949 41.2432 32.7967V35.2967L42.4615 36.515H41.4869V38.2713L42.1366 39.1317ZM39.9742 32.7942C38.9996 32.9465 38.5097 33.6673 38.2915 34.6343C38.0453 35.7282 38.2991 37.383 39.0808 39.1292L39.7306 38.2662V36.5099H38.7559L39.9742 35.2916V32.7942Z" fill="black"/>
<path opacity="0.2" d="M68.5273 12.6903H12.6903C8.48471 12.6903 5.07611 16.0989 5.07611 20.3044V22.8425C5.07611 18.637 8.48471 15.2284 12.6903 15.2284H68.5273C72.7328 15.2284 76.1414 18.637 76.1414 22.8425V20.3044C76.1414 16.0989 72.7328 12.6903 68.5273 12.6903Z" fill="white"/>
</svg>
