<svg width="82" height="82" viewBox="0 0 82 82" fill="none" xmlns="http://www.w3.org/2000/svg">
<path d="M2.53796 25.3805H78.6794V55.8371H2.53796V25.3805Z" fill="black"/>
<path d="M12.6902 10.1522H68.5272C74.1312 10.1522 78.6794 14.7004 78.6794 20.3044V27.9186H2.53796V20.3044C2.53796 14.7004 7.08614 10.1522 12.6902 10.1522Z" fill="#D52E23"/>
<path d="M68.5273 71.0653L12.6902 71.0653C7.0862 71.0653 2.53802 66.5171 2.53802 60.9131V53.299L78.6794 53.299V60.9131C78.6794 66.5171 74.1313 71.0653 68.5273 71.0653Z" fill="#4C9D4F"/>
<path opacity="0.15" d="M68.5272 10.1522H12.6902C7.08361 10.1522 2.53796 14.6979 2.53796 20.3044V60.9132C2.53796 66.5197 7.08361 71.0654 12.6902 71.0654H68.5272C74.1337 71.0654 78.6794 66.5197 78.6794 60.9132V20.3044C78.6794 14.6979 74.1337 10.1522 68.5272 10.1522ZM76.1413 60.9132C76.1413 65.1111 72.7251 68.5273 68.5272 68.5273H12.6902C8.49222 68.5273 5.07601 65.1111 5.07601 60.9132V20.3044C5.07601 16.1065 8.49222 12.6903 12.6902 12.6903H68.5272C72.7251 12.6903 76.1413 16.1065 76.1413 20.3044V60.9132Z" fill="black"/>
<path d="M34.7713 40.6088C34.7713 36.3322 38.2382 32.8652 42.5149 32.8652C44.195 32.8652 45.7509 33.4033 47.0199 34.3119C45.4057 32.6952 43.1773 31.6952 40.7128 31.6952C35.7916 31.6952 31.8018 35.685 31.8018 40.6063C31.8018 45.5275 35.7916 49.5174 40.7128 49.5174C43.1773 49.5174 45.4082 48.5174 47.0199 46.9006C45.7509 47.8118 44.195 48.3473 42.5149 48.3473C38.2382 48.3473 34.7713 44.8803 34.7713 40.6037V40.6088Z" fill="white"/>
<path d="M54.2024 40.6089L57.0324 36.713L52.4537 38.2028L49.6238 34.3069V39.1216L45.0452 40.6089L49.6238 42.0962V46.9108L52.4537 43.0149L57.0324 44.5048L54.2024 40.6089Z" fill="white"/>
<path opacity="0.2" d="M68.5272 12.6903H12.6902C8.48465 12.6903 5.07605 16.0989 5.07605 20.3044V22.8425C5.07605 18.637 8.48465 15.2284 12.6902 15.2284H68.5272C72.7328 15.2284 76.1414 18.637 76.1414 22.8425V20.3044C76.1414 16.0989 72.7328 12.6903 68.5272 12.6903Z" fill="white"/>
</svg>
