<svg width="82" height="82" viewBox="0 0 82 82" fill="none" xmlns="http://www.w3.org/2000/svg">
<path d="M68.5274 10.152H12.6904C7.0835 10.152 2.53821 14.6973 2.53821 20.3042V60.9129C2.53821 66.5198 7.0835 71.0651 12.6904 71.0651H68.5274C74.1343 71.0651 78.6796 66.5198 78.6796 60.9129V20.3042C78.6796 14.6973 74.1343 10.152 68.5274 10.152Z" fill="#B33431"/>
<path opacity="0.15" d="M68.5274 10.152H12.6904C7.08385 10.152 2.53821 14.6976 2.53821 20.3042V60.9129C2.53821 66.5195 7.08385 71.0651 12.6904 71.0651H68.5274C74.134 71.0651 78.6796 66.5195 78.6796 60.9129V20.3042C78.6796 14.6976 74.134 10.152 68.5274 10.152ZM76.1416 60.9129C76.1416 65.1109 72.7254 68.5271 68.5274 68.5271H12.6904C8.49247 68.5271 5.07626 65.1109 5.07626 60.9129V20.3042C5.07626 16.1062 8.49247 12.69 12.6904 12.69H68.5274C72.7254 12.69 76.1416 16.1062 76.1416 20.3042V60.9129Z" fill="black"/>
<path opacity="0.2" d="M68.5274 12.6901H12.6903C8.48477 12.6901 5.07617 16.0987 5.07617 20.3042V22.8423C5.07617 18.6367 8.48477 15.2281 12.6903 15.2281H68.5274C72.7329 15.2281 76.1415 18.6367 76.1415 22.8423V20.3042C76.1415 16.0987 72.7329 12.6901 68.5274 12.6901Z" fill="white"/>
<path d="M51.3295 55.5019L40.6088 47.7127L29.8881 55.5019L33.9819 42.9005L23.2612 35.1113H36.5124L40.6062 22.5073L44.7001 35.1113H57.9513L47.2305 42.9005L51.3244 55.5019H51.3295ZM42.558 46.299L46.9742 49.5071L45.2864 44.3168L42.558 46.299ZM35.9312 44.3168L34.2434 49.5071L38.6596 46.299L35.9312 44.3168ZM36.6748 42.0274L40.6088 44.8853L44.5428 42.0274L43.0402 37.4031H38.1773L36.6748 42.0274ZM45.4463 37.4031L46.4894 40.6112L50.9056 37.4031H45.4463ZM30.3094 37.4031L34.7256 40.6112L35.7687 37.4031H30.3094ZM38.921 35.1138H42.294L40.6062 29.921L38.9184 35.1138H38.921Z" fill="#286038"/>
</svg>
