<svg width="82" height="82" viewBox="0 0 82 82" fill="none" xmlns="http://www.w3.org/2000/svg">
<path d="M78.6795 20.3042C78.6795 14.6976 74.1339 10.152 68.5273 10.152H12.6903C7.08373 10.152 2.53809 14.6976 2.53809 20.3042V43.1466H78.6795V20.3042Z" fill="#BE2A2C"/>
<path d="M12.6903 71.0652H68.5273C74.1339 71.0652 78.6795 66.5196 78.6795 60.913V40.6086H2.53809V60.913C2.53809 66.5196 7.08373 71.0652 12.6903 71.0652Z" fill="white"/>
<path opacity="0.15" d="M12.6903 71.0651H68.5273C74.1339 71.0651 78.6795 66.5195 78.6795 60.9129V20.3042C78.6795 14.6976 74.1339 10.152 68.5273 10.152H12.6903C7.08373 10.152 2.53809 14.6976 2.53809 20.3042V60.9129C2.53809 66.5195 7.08373 71.0651 12.6903 71.0651ZM5.07613 20.3042C5.07613 16.1062 8.49234 12.69 12.6903 12.69H68.5273C72.7253 12.69 76.1415 16.1062 76.1415 20.3042V60.9129C76.1415 65.1109 72.7253 68.5271 68.5273 68.5271H12.6903C8.49234 68.5271 5.07613 65.1109 5.07613 60.9129V20.3042Z" fill="black"/>
<path opacity="0.2" d="M68.5273 12.6901H12.6903C8.48471 12.6901 5.07611 16.0987 5.07611 20.3042V22.8423C5.07611 18.6367 8.48471 15.2281 12.6903 15.2281H68.5273C72.7328 15.2281 76.1414 18.6367 76.1414 22.8423V20.3042C76.1414 16.0987 72.7328 12.6901 68.5273 12.6901Z" fill="white"/>
</svg>
