<svg width="82" height="82" viewBox="0 0 82 82" fill="none" xmlns="http://www.w3.org/2000/svg">
<path d="M25.3805 10.152H55.8371V71.0651H25.3805V10.152Z" fill="#F8D548"/>
<path d="M12.6903 10.152H27.9186V71.0651H12.6903C7.08627 71.0651 2.53809 66.5169 2.53809 60.9129V20.3042C2.53809 14.7002 7.08627 10.152 12.6903 10.152Z" fill="#1A43A9"/>
<path d="M68.5273 71.0652H53.299L53.299 10.1521H68.5273C74.1313 10.1521 78.6795 14.7002 78.6795 20.3042V60.913C78.6795 66.517 74.1313 71.0652 68.5273 71.0652Z" fill="#BC2833"/>
<path opacity="0.15" d="M68.5273 10.152H12.6903C7.08373 10.152 2.53809 14.6976 2.53809 20.3042V60.9129C2.53809 66.5195 7.08373 71.0651 12.6903 71.0651H68.5273C74.1339 71.0651 78.6795 66.5195 78.6795 60.9129V20.3042C78.6795 14.6976 74.1339 10.152 68.5273 10.152ZM76.1415 60.9129C76.1415 65.1109 72.7253 68.5271 68.5273 68.5271H12.6903C8.49234 68.5271 5.07613 65.1109 5.07613 60.9129V20.3042C5.07613 16.1062 8.49234 12.69 12.6903 12.69H68.5273C72.7253 12.69 76.1415 16.1062 76.1415 20.3042V60.9129Z" fill="black"/>
<path opacity="0.2" d="M68.5273 12.6901H12.6903C8.48471 12.6901 5.07611 16.0987 5.07611 20.3042V22.8423C5.07611 18.6367 8.48471 15.2281 12.6903 15.2281H68.5273C72.7328 15.2281 76.1414 18.6367 76.1414 22.8423V20.3042C76.1414 16.0987 72.7328 12.6901 68.5273 12.6901Z" fill="white"/>
<path d="M50.167 49.2659C49.469 46.5197 52.1086 29.8752 47.9437 28.7458C47.0909 29.2483 46.167 30.3777 45.8345 30.4666C45.8853 30.9285 45.9894 31.497 45.9513 31.9843C44.9818 32.0021 43.9894 33.0351 43.1264 33.1696C41.6036 32.1797 42.1645 30.4158 42.3041 29.0351C42.4259 29.0529 42.6366 29.2661 42.6366 29.2661C42.6366 29.2661 42.629 28.6468 42.4336 28.5377C42.4336 28.5377 42.5122 28.4564 42.799 28.4488C42.7178 28.2458 42.3193 27.997 42.3193 27.997C42.4234 27.86 42.6138 27.8295 42.7711 27.7915C41.6265 27.6062 39.8574 26.1392 38.9666 27.3194C38.3828 27.3575 37.5986 27.8448 37.7686 28.1849C38.5097 27.3295 40.492 28.9082 37.9945 28.1519V28.2889C39.7889 28.5706 39.5453 32.2889 38.096 33.1721C37.2331 33.0376 36.2407 32.0046 35.2687 31.9869C35.228 31.497 35.3321 30.9336 35.3854 30.4691C35.0529 30.3803 34.1291 29.2508 33.2763 28.7483C28.8296 30.2534 32.1012 46.8877 30.8931 49.908C31.3499 49.7151 32.19 48.5654 32.3677 48.1288V48.337C33.058 48.0222 33.5656 47.1923 33.7915 46.7659L33.8067 46.9842C34.2864 46.5654 34.8651 44.5502 35.1011 43.6619C35.1316 43.7202 35.1646 43.7735 35.2052 43.8243C35.3803 44.0527 35.6062 44.2405 35.8448 44.3979C36.0148 44.5096 36.2103 44.6213 36.4184 44.7329C36.2686 45.0248 35.992 45.5426 35.8626 45.6644C35.9514 45.6745 36.0377 45.6796 36.1265 45.6796C36.0402 45.804 35.3829 46.7507 35.1747 47.1085C34.5428 47.4258 32.8956 47.6847 33.6773 48.8166C33.6849 48.771 33.7052 48.7304 33.7357 48.6974C34.9412 50.941 36.0808 47.1466 37.025 46.403L37.0605 46.5984C37.2128 46.2913 37.7889 45.7786 38.091 45.5223C38.2661 45.6009 38.7965 45.837 38.9691 45.9131L38.9894 45.9207C39.0808 45.9613 39.1646 46.002 39.2458 46.0375C38.8524 46.8979 37.1519 50.4537 35.6214 51.0628C35.5148 51.0044 37.1037 51.7329 37.7306 52.0933C38.1773 51.5882 39.2255 49.9918 39.195 50.0222C39.3041 50.2202 38.5478 51.6821 38.1265 52.3166C39.0732 52.8496 40.2711 53.6592 40.6138 54.3191C40.9564 53.6592 42.1569 52.8496 43.1011 52.3166C42.6823 51.6796 41.926 50.2227 42.0325 50.0222C42.0046 49.9943 43.0478 51.5857 43.497 52.0933C44.1188 51.7354 45.7178 51.0019 45.6061 51.0628C44.0731 50.4537 42.3726 46.8928 41.9793 46.0375C42.2813 45.8979 42.8219 45.6568 43.1315 45.5197C43.431 45.7735 44.0097 46.2887 44.162 46.5959L44.1975 46.4004C45.1417 47.1466 46.2812 50.9359 47.4868 48.6948C47.5173 48.7278 47.5376 48.7684 47.5452 48.8141C48.3269 47.6796 46.6822 47.4258 46.0477 47.106C45.8422 46.7481 45.1823 45.7989 45.096 45.6745C45.1848 45.6745 45.2711 45.6695 45.3599 45.6593C45.2279 45.5375 44.9513 45.0172 44.8016 44.7253C45.2686 44.4715 45.6899 44.2355 46.0122 43.8218C46.0528 43.771 46.0883 43.7152 46.1188 43.6568C46.3548 44.5426 46.9361 46.5603 47.4157 46.9816L47.431 46.7634C47.6569 47.1923 48.1645 48.0197 48.8548 48.3344V48.1263C49.0325 48.5628 49.87 49.71 50.3294 49.9055C50.3294 49.9055 50.1695 49.5324 50.1695 49.2684L50.167 49.2659Z" fill="#AA8160"/>
</svg>
