<svg width="82" height="82" viewBox="0 0 82 82" fill="none" xmlns="http://www.w3.org/2000/svg">
<path d="M68.5272 10.152H12.6902C7.08325 10.152 2.53796 14.6973 2.53796 20.3042V60.9129C2.53796 66.5198 7.08325 71.0651 12.6902 71.0651H68.5272C74.1341 71.0651 78.6794 66.5198 78.6794 60.9129V20.3042C78.6794 14.6973 74.1341 10.152 68.5272 10.152Z" fill="#E2B847"/>
<path opacity="0.15" d="M68.5272 10.152H12.6902C7.08361 10.152 2.53796 14.6976 2.53796 20.3042V60.9129C2.53796 66.5195 7.08361 71.0651 12.6902 71.0651H68.5272C74.1337 71.0651 78.6794 66.5195 78.6794 60.9129V20.3042C78.6794 14.6976 74.1337 10.152 68.5272 10.152ZM76.1413 60.9129C76.1413 65.1109 72.7251 68.5271 68.5272 68.5271H12.6902C8.49222 68.5271 5.07601 65.1109 5.07601 60.9129V20.3042C5.07601 16.1062 8.49222 12.69 12.6902 12.69H68.5272C72.7251 12.69 76.1413 16.1062 76.1413 20.3042V60.9129Z" fill="black"/>
<path opacity="0.2" d="M68.5272 12.6901H12.6902C8.48465 12.6901 5.07605 16.0987 5.07605 20.3042V22.8423C5.07605 18.6367 8.48465 15.2281 12.6902 15.2281H68.5272C72.7328 15.2281 76.1414 18.6367 76.1414 22.8423V20.3042C76.1414 16.0987 72.7328 12.6901 68.5272 12.6901Z" fill="white"/>
<path d="M10.1522 17.7661H71.0654V63.451H10.1522V17.7661Z" fill="#D12D22"/>
<path d="M52.5223 40.0528C53.1924 40.167 56.6061 37.9564 55.6518 37.2229C55.2507 37.5909 53.9741 38.4361 53.3853 38.5021C52.9259 38.8752 56.0807 36.7838 55.667 35.7508C55.7127 34.5605 53.9843 37.3041 53.299 37.3066C53.0376 37.4615 52.667 37.6315 53.1822 37.2787C54.1036 37.0503 55.7863 34.0148 55.3878 33.2001C55.2584 32.497 54.0046 35.5503 53.4157 35.6772C53.5503 35.4361 55.5325 32.0326 54.4995 30.8143C54.1797 30.3143 53.4564 34.0123 52.8726 34.2864C52.8447 34.4158 54.469 28.9666 52.969 28.1824C52.969 28.1824 52.9995 29.0783 52.733 30.3625C51.2609 35.7331 53.2838 27.6976 51.4691 26.9463C51.3447 28.1747 51.3701 29.7585 50.9183 31.0427C50.7356 30.4793 49.6417 34.5808 49.096 34.4767C49.0554 34.5021 48.8726 33.6772 48.7153 34.0757C48.4818 35.1569 45.1772 37.5934 47.3397 38.6543C48.6721 39.6163 46.8067 39.9132 46.1468 39.8878C45.9463 40.0807 45.7711 40.6163 45.3955 40.5807C45.3651 39.0351 45.964 38.3447 45.964 38.3447L44.2889 36.3777C44.2026 36.4209 44.1163 36.4589 44.03 36.497C43.7965 36.1899 43.6747 35.9285 43.6849 35.5325C44.563 35.8828 43.7788 34.5732 44.063 34.1392C44.7458 34.9336 44.5148 33.6493 44.9666 33.3397C45.3549 33.8016 46.7534 33.2838 46.8955 32.7382C47.6721 33.2991 50.03 32.7965 49.0351 31.4209C48.3193 32.8168 47.7457 31.8245 46.2889 32.1595C46.365 31.9564 47.4437 31.3422 47.662 31.8549C47.7762 31.992 47.8752 32.2128 47.9666 31.893C48.3067 30.9641 47.2787 30.36 46.5706 30.7128C45.9793 29.1671 44.0453 31.2153 42.9996 30.1417C43.0275 29.6417 43.3346 29.8143 43.4438 29.492C42.9361 29.0935 43.6087 28.7052 43.8955 28.6088C43.9108 28.6494 44.3092 28.5986 44.2864 28.4819C44.7305 28.3423 44.4463 27.723 44.6214 27.3981C44.8143 27.3676 44.7305 26.7814 44.4742 26.8651C44.5326 26.8803 44.2128 26.3397 44.2026 26.3829C44.3854 25.893 43.7382 26.0225 43.4234 25.7306C42.9285 25.19 41.9387 25.2712 41.1392 24.9057C41.6468 24.4819 40.9768 23.921 40.8143 23.6164L41.1392 23.6494L41.1671 23.1266L40.8499 23.1672L40.8981 22.8525L40.2331 22.8448L40.2813 23.1596L39.9616 23.1367L39.9895 23.6519L40.3245 23.6088L40.2915 23.8042C39.7966 23.8118 39.6291 24.6646 39.9133 24.9134C39.1088 25.2712 38.1316 25.1951 37.6342 25.7331C37.3194 26.0225 36.6722 25.8956 36.855 26.3854C36.8448 26.3423 36.525 26.8829 36.5834 26.8677C36.3271 26.7839 36.2433 27.3702 36.4362 27.4006C36.6113 27.7255 36.3296 28.3473 36.7712 28.4844C36.7484 28.6011 37.1469 28.6519 37.1621 28.6113C37.4565 28.7128 38.1164 29.091 37.6139 29.4945C37.723 29.8169 38.0301 29.6443 38.058 30.1443C37.0149 31.2179 35.0758 29.1697 34.487 30.7153C33.7763 30.3625 32.751 30.9666 33.0911 31.8955C33.1824 32.2153 33.2814 31.9945 33.3956 31.8575C33.6114 31.3422 34.6976 31.9615 34.7687 32.162C33.3093 31.8295 32.7357 32.8194 32.0225 31.4234C31.0276 32.7991 33.3905 33.3016 34.1621 32.7407C34.3068 33.2864 35.7002 33.8041 36.091 33.3422C36.5428 33.6519 36.3144 34.9361 36.9946 34.1417C37.2788 34.5757 36.4946 35.8828 37.3753 35.5351C37.3854 35.9285 37.2661 36.1924 37.0326 36.497C36.9489 36.4615 36.8677 36.4234 36.7839 36.3803L35.1088 38.3472C35.1088 38.3472 35.7103 39.0401 35.6773 40.596V40.5858C35.2966 40.6239 35.1215 40.0883 34.9185 39.8904C34.2586 39.9107 32.3956 39.6188 33.7256 38.6569C35.888 37.6011 32.5809 35.1544 32.3499 34.0782C32.2002 33.6899 32.0022 34.4894 31.9692 34.4793C31.4159 34.5681 30.3347 30.4945 30.1469 31.0453C29.6951 29.761 29.7205 28.1773 29.5962 26.9489C27.7815 27.7027 29.8068 35.7331 28.3322 30.3651C28.0657 29.0783 28.0962 28.1849 28.0962 28.1849C26.6165 28.9615 28.1977 34.431 28.1926 34.2889C27.7459 33.8346 26.8373 31.2712 26.7536 30.7179C25.6495 31.3803 26.7662 34.7254 27.7129 35.6188C27.8348 36.2889 25.7713 33.2128 25.8678 33.0783C24.8856 33.4133 26.9794 37.1188 27.883 37.2813C28.4515 37.9716 25.7586 35.8219 25.5861 35.4107C24.9592 35.393 25.8119 37.1544 26.3881 37.6366C27.7485 38.667 28.4743 38.7965 26.647 38.1011C26.1596 37.964 25.0378 36.5731 25.2993 37.563C24.8246 38.8422 30.4819 40.7482 27.8576 39.9817C23.0302 37.6975 27.2307 41.6391 28.7485 41.3548C28.1622 41.4259 26.553 41.1695 26.3424 40.6619C26.3322 40.6721 25.9287 40.9487 25.9617 40.733C26.0353 39.8904 24.8094 40.5528 25.482 41.1137C24.6749 41.0477 25.1343 42.3396 25.6876 41.766C25.751 42.1061 25.9287 42.1518 25.4921 42.332C25.18 42.7787 26.0201 42.5756 26.2231 43.2406C26.4642 43.6898 26.8348 47.7152 27.7586 47.7558C27.7205 48.3548 27.751 48.4461 28.1952 48.8877C27.9211 49.2888 28.6393 50.8014 28.8703 50.9867C28.2205 51.1136 27.949 52.2253 28.6165 52.4943C28.2662 52.8065 28.9997 53.4156 29.2688 53.3801C29.487 54.5044 30.817 53.2456 30.3652 55.0806C30.6672 55.0222 31.1418 55.0527 31.4566 55.2405C31.553 54.842 31.355 54.4689 32.0048 54.4258C32.7103 54.1948 31.0581 53.8826 31.2662 53.5324C31.7383 52.5578 32.7332 51.3294 33.8347 50.9157C33.5987 52.2507 35.5758 50.0781 35.8068 50.3014C36.1849 51.7964 38.058 48.0248 38.5986 48.0071C38.6494 48.0299 38.7001 48.0527 38.7509 48.0756C38.5732 48.9131 36.9311 50.106 37.7255 50.9816C37.2585 51.2507 37.1773 52.2456 36.9337 52.6314C36.7382 53.1872 35.1545 53.6517 35.2839 54.1847C35.3804 54.4435 36.1266 54.6999 36.4083 54.6136C36.1342 55.4537 36.0073 56.0806 37.3524 55.5019C36.9007 56.7481 37.926 56.309 38.5809 55.9537C38.2128 56.8623 38.9895 57.8877 39.5885 56.7227C39.4844 56.8471 40.4336 58.5907 40.5225 58.3801C40.6113 58.5932 41.5631 56.8471 41.4565 56.7227C42.0554 57.8877 42.8295 56.8623 42.4641 55.9537C43.1214 56.309 44.1443 56.7481 43.6925 55.5019C45.0376 56.078 44.9107 55.4613 44.6366 54.6136C44.9209 54.7024 45.6671 54.4435 45.7635 54.1847C45.8955 53.6517 44.3092 53.1872 44.1138 52.6314C43.8701 52.2481 43.7864 51.2431 43.3219 50.9842C44.1163 50.106 42.4793 48.9233 42.2991 48.0832C42.3676 48.0527 42.4361 48.0223 42.5047 47.9944C43.0453 48.0096 44.9209 51.7862 45.3016 50.2913C45.4437 50.0603 47.4285 52.073 47.2457 51.0476C49.6467 52.474 52.1416 52.5882 54.4969 50.8344C54.6112 49.6695 54.3066 47.969 53.1086 47.3015C53.1289 47.304 53.0579 46.771 53.1848 46.8548C53.5249 47.2228 53.5934 46.6644 53.6873 46.4005C53.7888 46.1467 53.3447 46.3269 53.332 46.167C53.3218 46.1238 53.6442 45.7736 53.3827 45.7761C53.2533 45.7685 52.7051 45.4639 52.6975 45.733C52.6746 45.7964 52.7812 46.1746 52.6036 46.068C52.2279 45.634 52.068 46.4487 52.1315 46.6949C52.1569 46.7253 52.6086 46.639 52.5122 46.7583C52.1619 47.4842 51.7229 46.8167 50.865 47.4664C49.8244 48.5172 48.8396 49.5197 49.9513 50.7887C50.2254 51.4258 47.8422 49.7253 48.7178 49.7964C49.2051 49.5527 47.7432 49.4106 48.2483 49.0629C48.398 48.9842 48.733 48.7685 48.4716 48.6949C48.1468 48.5477 47.0249 48.573 47.5325 48.1136C47.2711 47.6543 45.2559 47.3903 45.3295 46.2177C45.5402 47.1898 47.6442 47.238 46.4285 46.1416C46.3879 46.0807 46.3777 45.9969 46.5402 46.1517C46.4031 46.6416 48.9386 47.0096 48.9031 46.4715C48.9767 46.3192 48.2584 46.0071 48.6924 46.0756C49.0681 46.2761 50.7051 46.1873 50.9665 45.4157C48.2737 44.7457 52.3269 45.8421 52.266 44.2837C52.2508 44.2888 51.2635 44.0629 51.1899 43.9462C51.4411 44.3751 54.0883 43.5122 53.5426 42.6416C53.6695 42.6975 51.7102 42.8827 51.6721 42.7558C52.0097 43.0477 55.0502 41.964 54.5934 40.964C54.5934 40.964 53.7761 41.2558 53.2635 41.3142C50.4132 41.6315 55.8218 40.9411 55.3853 39.2812C55.903 38.601 52.0097 40.6949 52.5147 40.063L52.5223 40.0528ZM35.4946 46.8598C35.2915 47.6695 33.5885 47.6847 33.5784 48.1213C34.0885 48.5832 32.9616 48.5553 32.6393 48.705C32.2332 48.8751 33.2281 49.0857 32.8931 49.3192C32.2053 49.6593 32.223 49.8522 32.9565 49.9487C32.3068 50.6999 30.5835 50.5146 29.6926 50.4588C29.6063 49.6136 28.9084 48.0502 28.4109 47.5121C28.6571 45.6797 26.3018 43.7837 26.8322 41.9056C27.2434 42.6391 29.3551 42.766 29.388 42.7457C29.35 42.8726 27.3855 42.6873 27.5175 42.6315C26.9693 43.502 29.6241 44.3675 29.8703 43.936C29.7967 44.0528 28.8094 44.2787 28.7941 44.2736C28.7408 45.8345 32.7662 44.7355 30.0936 45.4055C30.3576 46.1746 31.9921 46.2659 32.3702 46.0654C32.8017 45.9969 32.0885 46.3091 32.1596 46.4614C32.1215 46.9994 34.6621 46.6314 34.5225 46.1416C33.718 47.2228 35.1646 47.3218 35.7382 46.2025C35.8042 46.3599 35.586 46.6314 35.4997 46.8573L35.4946 46.8598ZM37.5225 28.2128C37.3727 28.1544 37.2154 28.1138 37.2154 28.1138C37.3601 27.5098 37.1824 26.3651 38.0758 26.1798C37.1316 26.9742 38.5859 28.6443 37.5225 28.2128ZM43.5554 26.5859C44.0833 27.0631 43.5351 27.6519 43.8473 28.1138C42.2356 28.8194 44.0072 27.0453 42.9869 26.1798C42.9869 26.1798 43.3422 26.3474 43.5554 26.5859ZM42.1392 27.8778C41.8219 28.1798 41.223 28.1824 40.8778 27.9311C41.5605 27.5707 41.1113 26.4311 41.0935 25.7331C41.9971 25.888 42.2763 27.1722 42.1392 27.8778ZM39.8397 26.7737C39.7331 27.3194 39.8803 27.7636 40.1925 27.9286C39.8473 28.1798 39.2458 28.1773 38.9311 27.8753C38.7915 27.1748 39.0783 25.8829 39.9793 25.7306C39.9616 26.1139 39.893 26.4184 39.8397 26.7737ZM38.2154 30.8194C38.2915 30.6646 38.3093 30.525 38.3017 30.4082C39.7306 30.8422 41.3422 30.8422 42.7712 30.4082C42.6341 30.8118 43.4539 31.4767 43.5021 31.3981C43.6036 31.7965 41.6443 32.1189 42.7889 32.4412C42.6062 32.9031 40.7966 33.3346 41.9387 33.8194C41.827 34.2178 40.4412 34.6798 40.7382 35.2204C41.2534 35.6848 40.9336 35.9158 40.5326 36.4285C40.1392 35.9056 39.8143 35.6874 40.3321 35.2204C40.6316 34.6848 39.2407 34.2128 39.1316 33.8194C40.2737 33.3346 38.4616 32.9006 38.2814 32.4412C39.426 32.1189 37.4641 31.7965 37.5682 31.3981C37.5682 31.3981 37.9996 31.2534 38.2128 30.8194H38.2154ZM26.5708 41.4107C26.6013 41.502 26.6444 41.5985 26.6977 41.6975C26.6266 41.7355 26.4008 41.8675 26.3982 41.8675C26.2713 41.6416 26.1317 41.3954 26.5708 41.4107Z" fill="#E2B847"/>
</svg>
