<svg width="82" height="82" viewBox="0 0 82 82" fill="none" xmlns="http://www.w3.org/2000/svg">
<path d="M68.5275 10.1522H30.4568V40.6088H78.6797V20.3044C78.6797 14.6979 74.134 10.1522 68.5275 10.1522Z" fill="#E65143"/>
<path d="M30.4568 38.0708V71.0654H68.5275C74.134 71.0654 78.6797 66.5198 78.6797 60.9132V38.0708H30.4568Z" fill="#3A8343"/>
<path d="M12.6905 10.1522H32.9949V71.0654H12.6905C7.08651 71.0654 2.53833 66.5172 2.53833 60.9132V20.3044C2.53833 14.7004 7.08651 10.1522 12.6905 10.1522Z" fill="white"/>
<path opacity="0.15" d="M68.5276 10.1522H12.6905C7.08397 10.1522 2.53833 14.6979 2.53833 20.3044V60.9132C2.53833 66.5197 7.08397 71.0654 12.6905 71.0654H68.5276C74.1341 71.0654 78.6797 66.5197 78.6797 60.9132V20.3044C78.6797 14.6979 74.1341 10.1522 68.5276 10.1522ZM76.1417 60.9132C76.1417 65.1111 72.7255 68.5273 68.5276 68.5273H12.6905C8.49259 68.5273 5.07638 65.1111 5.07638 60.9132V20.3044C5.07638 16.1065 8.49259 12.6903 12.6905 12.6903H68.5276C72.7255 12.6903 76.1417 16.1065 76.1417 20.3044V60.9132Z" fill="black"/>
<path opacity="0.2" d="M68.5276 12.6903H12.6906C8.48501 12.6903 5.07642 16.0989 5.07642 20.3044V22.8425C5.07642 18.637 8.48501 15.2284 12.6906 15.2284H68.5276C72.7331 15.2284 76.1417 18.637 76.1417 22.8425V20.3044C76.1417 16.0989 72.7331 12.6903 68.5276 12.6903Z" fill="white"/>
</svg>
