<svg width="82" height="82" viewBox="0 0 82 82" fill="none" xmlns="http://www.w3.org/2000/svg">
<path d="M68.5274 10.1522H12.6904C7.0835 10.1522 2.53821 14.6975 2.53821 20.3044V60.9132C2.53821 66.5201 7.0835 71.0654 12.6904 71.0654H68.5274C74.1343 71.0654 78.6796 66.5201 78.6796 60.9132V20.3044C78.6796 14.6975 74.1343 10.1522 68.5274 10.1522Z" fill="#13348F"/>
<path d="M75.3395 12.8247L5.87817 68.3927C6.02792 68.5298 6.18782 68.6516 6.34771 68.7785L78.6795 25.3804V20.3043C78.6795 17.3297 77.3775 14.68 75.3395 12.8247Z" fill="#D07B2C"/>
<path d="M6.96704 69.2938L78.6796 40.6088V25.3805L6.34521 68.7811C6.55333 68.9512 6.74369 69.1415 6.96704 69.2938Z" fill="white"/>
<path opacity="0.15" d="M68.5274 10.1522H12.6904C7.08385 10.1522 2.53821 14.6979 2.53821 20.3044V60.9132C2.53821 66.5197 7.08385 71.0654 12.6904 71.0654H68.5274C74.134 71.0654 78.6796 66.5197 78.6796 60.9132V20.3044C78.6796 14.6979 74.134 10.1522 68.5274 10.1522ZM76.1416 60.9132C76.1416 65.1111 72.7254 68.5273 68.5274 68.5273H12.6904C8.49247 68.5273 5.07626 65.1111 5.07626 60.9132V20.3044C5.07626 16.1065 8.49247 12.6903 12.6904 12.6903H68.5274C72.7254 12.6903 76.1416 16.1065 76.1416 20.3044V60.9132Z" fill="black"/>
<path opacity="0.2" d="M68.5274 12.6902H12.6903C8.48477 12.6902 5.07617 16.0988 5.07617 20.3043V22.8424C5.07617 18.6368 8.48477 15.2282 12.6903 15.2282H68.5274C72.7329 15.2282 76.1415 18.6368 76.1415 22.8424V20.3043C76.1415 16.0988 72.7329 12.6902 68.5274 12.6902Z" fill="white"/>
<path d="M25.3804 20.3044L25.9033 29.0176L27.7307 24.2156L26.9134 29.2866L29.9236 25.1217L27.822 29.8094L31.8068 26.5658L28.5657 30.5505L33.2509 28.449L29.086 31.4566L34.1596 30.6394L29.3576 32.4693L38.0707 32.9921L29.3576 33.515L34.1596 35.3424L29.086 34.5251L33.2509 37.5352L28.5657 35.4337L31.8068 39.4185L27.822 36.1774L29.9236 40.8626L26.9134 36.6977L27.7307 41.7712L25.9033 36.9693L25.3804 45.6824L24.8576 36.9693L23.0277 41.7712L23.8449 36.6977L20.8373 40.8626L22.9388 36.1774L18.9541 39.4185L22.1977 35.4337L17.51 37.5352L21.6749 34.5251L16.6039 35.3424L21.4059 33.515L12.6927 32.9921L21.4059 32.4693L16.6039 30.6394L21.6749 31.4566L17.51 28.449L22.1977 30.5505L18.9541 26.5658L22.9388 29.8094L20.8373 25.1217L23.8449 29.2866L23.0277 24.2156L24.8576 29.0176L25.3804 20.3044Z" fill="white"/>
</svg>
