<svg width="82" height="82" viewBox="0 0 82 82" fill="none" xmlns="http://www.w3.org/2000/svg">
<path d="M68.5273 10.1522H12.6903C7.08338 10.1522 2.53809 14.6975 2.53809 20.3044V60.9132C2.53809 66.5201 7.08338 71.0654 12.6903 71.0654H68.5273C74.1342 71.0654 78.6795 66.5201 78.6795 60.9132V20.3044C78.6795 14.6975 74.1342 10.1522 68.5273 10.1522Z" fill="#C8342D"/>
<path d="M30.0683 45.454L2.53809 59.4513V60.9132C2.53809 63.0325 3.19036 64.9969 4.30203 66.6264L31.3982 47.6316C30.883 46.9565 30.4287 46.2332 30.0683 45.454Z" fill="#F4E959"/>
<path d="M28.9769 40.6088C28.9769 40.2154 29.0556 39.8423 29.0937 39.4566L2.53809 36.8018V44.4159L29.0937 41.7611C29.0556 41.3779 28.9769 41.0048 28.9769 40.6088Z" fill="#F4E959"/>
<path d="M40.6086 28.9769C41.0427 28.9769 41.4538 29.0581 41.8751 29.1038L46.7 10.1522H34.5173L39.3422 29.1038C39.7635 29.0581 40.1746 28.9769 40.6086 28.9769Z" fill="#F4E959"/>
<path d="M40.6087 50.1264C45.8652 50.1264 50.1264 45.8652 50.1264 40.6087C50.1264 35.3523 45.8652 31.0911 40.6087 31.0911C35.3523 31.0911 31.0911 35.3523 31.0911 40.6087C31.0911 45.8652 35.3523 50.1264 40.6087 50.1264Z" fill="#F4E959"/>
<path d="M31.3982 33.5862L4.30203 14.5914C3.19036 16.2183 2.53809 18.1853 2.53809 20.3046V21.7665L30.0683 35.7638C30.4287 34.9846 30.8805 34.2638 31.3982 33.5887V33.5862Z" fill="#F4E959"/>
<path d="M52.2407 40.6088C52.2407 41.0022 52.162 41.3753 52.1239 41.7611L78.6795 44.4159V36.8018L52.1239 39.4566C52.162 39.8398 52.2407 40.2129 52.2407 40.6088Z" fill="#F4E959"/>
<path d="M76.9156 14.5912L49.8194 33.5859C50.3346 34.261 50.7889 34.9818 51.1493 35.761L78.6795 21.7637V20.3018C78.6795 18.1825 78.0273 16.2206 76.9156 14.5912Z" fill="#F4E959"/>
<path d="M40.6086 52.2407C40.1746 52.2407 39.7635 52.1595 39.3422 52.1138L34.5173 71.0654H46.7L41.8751 52.1138C41.4538 52.1595 41.0427 52.2407 40.6086 52.2407Z" fill="#F4E959"/>
<path d="M49.8194 47.6316L76.9156 66.6264C78.0273 64.9995 78.6795 63.0325 78.6795 60.9132V59.4513L51.1493 45.454C50.7889 46.2332 50.3372 46.9565 49.8194 47.6316Z" fill="#F4E959"/>
<path opacity="0.15" d="M68.5273 10.1522H12.6903C7.08373 10.1522 2.53809 14.6979 2.53809 20.3044V60.9132C2.53809 66.5197 7.08373 71.0654 12.6903 71.0654H68.5273C74.1339 71.0654 78.6795 66.5197 78.6795 60.9132V20.3044C78.6795 14.6979 74.1339 10.1522 68.5273 10.1522ZM76.1415 60.9132C76.1415 65.1111 72.7253 68.5273 68.5273 68.5273H12.6903C8.49234 68.5273 5.07613 65.1111 5.07613 60.9132V20.3044C5.07613 16.1065 8.49234 12.6903 12.6903 12.6903H68.5273C72.7253 12.6903 76.1415 16.1065 76.1415 20.3044V60.9132Z" fill="black"/>
<path opacity="0.2" d="M68.5273 12.6903H12.6903C8.48471 12.6903 5.07611 16.0989 5.07611 20.3044V22.8425C5.07611 18.637 8.48471 15.2284 12.6903 15.2284H68.5273C72.7328 15.2284 76.1414 18.637 76.1414 22.8425V20.3044C76.1414 16.0989 72.7328 12.6903 68.5273 12.6903Z" fill="white"/>
</svg>
