<svg width="82" height="82" viewBox="0 0 82 82" fill="none" xmlns="http://www.w3.org/2000/svg">
<path d="M2.53796 27.9185H78.6794V53.2989H2.53796V27.9185Z" fill="#5CB145"/>
<path d="M12.6902 10.152H68.5272C74.1312 10.152 78.6794 14.7002 78.6794 20.3042V30.4564H2.53796V20.3042C2.53796 14.7002 7.08614 10.152 12.6902 10.152Z" fill="#F6CE46"/>
<path d="M68.5273 71.0652L12.6902 71.0652C7.0862 71.0652 2.53802 66.517 2.53802 60.913V50.7608L78.6794 50.7608V60.913C78.6794 66.517 74.1313 71.0652 68.5273 71.0652Z" fill="#D83B3F"/>
<path opacity="0.15" d="M68.5272 10.152H12.6902C7.08361 10.152 2.53796 14.6976 2.53796 20.3042V60.9129C2.53796 66.5195 7.08361 71.0651 12.6902 71.0651H68.5272C74.1337 71.0651 78.6794 66.5195 78.6794 60.9129V20.3042C78.6794 14.6976 74.1337 10.152 68.5272 10.152ZM76.1413 60.9129C76.1413 65.1109 72.7251 68.5271 68.5272 68.5271H12.6902C8.49222 68.5271 5.07601 65.1109 5.07601 60.9129V20.3042C5.07601 16.1062 8.49222 12.69 12.6902 12.69H68.5272C72.7251 12.69 76.1413 16.1062 76.1413 20.3042V60.9129Z" fill="black"/>
<path d="M47.152 43.0807L57.7407 35.3879H44.652L40.6089 22.9413L36.5658 35.3879H23.4771L34.0658 43.0807L30.0201 55.5273L40.6089 47.8345L51.1976 55.5273L47.152 43.0807Z" fill="white"/>
<path opacity="0.2" d="M68.5272 12.6901H12.6902C8.48465 12.6901 5.07605 16.0987 5.07605 20.3042V22.8423C5.07605 18.6367 8.48465 15.2281 12.6902 15.2281H68.5272C72.7328 15.2281 76.1414 18.6367 76.1414 22.8423V20.3042C76.1414 16.0987 72.7328 12.6901 68.5272 12.6901Z" fill="white"/>
</svg>
