<svg width="82" height="82" viewBox="0 0 82 82" fill="none" xmlns="http://www.w3.org/2000/svg">
<path d="M25.3805 10.152H55.8371V71.0651H25.3805V10.152Z" fill="#2B65AE"/>
<path d="M12.6903 10.152H27.9186V71.0651H12.6903C7.08627 71.0651 2.53809 66.5169 2.53809 60.9129V20.3042C2.53809 14.7002 7.08627 10.152 12.6903 10.152Z" fill="#C93336"/>
<path d="M68.5273 71.0652H53.299L53.299 10.1521H68.5273C74.1313 10.1521 78.6794 14.7002 78.6794 20.3042V60.913C78.6794 66.517 74.1313 71.0652 68.5273 71.0652Z" fill="#C93336"/>
<path opacity="0.15" d="M68.5273 10.152H12.6903C7.08373 10.152 2.53809 14.6976 2.53809 20.3042V60.9129C2.53809 66.5195 7.08373 71.0651 12.6903 71.0651H68.5273C74.1339 71.0651 78.6795 66.5195 78.6795 60.9129V20.3042C78.6795 14.6976 74.1339 10.152 68.5273 10.152ZM76.1415 60.9129C76.1415 65.1109 72.7253 68.5271 68.5273 68.5271H12.6903C8.49234 68.5271 5.07613 65.1109 5.07613 60.9129V20.3042C5.07613 16.1062 8.49234 12.69 12.6903 12.69H68.5273C72.7253 12.69 76.1415 16.1062 76.1415 20.3042V60.9129Z" fill="black"/>
<path opacity="0.2" d="M68.5274 12.6901H12.6903C8.48477 12.6901 5.07617 16.0987 5.07617 20.3042V22.8423C5.07617 18.6367 8.48477 15.2281 12.6903 15.2281H68.5274C72.7329 15.2281 76.1415 18.6367 76.1415 22.8423V20.3042C76.1415 16.0987 72.7329 12.6901 68.5274 12.6901Z" fill="white"/>
<path d="M15.2282 33.4615C17.3701 33.4615 19.1064 31.7252 19.1064 29.5833C19.1064 27.4415 17.3701 25.7052 15.2282 25.7052C13.0864 25.7052 11.3501 27.4415 11.3501 29.5833C11.3501 31.7252 13.0864 33.4615 15.2282 33.4615Z" fill="#F7D448"/>
<path d="M7.61414 34.1493H11.076V50.7608H7.61414V34.1493Z" fill="#F7D448"/>
<path d="M19.3806 34.1493H22.8425V50.7608H19.3806V34.1493Z" fill="#F7D448"/>
<path d="M11.7664 34.1493H18.6901L15.2283 36.2254L11.7664 34.1493Z" fill="#F7D448"/>
<path d="M11.7664 36.9156H18.6876V38.2989H11.7664V36.9156Z" fill="#F7D448"/>
<path d="M11.7664 46.6086H18.6876V47.9919H11.7664V46.6086Z" fill="#F7D448"/>
<path d="M11.7664 48.6848H18.6901L15.2283 50.7609L11.7664 48.6848Z" fill="#F7D448"/>
<path d="M15.2283 45.9156C17.1402 45.9156 18.6901 44.3657 18.6901 42.4537C18.6901 40.5418 17.1402 38.9918 15.2283 38.9918C13.3163 38.9918 11.7664 40.5418 11.7664 42.4537C11.7664 44.3657 13.3163 45.9156 15.2283 45.9156Z" fill="#F7D448"/>
</svg>
