<svg width="82" height="82" viewBox="0 0 82 82" fill="none" xmlns="http://www.w3.org/2000/svg">
<path d="M2.53796 22.8424H78.6794V58.3751H2.53796V22.8424Z" fill="#4CA863"/>
<path d="M12.6902 10.1522H68.5272C74.1312 10.1522 78.6794 14.7004 78.6794 20.3044V25.3805H2.53796V20.3044C2.53796 14.7004 7.08614 10.1522 12.6902 10.1522Z" fill="#C02F27"/>
<path d="M68.5273 71.0653L12.6902 71.0653C7.0862 71.0653 2.53802 66.5171 2.53802 60.9131V55.837L78.6794 55.837V60.9131C78.6794 66.5171 74.1313 71.0653 68.5273 71.0653Z" fill="#C02F27"/>
<path opacity="0.15" d="M68.5272 10.1522H12.6902C7.08361 10.1522 2.53796 14.6979 2.53796 20.3044V60.9132C2.53796 66.5197 7.08361 71.0654 12.6902 71.0654H68.5272C74.1337 71.0654 78.6794 66.5197 78.6794 60.9132V20.3044C78.6794 14.6979 74.1337 10.1522 68.5272 10.1522ZM76.1413 60.9132C76.1413 65.1111 72.7251 68.5273 68.5272 68.5273H12.6902C8.49222 68.5273 5.07601 65.1111 5.07601 60.9132V20.3044C5.07601 16.1065 8.49222 12.6903 12.6902 12.6903H68.5272C72.7251 12.6903 76.1413 16.1065 76.1413 20.3044V60.9132Z" fill="black"/>
<path opacity="0.2" d="M68.5272 12.6902H12.6902C8.48465 12.6902 5.07605 16.0988 5.07605 20.3043V22.8424C5.07605 18.6368 8.48465 15.2282 12.6902 15.2282H68.5272C72.7328 15.2282 76.1414 18.6368 76.1414 22.8424V20.3043C76.1414 16.0988 72.7328 12.6902 68.5272 12.6902Z" fill="white"/>
<path d="M35.4135 33.992H39.3677L40.6088 30.2712L41.8499 33.992H45.8042L42.5479 36.3702L43.8652 40.1442L40.6088 37.8169L37.3525 40.1442L38.6698 36.3702L35.4135 33.992Z" fill="#F8D749"/>
<path d="M21.2255 32.0809C22.9869 40.926 33.0934 46.9158 43.7989 45.459C52.1084 44.3295 58.6236 38.9464 59.9916 32.0809C59.9916 42.4996 51.314 50.9462 40.6085 50.9462C29.903 50.9462 21.2255 42.4996 21.2255 32.0809Z" fill="#F8D749"/>
</svg>
