<svg width="82" height="82" viewBox="0 0 82 82" fill="none" xmlns="http://www.w3.org/2000/svg">
<path d="M68.5273 71.0653H38.0707L38.0707 10.1522L68.5273 10.1522C74.1313 10.1522 78.6794 14.7004 78.6794 20.3044V60.9131C78.6794 66.5171 74.1313 71.0653 68.5273 71.0653Z" fill="#BF2C30"/>
<path d="M12.6902 10.1522H40.6087V71.0654H12.6902C7.08614 71.0654 2.53796 66.5172 2.53796 60.9132V20.3044C2.53796 14.7004 7.08614 10.1522 12.6902 10.1522Z" fill="white"/>
<path opacity="0.15" d="M68.5272 10.1522H12.6902C7.08361 10.1522 2.53796 14.6979 2.53796 20.3044V60.9132C2.53796 66.5197 7.08361 71.0654 12.6902 71.0654H68.5272C74.1337 71.0654 78.6794 66.5197 78.6794 60.9132V20.3044C78.6794 14.6979 74.1337 10.1522 68.5272 10.1522ZM76.1413 60.9132C76.1413 65.1111 72.7251 68.5273 68.5272 68.5273H12.6902C8.49222 68.5273 5.07601 65.1111 5.07601 60.9132V20.3044C5.07601 16.1065 8.49222 12.6903 12.6902 12.6903H68.5272C72.7251 12.6903 76.1413 16.1065 76.1413 20.3044V60.9132Z" fill="black"/>
<path opacity="0.2" d="M68.5272 12.6902H12.6902C8.48465 12.6902 5.07605 16.0988 5.07605 20.3043V22.8424C5.07605 18.6368 8.48465 15.2282 12.6902 15.2282H68.5272C72.7328 15.2282 76.1414 18.6368 76.1414 22.8424V20.3043C76.1414 16.0988 72.7328 12.6902 68.5272 12.6902Z" fill="white"/>
<path d="M21.2359 23.0149C21.2333 22.9921 21.2283 22.9693 21.2257 22.949C21.1064 22.3373 20.5811 21.8551 19.9872 21.7688V17.7688H15.2638V21.7688C15.241 21.7713 15.2182 21.7764 15.1979 21.7789C14.5862 21.8982 14.104 22.4236 14.0177 23.0175H10.0177V27.7408H14.0177C14.0202 27.7636 14.0253 27.7865 14.0278 27.8068C14.1471 28.4184 14.6725 28.9007 15.2664 28.987V32.9869H19.9897V28.987C20.0125 28.9844 20.0354 28.9794 20.0557 28.9768C20.6673 28.8575 21.1496 28.3322 21.2359 27.7382H25.2358V23.0149H21.2359Z" fill="white"/>
<path d="M20.6216 33.6215H14.6293V29.4566C14.1521 29.2409 13.7613 28.8525 13.5455 28.3728H9.38062V22.3805H13.5481C13.7613 21.9034 14.1496 21.5125 14.6293 21.2968V17.1318H20.6216V21.2968C21.0988 21.5125 21.4896 21.9008 21.7054 22.3805H25.8703V28.3728H21.7054C21.4922 28.85 21.1013 29.2434 20.6216 29.4566V33.6215ZM15.8983 32.3525H19.3526V28.449L19.8831 28.3602C20.2688 28.2866 20.5607 27.982 20.6089 27.6444L20.6876 27.1013H24.5987V23.647H20.6673L20.6064 23.0937C20.5328 22.7282 20.2308 22.4414 19.8932 22.3907L19.3526 22.312V18.3983H15.8983V22.3018L15.3679 22.3907C14.9846 22.4643 14.6927 22.7688 14.6445 23.1064L14.5658 23.6495H10.6522V27.1038H14.5227L14.6344 27.6013C14.7156 28.0201 15.0176 28.3094 15.3577 28.3602L15.8983 28.4388V32.3525Z" fill="#BF2C30"/>
</svg>
