<svg width="82" height="82" viewBox="0 0 82 82" fill="none" xmlns="http://www.w3.org/2000/svg">
<path d="M25.3806 10.1522H55.8372V71.0654H25.3806V10.1522Z" fill="white"/>
<path d="M12.6905 10.1522H27.9188V71.0654H12.6905C7.08651 71.0654 2.53833 66.5172 2.53833 60.9132V20.3044C2.53833 14.7004 7.08651 10.1522 12.6905 10.1522Z" fill="#2C6748"/>
<path d="M68.5275 71.0653H53.2992L53.2992 10.1522H68.5275C74.1315 10.1522 78.6797 14.7004 78.6797 20.3044V60.9131C78.6797 66.5171 74.1315 71.0653 68.5275 71.0653Z" fill="#BE2A2C"/>
<path opacity="0.15" d="M68.5276 10.1522H12.6905C7.08397 10.1522 2.53833 14.6979 2.53833 20.3044V60.9132C2.53833 66.5197 7.08397 71.0654 12.6905 71.0654H68.5276C74.1341 71.0654 78.6797 66.5197 78.6797 60.9132V20.3044C78.6797 14.6979 74.1341 10.1522 68.5276 10.1522ZM76.1417 60.9132C76.1417 65.1111 72.7255 68.5273 68.5276 68.5273H12.6905C8.49259 68.5273 5.07638 65.1111 5.07638 60.9132V20.3044C5.07638 16.1065 8.49259 12.6903 12.6905 12.6903H68.5276C72.7255 12.6903 76.1417 16.1065 76.1417 20.3044V60.9132Z" fill="black"/>
<path opacity="0.2" d="M68.5276 12.6902H12.6906C8.48501 12.6902 5.07642 16.0988 5.07642 20.3043V22.8424C5.07642 18.6368 8.48501 15.2282 12.6906 15.2282H68.5276C72.7331 15.2282 76.1417 18.6368 76.1417 22.8424V20.3043C76.1417 16.0988 72.7331 12.6902 68.5276 12.6902Z" fill="white"/>
<path d="M47.4642 47.2357C46.2916 45.4845 45.5861 48.0454 44.3805 47.8753C44.6977 45.8195 42.4059 46.6063 41.345 47.0835L41.7638 46.4718C40.1775 47.2104 38.2917 44.6647 37.1547 46.5429C36.9136 46.0226 34.9161 44.7941 34.1065 45.7104C34.1699 43.1292 29.7334 43.2815 32.0583 45.916C33.6572 46.3703 34.5329 48.3626 36.9186 47.322C37.246 48.6672 39.5201 48.8017 40.5049 48.0758C40.3729 48.4845 40.4364 49.6545 40.4008 49.8905C41.6166 50.8651 41.6318 49.3246 42.4871 48.8398C43.7282 48.2053 48.2612 50.1139 47.4617 47.2383L47.4642 47.2357Z" fill="#3B8288"/>
<path d="M37.1166 43.8169C37.1166 43.8169 37.1262 43.8241 37.1455 43.8338C37.1286 43.8241 37.1166 43.8169 37.1166 43.8169Z" fill="#A27037"/>
<path d="M46.2308 33.0428C46.2359 31.7814 37.0431 29.0987 39.8197 33.2154C39.1649 33.3093 38.0659 32.8347 38.0126 32.322C38.0507 32.4235 37.7335 32.9515 37.6294 32.9997C37.6142 32.7459 37.5533 32.5124 37.5533 32.5124V32.5225C37.236 31.7357 37.4822 33.6215 36.9213 33.4616C37.1142 33.388 36.9365 32.5378 36.7893 32.6494C36.8832 32.7103 36.67 33.69 36.4822 33.7332C36.5964 33.5682 36.3756 32.9108 36.3248 33.0428C36.4847 33.7103 35.1827 34.492 35.3705 34.822C34.5178 35.124 34.1497 37.223 35.6751 36.7433C35.0254 36.4032 35.3325 35.553 36.1117 35.6418C36.0761 35.6342 36.2208 35.6951 36.1802 35.723C36.3807 36.6646 37.4111 35.5403 37.8172 35.3981C37.3883 37.789 36.2893 40.058 38.5482 42.4361C37.7995 41.6468 37.6624 42.5732 38.5076 42.8498C37.9974 42.8752 37.4137 43.3701 38.2918 43.6442C38.1116 43.827 37.4162 43.2965 37.7969 43.6671C37.7893 43.6645 37.7817 43.6595 37.7741 43.6569C37.7741 43.6569 37.7791 43.662 37.7893 43.6696C36.3375 43.6062 37.7258 44.1772 38.3324 44.2331C37.8401 45.0072 39.5558 44.2914 39.7233 44.2737C40.0609 45.1239 40.3273 44.3549 40.2512 43.7229C40.4923 43.9996 40.7334 44.2737 40.9796 44.5453C41.3654 44.6493 41.7867 46.3676 42.0761 45.4716C42.0862 45.4361 42.0913 45.4006 42.0964 45.365C42.67 46.0097 42.9441 46.2534 42.6928 45.2305C43.005 45.7432 43.2842 45.8904 43.203 45.2204C43.675 45.7153 43.5507 45.0427 43.5024 44.6975C43.9568 46.5021 48.5405 46.1214 48.0684 44.9082C47.2765 44.1366 42.2461 41.3169 43.5456 39.5555C44.038 39.8067 46.4796 42.8651 45.4187 41.0757C44.4771 38.6265 46.2207 41.0757 46.4796 41.9844C47.0633 43.0377 46.1547 40.1468 45.9618 40.0453C47.5735 42.058 47.4237 43.8295 46.9136 40.1138C46.977 40.2356 47.0811 40.3321 47.208 40.3803C47.1141 40.1925 47.005 40.1189 46.944 40.091C47.043 40.1138 47.1648 40.2636 47.2156 40.3829C47.2131 40.3829 47.2105 40.3829 47.208 40.3803C48.0684 44.9564 48.3806 44.1722 47.84 40.0453C49.1395 45.1721 48.9567 45.1417 48.8146 39.9514C49.746 41.2864 49.076 44.0732 49.4745 45.3447C50.1699 43.8625 49.9212 39.5047 50.3755 38.3372C49.5202 37.525 47.5506 33.2306 46.2359 33.0454L46.2308 33.0428ZM38.8984 43.8016C38.8984 43.8016 38.8984 43.7991 38.8984 43.7965H38.9035C38.9035 43.7965 38.901 43.7991 38.8984 43.8016Z" fill="#A27037"/>
<path d="M37.3476 42.0986C37.5482 40.4717 36.0812 40.695 35.0279 40.6925C32.9695 38.9666 38.8933 37.5098 36.1243 35.6342H36.1345C36.1345 35.6342 36.1142 35.6291 36.1167 35.6291L36.1345 35.6342C36.1345 35.6342 36.0761 35.5758 36.0786 35.5758C35.84 35.6139 35.4822 35.624 35.3629 35.921C35.3629 35.921 35.3705 35.9261 35.3781 35.9337L35.0583 36.3093C35.0583 36.3245 35.5913 36.6824 35.5685 36.7078C35.5888 36.7027 35.6167 36.7306 35.6319 36.7408C35.9111 37.6215 34.1472 37.9743 33.7944 38.7763C32.6649 41.0961 34.7411 41.8499 36.3908 41.8651C34.17 44.2661 34.3756 42.2153 32.8832 40.8093C33.0939 39.9108 33.4847 38.7763 32.2462 38.4032C32.2538 38.2027 31.9162 37.9946 31.8274 38.2991C31.9111 38.2128 31.6091 37.954 31.4848 38.124C31.0025 37.5073 30.4365 39.0605 31.2868 38.9032C31.3071 39.0935 31.6244 39.0047 31.6726 38.9616C31.665 39.2027 32.033 39.1773 32.0812 39.025C32.9188 39.5098 31.7106 40.4159 32.0837 41.1747C32.5787 42.0884 33.4746 42.4565 33.5025 43.6569C34.2385 44.86 37.2487 43.2686 37.3248 42.4209C37.3375 42.3219 37.3426 42.2153 37.3502 42.1087L37.3476 42.0986ZM36.703 37.1469C36.703 37.1469 36.7131 37.157 36.7157 37.1595C36.7157 37.1595 36.7055 37.1519 36.7004 37.1469H36.703Z" fill="#A9AC78"/>
<path d="M34.8882 35.3703C34.9009 35.4235 33.7233 35.6875 33.8933 35.1647C34.1167 35.2357 35.1573 34.4769 34.736 34.5632C33.5735 35.3576 33.9568 34.3779 34.34 33.7028C34.4542 33.7408 34.472 34.3017 34.4111 34.3373C34.7487 34.1114 34.6065 32.883 34.1344 33.5226C33.6725 33.3373 32.434 34.5403 33.1268 35.0327C32.8832 36.0961 33.7182 36.5454 34.6116 36.3195L34.6167 36.3043H34.6954C34.5634 36.2865 34.8908 35.4312 34.8882 35.3728V35.3703Z" fill="#A9AC78"/>
</svg>
