<svg width="82" height="82" viewBox="0 0 82 82" fill="none" xmlns="http://www.w3.org/2000/svg">
<path d="M68.5273 10.1522H12.6903C7.08338 10.1522 2.53809 14.6975 2.53809 20.3044V60.9132C2.53809 66.5201 7.08338 71.0654 12.6903 71.0654H68.5273C74.1342 71.0654 78.6795 66.5201 78.6795 60.9132V20.3044C78.6795 14.6975 74.1342 10.1522 68.5273 10.1522Z" fill="white"/>
<path d="M4.15735 14.84H77.0602C75.2557 12.0278 72.1161 10.1522 68.5273 10.1522H12.6903C9.09893 10.1522 5.9619 12.0278 4.15735 14.84Z" fill="#BC271A"/>
<path d="M2.61677 19.5227C2.59646 19.7841 2.53809 20.0354 2.53809 20.3044V24.2105H78.6795V20.3044C78.6795 20.0379 78.6211 19.7867 78.6008 19.5227H2.61677Z" fill="#BC271A"/>
<path d="M2.53809 28.8931H78.6795V33.5808H2.53809V28.8931Z" fill="#BC271A"/>
<path d="M2.53809 38.2661H78.6795V42.9539H2.53809V38.2661Z" fill="#BC271A"/>
<path d="M2.53809 47.6367H78.6795V52.3245H2.53809V47.6367Z" fill="#BC271A"/>
<path d="M2.53809 60.913C2.53809 61.1795 2.59646 61.4308 2.61677 61.6947H78.6008C78.6211 61.4333 78.6795 61.182 78.6795 60.913V57.007H2.53809V60.913Z" fill="#BC271A"/>
<path d="M77.0602 66.3776H4.15735C5.9619 69.1897 9.10146 71.0653 12.6903 71.0653H68.5273C72.1186 71.0653 75.2557 69.1897 77.0602 66.3776Z" fill="#BC271A"/>
<path d="M40.6088 10.1522H12.6903C7.08373 10.1522 2.53809 14.6979 2.53809 20.3044V47.6366H40.6088V10.1522Z" fill="#010062"/>
<path opacity="0.15" d="M68.5273 10.1522H12.6903C7.08373 10.1522 2.53809 14.6979 2.53809 20.3044V60.9132C2.53809 66.5197 7.08373 71.0654 12.6903 71.0654H68.5273C74.1339 71.0654 78.6795 66.5197 78.6795 60.9132V20.3044C78.6795 14.6979 74.1339 10.1522 68.5273 10.1522ZM76.1415 60.9132C76.1415 65.1111 72.7253 68.5273 68.5273 68.5273H12.6903C8.49234 68.5273 5.07613 65.1111 5.07613 60.9132V20.3044C5.07613 16.1065 8.49234 12.6903 12.6903 12.6903H68.5273C72.7253 12.6903 76.1415 16.1065 76.1415 20.3044V60.9132Z" fill="black"/>
<path opacity="0.2" d="M68.5273 12.6902H12.6903C8.48471 12.6902 5.07611 16.0988 5.07611 20.3043V22.8424C5.07611 18.6368 8.48471 15.2282 12.6903 15.2282H68.5273C72.7328 15.2282 76.1414 18.6368 76.1414 22.8424V20.3043C76.1414 16.0988 72.7328 12.6902 68.5273 12.6902Z" fill="white"/>
<path d="M29.5403 20.5785L30.2814 25.6495L33.1494 21.4008L31.6113 26.2942L36.0402 23.7104L32.5326 27.4515L37.6468 27.0429L32.8651 28.8931L37.6468 30.7434L32.5326 30.3347L36.0402 34.0784L31.6113 31.4921L33.1494 36.3855L30.2814 32.1368L29.5403 37.2103L28.7966 32.1368L25.9286 36.3855L27.4667 31.4921L23.0378 34.0784L26.5454 30.3347L21.4312 30.7434L26.2129 28.8931L21.4312 27.0429L26.5454 27.4515L23.0378 23.7104L27.4667 26.2942L25.9286 21.4008L28.7966 25.6495L29.5403 20.5785Z" fill="#F6CD46"/>
<path d="M25.3804 20.7841C20.9033 18.7968 15.6623 20.8171 13.675 25.2942C11.6877 29.7713 13.708 35.0124 18.1851 36.9997C20.4769 38.0149 23.0886 38.0149 25.3804 36.9997C20.9033 40.2129 14.6673 39.1875 11.4542 34.7078C8.241 30.2282 9.26637 23.9947 13.746 20.7816C17.2232 18.2867 21.9033 18.2867 25.3804 20.7816V20.7841Z" fill="#F6CD46"/>
</svg>
