<svg width="82" height="82" viewBox="0 0 82 82" fill="none" xmlns="http://www.w3.org/2000/svg">
<path d="M2.53809 30.4564H78.6795V50.7608H2.53809V30.4564Z" fill="black"/>
<path d="M12.6903 10.152H68.5273C74.1313 10.152 78.6795 14.7002 78.6795 20.3042V32.9944H2.53809V20.3042C2.53809 14.7002 7.08627 10.152 12.6903 10.152Z" fill="#307068"/>
<path d="M68.5274 71.0652L12.6903 71.0652C7.08633 71.0652 2.53815 66.517 2.53815 60.913V48.2228L78.6796 48.2228V60.913C78.6796 66.517 74.1314 71.0652 68.5274 71.0652Z" fill="#F8E34C"/>
<path d="M2.53809 27.9185H78.6795V32.9946H2.53809V27.9185Z" fill="white"/>
<path d="M2.53809 48.2229H78.6795V53.299H2.53809V48.2229Z" fill="white"/>
<path d="M5.87816 68.3926L40.6088 40.6086L5.87816 12.8246C3.8401 14.6824 2.53809 17.3322 2.53809 20.3042V60.913C2.53809 63.8876 3.8401 66.5373 5.87816 68.3926Z" fill="#C22B38"/>
<path d="M20.345 42.2026L26.1876 37.959H18.9668L16.7359 31.0911L14.5049 37.959H7.28418L13.1242 42.2026L10.8933 49.0681L16.7359 44.8244L22.5759 49.0681L20.345 42.2026Z" fill="white"/>
<path opacity="0.15" d="M68.5273 10.152H12.6903C7.08373 10.152 2.53809 14.6976 2.53809 20.3042V60.9129C2.53809 66.5195 7.08373 71.0651 12.6903 71.0651H68.5273C74.1339 71.0651 78.6795 66.5195 78.6795 60.9129V20.3042C78.6795 14.6976 74.1339 10.152 68.5273 10.152ZM76.1415 60.9129C76.1415 65.1109 72.7253 68.5271 68.5273 68.5271H12.6903C8.49234 68.5271 5.07613 65.1109 5.07613 60.9129V20.3042C5.07613 16.1062 8.49234 12.69 12.6903 12.69H68.5273C72.7253 12.69 76.1415 16.1062 76.1415 20.3042V60.9129Z" fill="black"/>
<path opacity="0.2" d="M68.5272 12.6901H12.6902C8.48465 12.6901 5.07605 16.0987 5.07605 20.3042V22.8423C5.07605 18.6367 8.48465 15.2281 12.6902 15.2281H68.5272C72.7328 15.2281 76.1414 18.6367 76.1414 22.8423V20.3042C76.1414 16.0987 72.7328 12.6901 68.5272 12.6901Z" fill="white"/>
</svg>
