<svg width="82" height="82" viewBox="0 0 82 82" fill="none" xmlns="http://www.w3.org/2000/svg">
<path d="M5.87816 68.3925L75.3394 12.8245C73.5349 11.1799 71.1593 10.152 68.5273 10.152H12.6903C7.08373 10.152 2.53809 14.6976 2.53809 20.3042V60.9129C2.53809 63.8875 3.8401 66.5372 5.87816 68.3925Z" fill="#0E2A68"/>
<path d="M75.3395 12.8246L5.87817 68.3926C7.68273 70.0372 10.0583 71.0652 12.6903 71.0652H68.5273C74.1339 71.0652 78.6795 66.5195 78.6795 60.913V20.3042C78.6795 17.3296 77.3775 14.6799 75.3395 12.8246Z" fill="#44994D"/>
<path d="M68.5273 10.152H64.4588L2.53809 59.6896V60.9129C2.53809 66.5195 7.08373 71.0651 12.6903 71.0651H16.7588L78.6795 21.5275V20.3042C78.6795 14.6976 74.1339 10.152 68.5273 10.152Z" fill="white"/>
<path d="M68.5272 10.152H68.5222L2.72583 62.7885C3.60653 67.4966 7.72578 71.0651 12.6902 71.0651H12.6953L78.4916 18.4285C77.6109 13.7205 73.4917 10.152 68.5272 10.152Z" fill="#B92831"/>
<path d="M18.6394 32.525C21.063 32.525 23.0277 30.5603 23.0277 28.1367C23.0277 25.7131 21.063 23.7484 18.6394 23.7484C16.2158 23.7484 14.2511 25.7131 14.2511 28.1367C14.2511 30.5603 16.2158 32.525 18.6394 32.525Z" fill="#F6CE46"/>
<path d="M17.2766 23.0505C17.7106 22.9338 18.1675 22.8703 18.6395 22.8703C19.1116 22.8703 19.5685 22.9338 20.0025 23.0505L18.6395 19.3602L17.2766 23.0505Z" fill="#F6CE46"/>
<path d="M23.7257 29.4997L27.416 28.1367L23.7257 26.7738L26.2383 23.7484L22.3602 24.4134L23.0252 20.5353L19.9998 23.0505C22.246 23.652 23.9033 25.7053 23.9033 28.1367C23.9033 31.0403 21.5404 33.4032 18.6369 33.4032C15.7334 33.4032 13.3704 31.0403 13.3704 28.1367C13.3704 25.7053 15.0278 23.652 17.274 23.0505L14.2486 20.5353L14.9136 24.4134L11.0354 23.7484L13.5481 26.7738L9.85779 28.1367L13.5481 29.4997L11.0354 32.525L14.9136 31.86L14.2486 35.7382L17.274 33.223L18.6369 36.9133L19.9998 33.223L23.0252 35.7382L22.3602 31.86L26.2383 32.525L23.7257 29.4997Z" fill="#F6CE46"/>
<path opacity="0.15" d="M68.5273 10.152H12.6903C7.08373 10.152 2.53809 14.6976 2.53809 20.3042V60.9129C2.53809 66.5195 7.08373 71.0651 12.6903 71.0651H68.5273C74.1339 71.0651 78.6795 66.5195 78.6795 60.9129V20.3042C78.6795 14.6976 74.1339 10.152 68.5273 10.152ZM76.1415 60.9129C76.1415 65.1109 72.7253 68.5271 68.5273 68.5271H12.6903C8.49234 68.5271 5.07613 65.1109 5.07613 60.9129V20.3042C5.07613 16.1062 8.49234 12.69 12.6903 12.69H68.5273C72.7253 12.69 76.1415 16.1062 76.1415 20.3042V60.9129Z" fill="black"/>
<path opacity="0.2" d="M68.5272 12.6901H12.6902C8.48465 12.6901 5.07605 16.0987 5.07605 20.3042V22.8423C5.07605 18.6367 8.48465 15.2281 12.6902 15.2281H68.5272C72.7328 15.2281 76.1414 18.6367 76.1414 22.8423V20.3042C76.1414 16.0987 72.7328 12.6901 68.5272 12.6901Z" fill="white"/>
</svg>
