<svg width="82" height="82" viewBox="0 0 82 82" fill="none" xmlns="http://www.w3.org/2000/svg">
<path d="M58.3751 48.2227L6.13957 12.6063C3.95432 14.4692 2.53809 17.2078 2.53809 20.3042V60.913C2.53809 66.5195 7.08373 71.0652 12.6903 71.0652H58.3751L24.8729 48.2227H58.3751Z" fill="#13348F"/>
<path d="M12.6902 68.5273C8.49226 68.5273 5.07605 65.1111 5.07605 60.9132V20.3044C5.07605 18.7308 5.58366 17.2054 6.50243 15.9263L50.1467 45.6849H16.6445L50.1467 68.5273H12.6902Z" fill="#CB2E3F"/>
<path d="M15.9312 42.228C20.1316 42.228 23.5352 38.8245 23.5352 34.624C22.8702 36.3194 21.6621 37.728 20.1189 38.6493L19.4692 38.162L20.7509 37.2027L19.2002 36.8067L20.0174 35.4311L18.4337 35.6595L18.6621 34.0758L17.2865 34.893L16.8905 33.3423L15.9312 34.624L14.9718 33.3423L14.5758 34.893L13.2002 34.0758L13.4286 35.6595L11.8449 35.4311L12.6622 36.8067L11.1114 37.2027L12.3931 38.162L11.7434 38.6493C10.2434 37.7559 9.01752 36.3753 8.32971 34.624C8.32971 38.8245 11.7307 42.228 15.9312 42.228Z" fill="white"/>
<path d="M20.9362 58.2049V58.2023L24.1012 56.8622L20.9362 55.5221L23.0073 52.7785L19.5961 53.1998L20.0149 49.7862L17.2713 51.8572L15.9312 48.6923L14.5911 51.8572L11.8449 49.7862L12.2663 53.1998L8.85513 52.7785L10.9262 55.5221L7.76123 56.8622L10.9262 58.2023V58.2049L8.85513 60.9485L12.2663 60.5272L11.8449 63.9383L14.5886 61.8673L15.9312 65.0322L17.2713 61.8673L20.0149 63.9383L19.5961 60.5272L23.0073 60.9485L20.9362 58.2049Z" fill="white"/>
</svg>
