<svg width="82" height="82" viewBox="0 0 82 82" fill="none" xmlns="http://www.w3.org/2000/svg">
<path d="M68.5276 10.152H12.6905C7.08362 10.152 2.53833 14.6973 2.53833 20.3042V60.9129C2.53833 66.5198 7.08362 71.0651 12.6905 71.0651H68.5276C74.1345 71.0651 78.6797 66.5198 78.6797 60.9129V20.3042C78.6797 14.6973 74.1345 10.152 68.5276 10.152Z" fill="#071B65"/>
<path d="M2.53833 38.0707H78.6797V43.1468H2.53833V38.0707Z" fill="#F6CA4F"/>
<path opacity="0.15" d="M68.5276 10.152H12.6905C7.08397 10.152 2.53833 14.6976 2.53833 20.3042V60.9129C2.53833 66.5195 7.08397 71.0651 12.6905 71.0651H68.5276C74.1341 71.0651 78.6797 66.5195 78.6797 60.9129V20.3042C78.6797 14.6976 74.1341 10.152 68.5276 10.152ZM76.1417 60.9129C76.1417 65.1109 72.7255 68.5271 68.5276 68.5271H12.6905C8.49259 68.5271 5.07638 65.1109 5.07638 60.9129V20.3042C5.07638 16.1062 8.49259 12.69 12.6905 12.69H68.5276C72.7255 12.69 76.1417 16.1062 76.1417 20.3042V60.9129Z" fill="black"/>
<path opacity="0.2" d="M68.5276 12.6901H12.6906C8.48501 12.6901 5.07642 16.0987 5.07642 20.3042V22.8423C5.07642 18.6367 8.48501 15.2281 12.6906 15.2281H68.5276C72.7331 15.2281 76.1417 18.6367 76.1417 22.8423V20.3042C76.1417 16.0987 72.7331 12.6901 68.5276 12.6901Z" fill="white"/>
<path d="M24.1116 60.9131L22.9618 56.3192L19.67 59.7227L20.972 55.1695L16.4187 56.4715L19.8223 53.1796L15.2284 52.0299L19.8223 50.8802L16.4187 47.5883L20.972 48.8903L19.67 44.3371L22.9618 47.7406L24.1116 43.1467L25.2613 47.7406L28.5531 44.3371L27.2511 48.8903L31.8044 47.5883L28.4009 50.8802L32.9947 52.0299L28.4009 53.1796L31.8044 56.4715L27.2511 55.1695L28.5531 59.7227L25.2613 56.3192L24.1116 60.9131Z" fill="white"/>
</svg>
