<svg width="82" height="82" viewBox="0 0 82 82" fill="none" xmlns="http://www.w3.org/2000/svg">
<path d="M68.5272 10.1522H12.6902C7.08325 10.1522 2.53796 14.6975 2.53796 20.3044V60.9132C2.53796 66.5201 7.08325 71.0654 12.6902 71.0654H68.5272C74.1341 71.0654 78.6794 66.5201 78.6794 60.9132V20.3044C78.6794 14.6975 74.1341 10.1522 68.5272 10.1522Z" fill="#071B65"/>
<path d="M16.4972 34.9591V40.6088H26.6494V34.9566L34.3575 40.6088H40.6087V37.4591L31.0605 30.4566H40.6087V20.3044H33.6544L40.6087 15.2055V10.1522H36.9513L26.6494 17.708V10.1522H16.4972V17.2435L8.2308 11.1801C6.28412 12.1294 4.70546 13.675 3.69785 15.5913L10.1242 20.3069H2.53796V30.4591H12.0886L2.53796 37.4641V40.6113H8.79171L16.4972 34.9591Z" fill="white"/>
<path d="M4.58386 14.1851L12.9213 20.3043H16.3832L5.98994 12.6775C5.47218 13.1343 5.0001 13.6343 4.58386 14.1851Z" fill="#B92831"/>
<path d="M2.53796 40.6086L16.3805 30.4564V32.9945L5.99732 40.6086H2.53796Z" fill="#B92831"/>
<path d="M24.1114 40.6088H19.0353V27.9186H2.53796V22.8425H19.0353V10.1522H24.1114V22.8425H40.6087V27.9186H24.1114V40.6088Z" fill="#B92831"/>
<path d="M40.6087 39.7634L27.9185 30.4564V32.9945L38.3016 40.6086H40.6087V39.7634Z" fill="#B92831"/>
<path d="M40.6089 10.1522H39.9794L26.1191 20.3146H29.581L40.6089 12.2283V10.1522Z" fill="#B92831"/>
<path opacity="0.15" d="M68.5272 10.1522H12.6902C7.08361 10.1522 2.53796 14.6979 2.53796 20.3044V60.9132C2.53796 66.5197 7.08361 71.0654 12.6902 71.0654H68.5272C74.1337 71.0654 78.6794 66.5197 78.6794 60.9132V20.3044C78.6794 14.6979 74.1337 10.1522 68.5272 10.1522ZM76.1413 60.9132C76.1413 65.1111 72.7251 68.5273 68.5272 68.5273H12.6902C8.49222 68.5273 5.07601 65.1111 5.07601 60.9132V20.3044C5.07601 16.1065 8.49222 12.6903 12.6902 12.6903H68.5272C72.7251 12.6903 76.1413 16.1065 76.1413 20.3044V60.9132Z" fill="black"/>
<path opacity="0.2" d="M68.5272 12.6903H12.6902C8.48465 12.6903 5.07605 16.0989 5.07605 20.3044V22.8425C5.07605 18.637 8.48465 15.2284 12.6902 15.2284H68.5272C72.7328 15.2284 76.1414 18.637 76.1414 22.8425V20.3044C76.1414 16.0989 72.7328 12.6903 68.5272 12.6903Z" fill="white"/>
<path d="M59.6314 20.4619L58.3954 24.2639H54.3979L57.6314 26.6141L56.3954 30.4161L59.6314 28.0659L62.8649 30.4161L61.6288 26.6141L64.8623 24.2639H60.8649L59.6314 20.4619Z" fill="#B92831"/>
<path d="M63.4689 31.2459L59.6314 28.4592L55.7939 31.2459L57.2609 26.7358L53.4233 23.9465H58.1669L59.6339 19.4364L61.1009 23.9465H65.8445L62.007 26.7358L63.474 31.2459H63.4689ZM59.6314 27.6749L62.2634 29.5835L61.2583 26.4922L63.8877 24.581H60.6365L59.6314 21.4871L58.6263 24.581H55.3751L58.0045 26.4922L56.9994 29.5835L59.6314 27.6749Z" fill="white"/>
<path d="M59.6314 48.4159L58.3954 52.2179H54.3979L57.6314 54.5681L56.3954 58.3701L59.6314 56.0199L62.8649 58.3701L61.6288 54.5681L64.8623 52.2179H60.8649L59.6314 48.4159Z" fill="#B92831"/>
<path d="M63.4689 59.1999L59.6314 56.4106L55.7939 59.1999L57.2609 54.6898L53.4233 51.9005H58.1669L59.6339 47.3904L61.1009 51.9005H65.8445L62.007 54.6898L63.474 59.1999H63.4689ZM59.6314 55.6289L62.2634 57.54L61.2583 54.4461L63.8877 52.535H60.6365L59.6314 49.4411L58.6263 52.535H55.3751L58.0045 54.4461L56.9994 57.54L59.6314 55.6289Z" fill="white"/>
<path d="M69.804 32.421L68.8091 35.4895H65.5833L68.1924 37.3854L67.1949 40.4514L69.804 38.5555L72.4131 40.4514L71.4182 37.3854L74.0273 35.4895H70.8015L69.804 32.421Z" fill="#B92831"/>
<path d="M73.017 41.2813L69.8039 38.9463L66.5907 41.2813L67.8166 37.5047L64.6034 35.1722H68.5729L69.7988 31.3956L71.0247 35.1722H74.9942L71.781 37.5047L73.0069 41.2813H73.017ZM69.8039 38.1621L71.8089 39.6189L71.0424 37.2611L73.0475 35.8042H70.5678L69.8013 33.4464L69.0348 35.8042H66.5551L68.5602 37.2611L67.7937 39.6189L69.7988 38.1621H69.8039Z" fill="white"/>
<path d="M50.1772 34.053L49.1797 37.1189H45.9539L48.563 39.0149L47.5681 42.0808L50.1772 40.1849L52.7863 42.0808L51.7888 39.0149L54.3979 37.1189H51.1721L50.1772 34.053Z" fill="#B92831"/>
<path d="M53.3877 42.9108L50.1746 40.5784L46.9614 42.9108L48.1873 39.1368L44.9741 36.8018H48.9436L50.1695 33.0251L51.3954 36.8018H55.3674L52.1543 39.1368L53.3801 42.9108H53.3877ZM50.1746 39.7941L52.1796 41.251L51.4131 38.8931L53.4207 37.4363H50.9411L50.1746 35.0784L49.4081 37.4363H46.9284L48.9335 38.8931L48.167 41.251L50.1746 39.7941Z" fill="white"/>
</svg>
