<svg width="82" height="82" viewBox="0 0 82 82" fill="none" xmlns="http://www.w3.org/2000/svg">
<path d="M68.5273 10.1522H12.6903C7.08338 10.1522 2.53809 14.6975 2.53809 20.3044V60.9132C2.53809 66.5201 7.08338 71.0654 12.6903 71.0654H68.5273C74.1342 71.0654 78.6795 66.5201 78.6795 60.9132V20.3044C78.6795 14.6975 74.1342 10.1522 68.5273 10.1522Z" fill="#CD312C"/>
<path d="M27.9186 50.761V71.0654H68.5273C74.1339 71.0654 78.6795 66.5197 78.6795 60.9132V50.761H27.9186Z" fill="#377D41"/>
<path d="M68.5273 10.1522H27.9186V30.4566H78.6795V20.3044C78.6795 14.6979 74.1339 10.1522 68.5273 10.1522Z" fill="white"/>
<path opacity="0.15" d="M68.5273 10.1522H12.6903C7.08373 10.1522 2.53809 14.6979 2.53809 20.3044V60.9132C2.53809 66.5197 7.08373 71.0654 12.6903 71.0654H68.5273C74.1339 71.0654 78.6795 66.5197 78.6795 60.9132V20.3044C78.6795 14.6979 74.1339 10.1522 68.5273 10.1522ZM76.1415 60.9132C76.1415 65.1111 72.7253 68.5273 68.5273 68.5273H12.6903C8.49234 68.5273 5.07613 65.1111 5.07613 60.9132V20.3044C5.07613 16.1065 8.49234 12.6903 12.6903 12.6903H68.5273C72.7253 12.6903 76.1415 16.1065 76.1415 20.3044V60.9132Z" fill="black"/>
<path opacity="0.2" d="M68.5274 12.6903H12.6903C8.48477 12.6903 5.07617 16.0989 5.07617 20.3044V22.8425C5.07617 18.637 8.48477 15.2284 12.6903 15.2284H68.5274C72.7329 15.2284 76.1415 18.637 76.1415 22.8425V20.3044C76.1415 16.0989 72.7329 12.6903 68.5274 12.6903Z" fill="white"/>
<path d="M23.4136 32.1494C21.9365 30.6139 18.8984 29.1367 17.7867 26.7763C17.7766 26.7713 17.7766 26.7586 17.7867 26.7535C17.6725 26.1469 18.0304 25.4768 18.4974 25.1621C18.5608 26.1317 19.9593 25.4413 20.4162 25.3931C20.0151 26.4312 23.175 25.7484 23.5227 25.9337C24.0633 25.9845 23.7334 24.5885 23.8197 24.3297C23.7892 23.9185 20.0101 23.6774 20.4162 24.5936C19.9492 24.685 19.8882 24.1342 19.2487 24.2104C23.6319 16.784 22.0634 16.3983 17.9492 23.6875L18.0609 23.7383C17.5304 24.5505 18.0228 22.85 17.7944 22.5099V22.2738C17.5101 22.2891 17.1091 22.1089 17.1649 21.817H17.1472V21.8119H17.0532V21.3551H16.9619V20.4312H16.868V19.8475H16.901C17.9289 18.6343 18.3654 18.8069 16.5253 17.7688C14.7335 18.784 15.1294 18.5835 16.0634 19.8475H16.0964V20.4312H16.005V21.3551H15.9137V21.8144H15.8172L15.7995 21.817C15.868 22.0327 15.5456 22.2891 15.17 22.2764V22.7002C14.8553 23.1444 15.3426 23.6088 15.1142 24.0682C15.0279 23.9515 14.9517 23.8423 14.8781 23.7383L14.9898 23.6875C10.9188 16.4693 9.2919 16.7307 13.6472 24.1342C13.0203 24.1038 13.0101 24.6215 12.5254 24.52C12.8553 23.6088 9.76398 23.987 9.4188 24.0555C8.93403 24.152 9.13454 25.3956 9.12185 25.6596C9.10408 26.0708 13.0101 26.3525 12.5254 25.3195C13.0279 25.3093 13.9619 26.0022 14.4188 25.3246C14.7157 25.4362 14.9873 25.6748 15.1167 25.9895H15.1116L15.0913 26.0098C15.1218 26.6317 12.0457 26.52 11.7995 26.52C11.8147 26.52 11.4822 26.5378 11.4848 26.5251C8.93657 26.6926 12.6193 28.3271 12.6193 28.3271C12.6193 28.3271 13.6193 28.5783 13.7335 28.5783C10.7081 30.8067 9.56855 33.7966 12.3909 31.3093C12.3909 31.3093 14.3198 29.1164 15.6091 28.7103C15.7842 28.6748 17.0583 28.2027 17.1218 28.1469C18.3147 29.355 19.5405 30.355 20.104 30.921C20.6674 31.4869 25.34 34.025 23.4161 32.1545L23.4136 32.1494Z" fill="white"/>
</svg>
