<svg width="82" height="82" viewBox="0 0 82 82" fill="none" xmlns="http://www.w3.org/2000/svg">
<path d="M12.6902 10.1522C7.08361 10.1522 2.53796 14.6979 2.53796 20.3044V40.6088H40.6087V10.1522H12.6902Z" fill="white"/>
<path d="M78.6794 20.3044C78.6794 14.6979 74.1337 10.1522 68.5272 10.1522H40.6086V40.6088H78.6794V20.3044Z" fill="#C92D25"/>
<path d="M12.6902 71.0653C7.08361 71.0653 2.53796 66.5197 2.53796 60.9131V40.6088H40.6087V71.0653H12.6902Z" fill="#081D53"/>
<path d="M78.6794 60.9131C78.6794 66.5197 74.1337 71.0653 68.5272 71.0653H40.6086V40.6088H78.6794V60.9131Z" fill="white"/>
<path opacity="0.15" d="M68.5272 10.1522H12.6902C7.08361 10.1522 2.53796 14.6979 2.53796 20.3044V60.9132C2.53796 66.5197 7.08361 71.0654 12.6902 71.0654H68.5272C74.1337 71.0654 78.6794 66.5197 78.6794 60.9132V20.3044C78.6794 14.6979 74.1337 10.1522 68.5272 10.1522ZM76.1413 60.9132C76.1413 65.1111 72.7251 68.5273 68.5272 68.5273H12.6902C8.49222 68.5273 5.07601 65.1111 5.07601 60.9132V20.3044C5.07601 16.1065 8.49222 12.6903 12.6902 12.6903H68.5272C72.7251 12.6903 76.1413 16.1065 76.1413 20.3044V60.9132Z" fill="black"/>
<path opacity="0.2" d="M68.5272 12.6903H12.6902C8.48465 12.6903 5.07605 16.0989 5.07605 20.3044V22.8425C5.07605 18.637 8.48465 15.2284 12.6902 15.2284H68.5272C72.7328 15.2284 76.1414 18.637 76.1414 22.8425V20.3044C76.1414 16.0989 72.7328 12.6903 68.5272 12.6903Z" fill="white"/>
<path d="M22.3653 16.9314L20.2689 23.3856H13.4822L18.9745 27.3755L16.8755 33.8297L22.3653 29.8399L27.8577 33.8297L25.7587 27.3755L31.2485 23.3856H24.4643L22.3653 16.9314Z" fill="#081D53"/>
<path d="M58.2151 45.6444L56.1186 52.0987H49.3319L54.8242 56.0859L52.7253 62.5402L58.2151 58.5529L63.7074 62.5402L61.6084 56.0859L67.0982 52.0987H60.314L58.2151 45.6444Z" fill="#C92D25"/>
</svg>
