<svg width="82" height="82" viewBox="0 0 82 82" fill="none" xmlns="http://www.w3.org/2000/svg">
<path d="M75.3395 68.3928L5.87817 12.8248C7.68273 11.1801 10.0583 10.1522 12.6903 10.1522H68.5273C74.1339 10.1522 78.6795 14.6979 78.6795 20.3044V60.9132C78.6795 63.8878 77.3775 66.5375 75.3395 68.3928Z" fill="#BE2A2C"/>
<path d="M5.87816 12.8248L75.3394 68.3928C73.5349 70.0375 71.1593 71.0654 68.5273 71.0654H12.6903C7.08373 71.0654 2.53809 66.5198 2.53809 60.9132V20.3045C2.53809 17.3299 3.8401 14.6801 5.87816 12.8248Z" fill="black"/>
<path opacity="0.15" d="M2.53809 20.3044V60.9132C2.53809 66.5197 7.08373 71.0654 12.6903 71.0654H68.5273C74.1339 71.0654 78.6795 66.5197 78.6795 60.9132V20.3044C78.6795 14.6979 74.1339 10.1522 68.5273 10.1522H12.6903C7.08373 10.1522 2.53809 14.6979 2.53809 20.3044ZM5.07613 20.3044C5.07613 16.1065 8.49234 12.6903 12.6903 12.6903H68.5273C72.7253 12.6903 76.1415 16.1065 76.1415 20.3044V60.9132C76.1415 65.1111 72.7253 68.5273 68.5273 68.5273H12.6903C8.49234 68.5273 5.07613 65.1111 5.07613 60.9132V20.3044Z" fill="black"/>
<path opacity="0.2" d="M12.6902 12.6903H68.5272C72.7328 12.6903 76.1414 16.0989 76.1414 20.3044V22.8425C76.1414 18.637 72.7328 15.2284 68.5272 15.2284H12.6902C8.48465 15.2284 5.07605 18.637 5.07605 22.8425V20.3044C5.07605 16.0989 8.48465 12.6903 12.6902 12.6903Z" fill="white"/>
<path d="M62.8979 37.5428C62.6517 34.2992 61.573 33.8347 61.4081 33.3398C61.2405 32.8398 61.6745 33.4718 62.04 33.6063C62.4055 33.7408 61.974 32.9083 61.8725 32.5403C61.771 32.1723 62.9715 33.3068 63.271 33.4058C63.5705 33.5048 62.573 30.6774 62.2735 30.4769C61.974 30.2764 62.573 30.5429 62.7735 30.6089C62.974 30.6748 60.9436 27.515 60.5121 27.515C60.0807 27.515 60.8776 27.3475 61.1111 27.3475C61.3446 27.3475 58.7812 25.284 58.3497 25.284C57.9182 25.284 59.2812 24.751 59.4132 24.718C59.6467 24.751 56.4512 23.0201 53.5909 24.751C53.4234 24.6191 54.9386 23.5708 54.9893 23.1216C53.9487 22.2942 54.8421 22.6318 55.2888 21.7917C55.0883 21.5252 54.7228 21.6242 54.5223 21.5582C54.6315 21.0404 55.903 20.0582 54.4233 20.3272C54.3142 20.2435 55.2863 18.9694 54.0909 19.4288C53.9234 19.3958 54.9563 17.9643 54.7558 17.7638C47.5681 20.8907 51.799 24.9033 49.6315 26.3475C48.6264 26.2891 47.827 25.048 47.0021 24.6495C46.5351 24.5175 45.4717 24.916 45.0732 24.949C44.6747 24.982 43.1087 24.6495 43.0097 24.7485C43.2534 25.0226 45.261 25.6292 45.5706 26.2789C45.8371 26.4439 48.332 27.1774 47.5351 28.2079C45.1366 28.7079 43.9133 25.4668 40.8473 29.5048C40.1925 30.4819 37.3321 35.1367 40.1824 32.0987C39.525 34.0631 40.393 32.5555 41.4463 32.2662C41.5453 32.5327 41.2458 32.7992 41.3473 33.1977C41.4793 33.3296 42.0783 32.5327 42.4793 32.3652C42.5453 32.6647 42.1138 33.2307 42.3473 33.5961C42.5148 33.6291 43.5123 32.4642 43.8448 32.3322C44.1773 32.2002 43.6773 33.4312 43.8448 33.5301C44.8574 32.9134 45.7153 30.7586 45.4742 33.4971C45.8397 33.2307 46.7711 31.9667 46.8727 31.7662C46.5833 33.8728 49.0402 36.4362 50.5655 37.256C50.766 36.8905 50.4995 36.124 50.6645 36.157C51.1315 36.657 51.9944 37.388 52.1949 37.388C52.3954 37.388 52.063 36.5885 52.3269 36.5885C52.8599 37.0885 54.3904 39.0504 57.3853 39.9489C57.1847 39.3829 56.7533 38.8829 56.7203 38.6189C56.9208 38.6519 57.6187 38.9844 57.7507 38.9514C57.8827 38.9184 56.2863 36.954 56.3853 36.69C56.7507 36.657 56.9182 36.8905 57.0502 36.723C56.8827 36.4565 55.4868 34.8931 55.4868 34.5276C55.4868 34.1621 55.9183 34.5936 56.0528 34.5276C56.1873 34.4616 55.5198 33.0631 55.6543 32.8982C55.8827 32.6088 57.8827 34.5987 57.8193 33.3576C58.8091 34.1672 60.7507 35.7179 62.0806 37.69C61.8979 40.7357 59.2558 42.9387 55.9538 41.6494C57.4259 43.7356 62.4842 42.8422 62.8497 39.0555C65.1136 43.6341 61.1898 46.5706 58.4157 45.8092C62.474 48.299 66.8902 42.3296 62.9004 37.5352L62.8979 37.5428Z" fill="#F4D24B"/>
<path d="M22.411 31.1952L23.3272 33.8297L26.1165 33.8855L23.8932 35.5708L24.7003 38.2408L22.411 36.6469L20.1217 38.2408L20.9288 35.5708L18.7054 33.8855L21.4948 33.8297L22.411 31.1952Z" fill="white"/>
<path d="M13.8425 42.8778L14.7587 45.5123L17.5481 45.5681L15.3247 47.2534L16.1318 49.9234L13.8425 48.3295L11.5532 49.9234L12.3603 47.2534L10.137 45.5681L12.9263 45.5123L13.8425 42.8778Z" fill="white"/>
<path d="M22.411 58.4563L23.3272 61.0908L26.1165 61.1466L23.8932 62.8319L24.7003 65.5019L22.411 63.908L20.1217 65.5019L20.9288 62.8319L18.7054 61.1466L21.4948 61.0908L22.411 58.4563Z" fill="white"/>
<path d="M30.2004 42.0985L31.1167 44.733L33.906 44.7888L31.6826 46.4741L32.4897 49.1441L30.2004 47.5502L27.9111 49.1441L28.7182 46.4741L26.4949 44.7888L29.2842 44.733L30.2004 42.0985Z" fill="white"/>
<path d="M26.3069 51.8372L26.7637 53.1544L28.1571 53.1823L27.0454 54.025L27.449 55.36L26.3043 54.563L25.1597 55.36L25.5632 54.025L24.4515 53.1823L25.8449 53.1544L26.3018 51.8372H26.3069Z" fill="white"/>
</svg>
