<svg width="82" height="82" viewBox="0 0 82 82" fill="none" xmlns="http://www.w3.org/2000/svg">
<path d="M2.53809 60.9132C2.53809 66.5198 7.08373 71.0654 12.6903 71.0654H68.5273C74.1339 71.0654 78.6795 66.5198 78.6795 60.9132V38.0708H2.53809V60.9132Z" fill="#BE2A2C"/>
<path d="M68.5273 10.1523H12.6903C7.08373 10.1523 2.53809 14.698 2.53809 20.3045V40.6089H78.6795V20.3045C78.6795 14.698 74.1339 10.1523 68.5273 10.1523Z" fill="#1334A3"/>
<path d="M5.87816 68.3927L40.6088 40.6087L5.87816 12.8247C3.8401 14.6826 2.53809 17.3323 2.53809 20.3043V60.9131C2.53809 63.8877 3.8401 66.5374 5.87816 68.3927Z" fill="white"/>
<path opacity="0.15" d="M68.5273 10.1523H12.6903C7.08373 10.1523 2.53809 14.698 2.53809 20.3045V60.9133C2.53809 66.5198 7.08373 71.0655 12.6903 71.0655H68.5273C74.1339 71.0655 78.6795 66.5198 78.6795 60.9133V20.3045C78.6795 14.698 74.1339 10.1523 68.5273 10.1523ZM76.1415 60.9133C76.1415 65.1112 72.7253 68.5274 68.5273 68.5274H12.6903C8.49234 68.5274 5.07613 65.1112 5.07613 60.9133V20.3045C5.07613 16.1066 8.49234 12.6904 12.6903 12.6904H68.5273C72.7253 12.6904 76.1415 16.1066 76.1415 20.3045V60.9133Z" fill="black"/>
<path opacity="0.2" d="M68.5273 12.6904H12.6903C8.48471 12.6904 5.07611 16.099 5.07611 20.3046V22.8426C5.07611 18.6371 8.48471 15.2285 12.6903 15.2285H68.5273C72.7328 15.2285 76.1414 18.6371 76.1414 22.8426V20.3046C76.1414 16.099 72.7328 12.6904 68.5273 12.6904Z" fill="white"/>
<path d="M26.8246 38.8397L22.8627 39.6265C22.7332 38.9666 22.4718 38.3524 22.1114 37.8118L25.4693 35.5682L25.4413 33.0936L22.9667 33.0657L20.7231 36.4235C20.1825 36.0606 19.5683 35.8017 18.9084 35.6722L19.6952 31.7103L17.9262 29.9819L16.1572 31.7103L16.944 35.6722C16.2841 35.8017 15.6699 36.0631 15.1293 36.4235L12.8856 33.0657L10.411 33.0936L10.3831 35.5682L13.7409 37.8118C13.378 38.3524 13.1191 38.9666 12.9897 39.6265L9.02779 38.8397L7.29938 40.6087L9.02779 42.3778L12.9897 41.591C13.1191 42.2509 13.3805 42.8651 13.7409 43.4057L10.3831 45.6493L10.411 48.1239L12.8856 48.1518L15.1293 44.794C15.6699 45.1569 16.2841 45.4158 16.944 45.5452L16.1572 49.5071L17.9262 51.2355L19.6952 49.5071L18.9084 45.5452C19.5683 45.4158 20.1825 45.1544 20.7231 44.794L22.9667 48.1518L25.4413 48.1239L25.4693 45.6493L22.1114 43.4057C22.4744 42.8651 22.7332 42.2509 22.8627 41.591L26.8246 42.3778L28.553 40.6087L26.8246 38.8397Z" fill="#F4D24B"/>
</svg>
