<svg width="82" height="82" viewBox="0 0 82 82" fill="none" xmlns="http://www.w3.org/2000/svg">
<path d="M68.5272 10.1522H12.6902C7.08325 10.1522 2.53796 14.6975 2.53796 20.3044V60.9132C2.53796 66.5201 7.08325 71.0654 12.6902 71.0654H68.5272C74.1341 71.0654 78.6794 66.5201 78.6794 60.9132V20.3044C78.6794 14.6975 74.1341 10.1522 68.5272 10.1522Z" fill="#173E1B"/>
<path d="M25.3804 10.1522H12.6902C7.08361 10.1522 2.53796 14.6979 2.53796 20.3044V60.9132C2.53796 66.5197 7.08361 71.0654 12.6902 71.0654H25.3804V10.1522Z" fill="white"/>
<path opacity="0.15" d="M68.5272 10.1522H12.6902C7.08361 10.1522 2.53796 14.6979 2.53796 20.3044V60.9132C2.53796 66.5197 7.08361 71.0654 12.6902 71.0654H68.5272C74.1337 71.0654 78.6794 66.5197 78.6794 60.9132V20.3044C78.6794 14.6979 74.1337 10.1522 68.5272 10.1522ZM76.1413 60.9132C76.1413 65.1111 72.7251 68.5273 68.5272 68.5273H12.6902C8.49222 68.5273 5.07601 65.1111 5.07601 60.9132V20.3044C5.07601 16.1065 8.49222 12.6903 12.6902 12.6903H68.5272C72.7251 12.6903 76.1413 16.1065 76.1413 20.3044V60.9132Z" fill="black"/>
<path opacity="0.2" d="M68.5272 12.6903H12.6902C8.48465 12.6903 5.07605 16.0989 5.07605 20.3044V22.8425C5.07605 18.637 8.48465 15.2284 12.6902 15.2284H68.5272C72.7328 15.2284 76.1414 18.637 76.1414 22.8425V20.3044C76.1414 16.0989 72.7328 12.6903 68.5272 12.6903Z" fill="white"/>
<path d="M66.6695 48.4514C59.8371 54.525 49.3727 53.9107 43.2967 47.0758C37.2231 40.2434 37.8373 29.779 44.6723 23.7029C44.9591 23.4491 45.2535 23.2054 45.5504 22.9745C38.2663 25.3019 32.9922 32.1241 32.9922 40.1799C32.9922 50.1544 41.0784 58.2407 51.0529 58.2407C58.3574 58.2407 64.6493 53.9031 67.4944 47.6621C67.2304 47.9311 66.9563 48.1951 66.6695 48.4514Z" fill="white"/>
<path d="M58.3345 33.7103L58.7635 38.0631L60.9741 34.289L65.2482 35.2255L62.3421 31.9565L64.5527 28.1825L60.5452 29.9362L57.6391 26.6672L58.0706 31.02L54.063 32.7738L58.3345 33.7103Z" fill="white"/>
</svg>
