<svg width="82" height="82" viewBox="0 0 82 82" fill="none" xmlns="http://www.w3.org/2000/svg">
<path d="M12.6903 10.1523H32.9947V71.0655H12.6903C7.08627 71.0655 2.53809 66.5173 2.53809 60.9133V20.3045C2.53809 14.7005 7.08627 10.1523 12.6903 10.1523Z" fill="#2B6519"/>
<path d="M68.5273 71.0654H30.4566L30.4566 10.1523L68.5273 10.1523C74.1313 10.1523 78.6794 14.7005 78.6794 20.3045V60.9132C78.6794 66.5172 74.1313 71.0654 68.5273 71.0654Z" fill="#EA3323"/>
<path opacity="0.15" d="M68.5273 10.1523H12.6903C7.08373 10.1523 2.53809 14.698 2.53809 20.3045V60.9133C2.53809 66.5198 7.08373 71.0655 12.6903 71.0655H68.5273C74.1339 71.0655 78.6795 66.5198 78.6795 60.9133V20.3045C78.6795 14.698 74.1339 10.1523 68.5273 10.1523ZM76.1415 60.9133C76.1415 65.1112 72.7253 68.5274 68.5273 68.5274H12.6903C8.49234 68.5274 5.07613 65.1112 5.07613 60.9133V20.3045C5.07613 16.1066 8.49234 12.6904 12.6903 12.6904H68.5273C72.7253 12.6904 76.1415 16.1066 76.1415 20.3045V60.9133Z" fill="black"/>
<path opacity="0.2" d="M68.5274 12.6904H12.6903C8.48477 12.6904 5.07617 16.099 5.07617 20.3046V22.8426C5.07617 18.6371 8.48477 15.2285 12.6903 15.2285H68.5274C72.7329 15.2285 76.1415 18.6371 76.1415 22.8426V20.3046C76.1415 16.099 72.7329 12.6904 68.5274 12.6904Z" fill="white"/>
<path d="M30.4566 53.2992C37.4652 53.2992 43.1468 47.6176 43.1468 40.6089C43.1468 33.6003 37.4652 27.9187 30.4566 27.9187C23.448 27.9187 17.7664 33.6003 17.7664 40.6089C17.7664 47.6176 23.448 53.2992 30.4566 53.2992Z" fill="#FFFF55"/>
<path d="M36.959 34.3375L23.9515 34.3223V43.0303C23.9617 44.7359 24.6393 46.3475 25.8627 47.5658C27.1089 48.8069 28.7358 49.4922 30.4439 49.4922C32.1799 49.4922 33.8144 48.8145 35.0453 47.5886C36.2763 46.3602 36.9565 44.7308 36.9565 42.9998V34.3375H36.959Z" fill="#EA3323"/>
</svg>
