<svg width="82" height="82" viewBox="0 0 82 82" fill="none" xmlns="http://www.w3.org/2000/svg">
<path d="M68.5274 10.1522H12.6904C7.0835 10.1522 2.53821 14.6975 2.53821 20.3044V60.9132C2.53821 66.5201 7.0835 71.0654 12.6904 71.0654H68.5274C74.1343 71.0654 78.6796 66.5201 78.6796 60.9132V20.3044C78.6796 14.6975 74.1343 10.1522 68.5274 10.1522Z" fill="#4498F7"/>
<path opacity="0.15" d="M68.5274 10.1522H12.6904C7.08385 10.1522 2.53821 14.6979 2.53821 20.3044V60.9132C2.53821 66.5197 7.08385 71.0654 12.6904 71.0654H68.5274C74.134 71.0654 78.6796 66.5197 78.6796 60.9132V20.3044C78.6796 14.6979 74.134 10.1522 68.5274 10.1522ZM76.1416 60.9132C76.1416 65.1111 72.7254 68.5273 68.5274 68.5273H12.6904C8.49247 68.5273 5.07626 65.1111 5.07626 60.9132V20.3044C5.07626 16.1065 8.49247 12.6903 12.6904 12.6903H68.5274C72.7254 12.6903 76.1416 16.1065 76.1416 20.3044V60.9132Z" fill="black"/>
<path opacity="0.2" d="M68.5274 12.6903H12.6903C8.48477 12.6903 5.07617 16.0989 5.07617 20.3044V22.8425C5.07617 18.637 8.48477 15.2284 12.6903 15.2284H68.5274C72.7329 15.2284 76.1415 18.637 76.1415 22.8425V20.3044C76.1415 16.0989 72.7329 12.6903 68.5274 12.6903Z" fill="white"/>
<path d="M35.5327 55.8372C43.9431 55.8372 50.761 49.0192 50.761 40.6089C50.761 32.1986 43.9431 25.3806 35.5327 25.3806C27.1224 25.3806 20.3044 32.1986 20.3044 40.6089C20.3044 49.0192 27.1224 55.8372 35.5327 55.8372Z" fill="#FFFF54"/>
</svg>
