<svg width="82" height="82" viewBox="0 0 82 82" fill="none" xmlns="http://www.w3.org/2000/svg">
<path d="M2.53833 27.9186H78.6797V53.2991H2.53833V27.9186Z" fill="white"/>
<path d="M12.6905 10.1522H68.5276C74.1316 10.1522 78.6797 14.7004 78.6797 20.3044V30.4566H2.53833V20.3044C2.53833 14.7004 7.08651 10.1522 12.6905 10.1522Z" fill="#C53A28"/>
<path d="M68.5275 71.0654L12.6905 71.0654C7.08645 71.0654 2.53827 66.5172 2.53827 60.9132V50.7611L78.6797 50.7611V60.9132C78.6797 66.5172 74.1315 71.0654 68.5275 71.0654Z" fill="#1334A3"/>
<path opacity="0.15" d="M68.5276 10.1522H12.6905C7.08397 10.1522 2.53833 14.6979 2.53833 20.3044V60.9132C2.53833 66.5197 7.08397 71.0654 12.6905 71.0654H68.5276C74.1341 71.0654 78.6797 66.5197 78.6797 60.9132V20.3044C78.6797 14.6979 74.1341 10.1522 68.5276 10.1522ZM76.1417 60.9132C76.1417 65.1111 72.7255 68.5273 68.5276 68.5273H12.6905C8.49259 68.5273 5.07638 65.1111 5.07638 60.9132V20.3044C5.07638 16.1065 8.49259 12.6903 12.6905 12.6903H68.5276C72.7255 12.6903 76.1417 16.1065 76.1417 20.3044V60.9132Z" fill="black"/>
<path opacity="0.2" d="M68.5276 12.6903H12.6906C8.48501 12.6903 5.07642 16.0989 5.07642 20.3044V22.8425C5.07642 18.637 8.48501 15.2284 12.6906 15.2284H68.5276C72.7331 15.2284 76.1417 18.637 76.1417 22.8425V20.3044C76.1417 16.0989 72.7331 12.6903 68.5276 12.6903Z" fill="white"/>
<path d="M40.6089 48.8575C36.0607 48.8575 32.3602 45.1571 32.3602 40.6089C32.3602 36.0607 36.0607 32.3602 40.6089 32.3602C45.1571 32.3602 48.8575 36.0607 48.8575 40.6089C48.8575 45.1571 45.1571 48.8575 40.6089 48.8575ZM40.6089 33.6293C36.7587 33.6293 33.6293 36.7587 33.6293 40.6089C33.6293 44.4591 36.7587 47.5885 40.6089 47.5885C44.4591 47.5885 47.5885 44.4591 47.5885 40.6089C47.5885 36.7587 44.4591 33.6293 40.6089 33.6293Z" fill="black"/>
</svg>
