<svg width="82" height="82" viewBox="0 0 82 82" fill="none" xmlns="http://www.w3.org/2000/svg">
<path d="M68.5274 10.1523H22.8425V71.0655H68.5274C74.1339 71.0655 78.6796 66.5198 78.6796 60.9133V20.3045C78.6796 14.698 74.1339 10.1523 68.5274 10.1523Z" fill="#801D36"/>
<path d="M25.3806 58.8829L40.6089 52.7915L25.3806 46.7002L40.6089 40.6089L25.3806 34.5176L40.6089 28.4263L25.3806 22.335L40.6089 16.2437L25.3806 10.1523H12.6904C7.08385 10.1523 2.53821 14.698 2.53821 20.3045V60.9133C2.53821 66.5198 7.08385 71.0655 12.6904 71.0655H25.3806L40.6089 64.9742L25.3806 58.8829Z" fill="white"/>
<path opacity="0.15" d="M68.5274 10.1523H12.6904C7.08385 10.1523 2.53821 14.698 2.53821 20.3045V60.9133C2.53821 66.5198 7.08385 71.0655 12.6904 71.0655H68.5274C74.134 71.0655 78.6796 66.5198 78.6796 60.9133V20.3045C78.6796 14.698 74.134 10.1523 68.5274 10.1523ZM76.1416 60.9133C76.1416 65.1112 72.7254 68.5274 68.5274 68.5274H12.6904C8.49247 68.5274 5.07626 65.1112 5.07626 60.9133V20.3045C5.07626 16.1066 8.49247 12.6904 12.6904 12.6904H68.5274C72.7254 12.6904 76.1416 16.1066 76.1416 20.3045V60.9133Z" fill="black"/>
<path opacity="0.2" d="M68.5274 12.6904H12.6903C8.48477 12.6904 5.07617 16.099 5.07617 20.3046V22.8426C5.07617 18.6371 8.48477 15.2285 12.6903 15.2285H68.5274C72.7329 15.2285 76.1415 18.6371 76.1415 22.8426V20.3046C76.1415 16.099 72.7329 12.6904 68.5274 12.6904Z" fill="white"/>
</svg>
