<svg width="82" height="82" viewBox="0 0 82 82" fill="none" xmlns="http://www.w3.org/2000/svg">
<path d="M2.53833 27.9185H78.6797V53.2989H2.53833V27.9185Z" fill="#1A3D73"/>
<path d="M12.6905 10.1521H68.5276C74.1316 10.1521 78.6797 14.7003 78.6797 20.3043V30.4565H2.53833V20.3043C2.53833 14.7003 7.08651 10.1521 12.6905 10.1521Z" fill="#B8403F"/>
<path d="M68.5275 71.0652L12.6905 71.0652C7.08645 71.0652 2.53827 66.517 2.53827 60.913V50.7608L78.6797 50.7608V60.913C78.6797 66.517 74.1315 71.0652 68.5275 71.0652Z" fill="white"/>
<path opacity="0.15" d="M68.5276 10.1521H12.6905C7.08397 10.1521 2.53833 14.6977 2.53833 20.3043V60.913C2.53833 66.5196 7.08397 71.0652 12.6905 71.0652H68.5276C74.1341 71.0652 78.6797 66.5196 78.6797 60.913V20.3043C78.6797 14.6977 74.1341 10.1521 68.5276 10.1521ZM76.1417 60.913C76.1417 65.111 72.7255 68.5272 68.5276 68.5272H12.6905C8.49259 68.5272 5.07638 65.111 5.07638 60.913V20.3043C5.07638 16.1064 8.49259 12.6901 12.6905 12.6901H68.5276C72.7255 12.6901 76.1417 16.1064 76.1417 20.3043V60.913Z" fill="black"/>
<path opacity="0.2" d="M68.5276 12.6902H12.6906C8.48501 12.6902 5.07642 16.0988 5.07642 20.3043V22.8424C5.07642 18.6368 8.48501 15.2282 12.6906 15.2282H68.5276C72.7331 15.2282 76.1417 18.6368 76.1417 22.8424V20.3043C76.1417 16.0988 72.7331 12.6902 68.5276 12.6902Z" fill="white"/>
<path d="M34.6929 23.9161C35.2183 23.8399 35.033 23.015 34.5254 23.1724C34.7361 22.8247 34.2741 22.4237 33.9594 22.68C34.028 22.312 33.5254 22.0861 33.2945 22.3704C33.3579 22.0074 32.863 21.7816 32.632 22.0633C32.6168 21.7384 32.1726 21.5937 31.9671 21.8425C31.9214 21.5049 31.3579 21.279 31.0787 21.4592C31.0661 21.1318 30.6194 20.9821 30.4138 21.2333C30.3985 20.8983 29.9341 20.7613 29.7361 21.0252C29.665 20.7105 29.193 20.647 29.0407 20.9313C28.9544 20.6039 28.4569 20.5709 28.3275 20.8831C28.2336 20.6547 27.896 20.5861 27.7209 20.7638C27.8123 20.2613 27.4569 19.7435 26.9544 19.6496C26.9823 19.3933 26.8326 19.2181 27.2057 19.2689C27.325 19.7511 28.0762 18.9999 27.5915 18.8831C27.5686 18.6648 27.2311 18.6648 27.2057 18.8831C26.8732 18.9161 26.9646 18.84 26.9544 18.576C27.325 18.4745 26.9696 18.0633 26.7615 18.0227C26.5534 18.0633 26.1981 18.4745 26.5686 18.576C26.561 18.845 26.6473 18.9136 26.3174 18.8831C26.292 18.6648 25.9544 18.6674 25.9341 18.8831C25.561 18.9821 25.9164 19.3958 26.127 19.4364C26.3529 19.4009 26.2514 19.2105 26.5712 19.2689C26.7006 19.9313 25.6422 19.7105 25.8047 20.7638C25.6296 20.5861 25.292 20.6547 25.1981 20.8831C25.0712 20.5709 24.5712 20.6039 24.4849 20.9313C24.3326 20.647 23.8605 20.7105 23.7895 21.0252C23.5915 20.7587 23.127 20.8983 23.1118 21.2333C22.9062 20.9821 22.457 21.1318 22.4468 21.4592C22.1677 21.279 21.6042 21.5049 21.5585 21.8425C21.3529 21.5937 20.9088 21.7409 20.8936 22.0633C20.6601 21.7841 20.1651 22.0074 20.2311 22.3704C19.9976 22.0861 19.4976 22.312 19.5662 22.68C19.254 22.4237 18.7895 22.8247 19.0002 23.1724C18.49 23.015 18.3073 23.8424 18.8327 23.9161C18.49 24.0683 18.5915 24.6267 18.9723 24.6394C18.7743 24.8856 18.9875 25.2841 19.3047 25.2485C19.1575 25.4617 19.2768 25.6572 19.2997 25.8932C19.3936 26.1165 19.6144 25.9947 19.7591 26.0455C20.0154 26.9439 20.6448 27.5378 21.0839 28.3754C20.8225 28.4541 20.9291 28.7383 21.1651 28.6927C21.1702 28.685 21.188 28.7942 21.188 28.7942C21.0281 29.0353 20.7743 29.6749 21.2235 29.8018C21.4367 30.1876 21.5027 29.9236 21.2996 30.2739C22.8326 30.8931 25.0204 30.5353 26.7615 30.6825C28.5026 30.5353 30.693 30.8906 32.2234 30.2739C32.0077 29.9109 32.1041 30.185 32.3021 29.8018C32.7386 29.6876 32.5026 29.0302 32.3376 28.7942C32.3376 28.7612 32.3478 28.6647 32.4011 28.6952C32.6193 28.7104 32.6828 28.4439 32.4442 28.3779C32.8833 27.5404 33.5127 26.9465 33.7691 26.048C33.9112 25.9972 34.1396 26.1191 34.2285 25.8957C34.2564 25.6572 34.3681 25.4643 34.2234 25.2511C34.5406 25.2841 34.7538 24.8881 34.5559 24.6419C34.9366 24.6267 35.0381 24.0683 34.6955 23.9186L34.6929 23.9161Z" fill="#E6BD4C"/>
<path d="M36.1192 30.5403V45.7787C36.1192 48.2736 35.0101 50.7152 33.3451 52.4893C31.6802 54.2634 29.3528 55.4842 26.7589 55.4842C24.165 55.4842 21.8376 54.2634 20.1726 52.4893C18.5077 50.7152 17.3986 48.2736 17.3986 45.7787V30.5403H36.1167H36.1192Z" fill="#B8403F"/>
<path d="M26.7588 55.5528C24.3045 55.5528 21.9467 54.4818 20.1218 52.5376C18.3477 50.6442 17.33 48.1823 17.33 45.7813V30.4744H36.1876V45.7813C36.1876 48.1823 35.1699 50.6468 33.3958 52.5376C31.5709 54.4843 29.2156 55.5528 26.7588 55.5528ZM17.4695 30.6114V45.7813C17.4695 48.1468 18.4746 50.5757 20.2233 52.4437C22.0203 54.3599 24.3426 55.4158 26.7588 55.4158C29.175 55.4158 31.4973 54.3599 33.2943 52.4437C35.043 50.5782 36.0481 48.1493 36.0481 45.7813V30.6114H17.4695Z" fill="white"/>
<path d="M35.6902 36.1468C35.5532 34.0021 34.2639 30.7686 32.4187 31.4844C33.5811 34.1265 32.4618 34.6163 30.4289 37.0249C30.3197 36.964 29.5025 36.9869 30.0532 36.7356C29.2969 36.3524 28.1548 34.8955 29.0456 33.9564C29.4974 33.8194 30.1015 34.3803 30.3476 33.7813C30.9898 33.7534 31.4644 33.4641 31.4771 32.9793C31.0126 33.5072 30.4847 33.525 29.9213 33.3118C29.4746 33.1925 29.3426 33.2458 29.7157 32.9666C30.2284 33.096 30.0735 32.6747 30.4339 32.6849C30.7563 32.6849 30.6725 33.4488 31.0253 33.0275C32.3705 31.8092 31.3375 31.4336 30.4263 31.1874C29.8096 30.7585 27.835 31.9082 27.2208 31.8397C27.0837 32.2001 27.2005 32.5351 27.5456 32.4971C27.1091 33.2179 26.8807 33.9514 26.7614 35.0376C26.8858 33.9412 25.7589 32.7813 26.2665 32.4057C26.6345 31.4996 25.7842 31.9945 24.8985 31.4387C23.3122 30.5758 20.4797 31.6138 22.7132 33.1569C23.1523 32.19 23.132 33.0123 23.8096 32.9641C24.4568 33.4717 22.3426 33.5935 22.033 33.0072C22.0863 33.6392 23.0685 33.7661 23.5178 34.0478C24.637 33.563 25.0634 34.6874 24.6548 35.5148C24.2436 36.2178 23.7868 36.4589 23.467 36.7762C24.0254 36.8828 23.1523 37.0224 23.0939 37.0224C21.9188 35.7178 19.7132 33.5377 20.8883 32.2255C21.8198 29.7864 17.8275 32.629 17.9721 35.1899C17.1676 38.9665 18.9264 44.535 18.3046 48.4969C19.2792 48.4868 19.2589 47.1619 19.6904 48.4411C20.1066 48.1923 20.33 47.6619 20.4391 47.0477C20.6371 47.7127 20.8833 46.9792 21.033 46.6746C21.5508 46.535 21.7868 45.3497 21.797 44.6822C22.1295 45.4284 22.5305 44.0299 22.4543 43.4716C22.9924 44.7584 21.7868 46.5274 21.0711 47.2812C21.3909 47.5071 22.0888 47.3142 22.3427 47.0071C22.1675 47.5731 22.1193 48.3573 22.8198 47.6949C22.8503 48.5121 23.335 48.2101 23.6015 47.4715C24.203 48.5172 23.9645 47.1238 24.4645 46.4386C25.7157 47.6568 24.5914 48.4132 24.5228 49.5959C24.9162 50.1289 23.5482 50.8751 23.8503 51.5324C24.6091 52.1085 22.3477 53.6035 23.5482 54.0755C23.7792 54.1314 24.1218 54.3141 24.2081 53.9588C24.1269 54.4232 25.0457 54.6263 25.2056 54.243C25.2639 54.639 26.1446 54.7303 26.2462 54.3217C26.2893 54.7354 27.2233 54.738 27.269 54.3217C27.368 54.7303 28.2512 54.639 28.3096 54.2405C28.467 54.6238 29.3883 54.4232 29.3096 53.9588C29.3984 54.3116 29.7436 54.1288 29.9746 54.0705C30.939 53.6085 29.5253 52.4664 29.434 51.672C30.2284 51.2811 29.0101 50.3141 28.8401 49.7304C29.3933 49.2558 28.4974 48.4233 28.3654 47.8116C28.7918 46.1416 29.3629 46.4995 29.5456 47.9309C30.0279 47.1137 30.0735 48.1162 30.5101 48.2329C30.7817 47.1695 31.5811 48.7989 31.1751 47.002C31.4289 47.3091 32.1268 47.502 32.4466 47.2761C31.7309 46.5198 30.5279 44.7558 31.0634 43.4665C30.9898 44.0249 31.3883 45.4259 31.7207 44.6771C31.7309 45.3472 31.9669 46.5325 32.4847 46.6695C32.6319 46.969 32.8781 47.7101 33.0786 47.0426C33.1877 47.6568 33.4111 48.1847 33.8273 48.436C34.2562 47.1441 34.241 48.4918 35.2131 48.4918C34.6344 44.9792 36.1192 39.4285 35.6852 36.1392L35.6902 36.1468Z" fill="white"/>
</svg>
