<svg width="82" height="82" viewBox="0 0 82 82" fill="none" xmlns="http://www.w3.org/2000/svg">
<path d="M2.53833 60.9132C2.53833 66.5198 7.08397 71.0654 12.6905 71.0654H68.5276C74.1341 71.0654 78.6797 66.5198 78.6797 60.9132V53.2991H2.53833V60.9132Z" fill="#305F3E"/>
<path d="M2.53833 38.0708H78.6797V55.8371H2.53833V38.0708Z" fill="#F4D548"/>
<path d="M68.5276 10.1523H12.6905C7.08397 10.1523 2.53833 14.698 2.53833 20.3045V40.6089H78.6797V20.3045C78.6797 14.698 74.1341 10.1523 68.5276 10.1523Z" fill="#4AA2DC"/>
<path opacity="0.15" d="M68.5276 10.1523H12.6905C7.08397 10.1523 2.53833 14.698 2.53833 20.3045V60.9133C2.53833 66.5198 7.08397 71.0655 12.6905 71.0655H68.5276C74.1341 71.0655 78.6797 66.5198 78.6797 60.9133V20.3045C78.6797 14.698 74.1341 10.1523 68.5276 10.1523ZM76.1417 60.9133C76.1417 65.1112 72.7255 68.5274 68.5276 68.5274H12.6905C8.49259 68.5274 5.07638 65.1112 5.07638 60.9133V20.3045C5.07638 16.1066 8.49259 12.6904 12.6905 12.6904H68.5276C72.7255 12.6904 76.1417 16.1066 76.1417 20.3045V60.9133Z" fill="black"/>
<path opacity="0.2" d="M68.5276 12.6904H12.6906C8.48501 12.6904 5.07642 16.099 5.07642 20.3046V22.8426C5.07642 18.6371 8.48501 15.2285 12.6906 15.2285H68.5276C72.7331 15.2285 76.1417 18.6371 76.1417 22.8426V20.3046C76.1417 16.099 72.7331 12.6904 68.5276 12.6904Z" fill="white"/>
<path d="M62.5961 27.5178L70.2204 27.0736L62.5961 26.6295L69.8448 24.2259L62.3651 25.7691L68.7458 21.5737L61.921 25L66.9971 19.2971L61.2941 24.3731L64.7205 17.5483L60.5251 23.929L62.0682 16.4494L59.6647 23.698L59.2205 16.0737L58.7763 23.698L56.3754 16.4494L57.9185 23.929L53.7231 17.5483L57.1495 24.3731L51.4439 19.2971L56.52 25L49.6977 21.5737L56.0759 25.7691L48.5988 24.2259L55.8449 26.6295L48.2231 27.0736L55.8449 27.5178L48.5988 29.9188L56.0759 28.3756L49.6977 32.571L56.52 29.1447L51.4439 34.8502L57.1495 29.7741L53.7231 36.5964L57.9185 30.2183L56.3754 37.6954L58.7763 30.4492L59.2205 38.071L59.6647 30.4492L62.0682 37.6954L60.5251 30.2183L64.7205 36.5964L61.2941 29.7741L66.9971 34.8502L61.921 29.1447L68.7458 32.571L62.3651 28.3756L69.8448 29.9188L62.5961 27.5178Z" fill="#F4D548"/>
</svg>
