<svg width="82" height="82" viewBox="0 0 82 82" fill="none" xmlns="http://www.w3.org/2000/svg">
<path d="M68.5273 10.1521H12.6903C7.08338 10.1521 2.53809 14.6974 2.53809 20.3043V60.913C2.53809 66.5199 7.08338 71.0652 12.6903 71.0652H68.5273C74.1342 71.0652 78.6795 66.5199 78.6795 60.913V20.3043C78.6795 14.6974 74.1342 10.1521 68.5273 10.1521Z" fill="#215230"/>
<path opacity="0.15" d="M68.5273 10.1521H12.6903C7.08373 10.1521 2.53809 14.6977 2.53809 20.3043V60.913C2.53809 66.5196 7.08373 71.0652 12.6903 71.0652H68.5273C74.1339 71.0652 78.6795 66.5196 78.6795 60.913V20.3043C78.6795 14.6977 74.1339 10.1521 68.5273 10.1521ZM76.1415 60.913C76.1415 65.111 72.7253 68.5272 68.5273 68.5272H12.6903C8.49234 68.5272 5.07613 65.111 5.07613 60.913V20.3043C5.07613 16.1064 8.49234 12.6901 12.6903 12.6901H68.5273C72.7253 12.6901 76.1415 16.1064 76.1415 20.3043V60.913Z" fill="black"/>
<path opacity="0.2" d="M68.5272 12.6902H12.6902C8.48465 12.6902 5.07605 16.0988 5.07605 20.3043V22.8424C5.07605 18.6368 8.48465 15.2282 12.6902 15.2282H68.5272C72.7328 15.2282 76.1414 18.6368 76.1414 22.8424V20.3043C76.1414 16.0988 72.7328 12.6902 68.5272 12.6902Z" fill="white"/>
<path d="M64.644 38.0911C64.9105 36.8068 63.0806 30.0429 64.4105 31.0861C64.5907 30.6191 63.6796 29.5023 63.4207 28.8958C62.5019 31.7054 64.6136 37.2231 63.9283 40.9489C63.408 42.0428 59.8496 43.355 59.0121 43.8271C60.8902 44.3804 65.3597 42.1748 64.644 38.0911Z" fill="white"/>
<path d="M26.6622 40.6188C27.1419 39.7507 27.2459 38.8142 27.1774 37.7787C27.9008 37.4843 28.7637 36.9944 29.053 36.9589C28.8551 37.6391 29.3271 38.3726 30.284 38.2787C30.4743 43.7177 31.1622 42.5807 30.8804 38.1239C31.4997 37.8371 31.6038 37.2838 31.8347 37.0477C33.1774 39.2482 35.1393 36.3371 33.9109 35.1391C33.8982 35.2381 33.6114 36.1924 33.6114 36.1924C33.6114 36.1924 33.8855 36.4817 33.8982 36.6239C33.6012 36.9792 32.2383 36.7381 32.322 36.1873C32.388 36.0376 32.7078 35.266 32.251 35.7254C31.8373 36.1467 31.6241 37.0401 30.7941 37.1924C30.8474 35.3193 29.7865 31.9209 30.2916 30.7991C30.7637 31.3904 30.7713 30.9742 30.482 30.393C30.0023 29.5376 29.7535 27.9031 29.2916 29.6747C29.7713 31.6696 29.8424 34.9488 30.1774 37.1924C29.2612 37.0147 29.548 36.3675 29.5581 35.9513C29.4337 35.8675 27.7865 36.7457 27.1013 36.9564C27.0201 36.2609 26.9185 35.634 26.8754 35.1188C29.4439 34.8726 28.4566 31.7838 27.9261 30.3397C27.9896 30.2534 28.6799 30.8397 28.2637 30.1468C27.6267 29.3422 27.3551 28.4184 27.0531 29.9463C27.4515 30.6925 27.817 32.7102 28.1977 33.5503C27.9363 33.7356 27.3424 34.0452 26.7536 34.0275C26.8018 33.1442 26.0404 31.0529 26.6343 30.898C27.0429 31.3676 27.1038 31.1645 26.817 30.5782C26.3221 29.8244 25.9312 27.9184 25.5784 29.7635C26.0023 30.6341 25.8221 31.9006 26.1038 33.8473C24.4998 32.9894 25.7663 30.3321 24.449 29.063C24.3881 29.2077 24.1191 30.1036 24.1191 30.1036C25.4262 31.9564 23.2612 36.0503 21.1496 33.4818C20.9008 32.1011 22.3577 27.7204 20.2968 31.0529C19.8907 32.3955 18.8882 36.4691 17.7257 33.4056C17.4998 32.5528 17.9745 30.1569 17.4339 32.129C17.1318 32.8726 17.5481 35.7914 18.8729 35.4488C20.0683 34.8066 20.1115 31.761 21.0404 30.997C19.2029 34.8802 23.5201 37.5934 24.6673 32.8929C24.7003 33.6214 25.2358 34.7939 26.2206 35.0452C26.2789 35.6239 26.3729 36.3777 26.4592 37.1721C26.2764 37.2279 26.0937 37.2787 25.9084 37.3218C24.3729 33.3219 20.7841 39.5858 25.4541 38.3396C25.515 38.5223 25.5556 38.7025 25.5607 38.865C23.3983 41.8776 15.4948 41.8726 20.6521 36.6086C20.8196 36.6696 21.1369 36.9817 21.1089 37.0097C21.2942 36.7254 21.3881 36.4208 20.8805 36.2279C21.7181 34.0046 18.6597 35.8244 20.5252 36.53C20.147 36.9259 19.2562 37.5071 18.7105 37.8472C18.2866 38.0858 16.9846 38.8802 16.6724 39.0629C16.5278 39.3269 17.8273 38.5223 18.2206 38.3878C14.444 45.5857 24.0937 44.4284 26.6622 40.6188ZM18.5201 38.2381C18.7892 38.1036 19.0455 37.9741 19.2562 37.8574C15.7968 43.8573 25.9008 42.4563 26.0175 38.1898C26.1927 38.1365 26.3678 38.0782 26.5454 38.0173C26.6064 38.6645 26.6495 39.299 26.652 39.8523C25.7257 40.9411 23.5988 42.2076 21.7155 42.7228C18.2435 43.8218 17.0151 40.271 18.5201 38.2406V38.2381Z" fill="white"/>
<path d="M41.4767 42.1596C42.0909 41.4819 46.3371 40.3296 47.0579 39.9667C47.1213 39.7865 47.4335 39.152 47.4538 39.02C46.0401 39.1469 42.1518 39.3601 40.6011 39.2814C40.9209 39.0073 42.4691 38.2104 43.601 37.8753C43.7076 38.0631 43.7863 38.251 43.8015 38.4134C43.8828 38.3296 43.9437 38.053 43.9234 37.7713C44.667 37.5352 45.0477 37.4566 45.2127 37.4109C45.3168 37.2764 45.502 36.7307 45.5299 36.3322C44.6188 34.6596 41.7178 35.2002 43.101 37.1495C41.9412 37.6368 39.9995 38.5225 39.4463 39.322L39.3574 39.3652C39.3346 39.4083 39.1823 40.0403 39.1315 40.2357C38.4666 38.251 38.2661 35.6723 37.1138 34.9236C36.4869 36.2078 38.4006 38.7611 38.426 40.1418C38.0656 40.9794 33.3727 44.6012 32.5656 42.525C35.4438 41.4311 38.4133 39.5174 35.9564 36.7154C35.9311 36.6114 36.2483 36.7586 36.4336 36.7662C36.5681 36.4794 35.5503 35.8855 35.2965 35.5987C35.0707 35.5581 35.0351 36.3677 35.0377 36.5632C35.3498 37.0175 36.2864 38.8144 36.525 39.3601C36.1722 39.8093 34.4006 40.7636 32.6722 41.5504C32.6849 41.1037 33.723 39.8855 33.4311 39.5555C32.7128 40.8626 32.6138 38.7357 33.1214 38.3246C33.6316 36.6951 31.4387 40.7382 32.893 40.6012C32.7407 40.8905 32.5529 41.2433 32.4184 41.6646C30.4083 42.6012 27.3423 43.492 26.0022 43.9311C26.0758 43.6925 26.0657 43.4895 25.987 43.5504C24.6114 45.1671 25.9438 41.4946 25.7433 41.8499C24.9768 42.4337 24.5251 45.8854 25.9641 44.0352C27.0809 43.7839 30.8321 43.5199 32.2357 42.6799C32.4489 46.4844 38.9031 41.9261 38.6138 39.9844C38.7762 42.2839 40.0097 43.8905 43.3015 44.0682C43.3092 43.8068 43.2051 42.9895 43.2051 42.9895C42.7889 42.9311 41.7356 42.7712 41.4792 42.1621L41.4767 42.1596ZM39.1595 40.3068C39.8117 40.3195 43.3599 40.2256 44.035 40.2053C42.7889 40.6393 41.063 40.8931 41.1417 42.6418C40.1188 42.4108 39.5579 41.4641 39.1595 40.3068Z" fill="white"/>
<path d="M32.5429 35.0682C33.7079 34.4438 33.7663 31.52 34.7104 30.7916C32.7688 34.5301 37.3754 36.9971 38.2738 32.4845C39.0911 36.8017 43.8068 34.1088 41.5784 30.7307C40.9667 29.3373 42.1571 30.789 41.7459 29.883C41.1088 29.0809 40.8373 28.1545 40.5352 29.6824C40.9413 30.421 41.3398 32.4362 41.6799 33.2865C38.2307 35.1139 39.3271 30.3271 38.0556 28.6545C37.9947 28.7992 37.7256 29.6951 37.7256 29.6951C39.8525 34.4743 32.9439 35.6443 35.1927 30.0429C34.0582 28.2104 33.5708 34.2484 32.2866 34.1393C31.2435 34.1393 31.2384 31.822 31.378 31.3296C30.6369 31.3779 31.01 35.525 32.5429 35.0682Z" fill="white"/>
<path d="M60.3471 36.1239C60.4918 38.5325 60.7227 40.8244 60.644 42.53C61.5298 41.6264 61.0374 38.7381 61.0121 36.8879C62.1237 38.2051 63.3445 39.7127 63.611 41.1467C63.644 41.2381 63.7861 40.8676 63.7633 40.2889C63.8851 39.2737 62.0755 36.959 60.9334 35.7509C61.0806 34.5808 60.0171 31.525 60.644 30.8423C61.0527 31.3143 61.1136 31.1088 60.8268 30.5225C60.3344 29.7509 59.9715 27.9616 59.6187 29.7661C60.0501 30.6976 59.9588 32.926 60.2532 34.9869C59.276 33.8955 58.6618 33.2433 58.1517 32.6874C58.1796 32.2077 57.6923 30.6773 58.1948 30.8702C58.6035 31.3397 58.6644 31.1367 58.3776 30.5479C57.8573 29.7255 57.4943 27.9489 57.1314 29.822C57.469 30.3118 57.3167 30.8803 57.4588 31.8879C56.6974 30.7661 55.7228 30.2966 57.0324 30.4209C56.4943 30.0428 54.4208 28.0885 54.969 29.9869C55.7431 30.3499 56.5679 32.0631 57.5629 33.0123C57.7228 35.162 58.2177 38.6493 58.2938 40.6645C56.2405 42.4691 55.8573 40.6924 54.6771 40.0401C54.6822 39.4691 54.6644 38.9133 54.6644 38.5858C54.9436 37.3041 53.1949 30.1494 54.5603 31.2052C54.4538 30.6215 53.3751 27.6164 53.1187 29.7966C53.6898 31.7585 53.7659 35.8701 54.0604 38.5833C54.0883 38.8397 54.1213 39.3219 54.1492 39.8447C54.1441 39.8447 54.139 39.8396 54.139 39.8396C52.4538 40.3219 51.6898 45.5883 49.8218 42.5452C53.2076 40.0021 50.8624 34.1163 50.6518 30.8372C50.6721 30.6291 51.0045 31.1215 51.1771 31.157C51.3015 30.6824 50.4639 29.4565 50.1645 28.8423C48.9563 31.3093 52.0705 36.7356 50.8853 40.063C51.0401 38.4666 49.1467 36.53 47.7863 35.2838C47.9081 34.6062 46.4691 29.8829 47.7254 31.2001C47.8396 31.1418 47.7127 30.794 47.5553 30.4844C47.0528 29.6443 46.7635 28.0098 46.3472 29.7915C46.6949 30.2306 46.8472 33.9032 47.0756 34.624C46.2711 33.6849 42.3676 30.9133 44.2254 31.1671C44.2102 31.1164 44.129 30.9945 43.9234 30.8702C43.2229 30.6418 41.7077 28.8702 42.162 30.7331C42.2584 30.7407 42.431 30.8575 42.5554 31.0047C43.5173 32.3194 45.7609 34.4818 47.233 35.7915C47.7939 42.8371 48.7533 44.7914 47.9386 36.4691C49.1086 37.6595 50.4639 38.9463 50.738 40.4412C50.4919 40.9513 50.134 41.4056 49.6086 41.7736C49.4614 40.8117 49.6213 40.0325 49.4817 39.9589C49.1898 40.1366 49.2761 41.3701 49.332 41.964C45.1975 44.1873 44.5274 44.7254 49.4919 42.7533C51.2152 47.0832 52.3573 41.7178 54.0705 40.766C54.1162 40.8066 54.1543 40.8295 54.1999 40.8676C54.2177 41.4132 54.2203 41.8802 54.1974 42.0325C54.4258 42.03 54.5502 41.6772 54.6162 41.195C59.6085 45.0959 58.9233 37.7153 58.309 33.8651C59.1466 34.8397 59.6847 35.4082 60.3547 36.1189L60.3471 36.1239Z" fill="white"/>
<path d="M56.2406 52.436H52.4335C52.7254 52.2254 52.8802 51.9157 52.8371 51.6061C52.8117 51.4107 52.6163 51.2635 52.3777 51.2432H52.2584C51.9691 51.2711 51.7609 51.4792 51.7914 51.7076L51.8041 51.7965L51.8193 51.931C51.8345 52.101 51.8193 52.2711 51.7711 52.436H23.6368C24.0556 53.0452 24.817 53.4157 25.6394 53.4157L51.3142 53.4005C51.0198 53.6112 50.8675 53.9208 50.9082 54.233C50.9386 54.4614 51.1975 54.6238 51.4843 54.5959C51.7736 54.568 51.9818 54.3599 51.9513 54.1315L51.9386 54.0426L51.9234 53.9081C51.9081 53.7381 51.9234 53.568 51.9716 53.4005H55.1391L55.2279 53.5477C55.3066 53.6822 55.4081 53.8015 55.5249 53.9081L55.6873 54.0426C56.0071 54.266 56.4157 54.398 56.8446 54.398C57.2507 54.398 57.5781 54.1162 57.5781 53.7685V53.5858C57.5781 52.9513 56.9766 52.436 56.2355 52.436H56.2406Z" fill="white"/>
</svg>
