<svg width="82" height="82" viewBox="0 0 82 82" fill="none" xmlns="http://www.w3.org/2000/svg">
<path d="M5.87816 68.3929L75.3394 12.8249C73.5349 11.1803 71.1593 10.1523 68.5273 10.1523H12.6903C7.08373 10.1523 2.53809 14.698 2.53809 20.3045V60.9133C2.53809 63.8879 3.8401 66.5376 5.87816 68.3929Z" fill="#214FB5"/>
<path d="M75.3393 12.8247L5.87805 68.3927C7.6826 70.0374 10.0582 71.0653 12.6902 71.0653H68.5272C74.1338 71.0653 78.6794 66.5196 78.6794 60.9131V20.3043C78.6794 17.3297 77.3774 14.68 75.3393 12.8247Z" fill="#2E5A34"/>
<path d="M73.1592 11.3197L4.21057 66.4765C5.16742 67.9334 6.50243 69.0958 8.06079 69.9003L77.0068 14.741C76.05 13.2841 74.715 12.1217 73.1566 11.3171L73.1592 11.3197Z" fill="#F6D44A"/>
<path opacity="0.15" d="M68.5273 10.1523H12.6903C7.08373 10.1523 2.53809 14.698 2.53809 20.3045V60.9133C2.53809 66.5198 7.08373 71.0655 12.6903 71.0655H68.5273C74.1339 71.0655 78.6795 66.5198 78.6795 60.9133V20.3045C78.6795 14.698 74.1339 10.1523 68.5273 10.1523ZM76.1415 60.9133C76.1415 65.1112 72.7253 68.5274 68.5273 68.5274H12.6903C8.49234 68.5274 5.07613 65.1112 5.07613 60.9133V20.3045C5.07613 16.1066 8.49234 12.6904 12.6903 12.6904H68.5273C72.7253 12.6904 76.1415 16.1066 76.1415 20.3045V60.9133Z" fill="black"/>
<path opacity="0.2" d="M68.5272 12.6904H12.6902C8.48465 12.6904 5.07605 16.099 5.07605 20.3046V22.8426C5.07605 18.6371 8.48465 15.2285 12.6902 15.2285H68.5272C72.7328 15.2285 76.1414 18.6371 76.1414 22.8426V20.3046C76.1414 16.099 72.7328 12.6904 68.5272 12.6904Z" fill="white"/>
<path d="M23.2636 27.6877L22.3296 24.8096L21.3956 27.6877H18.3702L20.8169 29.4644L19.8829 32.3425L22.3296 30.5633L24.7763 32.3425L23.8423 29.4644L26.2889 27.6877H23.2636Z" fill="white"/>
<path d="M29.0353 22.4211L28.1013 25.2967L30.548 23.5201L32.9947 25.2967L32.0607 22.4211L34.5073 20.642H31.482L30.548 17.7664L29.614 20.642H26.5886L29.0353 22.4211Z" fill="white"/>
<path d="M31.482 34.7306L30.548 31.855L29.614 34.7306H26.5886L29.0353 36.5098L28.1013 39.3854L30.548 37.6087L32.9947 39.3854L32.0607 36.5098L34.5073 34.7306H31.482Z" fill="white"/>
<path d="M15.0455 34.7306L14.1115 31.855L13.1775 34.7306H10.1521L12.5988 36.5098L11.6648 39.3854L14.1115 37.6087L16.5581 39.3854L15.6241 36.5098L18.0708 34.7306H15.0455Z" fill="white"/>
<path d="M14.1115 17.7664L13.1775 20.642H10.1521L12.5988 22.4211L11.6648 25.2967L14.1115 23.5201L16.5581 25.2967L15.6241 22.4211L18.0708 20.642H15.0455L14.1115 17.7664Z" fill="white"/>
</svg>
