<svg width="82" height="82" viewBox="0 0 82 82" fill="none" xmlns="http://www.w3.org/2000/svg">
<path d="M6.77136 69.1312C8.4414 70.3368 10.4744 71.0652 12.6901 71.0652H68.5271C74.1337 71.0652 78.6793 66.5195 78.6793 60.913V48.5857L6.77136 69.1312Z" fill="#357939"/>
<path d="M30.4566 10.1521H12.6903C7.08373 10.1521 2.53809 14.6977 2.53809 20.3043V60.913C2.53809 63.1313 3.26904 65.1668 4.47715 66.8368L30.4566 10.1521Z" fill="#0E2A69"/>
<path d="M5.39329 67.9485L58.375 10.1521H30.4565L4.47705 66.8368C4.75877 67.2277 5.05826 67.6033 5.39329 67.9485Z" fill="#F7D45D"/>
<path d="M6.44914 68.8647L78.6794 28.2357V20.3043C78.6794 14.6977 74.1338 10.1521 68.5272 10.1521H58.375L5.39331 67.9485C5.71818 68.2835 6.08112 68.5754 6.44914 68.8647Z" fill="#C23635"/>
<path d="M7.78919 69.753L78.6794 52.0298V28.2356L6.4491 68.8647C6.87041 69.1971 7.31711 69.489 7.78919 69.753Z" fill="white"/>
<path opacity="0.15" d="M68.5273 10.1521H12.6903C7.08373 10.1521 2.53809 14.6977 2.53809 20.3043V60.913C2.53809 66.5196 7.08373 71.0652 12.6903 71.0652H68.5273C74.1339 71.0652 78.6795 66.5196 78.6795 60.913V20.3043C78.6795 14.6977 74.1339 10.1521 68.5273 10.1521ZM76.1415 60.913C76.1415 65.111 72.7253 68.5272 68.5273 68.5272H12.6903C8.49234 68.5272 5.07613 65.111 5.07613 60.913V20.3043C5.07613 16.1064 8.49234 12.6901 12.6903 12.6901H68.5273C72.7253 12.6901 76.1415 16.1064 76.1415 20.3043V60.913Z" fill="black"/>
<path opacity="0.2" d="M68.5272 12.6902H12.6902C8.48465 12.6902 5.07605 16.0988 5.07605 20.3043V22.8424C5.07605 18.6368 8.48465 15.2282 12.6902 15.2282H68.5272C72.7328 15.2282 76.1414 18.6368 76.1414 22.8424V20.3043C76.1414 16.0988 72.7328 12.6902 68.5272 12.6902Z" fill="white"/>
</svg>
