<svg width="82" height="82" viewBox="0 0 82 82" fill="none" xmlns="http://www.w3.org/2000/svg">
<path d="M2.53809 60.9132C2.53809 66.5198 7.08373 71.0654 12.6903 71.0654H68.5273C74.1339 71.0654 78.6795 66.5198 78.6795 60.9132V38.0708H2.53809V60.9132Z" fill="white"/>
<path d="M68.5273 10.1523H12.6903C7.08373 10.1523 2.53809 14.698 2.53809 20.3045V40.6089H78.6795V20.3045C78.6795 14.698 74.1339 10.1523 68.5273 10.1523Z" fill="#DB3C3F"/>
<path opacity="0.15" d="M12.6903 71.0655H68.5273C74.1339 71.0655 78.6795 66.5198 78.6795 60.9133V20.3045C78.6795 14.698 74.1339 10.1523 68.5273 10.1523H12.6903C7.08373 10.1523 2.53809 14.698 2.53809 20.3045V60.9133C2.53809 66.5198 7.08373 71.0655 12.6903 71.0655ZM5.07613 20.3045C5.07613 16.1066 8.49234 12.6904 12.6903 12.6904H68.5273C72.7253 12.6904 76.1415 16.1066 76.1415 20.3045V60.9133C76.1415 65.1112 72.7253 68.5274 68.5273 68.5274H12.6903C8.49234 68.5274 5.07613 65.1112 5.07613 60.9133V20.3045Z" fill="black"/>
<path opacity="0.2" d="M68.5273 12.6904H12.6903C8.48471 12.6904 5.07611 16.099 5.07611 20.3046V22.8426C5.07611 18.6371 8.48471 15.2285 12.6903 15.2285H68.5273C72.7328 15.2285 76.1414 18.6371 76.1414 22.8426V20.3046C76.1414 16.099 72.7328 12.6904 68.5273 12.6904Z" fill="white"/>
<path d="M17.2867 26.6495C17.2867 21.8323 20.6394 17.7993 25.1394 16.7587C24.4008 16.5887 23.6318 16.4973 22.8399 16.4973C17.2334 16.4973 12.6877 21.043 12.6877 26.6495C12.6877 32.2561 17.2334 36.8017 22.8399 36.8017C23.6293 36.8017 24.4008 36.7103 25.1394 36.5403C20.6394 35.4997 17.2867 31.4667 17.2867 26.6495Z" fill="white"/>
<path d="M27.4363 21.1394L26.8424 22.9643L28.3982 21.8349L29.9515 22.9643L29.3576 21.1394L30.9109 20.01H28.9921L28.3982 18.1826L27.8043 20.01H25.883L27.4363 21.1394Z" fill="white"/>
<path d="M36.449 24.033H34.5302L33.9363 22.2056L33.3424 24.033H31.4211L32.9744 25.1624L32.383 26.9898L33.9363 25.8604L35.4896 26.9898L34.8957 25.1624L36.449 24.033Z" fill="white"/>
<path d="M25.5682 30.5429L24.9743 28.718L24.3804 30.5429H22.4616L24.0149 31.6723L23.421 33.4997L24.9743 32.3703L26.5276 33.4997L25.9337 31.6723L27.4895 30.5429H25.5682Z" fill="white"/>
<path d="M32.4134 30.5429L31.8195 28.718L31.2256 30.5429H29.3068L30.8601 31.6723L30.2662 33.4997L31.8195 32.3703L33.3728 33.4997L32.7814 31.6723L34.3347 30.5429H32.4134Z" fill="white"/>
<path d="M23.4515 24.0329L22.8602 22.208L22.2663 24.0329H20.345L21.8983 25.1623L21.3044 26.9897L22.8602 25.8603L24.4135 26.9897L23.8196 25.1623L25.3728 24.0329H23.4515Z" fill="white"/>
</svg>
