<svg width="82" height="82" viewBox="0 0 82 82" fill="none" xmlns="http://www.w3.org/2000/svg">
<path d="M2.53809 27.9185H78.6795V53.2989H2.53809V27.9185Z" fill="#0600F5"/>
<path d="M12.6903 10.1523H68.5273C74.1313 10.1523 78.6795 14.7005 78.6795 20.3045V30.4567H2.53809V20.3045C2.53809 14.7005 7.08627 10.1523 12.6903 10.1523Z" fill="white"/>
<path d="M68.5273 71.0652L12.6902 71.0652C7.0862 71.0652 2.53802 66.517 2.53802 60.913V50.7608L78.6794 50.7608V60.913C78.6794 66.517 74.1313 71.0652 68.5273 71.0652Z" fill="#EA3323"/>
<path opacity="0.15" d="M68.5273 10.1523H12.6903C7.08373 10.1523 2.53809 14.698 2.53809 20.3045V60.9133C2.53809 66.5198 7.08373 71.0655 12.6903 71.0655H68.5273C74.1339 71.0655 78.6795 66.5198 78.6795 60.9133V20.3045C78.6795 14.698 74.1339 10.1523 68.5273 10.1523ZM76.1415 60.9133C76.1415 65.1112 72.7253 68.5274 68.5273 68.5274H12.6903C8.49234 68.5274 5.07613 65.1112 5.07613 60.9133V20.3045C5.07613 16.1066 8.49234 12.6904 12.6903 12.6904H68.5273C72.7253 12.6904 76.1415 16.1066 76.1415 20.3045V60.9133Z" fill="black"/>
<path opacity="0.2" d="M68.5272 12.6904H12.6902C8.48465 12.6904 5.07605 16.099 5.07605 20.3046V22.8426C5.07605 18.6371 8.48465 15.2285 12.6902 15.2285H68.5272C72.7328 15.2285 76.1414 18.6371 76.1414 22.8426V20.3046C76.1414 16.099 72.7328 12.6904 68.5272 12.6904Z" fill="white"/>
<path d="M16.7816 21.7484C21.9059 19.4921 27.7409 19.4921 32.8652 21.7484C33.7053 33.6265 31.0251 40.3599 24.8247 41.9462C18.6242 40.3599 15.9415 33.6265 16.7816 21.7484Z" fill="#0600F5"/>
<path d="M24.8247 27.02L26.7714 30.9134L28.0683 29.1824L31.312 33.5098C31.312 33.7103 31.2841 33.9108 31.2282 34.1037C30.3247 37.2636 27.9313 39.7813 24.8222 40.8448C21.7131 39.7813 19.3197 37.2636 18.4162 34.1037C18.3603 33.9108 18.3324 33.7103 18.3324 33.5098L21.576 29.1824L22.873 30.9134L24.8196 27.02H24.8247Z" fill="white"/>
<path d="M16.1724 22.0303C16.3754 21.9338 16.5785 21.8399 16.784 21.7485L17.4262 32.0124C17.7003 36.3981 20.6393 40.1671 24.8246 41.5047C29.0123 40.1671 31.9489 36.3981 32.223 32.0124L32.8651 21.7485C33.0707 21.8399 33.2737 21.9338 33.4768 22.0303L32.8499 32.053C32.5555 36.7712 29.3524 40.8042 24.8246 42.1646C20.2967 40.8067 17.0937 36.7712 16.7993 32.053L16.1724 22.0303Z" fill="#EA3323"/>
</svg>
