<svg width="82" height="82" viewBox="0 0 82 82" fill="none" xmlns="http://www.w3.org/2000/svg">
<path d="M2.53796 27.9185H78.6794V53.2989H2.53796V27.9185Z" fill="#204C9E"/>
<path d="M12.6902 10.1523H68.5272C74.1312 10.1523 78.6794 14.7005 78.6794 20.3045V30.4567H2.53796V20.3045C2.53796 14.7005 7.08614 10.1523 12.6902 10.1523Z" fill="white"/>
<path d="M68.5273 71.0652L12.6902 71.0652C7.0862 71.0652 2.53802 66.517 2.53802 60.913V50.7608L78.6794 50.7608V60.913C78.6794 66.517 74.1313 71.0652 68.5273 71.0652Z" fill="#DB362F"/>
<path opacity="0.15" d="M68.5272 10.1523H12.6902C7.08361 10.1523 2.53796 14.698 2.53796 20.3045V60.9133C2.53796 66.5198 7.08361 71.0655 12.6902 71.0655H68.5272C74.1337 71.0655 78.6794 66.5198 78.6794 60.9133V20.3045C78.6794 14.698 74.1337 10.1523 68.5272 10.1523ZM76.1413 60.9133C76.1413 65.1112 72.7251 68.5274 68.5272 68.5274H12.6902C8.49222 68.5274 5.07601 65.1112 5.07601 60.9133V20.3045C5.07601 16.1066 8.49222 12.6904 12.6902 12.6904H68.5272C72.7251 12.6904 76.1413 16.1066 76.1413 20.3045V60.9133Z" fill="black"/>
<path opacity="0.2" d="M68.5272 12.6904H12.6902C8.48465 12.6904 5.07605 16.099 5.07605 20.3046V22.8426C5.07605 18.6371 8.48465 15.2285 12.6902 15.2285H68.5272C72.7328 15.2285 76.1414 18.6371 76.1414 22.8426V20.3046C76.1414 16.099 72.7328 12.6904 68.5272 12.6904Z" fill="white"/>
<path d="M39.7204 25.9695C39.7204 25.9695 40.1721 30.4974 40.1721 39.5556C40.1087 48.8068 33.19 53.4895 28.1113 55.9514C23.0327 53.4895 16.1165 48.8068 16.0505 39.5556C16.0505 30.4974 16.5023 25.9695 16.5023 25.9695H39.7204Z" fill="#DB362F"/>
<path d="M27.0886 50.6214V39.2966C23.2536 39.2966 22.1648 39.6367 21.0176 39.9819C21.1242 38.8246 21.1242 37.6596 21.0176 36.5022C22.1648 36.85 23.2536 37.1875 27.0886 37.1875V34.0403C25.8779 34.0403 24.2079 34.0886 22.2866 34.7434C22.3957 33.5835 22.3957 32.416 22.2866 31.2561C24.2079 31.9008 25.8779 31.9515 27.0886 31.9515C27.0886 31.0404 26.8069 29.0785 26.4515 27.4541C27.5581 27.5531 28.6698 27.5531 29.7764 27.4541C29.4211 29.0759 29.1393 31.0378 29.1393 31.9515C30.35 31.9515 32.02 31.9033 33.9413 31.2561C33.8322 32.416 33.8322 33.5835 33.9413 34.7434C32.02 34.0886 30.35 34.0403 29.1393 34.0403V37.1875C32.9743 37.1875 34.0631 36.8474 35.2103 36.5022C35.1037 37.6596 35.1037 38.8246 35.2103 39.9819C34.0631 39.6342 32.9743 39.2966 29.1393 39.2966V50.6214H27.0886Z" fill="white"/>
<path d="M28.1114 55.9487C31.2611 54.4208 35.1189 52.035 37.6087 48.2381C37.591 48.2026 37.5808 48.1594 37.5656 48.1239C36.1443 45.1188 33.5656 44.6544 31.8093 47.0858C31.5834 46.5554 31.3245 46.0731 31.0377 45.6518C28.9946 42.6544 26.0302 43.294 24.416 47.0858C23.6876 46.0782 22.7789 45.5274 21.8424 45.5274C20.5277 45.5274 19.3729 46.6036 18.6241 48.2482C21.1165 52.0401 24.9642 54.4208 28.1114 55.9487Z" fill="#204C9E"/>
<path d="M28.1114 56.4334L27.921 56.3421C24.4997 54.6822 21.8678 52.8015 19.878 50.5909C17.0785 47.4817 15.6445 43.7711 15.6166 39.558C15.6166 30.5809 16.0658 25.9718 16.0709 25.9261L16.109 25.5327H40.1163L40.1544 25.9261C40.1595 25.9718 40.6087 30.5809 40.6087 39.5554C40.5783 43.7711 39.1443 47.4817 36.3473 50.5909C34.355 52.8015 31.7256 54.6847 28.3043 56.3421L28.1114 56.4334ZM16.9034 26.4058C16.7993 27.6875 16.4871 32.1063 16.4871 39.5554C16.515 43.5452 17.8729 47.063 20.5252 50.0071C22.4033 52.0934 24.8855 53.8802 28.1114 55.4664C31.3372 53.8802 33.8195 52.0934 35.6976 50.0071C38.3499 47.063 39.7077 43.5452 39.7356 39.5529C39.7356 32.1063 39.426 27.6875 39.3194 26.4058H16.9034Z" fill="white"/>
</svg>
