<svg width="82" height="82" viewBox="0 0 82 82" fill="none" xmlns="http://www.w3.org/2000/svg">
<path d="M78.6794 20.3043C78.6794 14.6977 74.1337 10.1521 68.5272 10.1521H12.6902C7.08361 10.1521 2.53796 14.6977 2.53796 20.3043V43.1467H78.6794V20.3043Z" fill="white"/>
<path d="M12.6902 71.0655H68.5272C74.1337 71.0655 78.6794 66.5198 78.6794 60.9133V40.6089H2.53796V60.9133C2.53796 66.5198 7.08361 71.0655 12.6902 71.0655Z" fill="#75B6E1"/>
<path opacity="0.15" d="M12.6902 71.0652H68.5272C74.1337 71.0652 78.6794 66.5196 78.6794 60.913V20.3043C78.6794 14.6977 74.1337 10.1521 68.5272 10.1521H12.6902C7.08361 10.1521 2.53796 14.6977 2.53796 20.3043V60.913C2.53796 66.5196 7.08361 71.0652 12.6902 71.0652ZM5.07601 20.3043C5.07601 16.1064 8.49222 12.6901 12.6902 12.6901H68.5272C72.7251 12.6901 76.1413 16.1064 76.1413 20.3043V60.913C76.1413 65.111 72.7251 68.5272 68.5272 68.5272H12.6902C8.49222 68.5272 5.07601 65.111 5.07601 60.913V20.3043Z" fill="black"/>
<path opacity="0.2" d="M68.5272 12.6902H12.6902C8.48465 12.6902 5.07605 16.0988 5.07605 20.3043V22.8424C5.07605 18.6368 8.48465 15.2282 12.6902 15.2282H68.5272C72.7328 15.2282 76.1414 18.6368 76.1414 22.8424V20.3043C76.1414 16.0988 72.7328 12.6902 68.5272 12.6902Z" fill="white"/>
<path d="M46.8981 28.2232C50.1062 23.6293 44.5986 24.51 41.9997 23.2791C42.5504 22.9085 42.4387 22.8349 41.9058 22.6395C41.6926 22.3222 41.8372 21.7486 41.4286 21.5735C41.7459 21.0964 41.5174 20.3756 41.0047 20.1573C41.0403 19.9822 40.7179 19.1903 41.1494 19.4746C42.2865 19.9162 41.9971 18.2131 40.9768 18.7893C40.8296 18.4999 41.3195 17.7791 40.591 17.7639C39.8677 17.7741 40.3499 18.5101 40.2078 18.7867C39.1951 18.2182 38.8906 19.9035 40.0251 19.4746C40.4692 19.1827 40.1418 19.9669 40.1799 20.1446C39.6494 20.3578 39.4134 21.0938 39.7408 21.5786C39.3449 21.7563 39.4921 22.3248 39.2763 22.637C38.7535 22.8349 38.6266 22.8908 39.1723 23.2715C36.5759 24.5075 31.0531 23.6243 34.2713 28.2232C32.9668 28.5354 35.1571 28.9948 35.2662 29.5836C35.1216 29.8602 35.1977 30.1166 35.5048 30.2536C35.4693 30.4745 35.6799 30.6673 35.8601 30.7232C35.8677 30.8323 35.9287 30.9338 35.9972 31.01C34.8144 33.0074 45.6011 33.5658 45.1748 31.0201C45.2458 30.9415 45.3118 30.8323 45.3194 30.7181C45.5072 30.6547 45.7103 30.4516 45.657 30.2257C45.8702 30.0379 45.9362 29.8577 45.8651 29.6293C46.0681 28.9669 48.2356 28.5405 46.8956 28.2207L46.8981 28.2232ZM36.7459 26.3197C36.6495 26.3577 36.5149 26.6445 36.4515 27.3933C36.1951 27.2055 35.9464 27.1166 35.7535 27.0709C33.515 24.4415 38.2789 25.6141 39.3652 24.1344C39.256 24.7562 39.8652 25.3349 39.7992 25.9897C39.6977 26.1623 39.6063 26.3628 39.5378 26.5963C38.4794 25.4111 38.3271 25.3324 37.8703 26.8755C37.3017 26.3501 36.7687 26.3222 36.7459 26.3197ZM45.9362 25.6319C46.1951 26.1039 45.8448 26.6471 45.3397 27.1522C45.157 27.1801 44.9463 27.2486 44.7382 27.3958C44.5479 25.9491 44.5504 26.0811 43.3194 26.878C42.8626 25.3248 42.7103 25.4187 41.6519 26.5989C41.5834 26.3628 41.4895 26.1623 41.3905 25.9923C41.3296 25.3425 41.9134 24.7562 41.8068 24.137C42.8601 25.3857 45.0123 24.7182 45.9362 25.6344V25.6319Z" fill="#EAC34F"/>
<path d="M40.4464 33.6747C41.9819 33.6467 48.5935 32.5402 48.5935 41.7203C48.5935 50.4918 40.5885 53.979 40.5885 53.979C40.5885 53.979 32.5835 50.6009 32.5835 41.0553C32.5835 32.5376 40.4464 33.6747 40.4464 33.6747Z" fill="#ABCFE9"/>
<path d="M43.0428 47.3905C43.5123 47.1291 44.0504 46.9793 44.6265 46.9793C45.5605 46.9793 46.4032 47.3727 46.9971 48.0047C44.6621 52.2052 40.591 53.9793 40.591 53.9793C40.591 53.9793 36.6241 52.3042 34.2764 47.9844C34.8677 47.3651 35.7027 46.9793 36.6291 46.9793C37.2738 46.9793 37.8728 47.1671 38.3804 47.4895C38.9743 46.8499 39.822 46.4514 40.7636 46.4514C41.6545 46.4514 42.4616 46.8093 43.0479 47.3905H43.0428Z" fill="#9BB980"/>
<path d="M50.3802 39.5275C50.1721 36.5402 49.2533 34.1341 47.86 32.926C46.8828 32.0783 45.2991 31.4971 43.959 32.1088C43.8981 32.1367 43.8397 32.1671 43.7838 32.1976H43.6595C43.6595 32.1976 43.6443 32.1976 43.6366 32.2027L41.2382 33.3245C41.124 33.1874 40.9412 33.0885 40.7483 33.0555C40.7433 33.0555 40.7382 33.0555 40.7331 33.0555C40.7179 33.0555 40.7027 33.0504 40.6849 33.0504C40.6671 33.0504 40.6468 33.0478 40.6291 33.0478C40.624 33.0478 40.6189 33.0478 40.6138 33.0478C40.6088 33.0478 40.6037 33.0478 40.5986 33.0478C40.3879 33.0504 40.2027 33.1265 40.0681 33.2509C40.0402 33.2763 40.0123 33.3016 39.9895 33.3296L37.591 32.2077C37.591 32.2077 37.5758 32.2027 37.5682 32.2027H37.3905C37.3347 32.1697 37.2763 32.1392 37.2154 32.1113C35.8778 31.4996 34.2916 32.0808 33.3144 32.9286C31.921 34.1367 30.9997 36.5427 30.7941 39.53C30.383 45.4462 33.4565 49.1949 35.3245 50.9005C36.7129 52.1695 38.8194 53.4715 40.5656 54.1365H40.5707C40.5758 54.1365 40.5783 54.1365 40.5834 54.1365H40.5961H40.6011C42.3473 53.469 44.4539 52.1695 45.8422 50.9005C47.7102 49.1924 50.7863 45.4462 50.3726 39.53L50.3802 39.5275ZM41.7027 52.7126C41.1925 52.9969 40.7864 53.2228 40.5884 53.3091C40.3905 53.2228 39.9869 52.9969 39.4768 52.7152L39.2737 52.6035C38.6088 52.0375 37.624 51.1061 36.6621 49.8446C35.124 47.8294 33.3296 44.5452 33.5225 40.3346C33.6697 37.1239 34.4718 35.9564 34.9971 35.4793C35.2433 35.9235 35.7357 36.2026 36.3575 36.2026C36.7738 36.2026 37.1697 36.0757 37.5047 35.8422L39.9819 34.393C40.0631 34.4971 40.1874 34.5783 40.322 34.629C40.3296 34.6316 40.3346 34.6341 40.3423 34.6367C40.3499 34.6392 40.36 34.6417 40.3676 34.6443C40.4184 34.662 40.4742 34.6722 40.5351 34.6798C40.5529 34.6798 40.5707 34.6823 40.5884 34.6823C40.5961 34.6823 40.6011 34.6823 40.6088 34.6823C40.7839 34.6823 40.9133 34.6392 41.0326 34.5554C41.1087 34.5098 41.1773 34.4514 41.2306 34.3854L43.6214 35.8092C43.9641 36.0605 44.3752 36.1976 44.8092 36.1976C45.4336 36.1976 45.926 35.9209 46.1696 35.4742C46.6975 35.9514 47.497 37.1189 47.6442 40.3295C47.8396 44.5376 46.0452 47.8218 44.5072 49.8345C43.5427 51.0959 42.558 52.0299 41.893 52.5984L41.695 52.7101L41.7027 52.7126Z" fill="#EAC34F"/>
<path d="M42.7128 58.1541C40.393 54.2734 38.8778 53.1669 34.8246 51.7354C34.1774 50.6288 34.3855 49.6237 33.0175 48.8877C32.619 48.6111 32.2434 48.3522 31.9845 47.8903C31.9616 47.8471 31.8906 47.8598 31.8855 47.9106C31.5835 48.9968 32.0885 51.2253 34.0758 51.5476C34.3423 51.611 34.5149 51.6796 34.6799 51.8851C33.6926 51.5679 32.3144 51.2049 31.8601 50.073C31.7561 49.6364 31.6165 49.1694 31.2738 48.8699C32.1241 47.4182 31.1622 45.903 30.9007 44.502C30.2916 44.8471 29.9896 45.6898 29.8855 46.3497C29.317 46.139 28.8094 46.8725 29.2002 47.3294C29.2002 47.3294 29.2002 47.3319 29.2002 47.3344C29.1495 47.2913 29.0886 47.1187 29.0023 47.1948C28.9667 47.1365 28.9312 47.0781 28.8982 47.0197C28.8449 46.5121 29.2053 46.1593 29.5353 45.837C30.6038 44.7177 30.6342 42.7989 29.9312 41.5705C29.2612 42.7101 28.1368 44.0299 28.6063 45.4994C28.7231 46.0121 28.7358 46.403 28.6444 46.5705C27.4236 44.7177 28.6063 44.469 28.35 42.6923C29.8145 41.9487 30.7738 39.8878 29.8804 38.4284C29.284 39.4817 28.2739 39.7025 27.8627 41.0147C27.7358 40.6974 27.8703 39.7558 27.3526 40.3726C27.3322 39.865 27.5251 39.3167 28.0987 39.2381C29.8424 38.6137 31.1114 37.0147 30.5936 34.9538C29.3068 35.7406 28.0962 37.5325 27.7992 38.8802C27.7536 39.0883 27.5759 39.2457 27.4693 39.3015C27.685 38.1467 27.7663 37.0604 28.4109 36.2635C30.2205 35.0731 30.9007 33.4462 30.5657 31.8549C30.5556 31.8193 30.5073 31.8041 30.4794 31.8295C29.7865 32.4285 29.2612 32.7559 28.614 33.6645C27.8145 34.9259 28.0911 36.1721 27.5835 37.266C27.548 37.2228 27.515 37.1695 27.4896 37.1188C27.982 36.7762 27.6317 35.9335 27.0353 36.0579C26.7764 35.1442 26.4795 34.5909 26.2561 33.8752C25.779 34.0833 24.9871 35.7 25.284 37.1949C25.9617 39.1721 27.4363 39.0071 26.9795 40.804C26.8551 40.9741 26.7485 41.1594 26.6571 41.3522C25.883 38.4411 25.9693 39.3269 24.1495 37.2685C23.4313 39.0756 24.3399 41.304 26.5074 41.7177C26.4795 41.8015 26.4515 41.8878 26.4287 41.9741C25.3018 41.3015 25.0632 43.3979 26.312 42.9994C26.284 44.5603 27.4414 44.837 27.8576 46.0603C26.7434 45.6314 26.6546 43.5553 24.9033 42.601C24.4668 42.3066 24.0607 42.0477 23.68 41.6746C23.6318 41.6238 23.5455 41.6441 23.5277 41.7127C23.4516 42.8446 23.7942 44.436 24.5582 45.0705C26.5328 46.5273 27.614 45.1136 28.8931 47.9359C28.8931 47.9943 28.8957 48.0527 28.9008 48.1111C27.3145 46.3801 26.1952 46.436 24.1368 45.9334C24.2663 47.0502 25.1343 47.9969 26.2028 48.4639C27.1673 48.875 28.2129 48.5222 28.9642 48.5654C29.02 48.8268 29.1089 49.0908 29.2358 49.342C28.2129 48.8496 26.6292 49.4943 25.482 49.6923C26.2079 50.7862 27.3221 51.2303 28.4109 51.2405C29.2535 51.2405 29.7561 50.7329 30.3551 50.4765C30.4921 50.54 30.6342 50.5857 30.7815 50.6263C30.3145 50.7151 30.1317 51.3699 30.4921 51.6846C29.3525 52.007 28.9845 52.946 28.015 53.309C28.8602 54.1212 30.5759 53.8267 31.4109 53.0628C31.9819 52.479 32.5657 51.3852 33.4692 52.0374C33.4464 52.0603 33.4261 52.0806 33.4058 52.1009C32.4997 51.7608 32.2129 53.2963 33.1824 53.3065C33.7154 53.3242 34.0124 52.6263 33.6368 52.2557C33.6748 52.2227 33.7104 52.1846 33.751 52.1516C36.4311 52.7582 38.8271 53.6669 40.3448 55.7074C41.0707 56.5704 41.4514 57.215 42.0859 58.4511C42.3321 59.0094 43.1697 58.8876 42.723 58.1617L42.7128 58.1541ZM27.2434 37.2254C27.3119 37.3802 27.4591 37.5401 27.4465 37.7102C27.3145 38.2025 27.2079 38.7482 27.1292 39.3091C26.8272 38.7127 27.2942 37.9462 27.2307 37.2279C27.2358 37.2279 27.2383 37.2279 27.2434 37.2279V37.2254ZM29.6876 47.5628C29.7764 47.5628 29.8601 47.5451 29.9363 47.5096C29.9744 47.6898 30.0251 47.8725 30.0911 48.0552C29.8424 47.9004 29.5454 47.7329 29.35 47.5172C29.3551 47.4994 29.3576 47.4842 29.3627 47.4715C29.4566 47.5299 29.5683 47.5628 29.6876 47.5628ZM31.3652 50.7532C31.8068 51.0222 32.2028 51.3877 32.6444 51.6161C32.2662 51.6897 31.8449 51.5222 31.449 51.5527C31.6165 51.3014 31.5479 50.9181 31.3119 50.7405C31.3297 50.7456 31.3474 50.7481 31.3652 50.7532Z" fill="#6E8D61"/>
<path d="M39.1418 58.4435C39.7738 57.2075 40.1545 56.5628 40.8829 55.6999C42.4032 53.6593 44.7966 52.7507 47.4768 52.1441C47.5174 52.1796 47.5529 52.2151 47.591 52.2481C47.2179 52.6187 47.5123 53.3167 48.0453 53.2989C49.0123 53.2887 48.7255 51.7532 47.822 52.0933C47.8017 52.073 47.7814 52.0527 47.7585 52.0299C48.6621 51.3776 49.2458 52.4715 49.8169 53.0552C50.6494 53.8192 52.3676 54.1136 53.2128 53.3014C52.2432 52.941 51.8727 51.9994 50.7356 51.6771C51.0935 51.3624 50.9133 50.7075 50.4463 50.6187C50.591 50.5781 50.7331 50.5324 50.8727 50.469C51.4717 50.7278 51.9742 51.2355 52.8168 51.2329C53.9031 51.2228 55.0199 50.7786 55.7458 49.6847C54.5986 49.4842 53.0148 48.8421 51.992 49.3345C52.1189 49.0832 52.2077 48.8192 52.2636 48.5578C53.0148 48.5147 54.063 48.87 55.025 48.4563C56.0935 47.9893 56.9615 47.0426 57.0909 45.9259C55.0326 46.4284 53.9133 46.3726 52.327 48.1035C52.3321 48.0451 52.3346 47.9868 52.3346 47.9284C53.6138 45.1035 54.6925 46.5198 56.6696 45.0629C57.4336 44.4284 57.7762 42.8371 57.7001 41.7051C57.6823 41.6366 57.596 41.6163 57.5478 41.667C57.1671 42.0401 56.761 42.2964 56.3244 42.5934C54.5732 43.5477 54.4843 45.6238 53.3701 46.0528C53.7838 44.8294 54.9437 44.5528 54.9158 42.9919C56.1645 43.3929 55.926 41.2965 54.7991 41.9665C54.7762 41.8802 54.7508 41.7939 54.7204 41.7102C56.8879 41.2965 57.7965 39.0681 57.0782 37.261C55.2585 39.3168 55.3447 38.431 54.5706 41.3447C54.4793 41.1518 54.3727 40.9665 54.2483 40.7965C53.7915 38.9995 55.2661 39.162 55.9437 37.1874C56.2407 35.6925 55.4488 34.0757 54.9717 33.8676C54.7483 34.5859 54.4513 35.1366 54.1925 36.0503C53.596 35.9285 53.2458 36.7711 53.7382 37.1112C53.7128 37.1594 53.6798 37.2153 53.6443 37.2584C53.1366 36.1645 53.4158 34.9183 52.6138 33.6569C51.9666 32.7483 51.4412 32.4209 50.7483 31.8219C50.7204 31.7965 50.6722 31.8118 50.662 31.8473C50.327 33.4387 51.0072 35.0656 52.8168 36.2559C53.4615 37.0528 53.5427 38.1417 53.7585 39.2939C53.6544 39.2381 53.4742 39.0833 53.4285 38.8726C53.1316 37.5249 51.9209 35.7305 50.6341 34.9463C50.1164 37.0072 51.3829 38.6061 53.129 39.2305C53.7026 39.3092 53.8955 39.8574 53.8752 40.365C53.3549 39.7483 53.492 40.6899 53.3651 41.0071C52.9539 39.695 51.9412 39.4741 51.3473 38.4209C50.4539 39.8802 51.4133 41.9411 52.8778 42.6848C52.6214 44.4614 53.8067 44.7127 52.5833 46.5629C52.492 46.3954 52.5047 46.0071 52.6214 45.4919C53.091 44.0223 51.9666 42.7025 51.2966 41.563C50.5935 42.7914 50.624 44.7101 51.6925 45.8294C52.0224 46.1543 52.3828 46.5045 52.3295 47.0121C52.294 47.0705 52.261 47.1289 52.2255 47.1873C52.1392 47.1111 52.0783 47.2837 52.0275 47.3269C52.0275 47.3269 52.0275 47.3243 52.0275 47.3218C52.4184 46.8649 51.9108 46.1314 51.3422 46.3421C51.2356 45.6847 50.9362 44.8421 50.327 44.4944C50.0656 45.8954 49.1037 47.4106 49.9539 48.8624C49.6113 49.1619 49.4717 49.6289 49.3676 50.0654C48.9108 51.1999 47.5352 51.5629 46.5479 51.8776C46.7103 51.672 46.8854 51.6035 47.1519 51.54C49.1392 51.2177 49.6443 48.9867 49.3423 47.903C49.3397 47.8522 49.2661 47.8395 49.2433 47.8827C48.9844 48.3446 48.6088 48.606 48.2103 48.8801C46.8448 49.6162 47.0504 50.6212 46.4032 51.7278C42.3499 53.1593 40.8322 54.2659 38.515 58.1466C38.0683 58.8724 38.9058 58.9943 39.152 58.4359L39.1418 58.4435ZM53.9869 37.2254C53.9234 37.9437 54.3904 38.7102 54.0884 39.3066C54.0097 38.7457 53.9031 38.2 53.7712 37.7077C53.7585 37.5376 53.9057 37.3777 53.9742 37.2229C53.9793 37.2229 53.9818 37.2254 53.9869 37.2254ZM51.8524 47.4715C51.8575 47.4842 51.8625 47.4994 51.8651 47.5172C51.6671 47.7329 51.3727 47.9005 51.124 48.0553C51.19 47.8725 51.2407 47.6898 51.2788 47.5096C51.3549 47.5426 51.4387 47.5629 51.5275 47.5629C51.6468 47.5629 51.7559 47.5299 51.8524 47.4715ZM49.9057 50.7405C49.6697 50.9182 49.6011 51.3014 49.7687 51.5527C49.3753 51.5223 48.9514 51.6898 48.5732 51.6162C49.0149 51.3877 49.4108 51.0223 49.8524 50.7532C49.8702 50.7481 49.8879 50.7456 49.9057 50.7405Z" fill="#6E8D61"/>
</svg>
