<svg width="82" height="82" viewBox="0 0 82 82" fill="none" xmlns="http://www.w3.org/2000/svg">
<path d="M25.3805 10.1521H55.8371V71.0652H25.3805V10.1521Z" fill="#FBF064"/>
<path d="M12.6903 10.1521H27.9186V71.0652H12.6903C7.08627 71.0652 2.53809 66.5171 2.53809 60.913V20.3043C2.53809 14.7003 7.08627 10.1521 12.6903 10.1521Z" fill="#3A8445"/>
<path d="M68.5274 71.0652H53.2991L53.2991 10.1521H68.5274C74.1314 10.1521 78.6796 14.7002 78.6796 20.3042V60.913C78.6796 66.517 74.1314 71.0652 68.5274 71.0652Z" fill="#D1332C"/>
<path opacity="0.15" d="M68.5273 10.1521H12.6903C7.08373 10.1521 2.53809 14.6977 2.53809 20.3043V60.913C2.53809 66.5196 7.08373 71.0652 12.6903 71.0652H68.5273C74.1339 71.0652 78.6795 66.5196 78.6795 60.913V20.3043C78.6795 14.6977 74.1339 10.1521 68.5273 10.1521ZM76.1415 60.913C76.1415 65.111 72.7253 68.5272 68.5273 68.5272H12.6903C8.49234 68.5272 5.07613 65.111 5.07613 60.913V20.3043C5.07613 16.1064 8.49234 12.6901 12.6903 12.6901H68.5273C72.7253 12.6901 76.1415 16.1064 76.1415 20.3043V60.913Z" fill="black"/>
<path d="M44.4565 41.6011L50.6823 37.0783H42.9869L40.6088 29.7585L38.2306 37.0783H30.5353L36.7611 41.6011L34.383 48.9208L40.6088 44.3955L46.8346 48.9208L44.4565 41.6011Z" fill="#3A8445"/>
<path opacity="0.2" d="M68.5272 12.6902H12.6902C8.48465 12.6902 5.07605 16.0988 5.07605 20.3043V22.8424C5.07605 18.6368 8.48465 15.2282 12.6902 15.2282H68.5272C72.7328 15.2282 76.1414 18.6368 76.1414 22.8424V20.3043C76.1414 16.0988 72.7328 12.6902 68.5272 12.6902Z" fill="white"/>
</svg>
