<svg width="82" height="82" viewBox="0 0 82 82" fill="none" xmlns="http://www.w3.org/2000/svg">
<path d="M68.5272 10.1523H12.6902C7.08325 10.1523 2.53796 14.6976 2.53796 20.3045V60.9133C2.53796 66.5202 7.08325 71.0655 12.6902 71.0655H68.5272C74.1341 71.0655 78.6794 66.5202 78.6794 60.9133V20.3045C78.6794 14.6976 74.1341 10.1523 68.5272 10.1523Z" fill="#568FD9"/>
<path opacity="0.15" d="M68.5272 10.1523H12.6902C7.08361 10.1523 2.53796 14.698 2.53796 20.3045V60.9133C2.53796 66.5198 7.08361 71.0655 12.6902 71.0655H68.5272C74.1337 71.0655 78.6794 66.5198 78.6794 60.9133V20.3045C78.6794 14.698 74.1337 10.1523 68.5272 10.1523ZM76.1413 60.9133C76.1413 65.1112 72.7251 68.5274 68.5272 68.5274H12.6902C8.49222 68.5274 5.07601 65.1112 5.07601 60.9133V20.3045C5.07601 16.1066 8.49222 12.6904 12.6902 12.6904H68.5272C72.7251 12.6904 76.1413 16.1066 76.1413 20.3045V60.9133Z" fill="black"/>
<path opacity="0.2" d="M68.5272 12.6904H12.6902C8.48465 12.6904 5.07605 16.099 5.07605 20.3046V22.8426C5.07605 18.6371 8.48465 15.2285 12.6902 15.2285H68.5272C72.7328 15.2285 76.1414 18.6371 76.1414 22.8426V20.3046C76.1414 16.099 72.7328 12.6904 68.5272 12.6904Z" fill="white"/>
<path d="M45.7051 41.5377L53.9513 35.5479H43.7585L40.6088 25.8525L37.459 35.5479H27.2662L35.5124 41.5377L32.3626 51.233L40.6088 45.2407L48.8549 51.233L45.7051 41.5377Z" fill="white"/>
</svg>
