<svg width="82" height="82" viewBox="0 0 82 82" fill="none" xmlns="http://www.w3.org/2000/svg">
<path d="M2.53809 30.4568H78.6795V50.7612H2.53809V30.4568Z" fill="#C92D25"/>
<path d="M12.6903 10.1523H68.5273C74.1313 10.1523 78.6795 14.7005 78.6795 20.3045V32.9948H2.53809V20.3045C2.53809 14.7005 7.08627 10.1523 12.6903 10.1523Z" fill="black"/>
<path d="M68.5273 71.0654L12.6903 71.0654C7.08627 71.0654 2.53809 66.5172 2.53809 60.9132V48.223L78.6795 48.223V60.9132C78.6795 66.5172 74.1313 71.0654 68.5273 71.0654Z" fill="#3C883A"/>
<path d="M2.53809 27.9187H78.6795V32.9948H2.53809V27.9187Z" fill="white"/>
<path d="M2.53809 48.2229H78.6795V53.299H2.53809V48.2229Z" fill="white"/>
<path d="M5.87816 68.393L40.6088 40.609L5.87816 12.825C3.8401 14.6828 2.53809 17.3325 2.53809 20.3046V60.9133C2.53809 63.8879 3.8401 66.5376 5.87816 68.393Z" fill="#65B3D8"/>
<path d="M20.345 42.2026L26.1876 37.959H18.9668L16.7359 31.0911L14.5049 37.959H7.28418L13.1242 42.2026L10.8933 49.0681L16.7359 44.8244L22.5759 49.0681L20.345 42.2026Z" fill="#F7DF4B"/>
<path opacity="0.15" d="M68.5273 10.1523H12.6903C7.08373 10.1523 2.53809 14.698 2.53809 20.3045V60.9133C2.53809 66.5198 7.08373 71.0655 12.6903 71.0655H68.5273C74.1339 71.0655 78.6795 66.5198 78.6795 60.9133V20.3045C78.6795 14.698 74.1339 10.1523 68.5273 10.1523ZM76.1415 60.9133C76.1415 65.1112 72.7253 68.5274 68.5273 68.5274H12.6903C8.49234 68.5274 5.07613 65.1112 5.07613 60.9133V20.3045C5.07613 16.1066 8.49234 12.6904 12.6903 12.6904H68.5273C72.7253 12.6904 76.1415 16.1066 76.1415 20.3045V60.9133Z" fill="black"/>
<path opacity="0.2" d="M68.5273 12.6904H12.6903C8.48471 12.6904 5.07611 16.099 5.07611 20.3046V22.8426C5.07611 18.6371 8.48471 15.2285 12.6903 15.2285H68.5273C72.7328 15.2285 76.1414 18.6371 76.1414 22.8426V20.3046C76.1414 16.099 72.7328 12.6904 68.5273 12.6904Z" fill="white"/>
</svg>
