<svg width="82" height="82" viewBox="0 0 82 82" fill="none" xmlns="http://www.w3.org/2000/svg">
<path d="M2.53821 25.3804H78.6796V55.8369H2.53821V25.3804Z" fill="#F8D448"/>
<path d="M12.6904 10.1521H68.5274C74.1314 10.1521 78.6796 14.7003 78.6796 20.3043V27.9184H2.53821V20.3043C2.53821 14.7003 7.08639 10.1521 12.6904 10.1521Z" fill="#439643"/>
<path d="M68.5273 71.0652L12.6902 71.0652C7.0862 71.0652 2.53802 66.517 2.53802 60.913V53.2989L78.6794 53.2989V60.913C78.6794 66.517 74.1313 71.0652 68.5273 71.0652Z" fill="#439643"/>
<path d="M5.76407 68.3013L38.0709 40.6086L5.76407 12.916C3.78947 14.7688 2.53821 17.383 2.53821 20.3043V60.913C2.53821 63.8343 3.78947 66.4485 5.76407 68.3013Z" fill="#DD4446"/>
<path opacity="0.15" d="M68.5274 10.1521H12.6904C7.08385 10.1521 2.53821 14.6977 2.53821 20.3043V60.913C2.53821 66.5196 7.08385 71.0652 12.6904 71.0652H68.5274C74.134 71.0652 78.6796 66.5196 78.6796 60.913V20.3043C78.6796 14.6977 74.134 10.1521 68.5274 10.1521ZM76.1416 60.913C76.1416 65.111 72.7254 68.5272 68.5274 68.5272H12.6904C8.49247 68.5272 5.07626 65.111 5.07626 60.913V20.3043C5.07626 16.1064 8.49247 12.6901 12.6904 12.6901H68.5274C72.7254 12.6901 76.1416 16.1064 76.1416 20.3043V60.913Z" fill="black"/>
<path opacity="0.2" d="M68.5274 12.6902H12.6903C8.48477 12.6902 5.07617 16.0988 5.07617 20.3043V22.8424C5.07617 18.6368 8.48477 15.2282 12.6903 15.2282H68.5274C72.7329 15.2282 76.1415 18.6368 76.1415 22.8424V20.3043C76.1415 16.0988 72.7329 12.6902 68.5274 12.6902Z" fill="white"/>
<path d="M50.4057 41.5604L54.5808 38.5275H49.421L47.8271 33.6189L46.2307 38.5275H41.0708L45.2459 41.5604L43.652 46.4665L47.8271 43.4335L52.0022 46.4665L50.4057 41.5604Z" fill="black"/>
<path d="M66.7456 41.5604L70.9207 38.5275H65.7608L64.1644 33.6189L62.5705 38.5275H57.4106L61.5857 41.5604L59.9893 46.4665L64.1644 43.4335L68.3395 46.4665L66.7456 41.5604Z" fill="black"/>
</svg>
