<svg width="82" height="82" viewBox="0 0 82 82" fill="none" xmlns="http://www.w3.org/2000/svg">
<path d="M2.53809 27.9185H78.6795V53.2989H2.53809V27.9185Z" fill="white"/>
<path d="M12.6903 10.1522H68.5273C74.1313 10.1522 78.6795 14.7003 78.6795 20.3043V30.4565H2.53809V20.3043C2.53809 14.7003 7.08627 10.1522 12.6903 10.1522Z" fill="#1C44A6"/>
<path d="M68.5273 71.0654L12.6902 71.0654C7.0862 71.0654 2.53802 66.5172 2.53802 60.9132V50.761L78.6794 50.761V60.9132C78.6794 66.5172 74.1313 71.0654 68.5273 71.0654Z" fill="#1C44A6"/>
<path opacity="0.15" d="M68.5273 10.1522H12.6903C7.08373 10.1522 2.53809 14.6978 2.53809 20.3043V60.9131C2.53809 66.5197 7.08373 71.0653 12.6903 71.0653H68.5273C74.1339 71.0653 78.6795 66.5197 78.6795 60.9131V20.3043C78.6795 14.6978 74.1339 10.1522 68.5273 10.1522ZM76.1415 60.9131C76.1415 65.111 72.7253 68.5272 68.5273 68.5272H12.6903C8.49234 68.5272 5.07613 65.111 5.07613 60.9131V20.3043C5.07613 16.1064 8.49234 12.6902 12.6903 12.6902H68.5273C72.7253 12.6902 76.1415 16.1064 76.1415 20.3043V60.9131Z" fill="black"/>
<path d="M39.1595 38.8296L36.2103 35.5123C36.2103 35.5123 35.7433 41.6062 36.6519 43.0808L39.1595 38.8296Z" fill="#1C44A6"/>
<path d="M38.3981 41.1874L34.5148 38.657C34.5148 38.657 34.195 43.228 35.8905 43.9158L38.3981 41.1874Z" fill="#1C44A6"/>
<path d="M42.058 38.8296L45.0072 35.5123C45.0072 35.5123 45.4742 41.6062 44.5656 43.0808L42.058 38.8296Z" fill="#1C44A6"/>
<path d="M42.8193 41.1874L46.7025 38.657C46.7025 38.657 47.0223 43.228 45.3269 43.9158L42.8193 41.1874Z" fill="#1C44A6"/>
<path d="M40.6088 49.596C35.652 49.596 31.6216 45.5656 31.6216 40.6088C31.6216 35.652 35.652 31.6216 40.6088 31.6216C45.5656 31.6216 49.596 35.652 49.596 40.6088C49.596 45.5656 45.5656 49.596 40.6088 49.596ZM40.6088 32.9388C36.3779 32.9388 32.9388 36.3804 32.9388 40.6088C32.9388 44.8372 36.3804 48.2788 40.6088 48.2788C44.8372 48.2788 48.2788 44.8372 48.2788 40.6088C48.2788 36.3804 44.8372 32.9388 40.6088 32.9388Z" fill="#F7CF46"/>
<path d="M40.6089 35.0403L35.3069 44.2229H45.9108L40.6089 35.0403Z" fill="white"/>
<path d="M47.0504 44.8828H34.1698L40.6114 33.7281L47.0504 44.8828ZM36.4464 43.5656H44.7712L40.6088 36.3575L36.4464 43.5656Z" fill="#F7CF46"/>
<path opacity="0.2" d="M68.5274 12.6902H12.6903C8.48477 12.6902 5.07617 16.0988 5.07617 20.3044V22.8424C5.07617 18.6369 8.48477 15.2283 12.6903 15.2283H68.5274C72.7329 15.2283 76.1415 18.6369 76.1415 22.8424V20.3044C76.1415 16.0988 72.7329 12.6902 68.5274 12.6902Z" fill="white"/>
</svg>
