<svg width="82" height="82" viewBox="0 0 82 82" fill="none" xmlns="http://www.w3.org/2000/svg">
<path d="M2.53809 27.9187H78.6795V53.2992H2.53809V27.9187Z" fill="white"/>
<path d="M12.6903 10.1523H68.5273C74.1313 10.1523 78.6795 14.7005 78.6795 20.3045V30.4567H2.53809V20.3045C2.53809 14.7005 7.08627 10.1523 12.6903 10.1523Z" fill="#BE2A2C"/>
<path d="M68.5274 71.0654L12.6903 71.0654C7.08633 71.0654 2.53815 66.5172 2.53815 60.9132V50.7611L78.6796 50.7611V60.9132C78.6796 66.5172 74.1314 71.0654 68.5274 71.0654Z" fill="black"/>
<path opacity="0.15" d="M68.5273 10.1523H12.6903C7.08373 10.1523 2.53809 14.698 2.53809 20.3045V60.9133C2.53809 66.5198 7.08373 71.0655 12.6903 71.0655H68.5273C74.1339 71.0655 78.6795 66.5198 78.6795 60.9133V20.3045C78.6795 14.698 74.1339 10.1523 68.5273 10.1523ZM76.1415 60.9133C76.1415 65.1112 72.7253 68.5274 68.5273 68.5274H12.6903C8.49234 68.5274 5.07613 65.1112 5.07613 60.9133V20.3045C5.07613 16.1066 8.49234 12.6904 12.6903 12.6904H68.5273C72.7253 12.6904 76.1415 16.1066 76.1415 20.3045V60.9133Z" fill="black"/>
<path opacity="0.2" d="M68.5272 12.6904H12.6902C8.48465 12.6904 5.07605 16.099 5.07605 20.3046V22.8426C5.07605 18.6371 8.48465 15.2285 12.6902 15.2285H68.5272C72.7328 15.2285 76.1414 18.6371 76.1414 22.8426V20.3046C76.1414 16.099 72.7328 12.6904 68.5272 12.6904Z" fill="white"/>
<path d="M28.9211 42.0073L33.9083 38.383H27.7434L25.8373 32.5176L23.9313 38.383H17.7664L22.7536 42.0073L20.8501 47.8702L25.8373 44.2459L30.8271 47.8702L28.9211 42.0073Z" fill="#357942"/>
<path d="M52.2965 42.0072L47.3092 38.3829H53.4741L55.3802 32.52L57.2863 38.3829H63.4512L58.4639 42.0072L60.3675 47.8701L55.3802 44.2458L50.3904 47.8701L52.2965 42.0072Z" fill="#357942"/>
</svg>
