<svg width="82" height="82" viewBox="0 0 82 82" fill="none" xmlns="http://www.w3.org/2000/svg">
<path d="M68.5273 10.1522H12.6903C7.08338 10.1522 2.53809 14.6975 2.53809 20.3043V60.9131C2.53809 66.52 7.08338 71.0653 12.6903 71.0653H68.5273C74.1342 71.0653 78.6795 66.52 78.6795 60.9131V20.3043C78.6795 14.6975 74.1342 10.1522 68.5273 10.1522Z" fill="#3C5EBB"/>
<path d="M78.6796 55.837V25.3804L2.53815 25.3804V55.837H78.6796Z" fill="#B30403"/>
<path d="M78.6795 20.3044H2.53809V25.3805H78.6795V20.3044Z" fill="#FFDB01"/>
<path d="M78.6795 55.837H2.53809V60.9131H78.6795V55.837Z" fill="#FFDB01"/>
<path opacity="0.15" d="M68.5273 10.1522H12.6903C7.08347 10.1522 2.53809 14.6973 2.53809 20.3043V60.9131C2.53809 66.5202 7.08347 71.0653 12.6903 71.0653H68.5273C74.1344 71.0653 78.6795 66.5202 78.6795 60.9131V20.3043C78.6795 14.6973 74.1344 10.1522 68.5273 10.1522ZM76.1415 60.9131C76.1415 65.1118 72.726 68.5272 68.5273 68.5272H12.6903C8.49158 68.5272 5.07613 65.1118 5.07613 60.9131V20.3043C5.07613 16.1057 8.49158 12.6902 12.6903 12.6902H68.5273C72.726 12.6902 76.1415 16.1057 76.1415 20.3043V60.9131Z" fill="black"/>
<path opacity="0.2" d="M68.5272 12.6902H12.6902C8.4849 12.6902 5.07605 16.0991 5.07605 20.3044V22.8424C5.07605 18.6371 8.4849 15.2283 12.6902 15.2283H68.5272C72.7325 15.2283 76.1414 18.6371 76.1414 22.8424V20.3044C76.1414 16.0991 72.7325 12.6902 68.5272 12.6902Z" fill="white"/>
<path d="M17.3831 36.103H63.4809L65.6065 36.8533L68.7983 35.7266L65.6065 34.6L63.4763 35.3517H17.3831C17.1577 35.3517 16.975 35.5198 16.975 35.7274C16.975 35.9347 17.1577 36.103 17.3831 36.103Z" fill="#FFDB01"/>
<path d="M14.3245 38.3569H60.4223L62.5479 39.1072L65.7397 37.9805L62.5479 36.8539L60.4177 37.6057H14.3245C14.0991 37.6057 13.9164 37.7737 13.9164 37.9813C13.9164 38.1889 14.0991 38.3569 14.3245 38.3569Z" fill="#FFDB01"/>
<path d="M71.973 40.0468H9.24465C8.93805 40.0468 8.68958 40.299 8.68958 40.6099C8.68958 40.9209 8.93805 41.1731 9.24465 41.1731H71.9732C72.2798 41.1731 72.5283 40.9209 72.5283 40.6099C72.5283 40.299 72.2796 40.0468 71.973 40.0468Z" fill="#FFDB01"/>
<path d="M59.035 40.6092C55.2797 44.3642 50.2727 51.8751 40.2581 51.8751C31.4957 51.8751 25.2374 44.3645 21.4811 40.6092C25.2364 36.8534 31.4949 29.3433 40.2581 29.3433C50.2719 29.3433 55.2787 36.8539 59.035 40.6092Z" fill="white"/>
<path d="M38.9473 33.2618C39.9462 34.3854 39.112 34.8384 40.1696 34.9123C41.2848 34.9943 40.6526 36.0996 41.5906 36.1381C42.2465 36.1668 41.5251 38.7866 42.1564 39.6513C42.7995 40.5526 43.3381 39.9155 43.3495 40.5665C43.3607 41.2401 41.599 41.1721 41.5683 43.2465C41.5165 44.4421 40.0818 44.5185 40.0132 45.2878C39.928 46.0114 42.8401 46.4175 42.8013 47.0652C42.7614 47.7109 39.6571 47.6099 39.5219 48.3464C39.4526 49.0081 43.7865 49.5502 44.135 51.4631C43.4883 51.6745 41.6482 51.8735 40.2576 51.8748C31.4966 51.8811 25.237 44.3637 21.4819 40.6087C25.2372 36.8531 31.4958 29.3425 40.2589 29.3425C40.2589 29.3425 37.6567 31.7197 38.9473 33.2618Z" fill="black"/>
</svg>
