<svg width="82" height="82" viewBox="0 0 82 82" fill="none" xmlns="http://www.w3.org/2000/svg">
<path d="M2.53809 25.3806H78.6795V55.8372H2.53809V25.3806Z" fill="white"/>
<path d="M12.6903 10.1523H68.5273C74.1313 10.1523 78.6795 14.7005 78.6795 20.3045V27.9187H2.53809V20.3045C2.53809 14.7005 7.08627 10.1523 12.6903 10.1523Z" fill="#BC271A"/>
<path d="M68.5271 71.0654L12.6901 71.0654C7.08608 71.0654 2.5379 66.5172 2.5379 60.9132V53.2991L78.6793 53.2991V60.9132C78.6793 66.5172 74.1311 71.0654 68.5271 71.0654Z" fill="#2B6519"/>
<path opacity="0.15" d="M68.5273 10.1523H12.6903C7.08373 10.1523 2.53809 14.698 2.53809 20.3045V60.9133C2.53809 66.5198 7.08373 71.0655 12.6903 71.0655H68.5273C74.1339 71.0655 78.6795 66.5198 78.6795 60.9133V20.3045C78.6795 14.698 74.1339 10.1523 68.5273 10.1523ZM76.1415 60.9133C76.1415 65.1112 72.7253 68.5274 68.5273 68.5274H12.6903C8.49234 68.5274 5.07613 65.1112 5.07613 60.9133V20.3045C5.07613 16.1066 8.49234 12.6904 12.6903 12.6904H68.5273C72.7253 12.6904 76.1415 16.1066 76.1415 20.3045V60.9133Z" fill="black"/>
<path opacity="0.2" d="M68.5272 12.6904H12.6902C8.48465 12.6904 5.07605 16.099 5.07605 20.3046V22.8426C5.07605 18.6371 8.48465 15.2285 12.6902 15.2285H68.5272C72.7328 15.2285 76.1414 18.6371 76.1414 22.8426V20.3046C76.1414 16.099 72.7328 12.6904 68.5272 12.6904Z" fill="white"/>
<path d="M45.073 43.9388C44.5882 44.3931 43.9664 44.6723 43.3065 44.7307C41.672 44.8779 40.2278 43.6723 40.0806 42.0378V39.6901C40.0984 39.1495 40.5476 38.7257 41.0882 38.7435C41.4258 38.7536 41.7329 38.9363 41.903 39.2282C42.304 38.0176 41.6491 36.713 40.4385 36.312C39.2278 35.911 37.9233 36.5658 37.5223 37.7765C37.3649 38.2485 37.3649 38.7587 37.5223 39.2282C37.7939 38.7612 38.3928 38.6039 38.8598 38.8754C39.1517 39.0455 39.3344 39.3526 39.3446 39.6901V42.0378C39.1974 43.6723 37.7532 44.8779 36.1187 44.7307C35.4588 44.6723 34.8345 44.3931 34.3523 43.9388C33.7203 45.5226 31.9233 46.2967 30.3396 45.6647C30.1061 45.5708 29.8853 45.4515 29.6823 45.3043C29.9665 48.152 34.238 47.5708 34.5553 44.8018C35.8954 47.1571 38.8446 46.482 39.7101 43.5987H39.7177C40.5806 46.482 43.5298 47.1571 44.8725 44.8018C45.1897 47.5708 49.4613 48.1545 49.7455 45.3043C49.5425 45.4515 49.3191 45.5708 49.0882 45.6647C47.5044 46.2967 45.7049 45.5226 45.073 43.9388Z" fill="#EFC443"/>
<path d="M36.4946 47.0963C36.4946 47.0963 36.1926 46.9161 35.5657 46.9973C35.4743 46.5912 35.119 46.2435 34.8652 46.0684C34.6215 46.3349 34.4489 46.8298 34.5327 47.1876C34.0835 47.2689 33.6647 47.5658 33.6647 47.5658C34.7053 48.6039 35.9007 48.3831 36.4946 47.0963Z" fill="#EFC443"/>
<path d="M41.1542 46.9489C41.1542 46.9489 40.8852 46.7205 40.2532 46.6977C40.2304 46.284 39.936 45.8804 39.7126 45.6672C39.4284 45.8906 39.1796 46.3525 39.2025 46.718C38.7456 46.7256 38.2863 46.9489 38.2863 46.9489C39.1441 48.1418 40.3548 48.119 41.1542 46.9489Z" fill="#EFC443"/>
<path d="M44.5628 46.0657C44.2455 46.2408 43.9258 46.6545 43.8902 47.02C43.4384 46.954 42.9486 47.0987 42.9486 47.0987C43.6009 48.4159 44.8014 48.591 45.7785 47.5631C45.7785 47.5631 45.5501 47.2941 44.9308 47.1697C44.9765 46.756 44.7481 46.3119 44.5628 46.0657Z" fill="#EFC443"/>
<path d="M31.949 49.3652L32.3068 50.5657C37.152 49.1241 42.2763 49.1241 47.1214 50.5657L47.4793 49.3652C42.4007 47.8525 37.0301 47.8525 31.949 49.3652Z" fill="#EFC443"/>
<path d="M39.0019 31.5808L38.5628 32.9335L39.7126 32.0985L40.8623 32.9335L40.4232 31.5808L41.5729 30.7458H40.1516L39.7126 29.3955L39.2735 30.7458H37.8522L39.0019 31.5808Z" fill="#EFC443"/>
<path d="M33.5274 33.0478L33.0883 34.4006L34.2381 33.5656L35.3878 34.4006L34.9487 33.0478L36.0985 32.2128H34.6772L34.2381 30.8625L33.799 32.2128H32.3777L33.5274 33.0478Z" fill="#EFC443"/>
<path d="M29.5199 37.0556L29.0808 38.4084L30.2305 37.5734L31.3802 38.4084L30.9412 37.0556L32.0909 36.2206H30.6696L30.2305 34.8704L29.7914 36.2206H28.3701L29.5199 37.0556Z" fill="#EFC443"/>
<path d="M28.7635 43.048L29.9132 43.883L29.4741 42.5302L30.6239 41.6952H29.2025L28.7635 40.345L28.3244 41.6952H26.9031L28.0528 42.5302L27.6137 43.883L28.7635 43.048Z" fill="#EFC443"/>
<path d="M44.4768 33.0478L44.0377 34.4006L45.1874 33.5656L46.3372 34.4006L45.8981 33.0478L47.0478 32.2128H45.6265L45.1874 30.8625L44.7483 32.2128H43.327L44.4768 33.0478Z" fill="#EFC443"/>
<path d="M48.4842 37.0556L48.0451 38.4084L49.1949 37.5734L50.3446 38.4084L49.9055 37.0556L51.0552 36.2206H49.6339L49.1949 34.8704L48.7558 36.2206H47.3345L48.4842 37.0556Z" fill="#EFC443"/>
<path d="M51.3726 42.5302L52.5223 41.6952H51.101L50.6619 40.345L50.2228 41.6952H48.8015L49.9512 42.5302L49.5122 43.883L50.6619 43.048L51.8116 43.883L51.3726 42.5302Z" fill="#EFC443"/>
</svg>
