<svg width="82" height="82" viewBox="0 0 82 82" fill="none" xmlns="http://www.w3.org/2000/svg">
<path d="M68.5273 10.1522H12.6903C7.08338 10.1522 2.53809 14.6975 2.53809 20.3043V60.9131C2.53809 66.52 7.08338 71.0653 12.6903 71.0653H68.5273C74.1342 71.0653 78.6795 66.52 78.6795 60.9131V20.3043C78.6795 14.6975 74.1342 10.1522 68.5273 10.1522Z" fill="#C93927"/>
<path d="M6.17511 68.6389L48.2229 40.6087L6.17511 12.5786C3.96954 14.4415 2.53809 17.1927 2.53809 20.3044V60.9131C2.53809 64.0273 3.96954 66.7786 6.17511 68.6389Z" fill="#F7CB4F"/>
<path d="M5.76394 68.3014L38.0707 40.6088L5.76394 12.9161C3.78934 14.7689 2.53809 17.3831 2.53809 20.3044V60.9131C2.53809 63.8344 3.78934 66.4486 5.76394 68.3014Z" fill="black"/>
<path d="M19.2105 40.5402L22.5455 34.8727L16.5176 37.4971L12.1598 32.5758L12.7918 39.1189L6.76392 41.7432L13.1826 43.1645L13.8171 49.7076L17.1496 44.0402L23.5709 45.4615L19.2105 40.5402Z" fill="white"/>
<path opacity="0.15" d="M68.5273 10.1522H12.6903C7.08373 10.1522 2.53809 14.6978 2.53809 20.3043V60.9131C2.53809 66.5197 7.08373 71.0653 12.6903 71.0653H68.5273C74.1339 71.0653 78.6795 66.5197 78.6795 60.9131V20.3043C78.6795 14.6978 74.1339 10.1522 68.5273 10.1522ZM76.1415 60.9131C76.1415 65.111 72.7253 68.5272 68.5273 68.5272H12.6903C8.49234 68.5272 5.07613 65.111 5.07613 60.9131V20.3043C5.07613 16.1064 8.49234 12.6902 12.6903 12.6902H68.5273C72.7253 12.6902 76.1415 16.1064 76.1415 20.3043V60.9131Z" fill="black"/>
<path opacity="0.2" d="M68.5272 12.6902H12.6902C8.48465 12.6902 5.07605 16.0988 5.07605 20.3044V22.8424C5.07605 18.6369 8.48465 15.2283 12.6902 15.2283H68.5272C72.7328 15.2283 76.1414 18.6369 76.1414 22.8424V20.3044C76.1414 16.0988 72.7328 12.6902 68.5272 12.6902Z" fill="white"/>
</svg>
