<svg width="82" height="82" viewBox="0 0 82 82" fill="none" xmlns="http://www.w3.org/2000/svg">
<path d="M68.5273 10.1523H12.6903C7.08338 10.1523 2.53809 14.6976 2.53809 20.3045V60.9133C2.53809 66.5202 7.08338 71.0655 12.6903 71.0655H68.5273C74.1342 71.0655 78.6795 66.5202 78.6795 60.9133V20.3045C78.6795 14.6976 74.1342 10.1523 68.5273 10.1523Z" fill="#3A8343"/>
<path d="M15.2283 10.1523H27.9185V71.0655H15.2283V10.1523Z" fill="#C23635"/>
<path opacity="0.15" d="M68.5273 10.1523H12.6903C7.08373 10.1523 2.53809 14.698 2.53809 20.3045V60.9133C2.53809 66.5198 7.08373 71.0655 12.6903 71.0655H68.5273C74.1339 71.0655 78.6795 66.5198 78.6795 60.9133V20.3045C78.6795 14.698 74.1339 10.1523 68.5273 10.1523ZM76.1415 60.9133C76.1415 65.1112 72.7253 68.5274 68.5273 68.5274H12.6903C8.49234 68.5274 5.07613 65.1112 5.07613 60.9133V20.3045C5.07613 16.1066 8.49234 12.6904 12.6903 12.6904H68.5273C72.7253 12.6904 76.1415 16.1066 76.1415 20.3045V60.9133Z" fill="black"/>
<path opacity="0.2" d="M68.5272 12.6904H12.6902C8.48465 12.6904 5.07605 16.099 5.07605 20.3046V22.8426C5.07605 18.6371 8.48465 15.2285 12.6902 15.2285H68.5272C72.7328 15.2285 76.1414 18.6371 76.1414 22.8426V20.3046C76.1414 16.099 72.7328 12.6904 68.5272 12.6904Z" fill="white"/>
<path d="M48.5732 18.929C50.959 20.9645 52.4184 24.038 52.2712 27.4136C52.0173 33.2258 47.0961 37.7359 41.2839 37.4821C39.9743 37.4237 38.7307 37.1293 37.5936 36.642C39.4337 38.208 41.8169 39.1547 44.421 39.1547C50.2407 39.1547 54.9589 34.4364 54.9589 28.6167C54.9589 24.2715 52.3295 20.5406 48.5732 18.929Z" fill="white"/>
<path d="M38.5224 26.6751L38.9792 25.2716H40.4539L39.261 24.4035L39.7178 23L38.5224 23.868L37.3295 23L37.7864 24.4035L36.5909 25.2716H38.0681L38.5224 26.6751Z" fill="white"/>
<path d="M38.0681 19.8529L38.5224 21.2564L38.9792 19.8529H40.4539L39.261 18.9848L39.7178 17.5813L38.5224 18.4493L37.3295 17.5813L37.7864 18.9848L36.5909 19.8529H38.0681Z" fill="white"/>
<path d="M43.4236 22.6295L43.8779 24.033L44.3347 22.6295H45.8093L44.6164 21.7615L45.0733 20.3579L43.8779 21.2259L42.685 20.3579L43.1393 21.7615L41.9464 22.6295H43.4236Z" fill="white"/>
<path d="M33.9059 27.0481L34.3627 25.6445L33.1698 26.51L31.9744 25.6445L32.4313 27.0481L31.2358 27.9135H32.713L33.1698 29.3171L33.6241 27.9135H35.1013L33.9059 27.0481Z" fill="white"/>
<path d="M38.5224 32.0962L38.9792 30.6927H40.4539L39.261 29.8247L39.7178 28.4211L38.5224 29.2892L37.3295 28.4211L37.7864 29.8247L36.5909 30.6927H38.0681L38.5224 32.0962Z" fill="white"/>
</svg>
