<svg width="82" height="82" viewBox="0 0 82 82" fill="none" xmlns="http://www.w3.org/2000/svg">
<path d="M68.5273 10.1523H12.6903C7.08338 10.1523 2.53809 14.6976 2.53809 20.3045V60.9133C2.53809 66.5202 7.08338 71.0655 12.6903 71.0655H68.5273C74.1342 71.0655 78.6795 66.5202 78.6795 60.9133V20.3045C78.6795 14.6976 74.1342 10.1523 68.5273 10.1523Z" fill="#D52E23"/>
<path opacity="0.15" d="M68.5273 10.1523H12.6903C7.08373 10.1523 2.53809 14.698 2.53809 20.3045V60.9133C2.53809 66.5198 7.08373 71.0655 12.6903 71.0655H68.5273C74.1339 71.0655 78.6795 66.5198 78.6795 60.9133V20.3045C78.6795 14.698 74.1339 10.1523 68.5273 10.1523ZM76.1415 60.9133C76.1415 65.1112 72.7253 68.5274 68.5273 68.5274H12.6903C8.49234 68.5274 5.07613 65.1112 5.07613 60.9133V20.3045C5.07613 16.1066 8.49234 12.6904 12.6903 12.6904H68.5273C72.7253 12.6904 76.1415 16.1066 76.1415 20.3045V60.9133Z" fill="black"/>
<path opacity="0.2" d="M68.5272 12.6904H12.6902C8.48465 12.6904 5.07605 16.099 5.07605 20.3046V22.8426C5.07605 18.6371 8.48465 15.2285 12.6902 15.2285H68.5272C72.7328 15.2285 76.1414 18.6371 76.1414 22.8426V20.3046C76.1414 16.099 72.7328 12.6904 68.5272 12.6904Z" fill="white"/>
<path d="M40.6087 25.3806C32.1976 25.3806 25.3804 32.1978 25.3804 40.6089C25.3804 49.02 32.1976 55.8372 40.6087 55.8372C49.0197 55.8372 55.8369 49.02 55.8369 40.6089C55.8369 32.1978 49.0197 25.3806 40.6087 25.3806ZM49.1974 44.6368L44.4639 43.0987L41.5376 47.1266V42.147L36.8016 40.6089L41.5376 39.0708V34.0912L44.4639 38.1191L49.1974 36.581L46.271 40.6089L49.1974 44.6368ZM43.6543 31.4719C38.6087 31.4719 34.5173 35.5633 34.5173 40.6089C34.5173 45.6545 38.6087 49.7459 43.6543 49.7459C46.0426 49.7459 48.2152 48.8296 49.8421 47.3322C47.7659 50.1799 44.403 52.0301 40.6087 52.0301C34.3016 52.0301 29.1874 46.9159 29.1874 40.6089C29.1874 34.3019 34.3016 29.1877 40.6087 29.1877C44.403 29.1877 47.7659 31.0379 49.8421 33.8856C48.2152 32.3856 46.0426 31.4719 43.6543 31.4719Z" fill="white"/>
</svg>
