<svg width="82" height="82" viewBox="0 0 82 82" fill="none" xmlns="http://www.w3.org/2000/svg">
<path d="M68.5272 10.1523H12.6902C7.08325 10.1523 2.53796 14.6976 2.53796 20.3045V60.9133C2.53796 66.5202 7.08325 71.0655 12.6902 71.0655H68.5272C74.1341 71.0655 78.6794 66.5202 78.6794 60.9133V20.3045C78.6794 14.6976 74.1341 10.1523 68.5272 10.1523Z" fill="#D12D24"/>
<path opacity="0.15" d="M68.5272 10.1523H12.6902C7.08361 10.1523 2.53796 14.698 2.53796 20.3045V60.9133C2.53796 66.5198 7.08361 71.0655 12.6902 71.0655H68.5272C74.1337 71.0655 78.6794 66.5198 78.6794 60.9133V20.3045C78.6794 14.698 74.1337 10.1523 68.5272 10.1523ZM76.1413 60.9133C76.1413 65.1112 72.7251 68.5274 68.5272 68.5274H12.6902C8.49222 68.5274 5.07601 65.1112 5.07601 60.9133V20.3045C5.07601 16.1066 8.49222 12.6904 12.6902 12.6904H68.5272C72.7251 12.6904 76.1413 16.1066 76.1413 20.3045V60.9133Z" fill="black"/>
<path opacity="0.2" d="M68.5272 12.6904H12.6902C8.48465 12.6904 5.07605 16.099 5.07605 20.3046V22.8426C5.07605 18.6371 8.48465 15.2285 12.6902 15.2285H68.5272C72.7328 15.2285 76.1414 18.6371 76.1414 22.8426V20.3046C76.1414 16.099 72.7328 12.6904 68.5272 12.6904Z" fill="white"/>
<path d="M50.2712 40.6089L53.2991 36.4414L48.3981 38.0328L45.3702 33.8628V39.0176L40.4692 40.6089L45.3702 42.2003V47.3551L48.3981 43.185L53.2991 44.7764L50.2712 40.6089Z" fill="white"/>
<path d="M40.4894 49.0481C35.827 53.2359 28.6545 52.8552 24.4642 48.1928C20.2738 43.5304 20.6571 36.3578 25.3195 32.1675C29.9819 27.9798 37.1544 28.3605 41.3447 33.0229C40.2229 31.2488 38.7178 29.7437 36.9437 28.6219C30.3245 24.4341 21.5632 26.4036 17.3729 33.0229C13.1851 39.6421 15.1546 48.4034 21.7738 52.5937C28.3931 56.7815 37.1544 54.812 41.3447 48.1928C41.0757 48.4923 40.7889 48.7791 40.4894 49.0481Z" fill="white"/>
</svg>
