<svg width="82" height="82" viewBox="0 0 82 82" fill="none" xmlns="http://www.w3.org/2000/svg">
<path d="M68.5278 10.1523H12.6908C7.08386 10.1523 2.53857 14.6976 2.53857 20.3045V60.9133C2.53857 66.5202 7.08386 71.0655 12.6908 71.0655H68.5278C74.1347 71.0655 78.68 66.5202 78.68 60.9133V20.3045C78.68 14.6976 74.1347 10.1523 68.5278 10.1523Z" fill="#0A9DE0"/>
<path d="M12.6903 10.1523H40.6088V40.6089H2.53809V20.3045C2.53809 14.7013 7.08703 10.1523 12.6903 10.1523Z" fill="#001B69"/>
<path d="M16.4978 34.9585V40.6089H26.65V34.9562L34.3583 40.6089H40.6093V37.4589L31.0614 30.4567H40.6093V20.3045H33.655L40.6093 15.2048V10.1523H36.952L26.65 17.7079V10.1523H16.4978V17.2424L8.23243 11.1785C6.28448 12.128 4.70581 13.6744 3.70049 15.5893L10.1271 20.3045H2.53857V30.4567H12.0898L2.53857 37.4615V40.6089H8.79283L16.4978 34.9585Z" fill="white"/>
<path d="M4.58277 14.1853L12.9213 20.3043H16.3822L5.98834 12.6782C5.46982 13.1338 4.99952 13.6338 4.58277 14.1853Z" fill="#CA0A2B"/>
<path d="M2.53723 40.609L16.3813 30.4568V32.9948L5.99837 40.609H2.53723Z" fill="#CA0A2B"/>
<path d="M24.112 40.6089H19.0359V27.9187H2.53857V22.8426H19.0359V10.1523H24.112V22.8426H40.6093V27.9187H24.112V40.6089Z" fill="#CA0A2B"/>
<path d="M40.6092 39.763L27.9189 30.4568V32.9948L38.3018 40.609H40.6092V39.763Z" fill="#CA0A2B"/>
<path d="M40.6091 10.1523H39.9786L26.1196 20.3157H29.5805L40.6091 12.2282V10.1523Z" fill="#CA0A2B"/>
<path opacity="0.15" d="M68.5278 10.1523H12.6908C7.08396 10.1523 2.53857 14.6975 2.53857 20.3045V60.9133C2.53857 66.5203 7.08396 71.0655 12.6908 71.0655H68.5278C74.1349 71.0655 78.68 66.5203 78.68 60.9133V20.3045C78.68 14.6975 74.1349 10.1523 68.5278 10.1523ZM76.1419 60.9133C76.1419 65.112 72.7265 68.5274 68.5278 68.5274H12.6908C8.49207 68.5274 5.07662 65.112 5.07662 60.9133V20.3045C5.07662 16.1058 8.49207 12.6904 12.6908 12.6904H68.5278C72.7265 12.6904 76.1419 16.1058 76.1419 20.3045V60.9133Z" fill="black"/>
<path opacity="0.2" d="M68.5272 12.6904H12.6902C8.4849 12.6904 5.07605 16.0993 5.07605 20.3046V22.8426C5.07605 18.6373 8.4849 15.2285 12.6902 15.2285H68.5272C72.7325 15.2285 76.1414 18.6373 76.1414 22.8426V20.3046C76.1414 16.0993 72.7325 12.6904 68.5272 12.6904Z" fill="white"/>
<path d="M31.8937 62.6545L30.8772 59.5264L29.861 62.6545H26.5717L29.2328 64.588L28.2163 67.7161L30.8772 65.7829L33.5383 67.7161L32.5219 64.588L35.183 62.6545H31.8937Z" fill="#FEDE02"/>
<path d="M44.3024 47.0435L41.6412 48.9769L38.9801 47.0435L39.9966 50.1719L37.3357 52.1051H40.6247L41.6412 55.2332L42.6577 52.1051H45.9468L43.2859 50.1719L44.3024 47.0435Z" fill="#FEDE02"/>
<path d="M43.2859 60.9358L44.3024 57.8076L41.6412 59.7408L38.9801 57.8076L39.9966 60.9358L37.3357 62.8692H40.6247L41.6412 65.9974L42.6577 62.8692H45.9468L43.2859 60.9358Z" fill="#FEDE02"/>
<path d="M55.0663 32.4045L52.4054 34.3378L49.7443 32.4045L50.7607 35.5327L48.0999 37.4659H51.3889L52.4054 40.5943L53.4219 37.4659H56.7109L54.0501 35.5327L55.0663 32.4045Z" fill="#FEDE02"/>
<path d="M54.0501 57.9218L55.0663 54.7937L52.4054 56.7269L49.7443 54.7937L50.7607 57.9218L48.0999 59.8553H51.3889L52.4054 62.9835L53.4219 59.8553H56.7109L54.0501 57.9218Z" fill="#FEDE02"/>
<path d="M64.1079 28.96L61.447 30.8934L58.7859 28.96L59.8024 32.0884L57.1415 34.0216H60.4305L61.447 37.1497L62.4635 34.0216H65.7526L63.0917 32.0884L64.1079 28.96Z" fill="#FEDE02"/>
<path d="M62.4635 49.3073L61.447 46.1792L60.4305 49.3073H57.1415L59.8024 51.2406L58.7859 54.369L61.447 52.4355L64.1079 54.369L63.0917 51.2406L65.7526 49.3073H62.4635Z" fill="#FEDE02"/>
<path d="M68.8442 24.9764L67.8278 28.1048L70.4889 26.1713L73.1498 28.1048L72.1335 24.9764L74.7944 23.0432H71.5054L70.4889 19.915L69.4724 23.0432H66.1833L68.8442 24.9764Z" fill="#FEDE02"/>
<path d="M71.5054 43.7097L70.4889 40.5815L69.4724 43.7097H66.1833L68.8442 45.6432L67.8278 48.7713L70.4889 46.8381L73.1498 48.7713L72.1335 45.6432L74.7944 43.7097H71.5054Z" fill="#FEDE02"/>
</svg>
