<svg width="82" height="82" viewBox="0 0 82 82" fill="none" xmlns="http://www.w3.org/2000/svg">
<path d="M68.5273 10.1523H12.6903C7.08338 10.1523 2.53809 14.6976 2.53809 20.3045V60.9133C2.53809 66.5202 7.08338 71.0655 12.6903 71.0655H68.5273C74.1342 71.0655 78.6795 66.5202 78.6795 60.9133V20.3045C78.6795 14.6976 74.1342 10.1523 68.5273 10.1523Z" fill="#E93323"/>
<path d="M12.6903 10.1523H40.6088V40.6089H2.53809V20.3045C2.53809 14.7005 7.08627 10.1523 12.6903 10.1523Z" fill="#020090"/>
<path opacity="0.15" d="M68.5273 10.1523H12.6903C7.08373 10.1523 2.53809 14.698 2.53809 20.3045V60.9133C2.53809 66.5198 7.08373 71.0655 12.6903 71.0655H68.5273C74.1339 71.0655 78.6795 66.5198 78.6795 60.9133V20.3045C78.6795 14.698 74.1339 10.1523 68.5273 10.1523ZM76.1415 60.9133C76.1415 65.1112 72.7253 68.5274 68.5273 68.5274H12.6903C8.49234 68.5274 5.07613 65.1112 5.07613 60.9133V20.3045C5.07613 16.1066 8.49234 12.6904 12.6903 12.6904H68.5273C72.7253 12.6904 76.1415 16.1066 76.1415 20.3045V60.9133Z" fill="black"/>
<path opacity="0.2" d="M68.5274 12.6904H12.6903C8.48477 12.6904 5.07617 16.099 5.07617 20.3046V22.8426C5.07617 18.6371 8.48477 15.2285 12.6903 15.2285H68.5274C72.7329 15.2285 76.1415 18.6371 76.1415 22.8426V20.3046C76.1415 16.099 72.7329 12.6904 68.5274 12.6904Z" fill="white"/>
<path d="M16.9135 22.4846L11.9567 21.1572L15.5835 24.7841C15.8602 23.9237 16.3196 23.142 16.9135 22.4846Z" fill="white"/>
<path d="M21.5735 20.4161C22.0278 20.4161 22.472 20.4669 22.9009 20.5583L21.5735 15.604L20.2461 20.5583C20.675 20.4669 21.1192 20.4161 21.5735 20.4161Z" fill="white"/>
<path d="M19.647 20.7182L16.0201 17.0913L17.3475 22.0481C18.0024 21.4542 18.7841 20.9948 19.647 20.7182Z" fill="white"/>
<path d="M25.7968 22.0481L27.1242 17.0913L23.4973 20.7182C24.3577 20.9948 25.1394 21.4542 25.7968 22.0481Z" fill="white"/>
<path d="M27.5632 24.7817L31.1901 21.1548L26.2333 22.4822C26.8272 23.137 27.2866 23.9187 27.5632 24.7817Z" fill="white"/>
<path d="M21.5734 32.2613C24.6404 32.2613 27.1266 29.775 27.1266 26.708C27.1266 23.6411 24.6404 21.1548 21.5734 21.1548C18.5064 21.1548 16.0201 23.6411 16.0201 26.708C16.0201 29.775 18.5064 32.2613 21.5734 32.2613Z" fill="white"/>
<path d="M32.6773 26.708L27.723 25.3806C27.8144 25.8095 27.8652 26.2537 27.8652 26.708C27.8652 27.1623 27.8144 27.6065 27.723 28.0354L32.6773 26.708Z" fill="white"/>
<path d="M23.4996 32.6979L27.1265 36.3247L25.7991 31.3679C25.1443 31.9618 24.3626 32.4212 23.4996 32.6979Z" fill="white"/>
<path d="M26.2333 30.9313L31.1901 32.2587L27.5632 28.6318C27.2866 29.4922 26.8272 30.274 26.2333 30.9313Z" fill="white"/>
<path d="M21.5735 32.9998C21.1192 32.9998 20.675 32.949 20.2461 32.8577L21.5735 37.8119L22.9009 32.8577C22.472 32.949 22.0278 32.9998 21.5735 32.9998Z" fill="white"/>
<path d="M17.3502 31.3679L16.0228 36.3247L19.6497 32.6979C18.7893 32.4212 18.0076 31.9618 17.3502 31.3679Z" fill="white"/>
<path d="M15.5835 28.6343L11.9567 32.2611L16.9135 30.9337C16.3196 30.2789 15.8602 29.4972 15.5835 28.6343Z" fill="white"/>
<path d="M15.2816 26.708C15.2816 26.2537 15.3324 25.8095 15.4238 25.3806L10.4695 26.708L15.4238 28.0354C15.3324 27.6065 15.2816 27.1623 15.2816 26.708Z" fill="white"/>
</svg>
