<svg width="82" height="82" viewBox="0 0 82 82" fill="none" xmlns="http://www.w3.org/2000/svg">
<path d="M78.6795 20.304C78.6795 14.6975 74.1339 10.1519 68.5273 10.1519H12.6903C7.08373 10.1519 2.53809 14.6975 2.53809 20.304V43.1465H78.6795V20.304Z" fill="#2455B2"/>
<path d="M12.6903 71.0652H68.5273C74.1339 71.0652 78.6795 66.5196 78.6795 60.913V40.6086H2.53809V60.913C2.53809 66.5196 7.08373 71.0652 12.6903 71.0652Z" fill="#F9DA49"/>
<path opacity="0.15" d="M12.6903 71.065H68.5273C74.1339 71.065 78.6795 66.5193 78.6795 60.9128V20.304C78.6795 14.6975 74.1339 10.1519 68.5273 10.1519H12.6903C7.08373 10.1519 2.53809 14.6975 2.53809 20.304V60.9128C2.53809 66.5193 7.08373 71.065 12.6903 71.065ZM5.07613 20.304C5.07613 16.1061 8.49234 12.6899 12.6903 12.6899H68.5273C72.7253 12.6899 76.1415 16.1061 76.1415 20.304V60.9128C76.1415 65.1107 72.7253 68.5269 68.5273 68.5269H12.6903C8.49234 68.5269 5.07613 65.1107 5.07613 60.9128V20.304Z" fill="black"/>
<path opacity="0.2" d="M68.5273 12.6899H12.6903C8.48471 12.6899 5.07611 16.0985 5.07611 20.3041V22.8421C5.07611 18.6366 8.48471 15.228 12.6903 15.228H68.5273C72.7328 15.228 76.1414 18.6366 76.1414 22.8421V20.3041C76.1414 16.0985 72.7328 12.6899 68.5273 12.6899Z" fill="white"/>
</svg>
