<svg width="82" height="82" viewBox="0 0 82 82" fill="none" xmlns="http://www.w3.org/2000/svg">
<path d="M12.6903 10.1519H68.5273C74.1313 10.1519 78.6795 14.7 78.6795 20.304H2.53809C2.53809 14.7 7.08627 10.1519 12.6903 10.1519Z" fill="black"/>
<path d="M68.5273 71.0652L12.6903 71.0652C7.08627 71.0652 2.53809 66.517 2.53809 60.913L78.6795 60.913C78.6795 66.517 74.1313 71.0652 68.5273 71.0652Z" fill="#C82A1D"/>
<path d="M2.53809 30.4563H78.6795V40.6085H2.53809V30.4563Z" fill="#C82A1D"/>
<path d="M2.53809 40.6086H78.6795V50.7608H2.53809V40.6086Z" fill="black"/>
<path d="M2.53809 50.761H78.6795V60.9132H2.53809V50.761Z" fill="#F7DE4B"/>
<path d="M2.53809 20.3042H78.6795V30.4564H2.53809V20.3042Z" fill="#F7DE4B"/>
<path opacity="0.15" d="M68.5273 10.1519H12.6903C7.08373 10.1519 2.53809 14.6975 2.53809 20.304V60.9128C2.53809 66.5193 7.08373 71.065 12.6903 71.065H68.5273C74.1339 71.065 78.6795 66.5193 78.6795 60.9128V20.304C78.6795 14.6975 74.1339 10.1519 68.5273 10.1519ZM76.1415 60.9128C76.1415 65.1107 72.7253 68.5269 68.5273 68.5269H12.6903C8.49234 68.5269 5.07613 65.1107 5.07613 60.9128V20.304C5.07613 16.1061 8.49234 12.6899 12.6903 12.6899H68.5273C72.7253 12.6899 76.1415 16.1061 76.1415 20.304V60.9128Z" fill="black"/>
<path opacity="0.2" d="M68.5273 12.6899H12.6903C8.48471 12.6899 5.07611 16.0985 5.07611 20.3041V22.8421C5.07611 18.6366 8.48471 15.228 12.6903 15.228H68.5273C72.7328 15.228 76.1414 18.6366 76.1414 22.8421V20.3041C76.1414 16.0985 72.7328 12.6899 68.5273 12.6899Z" fill="white"/>
<path d="M40.6088 50.7607C46.2157 50.7607 50.761 46.2154 50.761 40.6085C50.761 35.0016 46.2157 30.4563 40.6088 30.4563C35.0019 30.4563 30.4566 35.0016 30.4566 40.6085C30.4566 46.2154 35.0019 50.7607 40.6088 50.7607Z" fill="white"/>
<path d="M42.9032 40.2535C42.4362 39.987 40.185 38.7814 39.19 38.5708C39.1596 38.4159 38.8956 36.9515 39.5175 36.2408C40.289 35.6038 40.2814 34.9312 40.2484 34.7967C40.4794 34.7409 41.0961 34.6419 41.1164 34.5505L41.1037 34.5378C41.0479 34.1368 40.9058 33.8652 40.5555 33.4896C39.4058 32.4312 38.3906 32.6394 37.5987 33.1876L38.1393 34.185C37.7764 34.6343 37.8982 35.0048 37.9642 35.1393C37.6926 35.2408 36.5835 35.4794 36.7865 35.7789L36.7916 35.7992C36.7916 35.7992 36.8068 35.7967 36.8144 35.7941C37.0099 35.8728 37.6317 35.7891 37.9819 35.7332C37.7637 35.949 37.5352 36.416 37.9667 36.5682L37.9616 36.5962C37.2434 36.9464 35.6317 40.1088 37.3601 41.2662C37.4007 41.2433 37.3956 41.2611 37.4413 41.1926C37.6063 41.3855 38.2357 42.0733 38.9083 42.256C39.3144 42.6723 39.4718 42.8245 39.5454 42.8728C39.5834 43.1951 39.6494 43.9616 39.5707 44.1824C38.2053 44.2408 35.8957 43.3931 36.3271 45.9463C36.4312 45.7027 36.5733 45.3778 36.6469 45.2052C36.6596 45.4362 36.7307 45.7255 36.9388 45.8626C36.8931 45.5098 36.9921 45.091 37.0758 44.9286C37.086 45.2281 37.289 45.9133 37.4591 45.3245C37.4439 44.2991 39.2332 44.7306 39.5403 44.6773C39.6393 45.5174 39.7611 46.756 39.7256 47.0123C39.1367 46.9133 37.7484 47.0377 37.6926 47.5098C38.2205 47.4717 38.6926 47.5098 38.822 47.5351C38.6418 47.7077 38.218 48.1823 38.4642 48.4818C39.0301 47.8397 40.2459 47.3169 41.5986 47.5351C41.3728 47.0225 40.4819 46.9819 40.2712 46.9971C39.9718 44.0733 39.8398 44.9844 41.6443 44.4692C41.5352 43.2712 40.1799 42.3702 42.5352 42.9286C42.7154 43.2154 42.7306 43.3042 42.7839 43.3728C42.8245 43.3601 42.8296 43.355 42.8448 43.2941C42.8575 43.4946 42.8042 43.6621 42.723 43.7966L42.7865 43.8575C43.1164 43.6392 43.2408 43.3398 43.2788 43.0885C43.3397 43.5631 43.1849 44.3296 42.3524 44.7205C42.4134 44.7788 42.5123 44.8499 42.5682 44.86C42.2865 45.124 42.289 45.2737 43.0225 44.9362C42.7788 45.2357 43.0707 45.2712 43.3118 45.1012C43.1875 45.2585 43.0885 45.4032 43.02 45.5301H43.0022V45.6088C45.5935 44.9717 45.6291 40.7205 42.9083 40.2535H42.9032Z" fill="black"/>
</svg>
