<svg width="82" height="82" viewBox="0 0 82 82" fill="none" xmlns="http://www.w3.org/2000/svg">
<path d="M68.5273 10.1519H12.6903C7.08338 10.1519 2.53809 14.6971 2.53809 20.304V60.9128C2.53809 66.5197 7.08338 71.065 12.6903 71.065H68.5273C74.1342 71.065 78.6795 66.5197 78.6795 60.9128V20.304C78.6795 14.6971 74.1342 10.1519 68.5273 10.1519Z" fill="white"/>
<path d="M4.15723 14.8371H77.0601C75.2555 12.0249 72.1185 10.1519 68.5272 10.1519H12.6901C9.10134 10.1519 5.96432 12.0249 4.15723 14.8371Z" fill="#A62842"/>
<path d="M5.15219 19.5225C5.13189 19.7839 5.07605 20.0351 5.07605 20.3042V24.2102H78.6794V20.3042C78.6794 20.0377 78.6236 19.7864 78.6033 19.5225H5.15219Z" fill="#A62842"/>
<path d="M5.07605 28.8955H78.6794V33.5807H5.07605V28.8955Z" fill="#A62842"/>
<path d="M5.07605 38.2661H78.6794V42.9514H5.07605V38.2661Z" fill="#A62842"/>
<path d="M2.53809 47.6367H78.6795V52.322H2.53809V47.6367Z" fill="#A62842"/>
<path d="M2.53809 60.9131C2.53809 61.1796 2.59646 61.4309 2.61677 61.6949H78.6008C78.6211 61.4334 78.6795 61.1822 78.6795 60.9131V57.0071H2.53809V60.9131Z" fill="#A62842"/>
<path d="M77.0601 66.3801H4.15723C5.96178 69.1923 9.0988 71.0654 12.6901 71.0654H68.5272C72.116 71.0654 75.253 69.1923 77.0601 66.3801Z" fill="#A62842"/>
<path d="M12.6903 10.1519H40.6088V42.951H2.53809V20.304C2.53809 14.7 7.08627 10.1519 12.6903 10.1519Z" fill="#102D5E"/>
<path opacity="0.15" d="M68.5273 10.1519H12.6903C7.08373 10.1519 2.53809 14.6975 2.53809 20.304V60.9128C2.53809 66.5193 7.08373 71.065 12.6903 71.065H68.5273C74.1339 71.065 78.6795 66.5193 78.6795 60.9128V20.304C78.6795 14.6975 74.1339 10.1519 68.5273 10.1519ZM76.1415 60.9128C76.1415 65.1107 72.7253 68.5269 68.5273 68.5269H12.6903C8.49234 68.5269 5.07613 65.1107 5.07613 60.9128V20.304C5.07613 16.1061 8.49234 12.6899 12.6903 12.6899H68.5273C72.7253 12.6899 76.1415 16.1061 76.1415 20.304V60.9128Z" fill="black"/>
<path opacity="0.2" d="M68.5272 12.6899H12.6902C8.48465 12.6899 5.07605 16.0985 5.07605 20.3041V22.8421C5.07605 18.6366 8.48465 15.228 12.6902 15.228H68.5272C72.7328 15.228 76.1414 18.6366 76.1414 22.8421V20.3041C76.1414 16.0985 72.7328 12.6899 68.5272 12.6899Z" fill="white"/>
<path d="M11.6776 18.9412L13.1801 17.8499H11.3248L10.7512 16.0859L10.1776 17.8499H8.32227L9.82225 18.9412L9.24865 20.7052L10.7512 19.6164L12.2512 20.7052L11.6776 18.9412Z" fill="white"/>
<path d="M19.2384 18.9412L20.7409 17.8499H18.8856L18.312 16.0859L17.7384 17.8499H15.8831L17.383 18.9412L16.8094 20.7052L18.312 19.6164L19.812 20.7052L19.2384 18.9412Z" fill="white"/>
<path d="M26.8018 18.9412L28.3018 17.8499H26.4465L25.8729 16.0859L25.2993 17.8499H23.444L24.944 18.9412L24.3729 20.7052L25.8729 19.6164L27.3729 20.7052L26.8018 18.9412Z" fill="white"/>
<path d="M15.3958 23.5604L16.8983 22.4716H15.043L14.4694 20.7051L13.8958 22.4716H12.0405L13.5405 23.5604L12.9669 25.3269L14.4694 24.2355L15.9694 25.3269L15.3958 23.5604Z" fill="white"/>
<path d="M22.9593 23.5604L24.4593 22.4716H22.604L22.0304 20.7051L21.4568 22.4716H19.6014L21.1014 23.5604L20.5304 25.3269L22.0304 24.2355L23.5303 25.3269L22.9593 23.5604Z" fill="white"/>
<path d="M30.5201 23.5604L32.0201 22.4716H30.1647L29.5911 20.7051L29.0175 22.4716H27.1622L28.6648 23.5604L28.0912 25.3269L29.5911 24.2355L31.0937 25.3269L30.5201 23.5604Z" fill="white"/>
<path d="M15.3958 32.8013L16.8983 31.71H15.043L14.4694 29.946L13.8958 31.71H12.0405L13.5405 32.8013L12.9669 34.5653L14.4694 33.4765L15.9694 34.5653L15.3958 32.8013Z" fill="white"/>
<path d="M22.9593 32.8013L24.4593 31.71H22.604L22.0304 29.946L21.4568 31.71H19.6014L21.1014 32.8013L20.5304 34.5653L22.0304 33.4765L23.5303 34.5653L22.9593 32.8013Z" fill="white"/>
<path d="M30.5201 32.8013L32.0201 31.71H30.1647L29.5911 29.946L29.0175 31.71H27.1622L28.6648 32.8013L28.0912 34.5653L29.5911 33.4765L31.0937 34.5653L30.5201 32.8013Z" fill="white"/>
<path d="M34.3626 18.9412L35.8626 17.8499H34.0073L33.4337 16.0859L32.8601 17.8499H31.0048L32.5073 18.9412L31.9337 20.7052L33.4337 19.6164L34.9362 20.7052L34.3626 18.9412Z" fill="white"/>
<path d="M11.6776 28.1822L13.1801 27.0908H11.3248L10.7512 25.3269L10.1776 27.0908H8.32227L9.82225 28.1822L9.24865 29.9461L10.7512 28.8548L12.2512 29.9461L11.6776 28.1822Z" fill="white"/>
<path d="M19.2384 28.1822L20.7409 27.0908H18.8856L18.312 25.3269L17.7384 27.0908H15.8831L17.383 28.1822L16.8094 29.9461L18.312 28.8548L19.812 29.9461L19.2384 28.1822Z" fill="white"/>
<path d="M26.8018 28.1822L28.3018 27.0908H26.4465L25.8729 25.3269L25.2993 27.0908H23.444L24.944 28.1822L24.3729 29.9461L25.8729 28.8548L27.3729 29.9461L26.8018 28.1822Z" fill="white"/>
<path d="M34.3626 28.1822L35.8626 27.0908H34.0073L33.4337 25.3269L32.8601 27.0908H31.0048L32.5073 28.1822L31.9337 29.9461L33.4337 28.8548L34.9362 29.9461L34.3626 28.1822Z" fill="white"/>
<path d="M11.6776 37.421L13.1801 36.3322H11.3248L10.7512 34.5657L10.1776 36.3322H8.32227L9.82225 37.421L9.24865 39.1875L10.7512 38.0961L12.2512 39.1875L11.6776 37.421Z" fill="white"/>
<path d="M19.2384 37.421L20.7409 36.3322H18.8856L18.312 34.5657L17.7384 36.3322H15.8831L17.383 37.421L16.8094 39.1875L18.312 38.0961L19.812 39.1875L19.2384 37.421Z" fill="white"/>
<path d="M26.8018 37.421L28.3018 36.3322H26.4465L25.8729 34.5657L25.2993 36.3322H23.444L24.944 37.421L24.3729 39.1875L25.8729 38.0961L27.3729 39.1875L26.8018 37.421Z" fill="white"/>
<path d="M34.3626 37.421L35.8626 36.3322H34.0073L33.4337 34.5657L32.8601 36.3322H31.0048L32.5073 37.421L31.9337 39.1875L33.4337 38.0961L34.9362 39.1875L34.3626 37.421Z" fill="white"/>
</svg>
