<svg width="82" height="82" viewBox="0 0 82 82" fill="none" xmlns="http://www.w3.org/2000/svg">
<path d="M68.5272 10.1519H12.6902C7.08325 10.1519 2.53796 14.6971 2.53796 20.304V60.9128C2.53796 66.5197 7.08325 71.065 12.6902 71.065H68.5272C74.1341 71.065 78.6794 66.5197 78.6794 60.9128V20.304C78.6794 14.6971 74.1341 10.1519 68.5272 10.1519Z" fill="white"/>
<path d="M2.53796 48.2229H78.6794V55.837H2.53796V48.2229Z" fill="#1334A3"/>
<path d="M78.3216 63.4509H2.89587C4.02784 67.8214 7.96435 71.0651 12.6902 71.0651H68.5272C73.2531 71.0651 77.187 67.8214 78.3216 63.4509Z" fill="#1334A3"/>
<path d="M38.0708 32.9944H78.6796V40.6085H38.0708V32.9944Z" fill="#1334A3"/>
<path d="M78.3217 17.7661H38.0708V25.3803H78.6796V20.3042C78.6796 19.4235 78.5323 18.5808 78.3217 17.7661Z" fill="#1334A3"/>
<path opacity="0.2" d="M68.5272 12.6899H12.6902C8.48465 12.6899 5.07605 16.0985 5.07605 20.3041V22.8421C5.07605 18.6366 8.48465 15.228 12.6902 15.228H68.5272C72.7328 15.228 76.1414 18.6366 76.1414 22.8421V20.3041C76.1414 16.0985 72.7328 12.6899 68.5272 12.6899Z" fill="white"/>
<path d="M12.6902 10.1519H40.6087V48.2226H2.53796V20.304C2.53796 14.7 7.08614 10.1519 12.6902 10.1519Z" fill="white"/>
<path opacity="0.15" d="M68.5272 10.1519H12.6902C7.08361 10.1519 2.53796 14.6975 2.53796 20.304V60.9128C2.53796 66.5193 7.08361 71.065 12.6902 71.065H68.5272C74.1337 71.065 78.6794 66.5193 78.6794 60.9128V20.304C78.6794 14.6975 74.1337 10.1519 68.5272 10.1519ZM76.1413 60.9128C76.1413 65.1107 72.7251 68.5269 68.5272 68.5269H12.6902C8.49222 68.5269 5.07601 65.1107 5.07601 60.9128V20.304C5.07601 16.1061 8.49222 12.6899 12.6902 12.6899H68.5272C72.7251 12.6899 76.1413 16.1061 76.1413 20.304V60.9128Z" fill="black"/>
<path d="M30.6316 31.7584C29.8778 31.5579 28.9895 31.3244 27.921 30.3422L34.2636 29.1899L27.5885 27.9767C30.7712 26.761 29.9743 24.4945 33.2001 24.6849C30.3169 22.9285 29.8474 25.5148 26.8753 25.5173L30.5453 20.2179L25.0048 24.0554C26.4565 20.8879 24.1774 19.9438 26.6088 17.7839C23.3296 18.5809 24.8246 20.7407 22.7256 22.8448L21.5733 16.5022L20.3652 23.1493C19.1469 20.1341 16.8602 20.7255 17.0683 17.5656C15.312 20.4489 17.8982 20.9184 17.9008 23.8905L12.6013 20.2204L16.4312 25.7534C13.2663 24.3067 12.3247 26.5909 10.1673 24.1595C10.9643 27.4386 13.1242 25.9437 15.2282 28.0427L8.88562 29.195L15.5175 30.4005C12.2942 31.6163 13.1901 33.8853 9.94906 33.7C12.5226 35.436 13.416 32.9132 16.2739 32.8675L12.6039 38.167L18.1393 34.3345C16.6749 37.5147 18.9744 38.436 16.5404 40.6035C19.8195 39.8065 18.3246 37.6467 20.4236 35.5426L21.5759 41.8852L22.784 35.233C23.9997 38.4462 26.2662 37.5832 26.0809 40.8218C27.8372 37.9385 25.2509 37.469 25.2484 34.497L30.5479 38.167L26.7129 32.6289C29.8499 34.0477 30.822 31.8066 32.9818 34.2305C32.6341 32.6746 31.6773 31.9031 30.6316 31.7635V31.7584Z" fill="#F6D44A"/>
</svg>
