<svg width="82" height="82" viewBox="0 0 82 82" fill="none" xmlns="http://www.w3.org/2000/svg">
<path d="M2.53809 27.9185H78.6795V53.2989H2.53809V27.9185Z" fill="white"/>
<path d="M12.6903 10.1519H68.5273C74.1313 10.1519 78.6795 14.7 78.6795 20.304V30.4562H2.53809V20.304C2.53809 14.7 7.08627 10.1519 12.6903 10.1519Z" fill="#4498B3"/>
<path d="M68.5274 71.0652L12.6903 71.0652C7.08633 71.0652 2.53815 66.517 2.53815 60.913V50.7608L78.6796 50.7608V60.913C78.6796 66.517 74.1314 71.0652 68.5274 71.0652Z" fill="#55B44B"/>
<path d="M2.53809 30.4563H78.6795V32.9943H2.53809V30.4563Z" fill="#BE2A2C"/>
<path d="M2.53809 48.2229H78.6795V50.7609H2.53809V48.2229Z" fill="#BE2A2C"/>
<path opacity="0.15" d="M68.5273 10.1519H12.6903C7.08373 10.1519 2.53809 14.6975 2.53809 20.304V60.9128C2.53809 66.5193 7.08373 71.065 12.6903 71.065H68.5273C74.1339 71.065 78.6795 66.5193 78.6795 60.9128V20.304C78.6795 14.6975 74.1339 10.1519 68.5273 10.1519ZM76.1415 60.9128C76.1415 65.1107 72.7253 68.5269 68.5273 68.5269H12.6903C8.49234 68.5269 5.07613 65.1107 5.07613 60.9128V20.304C5.07613 16.1061 8.49234 12.6899 12.6903 12.6899H68.5273C72.7253 12.6899 76.1415 16.1061 76.1415 20.304V60.9128Z" fill="black"/>
<path opacity="0.2" d="M68.5272 12.6899H12.6902C8.48465 12.6899 5.07605 16.0985 5.07605 20.3041V22.8421C5.07605 18.6366 8.48465 15.228 12.6902 15.228H68.5272C72.7328 15.228 76.1414 18.6366 76.1414 22.8421V20.3041C76.1414 16.0985 72.7328 12.6899 68.5272 12.6899Z" fill="white"/>
<path d="M18.8248 16.5227C18.5025 16.4694 18.1725 16.439 17.835 16.439C14.5583 16.439 11.901 19.0963 11.901 22.3729C11.901 25.6495 14.5583 28.3069 17.835 28.3069C18.1725 28.3069 18.5025 28.2764 18.8248 28.2231C16.0203 27.751 13.8807 25.3145 13.8807 22.3729C13.8807 19.4313 16.0203 16.9948 18.8248 16.5227Z" fill="white"/>
<path d="M24.7232 25.8399L24.274 24.4541L23.8248 25.8399H22.3679L23.5456 26.6952L23.0963 28.0784L24.274 27.2231L25.4516 28.0784L25.0024 26.6952L26.1801 25.8399H24.7232Z" fill="white"/>
<path d="M32.7384 25.8399L32.2891 24.4541L31.8374 25.8399H30.3831L31.5607 26.6952L31.1115 28.0784L32.2891 27.2231L33.4668 28.0784L33.0175 26.6952L34.1952 25.8399H32.7384Z" fill="white"/>
<path d="M32.2891 16.439L31.8374 17.8247H30.3831L31.5607 18.6801L31.1115 20.0633L32.2891 19.208L33.4668 20.0633L33.0175 18.6801L34.1952 17.8247H32.7384L32.2891 16.439Z" fill="white"/>
</svg>
