<svg width="82" height="82" viewBox="0 0 82 82" fill="none" xmlns="http://www.w3.org/2000/svg">
<path d="M68.5271 71.0652H38.0706L38.0706 10.1521L68.5271 10.1521C74.1304 10.1521 78.6793 14.701 78.6793 20.3042V60.913C78.6793 66.5162 74.1304 71.0652 68.5271 71.0652Z" fill="white"/>
<path d="M12.6903 10.1519H40.6088V71.065H12.6903C7.08703 71.065 2.53809 66.516 2.53809 60.9128V20.304C2.53809 14.7008 7.08703 10.1519 12.6903 10.1519Z" fill="#FFF301"/>
<path opacity="0.15" d="M68.5273 10.1519H12.6903C7.08347 10.1519 2.53809 14.697 2.53809 20.304V60.9128C2.53809 66.5199 7.08347 71.065 12.6903 71.065H68.5273C74.1344 71.065 78.6795 66.5199 78.6795 60.9128V20.304C78.6795 14.697 74.1344 10.1519 68.5273 10.1519ZM76.1415 60.9128C76.1415 65.1115 72.726 68.5269 68.5273 68.5269H12.6903C8.49158 68.5269 5.07613 65.1115 5.07613 60.9128V20.304C5.07613 16.1054 8.49158 12.6899 12.6903 12.6899H68.5273C72.726 12.6899 76.1415 16.1054 76.1415 20.304V60.9128Z" fill="black"/>
<path opacity="0.2" d="M68.5272 12.6899H12.6902C8.4849 12.6899 5.07605 16.0988 5.07605 20.3041V22.8421C5.07605 18.6368 8.4849 15.228 12.6902 15.228H68.5272C72.7325 15.228 76.1414 18.6368 76.1414 22.8421V20.3041C76.1414 16.0988 72.7325 12.6899 68.5272 12.6899Z" fill="white"/>
<path d="M72.1325 34.937C72.9154 34.2187 71.3256 33.4621 71.2622 34.5213C70.9934 34.4027 70.6307 34.5482 70.4325 34.8007C70.1614 34.7312 69.931 34.8718 69.9002 35.1461C68.0787 36.4081 66.1272 38.1578 64.362 39.5195C64.0785 39.7349 63.2371 40.4273 62.9422 40.6573C62.613 40.5636 62.3516 40.7677 62.3701 41.1156L60.1968 42.8572C59.8851 42.6227 59.5953 42.5372 59.4374 42.6636C59.2996 42.5976 58.8524 42.8141 59.0981 43.0468C58.7021 45.8531 53.808 45.1491 53.3857 47.9034C53.1913 47.5879 52.5364 47.9346 52.5923 48.2955C51.8017 47.7067 51.572 48.9178 52.2078 49.2859C51.0717 48.2625 49.269 48.0742 47.9436 48.8437C48.1964 48.3826 47.537 48.279 47.3291 48.6285C47.6205 46.5917 44.8847 48.7904 46.9337 48.9437C46.5583 49.0658 46.4769 49.7318 47.0038 49.5925C45.9352 50.7724 45.7385 52.5198 46.5185 53.9079C46.0665 53.6493 45.9464 54.3059 46.3007 54.5198C44.2771 54.2338 46.451 56.9586 46.6218 54.9226C46.75 55.2675 47.3286 55.3848 47.2873 54.9066C48.7621 56.4272 50.5055 56.8822 52.1969 55.8028C52.2253 57.4505 54.4169 55.719 52.8187 55.3107C54.206 53.9914 54.2083 52.1678 53.1999 50.5298C53.4567 51.195 54.5012 50.8041 54.0885 50.1719C54.4781 50.3648 54.8958 49.561 54.6489 49.4874C57.2907 49.7886 58.2014 44.4311 60.6407 44.9577C60.93 45.0844 61.1265 44.8714 61.1059 44.7549C61.2635 44.6285 61.2447 44.3273 61.0856 43.9717L63.2681 42.2405C63.5808 42.3402 63.8673 42.1268 63.8414 41.7857L64.8226 41.0073C65.4526 41.7067 65.9774 40.7689 66.3536 40.274C66.3655 41.8339 65.4193 42.6108 66.8475 43.7615C66.868 43.8265 67.2287 43.4994 67.2576 43.4983C67.1272 44.1887 67.4028 44.8552 68.1932 44.8151C68.213 44.779 69.9129 43.4791 69.9142 43.4326C69.8705 43.0824 70.1304 42.4697 69.5442 42.4951C69.5005 42.4836 68.5698 41.1263 68.5033 41.1811C68.2094 41.3575 68.0033 41.6796 68.1183 42.0278L67.8896 42.1966L67.4756 41.7138C68.1157 41.6088 67.9876 40.6062 67.6531 40.2382L68.0178 39.9197L68.1518 40.0806C68.0652 40.3819 68.2033 40.7938 68.4546 40.9776C68.5949 40.8334 68.9404 40.4321 68.8371 40.2024L69.0345 40.0337L69.3368 40.4613C68.3239 41.1311 69.7416 42.6275 70.4683 42.8628C70.533 42.8532 72.1099 41.4197 72.1459 41.3725C72.2457 40.8837 72.0345 40.2098 71.6545 39.8804C71.6342 39.8113 71.2868 40.1682 71.2649 40.1674C71.4553 39.5481 70.8393 38.6849 70.4624 38.2545C70.4388 38.191 70.1348 38.4918 70.1099 38.4931C70.0914 38.3096 70.1391 37.6527 69.9398 37.5413C70.4335 37.3169 71.1101 36.9959 70.666 36.3776C70.7066 36.3329 70.7403 36.2837 70.7665 36.2309C71.0302 36.2644 71.2279 36.056 71.216 35.7867C71.4997 35.6479 71.7231 35.3512 71.6733 35.038C71.8325 35.0791 72.002 35.0408 72.1325 34.937Z" fill="#FFCD19"/>
<path d="M71.305 54.9908C71.2726 54.5918 70.8023 54.3342 70.449 54.52C70.8005 54.3111 70.6891 53.6522 70.2312 53.908C71.0109 52.52 70.8142 50.7725 69.7457 49.5926C70.2728 49.7319 70.1906 49.0654 69.8157 48.9439C71.8652 48.7896 69.1282 46.5924 69.4203 48.6286C69.2122 48.2789 68.5535 48.3827 68.8056 48.8436C68.2089 48.5091 67.5279 48.3429 66.835 48.371C65.9815 48.4061 65.1749 48.7332 64.5417 49.286C65.184 48.9152 64.9302 47.7058 64.1571 48.2954C64.2125 47.935 63.5576 47.588 63.3637 47.9038C63.0262 45.1655 57.7752 45.7949 57.7095 42.9967C57.7844 42.7079 57.442 42.634 57.3118 42.6637C57.1539 42.5378 56.8643 42.6231 56.5526 42.8576L54.3793 41.1158C54.3978 40.7681 54.1364 40.5637 53.8072 40.6574C53.5075 40.4236 52.675 39.7381 52.3875 39.5196C50.622 38.1574 48.6712 36.4085 46.8492 35.1463C46.8185 34.8722 46.5883 34.7313 46.3172 34.8009C46.119 34.5483 45.7563 34.4029 45.4875 34.5214C45.1642 33.0042 43.5254 35.0661 45.0756 35.0379C45.0258 35.3511 45.2495 35.6478 45.533 35.7866C45.521 36.0559 45.7185 36.2643 45.9824 36.2308C46.0088 36.2836 46.0426 36.3326 46.0829 36.3775C45.639 36.9958 46.3154 37.3168 46.8091 37.5412C46.6101 37.6498 46.657 38.3128 46.639 38.4927C46.6103 38.4927 46.3126 38.1899 46.2862 38.2539C45.9088 38.6856 45.2944 39.5468 45.4842 40.1668C45.0421 39.5866 44.8989 40.2145 44.6091 40.5285C44.5885 40.5427 44.6104 41.3523 44.6035 41.3719C44.637 41.4226 46.218 42.8477 46.2812 42.8622C47.0076 42.6264 48.4256 41.131 47.4126 40.4607L47.7149 40.033L47.9124 40.2018C47.8091 40.4305 48.1545 40.8348 48.2954 40.9772C48.5459 40.7927 48.6844 40.381 48.5974 40.0803L48.7317 39.9193L49.0964 40.2379C48.7619 40.6059 48.6339 41.6087 49.2738 41.7135L48.8598 42.1962L48.6311 42.0274C48.7456 41.6787 48.5403 41.3569 48.2461 41.1808C48.1801 41.1285 47.2479 42.4823 47.2053 42.4947C46.6218 42.4698 46.8768 43.0797 46.8355 43.4322C46.8279 43.4708 48.5451 44.7886 48.5565 44.8147C49.3441 44.8546 49.6233 44.1909 49.492 43.5003C49.5179 43.4977 49.8819 43.8251 49.9014 43.7627C51.3258 42.6127 50.3948 41.8378 50.4007 40.28C50.7755 40.7729 51.2999 41.7046 51.9273 41.0066L52.9075 41.784C52.8831 42.1307 53.1692 42.3373 53.4821 42.2399L55.6646 43.9711C55.5052 44.3269 55.4864 44.6284 55.6445 44.7546C55.6019 44.9584 56.0915 45.1444 56.1765 44.7812C58.861 45.0997 59.3671 49.5682 62.1013 49.4868C61.8341 49.7327 62.3209 50.3119 62.6617 50.1713C62.249 50.8045 63.2945 51.1936 63.5505 50.5289C62.5417 52.1667 62.5442 53.991 63.9315 55.3101C62.3325 55.7194 64.5257 57.4489 64.5533 55.8022C66.2449 56.8819 67.9878 56.4265 69.4629 54.906C69.42 55.3872 70.0043 55.2616 70.1284 54.922C69.9276 55.8144 71.401 55.9002 71.305 54.9908Z" fill="#BFC0C1"/>
<path d="M62.0961 41.4106C62.41 40.7155 60.9372 38.9419 60.7661 37.4739C60.3489 37.5231 59.6555 37.7307 59.074 37.7216C58.3002 38.0947 60.424 42.6012 60.9981 42.2312C61.0387 42.3568 62.0542 41.3954 62.0961 41.4106Z" fill="#FFCD19"/>
<path d="M54.6515 43.0743C54.6428 43.0669 54.6312 43.0664 54.6208 43.0707C54.0944 42.6009 53.3906 42.0019 52.6454 42.192C52.3456 39.6218 53.902 35.1896 53.0446 32.4947C51.8946 30.1962 49.833 30.1437 48.2701 32.452L48.2266 32.4094C48.035 32.2421 47.6949 32.7223 48.033 32.8439C47.8277 32.8508 46.4137 33.3391 47.0901 33.4962C46.9792 33.7886 47.1074 33.8058 47.3678 33.7736C47.0891 34.0543 47.2619 34.0502 47.5543 34.0449C47.5079 34.1538 47.3607 34.3822 47.6079 34.2502C47.6462 34.4439 47.5112 34.6241 47.8058 34.6254C47.7525 34.8393 47.8206 34.9017 48.034 34.8693C48.0231 35.0081 47.9883 35.1657 48.1901 35.1243C48.1439 35.2908 48.1221 35.4104 48.3424 35.3548C48.3586 36.2223 49.4858 34.6101 49.6492 34.4373C49.8472 34.8545 50.4287 34.4898 50.0393 34.1967C50.3109 33.9624 50.5972 33.7109 51.0068 33.3698C50.9297 36.819 48.2173 44.0765 53.7398 43.5276C54.0142 43.5288 55.1329 43.4009 54.6515 43.0743Z" fill="#FFCD19"/>
<path d="M57.9638 37.7382C57.2559 37.7075 56.674 37.6471 56.0313 37.4578C55.3778 39.3372 54.9138 40.6534 54.4263 41.1922C54.526 41.3448 55.5651 42.1996 55.7511 42.2331C56.8052 42.0872 57.5828 39.1847 57.9638 37.7382Z" fill="#FFCD19"/>
<path d="M69.8494 33.4308C69.822 33.0545 68.9758 32.9362 68.7192 32.843C69.0578 32.7215 68.7167 32.241 68.5258 32.4085L68.4339 32.4991C67.7593 31.7547 66.851 30.6101 65.906 30.592C61.2345 32.2009 64.6624 38.8788 64.1063 42.1909C63.3028 42.0115 62.6987 42.5803 62.1287 43.0686C61.5619 43.361 62.7294 43.5429 63.0111 43.5267C68.5134 44.0754 65.835 36.8793 65.7517 33.4319C66.0961 33.7425 66.3847 34.0194 66.6469 34.261C66.3885 34.5819 66.9527 34.7917 67.1032 34.4364C67.2685 34.6113 68.3926 36.2202 68.4098 35.3539C68.6306 35.41 68.608 35.2892 68.5621 35.1235C68.7639 35.1653 68.7289 35.0067 68.7179 34.8684C68.9322 34.9011 68.9992 34.8379 68.9461 34.6245C69.2413 34.623 69.1055 34.4433 69.1441 34.2494C69.3915 34.3816 69.2438 34.1522 69.1976 34.044C69.4913 34.0496 69.6621 34.0529 69.3844 33.7727C69.6458 33.8052 69.7722 33.7872 69.6621 33.4953C69.688 33.4808 69.8862 33.5001 69.8494 33.4308Z" fill="#FFCD19"/>
<path d="M62.8983 31.5986C62.8234 31.5278 62.5863 31.7082 62.4853 31.7113C62.4318 31.3544 62.3234 31.2798 62.1505 31.7024C61.9731 30.3775 61.4673 30.6968 61.517 29.575C61.7683 29.5435 61.8599 29.1877 61.6549 29.0392C61.8003 28.4806 62.0645 27.5542 61.566 28.3565C61.1919 28.2397 60.9412 28.1316 60.7856 28.5205C60.28 27.6763 59.5942 27.1306 58.8508 26.9667C58.8483 26.8108 58.8163 26.5603 58.659 26.4162C58.663 26.4129 58.6102 25.7895 58.6112 25.7852C59.1724 25.903 59.2343 25.807 59.1805 25.254C59.2049 25.1921 58.6239 25.2956 58.6115 25.2822C58.7059 24.7616 58.6716 24.6451 58.1158 24.7111C58.0546 24.6862 58.1536 25.27 58.1404 25.2822C57.5793 25.1644 57.5181 25.2608 57.5714 25.8134C57.5486 25.8758 58.1272 25.7715 58.1407 25.7852C58.1417 25.7885 58.0892 26.4136 58.093 26.4159C57.9348 26.5603 57.9031 26.8113 57.9006 26.9664C57.1569 27.1304 56.4712 27.6758 55.9653 28.5199C55.811 27.9009 55.2171 28.64 55.0311 28.1456C54.7501 27.6372 54.9854 28.7235 55.0973 29.0425C54.9014 29.192 54.991 29.5359 55.2339 29.5725C55.2851 30.6971 54.7783 30.3742 54.6011 31.7039C54.4288 31.2816 54.3194 31.3529 54.2658 31.7115C53.3516 31.2862 54.2664 32.2752 54.0572 32.5955C53.9062 32.89 54.6001 32.6641 54.6912 32.7935C54.6851 33.0889 53.7651 34.2948 54.6714 34.1359C54.678 34.2387 54.5519 34.3481 54.4925 34.3986C54.0968 34.2422 54.4227 34.6945 54.6219 34.9831C54.2697 35.1818 54.6087 35.7272 54.944 35.4973C55.0336 36.093 54.4001 37.1161 55.5384 36.7041C55.4803 36.7447 55.4349 36.7869 55.4021 36.83C55.1278 36.9366 55.144 37.2295 55.4308 37.2135C56.0544 37.9815 60.697 37.9815 61.3206 37.2135C61.6023 37.2303 61.6254 36.9435 61.3577 36.8336C61.3275 36.7902 61.2843 36.7478 61.2285 36.7069C62.3566 37.1102 61.7112 36.0803 61.8079 35.4973C62.1462 35.7432 62.4967 35.1785 62.129 34.9841C62.3282 34.6955 62.6554 34.2422 62.2589 34.3988C62.1995 34.3483 62.0729 34.2387 62.0797 34.1356C62.9863 34.295 62.0683 33.093 62.0597 32.7938C62.1627 32.691 62.6188 32.8143 62.7135 32.7042C62.5097 32.3288 62.9386 32.0291 62.8983 31.5986Z" fill="#FFCD19"/>
</svg>
