<svg width="82" height="82" viewBox="0 0 82 82" fill="none" xmlns="http://www.w3.org/2000/svg">
<path d="M20.3044 10.1521H60.9131V71.0652H20.3044V10.1521Z" fill="#F5D34D"/>
<path d="M12.6903 10.1521H22.8425V71.0652H12.6903C7.08627 71.0652 2.53809 66.5171 2.53809 60.913V20.3043C2.53809 14.7003 7.08627 10.1521 12.6903 10.1521Z" fill="#0A2070"/>
<path d="M68.5273 71.0652H58.3751L58.3751 10.1521H68.5273C74.1313 10.1521 78.6795 14.7002 78.6795 20.3042V60.913C78.6795 66.517 74.1313 71.0652 68.5273 71.0652Z" fill="#367B35"/>
<path opacity="0.15" d="M68.5273 10.1521H12.6903C7.08373 10.1521 2.53809 14.6977 2.53809 20.3043V60.913C2.53809 66.5196 7.08373 71.0652 12.6903 71.0652H68.5273C74.1339 71.0652 78.6795 66.5196 78.6795 60.913V20.3043C78.6795 14.6977 74.1339 10.1521 68.5273 10.1521ZM76.1415 60.913C76.1415 65.111 72.7253 68.5272 68.5273 68.5272H12.6903C8.49234 68.5272 5.07613 65.111 5.07613 60.913V20.3043C5.07613 16.1064 8.49234 12.6901 12.6903 12.6901H68.5273C72.7253 12.6901 76.1415 16.1064 76.1415 20.3043V60.913Z" fill="black"/>
<path opacity="0.2" d="M68.5273 12.6902H12.6903C8.48471 12.6902 5.07611 16.0988 5.07611 20.3043V22.8424C5.07611 18.6368 8.48471 15.2282 12.6903 15.2282H68.5273C72.7328 15.2282 76.1414 18.6368 76.1414 22.8424V20.3043C76.1414 16.0988 72.7328 12.6902 68.5273 12.6902Z" fill="white"/>
<path d="M35.0708 30.4565L39.6849 38.4489L35.0708 46.4412L30.4566 38.4489L35.0708 30.4565Z" fill="#367B35"/>
<path d="M46.1468 30.4565L50.7609 38.4489L46.1468 46.4412L41.5326 38.4489L46.1468 30.4565Z" fill="#367B35"/>
<path d="M40.6087 40.0479L45.2229 48.0402L40.6087 56.0325L35.9946 48.0402L40.6087 40.0479Z" fill="#367B35"/>
</svg>
