<svg width="82" height="82" viewBox="0 0 82 82" fill="none" xmlns="http://www.w3.org/2000/svg">
<path d="M2.53809 27.9185H78.6795V53.2989H2.53809V27.9185Z" fill="#091E79"/>
<path d="M12.6903 10.1521H68.5273C74.1313 10.1521 78.6795 14.7003 78.6795 20.3043V30.4565H2.53809V20.3043C2.53809 14.7003 7.08627 10.1521 12.6903 10.1521Z" fill="#F7CF46"/>
<path d="M68.5273 71.0654L12.6903 71.0654C7.08627 71.0654 2.53809 66.5172 2.53809 60.9132V50.7611L78.6795 50.7611V60.9132C78.6795 66.5172 74.1313 71.0654 68.5273 71.0654Z" fill="#BF2C30"/>
<path opacity="0.15" d="M68.5273 10.1521H12.6903C7.08373 10.1521 2.53809 14.6977 2.53809 20.3043V60.913C2.53809 66.5196 7.08373 71.0652 12.6903 71.0652H68.5273C74.1339 71.0652 78.6795 66.5196 78.6795 60.913V20.3043C78.6795 14.6977 74.1339 10.1521 68.5273 10.1521ZM76.1415 60.913C76.1415 65.111 72.7253 68.5272 68.5273 68.5272H12.6903C8.49234 68.5272 5.07613 65.111 5.07613 60.913V20.3043C5.07613 16.1064 8.49234 12.6901 12.6903 12.6901H68.5273C72.7253 12.6901 76.1415 16.1064 76.1415 20.3043V60.913Z" fill="black"/>
<path opacity="0.2" d="M68.5273 12.6902H12.6903C8.48471 12.6902 5.07611 16.0988 5.07611 20.3043V22.8424C5.07611 18.6368 8.48471 15.2282 12.6903 15.2282H68.5273C72.7328 15.2282 76.1414 18.6368 76.1414 22.8424V20.3043C76.1414 16.0988 72.7328 12.6902 68.5273 12.6902Z" fill="white"/>
<path d="M25.9059 44.9615L25.4363 43.3193L24.8526 44.9259L23.1445 44.865L24.4896 45.9183L23.9059 47.5223L25.3221 46.568L26.6698 47.6188L26.1977 45.9767L27.614 45.0224L25.9059 44.9615Z" fill="white"/>
<path d="M29.0936 40.7077L29.3322 39.0173L28.1444 40.2457L26.6088 39.4945L27.4109 41.0046L26.2205 42.2305L27.9032 41.9361L28.7053 43.4462L28.9438 41.7533L30.6291 41.4589L29.0936 40.7077Z" fill="white"/>
<path d="M33.4895 37.5504L34.1849 35.9895L32.7053 36.8449L31.4362 35.7002L31.7916 37.3728L30.3119 38.2256L32.0098 38.4058L32.3652 40.0758L33.0606 38.5149L34.7611 38.6926L33.4895 37.5504Z" fill="white"/>
<path d="M38.157 35.1065L37.355 33.5989L37.1164 35.2892L35.4337 35.5862L36.9692 36.3349L36.7306 38.0278L37.9184 36.7994L39.4539 37.5481L38.6519 36.0379L39.8397 34.8095L38.157 35.1065Z" fill="white"/>
<path d="M56.7279 45.9183L58.0731 44.865L56.365 44.9259L55.7812 43.3193L55.3117 44.9615L53.6036 45.0224L55.0198 45.9767L54.5477 47.6188L55.8954 46.568L57.3117 47.5223L56.7279 45.9183Z" fill="white"/>
<path d="M53.3142 41.9361L54.9969 42.2305L53.8066 41.0046L54.6086 39.4945L53.0731 40.2457L51.8853 39.0173L52.1238 40.7077L50.5883 41.4589L52.2736 41.7533L52.5122 43.4462L53.3142 41.9361Z" fill="white"/>
<path d="M49.2077 38.4058L50.9057 38.2256L49.426 37.3728L49.7813 35.7002L48.5123 36.8449L47.0326 35.9895L47.728 37.5504L46.4565 38.6926L48.157 38.5149L48.8524 40.0758L49.2077 38.4058Z" fill="white"/>
<path d="M44.1011 35.2892L43.8626 33.5989L43.0605 35.1065L41.3778 34.8095L42.5656 36.0379L41.7636 37.5481L43.2991 36.7994L44.4869 38.0278L44.2483 36.3349L45.7839 35.5862L44.1011 35.2892Z" fill="white"/>
</svg>
