<svg width="82" height="82" viewBox="0 0 82 82" fill="none" xmlns="http://www.w3.org/2000/svg">
<path d="M68.5273 10.1521H12.6903C7.08338 10.1521 2.53809 14.6974 2.53809 20.3043V60.913C2.53809 66.5199 7.08338 71.0652 12.6903 71.0652H68.5273C74.1342 71.0652 78.6795 66.5199 78.6795 60.913V20.3043C78.6795 14.6974 74.1342 10.1521 68.5273 10.1521Z" fill="#C93728"/>
<path opacity="0.15" d="M68.5273 10.1521H12.6903C7.08373 10.1521 2.53809 14.6977 2.53809 20.3043V60.913C2.53809 66.5196 7.08373 71.0652 12.6903 71.0652H68.5273C74.1339 71.0652 78.6795 66.5196 78.6795 60.913V20.3043C78.6795 14.6977 74.1339 10.1521 68.5273 10.1521ZM76.1415 60.913C76.1415 65.111 72.7253 68.5272 68.5273 68.5272H12.6903C8.49234 68.5272 5.07613 65.111 5.07613 60.913V20.3043C5.07613 16.1064 8.49234 12.6901 12.6903 12.6901H68.5273C72.7253 12.6901 76.1415 16.1064 76.1415 20.3043V60.913Z" fill="black"/>
<path opacity="0.2" d="M68.5273 12.6902H12.6903C8.48471 12.6902 5.07611 16.0988 5.07611 20.3043V22.8424C5.07611 18.6368 8.48471 15.2282 12.6903 15.2282H68.5273C72.7328 15.2282 76.1414 18.6368 76.1414 22.8424V20.3043C76.1414 16.0988 72.7328 12.6902 68.5273 12.6902Z" fill="white"/>
<path d="M45.7051 41.5377L53.9512 35.5479H43.7584L40.6087 25.8525L37.459 35.5479H27.2662L35.5123 41.5377L32.3626 51.233L40.6087 45.2407L48.8548 51.233L45.7051 41.5377Z" fill="#FFFF55"/>
</svg>
