<svg width="82" height="82" viewBox="0 0 82 82" fill="none" xmlns="http://www.w3.org/2000/svg">
<path d="M2.53809 60.913C2.53809 66.52 7.08322 71.0652 12.6903 71.0652H68.5273C74.1344 71.0652 78.6795 66.52 78.6795 60.913V38.0706H2.53809V60.913Z" fill="#009641"/>
<path d="M68.5273 10.1519H12.6903C7.08322 10.1519 2.53809 14.697 2.53809 20.304V40.6084H78.6795V20.304C78.6795 14.697 74.1344 10.1519 68.5273 10.1519Z" fill="#D30931"/>
<path d="M78.6795 35.5327H34.2637L5.87739 12.8237C3.8396 14.6806 2.53809 17.33 2.53809 20.3044V60.9131C2.53809 63.8875 3.8396 66.5369 5.87739 68.3938L34.2637 45.6848H78.6795V35.5327Z" fill="black"/>
<path d="M3.60151 15.8767C3.20329 16.6787 2.91268 17.5351 2.7406 18.4417L30.4515 40.6087L2.7406 62.7747C2.91243 63.6811 3.20303 64.5377 3.60125 65.3397L32.9304 41.8777H78.6797V39.3397H32.9302L3.60151 15.8767Z" fill="#FDCF09"/>
<path opacity="0.15" d="M68.5273 10.1519H12.6903C7.08347 10.1519 2.53809 14.697 2.53809 20.304V60.9128C2.53809 66.5199 7.08347 71.065 12.6903 71.065H68.5273C74.1344 71.065 78.6795 66.5199 78.6795 60.9128V20.304C78.6795 14.697 74.1344 10.1519 68.5273 10.1519ZM76.1415 60.9128C76.1415 65.1115 72.726 68.5269 68.5273 68.5269H12.6903C8.49158 68.5269 5.07613 65.1115 5.07613 60.9128V20.304C5.07613 16.1054 8.49158 12.6899 12.6903 12.6899H68.5273C72.726 12.6899 76.1415 16.1054 76.1415 20.304V60.9128Z" fill="black"/>
<path opacity="0.2" d="M68.5274 12.6899H12.6903C8.48502 12.6899 5.07617 16.0988 5.07617 20.3041V22.8421C5.07617 18.6368 8.48502 15.228 12.6903 15.228H68.5274C72.7326 15.228 76.1415 18.6368 76.1415 22.8421V20.3041C76.1415 16.0988 72.7326 12.6899 68.5274 12.6899Z" fill="white"/>
<path d="M12.1927 45.0766V47.7377C14.5079 47.7377 19.0515 45.9636 19.0515 40.2515C19.0515 34.5394 14.5366 33.4792 12.7554 33.4792C10.7255 33.4792 6.82703 34.997 6.82703 39.1914C6.82703 43.8649 11.2194 44.2977 12.0846 44.2977C12.9498 44.2977 16.1955 43.5187 15.8277 40.0137C15.8277 41.0091 14.7026 43.1078 12.3442 43.1078C9.98588 43.1078 8.51457 41.3553 8.51457 39.6244C8.51457 37.8934 9.94248 35.5782 12.4308 35.5782C14.9191 35.5782 16.7363 37.785 16.7363 40.0137C16.7363 42.2424 14.9838 45.0766 12.1927 45.0766Z" fill="#FDCF09"/>
</svg>
