<svg width="82" height="82" viewBox="0 0 82 82" fill="none" xmlns="http://www.w3.org/2000/svg">
<path d="M68.5273 10.1521H12.6903C7.08338 10.1521 2.53809 14.6974 2.53809 20.3043V60.913C2.53809 66.5199 7.08338 71.0652 12.6903 71.0652H68.5273C74.1342 71.0652 78.6795 66.5199 78.6795 60.913V20.3043C78.6795 14.6974 74.1342 10.1521 68.5273 10.1521Z" fill="#BE2A2C"/>
<path d="M12.6903 10.1521H40.6088V40.6087H2.53809V20.3043C2.53809 14.7003 7.08627 10.1521 12.6903 10.1521Z" fill="#0C267B"/>
<path d="M23.7078 34.5809L22.7992 31.7839L21.8906 34.5809H18.9515L21.3297 36.3093L20.4211 39.1037L22.7992 37.3778L25.1774 39.1037L24.2687 36.3093L26.6469 34.5809H23.7078Z" fill="white"/>
<path d="M15.0609 22.8704L14.3324 20.6318L13.6066 22.8704H11.2538L13.1573 24.2511L12.4289 26.4897L14.3324 25.1064L16.236 26.4897L15.5076 24.2511L17.4111 22.8704H15.0609Z" fill="white"/>
<path d="M21.6242 17.3248L20.8958 19.5608L22.7994 18.1801L24.7029 19.5608L23.9745 17.3248L25.878 15.9416H23.5252L22.7994 13.7056L22.0735 15.9416H19.7207L21.6242 17.3248Z" fill="white"/>
<path d="M32.5607 22.8703L34.345 21.5759H32.1394L31.4592 19.4795L30.7765 21.5759H28.5709L30.3552 22.8703L29.675 24.9693L31.4592 23.6723L33.2409 24.9693L32.5607 22.8703Z" fill="white"/>
<path d="M27.487 27.9922L27.0327 26.5938L26.5784 27.9922H25.1089L26.2967 28.8552L25.8424 30.2536L27.0327 29.3907L28.2205 30.2536L27.7662 28.8552L28.9566 27.9922H27.487Z" fill="white"/>
<path opacity="0.15" d="M68.5273 10.1521H12.6903C7.08373 10.1521 2.53809 14.6977 2.53809 20.3043V60.913C2.53809 66.5196 7.08373 71.0652 12.6903 71.0652H68.5273C74.1339 71.0652 78.6795 66.5196 78.6795 60.913V20.3043C78.6795 14.6977 74.1339 10.1521 68.5273 10.1521ZM76.1415 60.913C76.1415 65.111 72.7253 68.5272 68.5273 68.5272H12.6903C8.49234 68.5272 5.07613 65.111 5.07613 60.913V20.3043C5.07613 16.1064 8.49234 12.6901 12.6903 12.6901H68.5273C72.7253 12.6901 76.1415 16.1064 76.1415 20.3043V60.913Z" fill="black"/>
<path opacity="0.2" d="M68.5274 12.6902H12.6903C8.48477 12.6902 5.07617 16.0988 5.07617 20.3043V22.8424C5.07617 18.6368 8.48477 15.2282 12.6903 15.2282H68.5274C72.7329 15.2282 76.1415 18.6368 76.1415 22.8424V20.3043C76.1415 16.0988 72.7329 12.6902 68.5274 12.6902Z" fill="white"/>
</svg>
