<svg width="82" height="82" viewBox="0 0 82 82" fill="none" xmlns="http://www.w3.org/2000/svg">
<path d="M68.5274 10.1522H12.6904C7.0835 10.1522 2.53821 14.6975 2.53821 20.3044V60.9132C2.53821 66.5201 7.0835 71.0654 12.6904 71.0654H68.5274C74.1343 71.0654 78.6796 66.5201 78.6796 60.9132V20.3044C78.6796 14.6975 74.1343 10.1522 68.5274 10.1522Z" fill="#2B48A1"/>
<path opacity="0.15" d="M68.5274 10.1522H12.6904C7.08385 10.1522 2.53821 14.6979 2.53821 20.3044V60.9132C2.53821 66.5197 7.08385 71.0654 12.6904 71.0654H68.5274C74.134 71.0654 78.6796 66.5197 78.6796 60.9132V20.3044C78.6796 14.6979 74.134 10.1522 68.5274 10.1522ZM76.1416 60.9132C76.1416 65.1111 72.7254 68.5273 68.5274 68.5273H12.6904C8.49247 68.5273 5.07626 65.1111 5.07626 60.9132V20.3044C5.07626 16.1065 8.49247 12.6903 12.6904 12.6903H68.5274C72.7254 12.6903 76.1416 16.1065 76.1416 20.3044V60.9132Z" fill="black"/>
<path d="M41.0047 30.9617C40.8601 34.4236 44.4641 31.9515 45.6544 34.7409C46.8905 35.8627 47.2889 38.6038 50.0427 38.4439C49.6315 40.4312 49.2052 40.9261 51.4742 41.3778C52.6011 40.7154 52.6696 41.9565 53.4132 42.3499C54.0452 42.19 55.2711 41.5936 55.6087 42.8347C54.667 45.1545 53.7457 47.794 52.2914 49.0402C49.4006 48.9717 55.6543 51.9564 51.2204 51.36C50.6112 49.8828 49.5021 52.0706 48.5656 52.2788C48.3219 54.8777 46.8169 55.4615 45.657 52.7128C35.7611 54.0325 42.3042 58.9031 37.0276 59.3523C35.4692 46.0225 32.7104 53.3955 30.6952 47.6595C30.3805 46.3499 29.2206 45.7814 28.3221 44.8524C28.9693 43.1367 28.5226 42.657 26.8424 41.9692C26.6825 40.3982 28.6495 39.7611 29.9058 40.7687C31.0099 40.4235 31.4439 39.1799 33.0226 39.1088C35.6215 39.2027 34.9033 38.4489 35.2662 36.6317C36.5657 35.5809 37.454 36.0302 37.7687 34.2586C39.0251 33.8221 35.5758 32.4566 37.4895 31.68C38.657 31.4795 40.1875 29.6648 41.0123 30.9668" fill="#C8A75E"/>
<path d="M44.9566 24.0379L44.251 21.8679L43.553 24.0379H41.2688L43.1165 25.3806L42.4109 27.5506L44.2485 26.208L46.0962 27.5506L45.3906 25.3806L47.2383 24.0379H44.9566Z" fill="white"/>
<path d="M52.1366 25.3017L51.4311 23.1418L50.7331 25.3017H48.4489L50.2965 26.6444L49.591 28.8144L51.4285 27.4718L53.2762 28.8144L52.5706 26.6444L54.4183 25.3017H52.1366Z" fill="white"/>
<path d="M58.9869 27.7942L58.2889 25.6343L57.5833 27.7942H55.2991L57.1468 29.1368L56.4412 31.3068L58.2889 29.9642L60.1264 31.3068L59.4209 29.1368L61.2686 27.7942H58.9869Z" fill="white"/>
<path d="M37.6648 24.0379L36.9669 21.8679L36.2613 24.0379H33.9771L35.8247 25.3806L35.1192 27.5506L36.9669 26.208L38.8044 27.5506L38.0988 25.3806L39.9465 24.0379H37.6623H37.6648Z" fill="white"/>
<path d="M30.4845 25.3017L29.7866 23.1418L29.081 25.3017H26.7968L28.6445 26.6444L27.9389 28.8144L29.7866 27.4718L31.6241 28.8144L30.9185 26.6444L32.7662 25.3017H30.4845Z" fill="white"/>
<path d="M23.6344 27.7942L22.9289 25.6343L22.2309 27.7942H19.9467L21.7944 29.1368L21.0888 31.3068L22.9263 29.9642L24.774 31.3068L24.0684 29.1368L25.9161 27.7942H23.6319H23.6344Z" fill="white"/>
<path opacity="0.2" d="M68.5274 12.6902H12.6903C8.48477 12.6902 5.07617 16.0988 5.07617 20.3043V22.8424C5.07617 18.6368 8.48477 15.2282 12.6903 15.2282H68.5274C72.7329 15.2282 76.1415 18.6368 76.1415 22.8424V20.3043C76.1415 16.0988 72.7329 12.6902 68.5274 12.6902Z" fill="white"/>
</svg>
