<svg width="82" height="82" viewBox="0 0 82 82" fill="none" xmlns="http://www.w3.org/2000/svg">
<path d="M2.53809 27.9185H78.6795V53.2989H2.53809V27.9185Z" fill="white"/>
<path d="M12.6903 10.1521H68.5273C74.1313 10.1521 78.6795 14.7003 78.6795 20.3043V30.4565H2.53809V20.3043C2.53809 14.7003 7.08627 10.1521 12.6903 10.1521Z" fill="#BE2A2C"/>
<path d="M68.5273 71.0654L12.6902 71.0654C7.0862 71.0654 2.53802 66.5172 2.53802 60.9132V50.7611L78.6794 50.7611V60.9132C78.6794 66.5172 74.1313 71.0654 68.5273 71.0654Z" fill="black"/>
<path opacity="0.15" d="M68.5273 10.1521H12.6903C7.08373 10.1521 2.53809 14.6977 2.53809 20.3043V60.913C2.53809 66.5196 7.08373 71.0652 12.6903 71.0652H68.5273C74.1339 71.0652 78.6795 66.5196 78.6795 60.913V20.3043C78.6795 14.6977 74.1339 10.1521 68.5273 10.1521ZM76.1415 60.913C76.1415 65.111 72.7253 68.5272 68.5273 68.5272H12.6903C8.49234 68.5272 5.07613 65.111 5.07613 60.913V20.3043C5.07613 16.1064 8.49234 12.6901 12.6903 12.6901H68.5273C72.7253 12.6901 76.1415 16.1064 76.1415 20.3043V60.913Z" fill="black"/>
<path opacity="0.2" d="M68.5272 12.6902H12.6902C8.48465 12.6902 5.07605 16.0988 5.07605 20.3043V22.8424C5.07605 18.6368 8.48465 15.2282 12.6902 15.2282H68.5272C72.7328 15.2282 76.1414 18.6368 76.1414 22.8424V20.3043C76.1414 16.0988 72.7328 12.6902 68.5272 12.6902Z" fill="white"/>
</svg>
