<svg width="82" height="82" viewBox="0 0 82 82" fill="none" xmlns="http://www.w3.org/2000/svg">
<path d="M12.6903 71.0655H68.5273C74.1339 71.0655 78.6795 66.5198 78.6795 60.9133V40.6089H2.53809V60.9133C2.53809 66.5198 7.08373 71.0655 12.6903 71.0655Z" fill="#030A85"/>
<path d="M78.6795 20.3045C78.6795 14.698 74.1339 10.1523 68.5273 10.1523H12.6903C7.08373 10.1523 2.53809 14.698 2.53809 20.3045V43.147H78.6795V20.3045Z" fill="#D04839"/>
<path d="M5.76394 68.3013L38.0707 40.6086L5.76394 12.916C3.78934 14.7688 2.53809 17.383 2.53809 20.3043V60.913C2.53809 63.8343 3.78934 66.4485 5.76394 68.3013Z" fill="black"/>
<path d="M14.2386 10.1523H12.6904C10.0051 10.1523 7.57874 11.2158 5.76404 12.9163L38.0708 40.6089L5.76404 68.3015C7.57874 70.0046 10.0051 71.0655 12.6904 71.0655H14.2386L40.8881 48.2231H78.6796V32.9948H40.8881L14.2386 10.1523Z" fill="white"/>
<path d="M5.76405 12.916C3.81483 14.7434 2.58133 17.3145 2.54834 20.1901L26.3705 40.6086L2.55088 61.0272C2.58387 63.9028 3.81736 66.4739 5.76658 68.3013L38.0734 40.6086L5.76405 12.916Z" fill="#F5BD45"/>
<path d="M10.5964 10.3728C6.99488 11.1291 4.13958 13.8093 3.04822 17.2763L30.2688 40.6086L3.04822 63.9408C4.13704 67.4078 6.99488 70.088 10.5964 70.8443L39.9489 45.6847H78.6795V35.5325H39.9489L10.5964 10.3728Z" fill="#33764C"/>
<path opacity="0.15" d="M12.6903 71.0655H68.5273C74.1339 71.0655 78.6795 66.5198 78.6795 60.9133V20.3045C78.6795 14.698 74.1339 10.1523 68.5273 10.1523H12.6903C7.08373 10.1523 2.53809 14.698 2.53809 20.3045V60.9133C2.53809 66.5198 7.08373 71.0655 12.6903 71.0655ZM5.07613 20.3045C5.07613 16.1066 8.49234 12.6904 12.6903 12.6904H68.5273C72.7253 12.6904 76.1415 16.1066 76.1415 20.3045V60.9133C76.1415 65.1112 72.7253 68.5274 68.5273 68.5274H12.6903C8.49234 68.5274 5.07613 65.1112 5.07613 60.9133V20.3045Z" fill="black"/>
<path opacity="0.2" d="M68.5272 12.6904H12.6902C8.48465 12.6904 5.07605 16.099 5.07605 20.3046V22.8426C5.07605 18.6371 8.48465 15.2285 12.6902 15.2285H68.5272C72.7328 15.2285 76.1414 18.6371 76.1414 22.8426V20.3046C76.1414 16.099 72.7328 12.6904 68.5272 12.6904Z" fill="white"/>
</svg>
