<svg width="82" height="82" viewBox="0 0 82 82" fill="none" xmlns="http://www.w3.org/2000/svg">
<path d="M68.5273 10.1521H12.6903C7.08338 10.1521 2.53809 14.6974 2.53809 20.3043V60.913C2.53809 66.5199 7.08338 71.0652 12.6903 71.0652H68.5273C74.1342 71.0652 78.6795 66.5199 78.6795 60.913V20.3043C78.6795 14.6974 74.1342 10.1521 68.5273 10.1521Z" fill="#408926"/>
<path d="M65.989 38.0706H78.6793V60.913C78.6793 66.517 74.1311 71.0652 68.5271 71.0652H65.989V38.0706Z" fill="#E18430"/>
<path d="M53.299 38.0706H65.9892V71.0652H53.299V38.0706Z" fill="black"/>
<path d="M40.6086 38.0706H53.2989V71.0652H40.6086V38.0706Z" fill="#CD3421"/>
<path opacity="0.15" d="M68.5273 10.1521H12.6903C7.08373 10.1521 2.53809 14.6977 2.53809 20.3043V60.913C2.53809 66.5196 7.08373 71.0652 12.6903 71.0652H68.5273C74.1339 71.0652 78.6795 66.5196 78.6795 60.913V20.3043C78.6795 14.6977 74.1339 10.1521 68.5273 10.1521ZM76.1415 60.913C76.1415 65.111 72.7253 68.5272 68.5273 68.5272H12.6903C8.49234 68.5272 5.07613 65.111 5.07613 60.913V20.3043C5.07613 16.1064 8.49234 12.6901 12.6903 12.6901H68.5273C72.7253 12.6901 76.1415 16.1064 76.1415 20.3043V60.913Z" fill="black"/>
<path opacity="0.2" d="M68.5272 12.6902H12.6902C8.48465 12.6902 5.07605 16.0988 5.07605 20.3043V22.8424C5.07605 18.6368 8.48465 15.2282 12.6902 15.2282H68.5272C72.7328 15.2282 76.1414 18.6368 76.1414 22.8424V20.3043C76.1414 16.0988 72.7328 12.6902 68.5272 12.6902Z" fill="white"/>
<path d="M73.7303 23.2255C73.6465 23.1671 73.3927 23.2432 72.8724 23.4691C75.3445 21.3067 73.6542 22.0072 72.1973 22.9082C75.0805 20.3067 72.2329 21.5402 70.8166 22.4945C74.1922 19.7661 69.6491 22.3143 67.8649 22.893C69.3953 21.2737 64.5781 23.4412 63.8674 23.3092C62.4461 24.0326 58.7634 23.6823 58.6822 23.997C57.9843 23.0427 59.5401 22.3803 59.6974 23.1189C60.9665 21.629 55.6061 20.7001 55.6112 23.7026C54.0833 24.0376 46.6037 20.1443 49.5148 22.7965C47.7838 21.9412 42.893 19.4438 46.2128 22.6011C44.4159 21.6976 42.7357 20.2966 44.5605 22.7382C43.4108 21.657 42.9819 22.2635 44.2382 23.2585C42.393 21.9488 43.4311 24.2534 46.5757 24.8524C45.4793 24.9539 46.4006 25.596 48.0148 25.4818C45.4209 25.761 48.3321 26.5478 49.4564 26.1214C47.5935 26.3346 48.4996 27.2153 51.3777 26.5858C49.4285 26.931 50.7128 27.695 52.0122 27.3346C51.1544 27.8295 52.7254 27.7711 53.0681 27.6315C52.7787 27.794 52.7889 27.8117 52.8143 27.8599C53.1873 28.1924 54.0477 27.8523 54.2559 27.7483C53.3879 28.5148 54.9589 28.2406 55.6416 27.9564C54.5224 28.6975 56.7888 28.9462 57.1162 28.6747C57.0959 28.8041 56.9563 29.0858 57.1264 29.0401C57.1695 29.0148 57.2228 28.9538 57.299 28.865C57.101 29.3472 56.6924 31.0503 57.5096 29.9056C57.4284 30.4944 57.3269 30.6518 57.6086 30.5985C57.6442 31.2203 55.8295 31.2229 56.0249 31.8574C55.8168 32.5173 56.332 32.0198 57.0299 31.8777C56.8041 32.9233 57.2305 33.1112 57.8396 32.1822C58.5426 33.266 58.3751 33.0934 58.6949 32.1036C58.9081 32.4386 59.0299 32.2863 58.9436 31.9716C59.0401 31.9944 59.2152 32.002 59.4056 31.8345C59.4386 32.2533 59.3497 32.7101 59.8903 32.7964C59.9259 32.5376 59.7152 32.469 60.0807 32.2482C60.3243 31.9589 59.9969 31.1086 60.4817 31.9005C60.8954 31.9741 60.733 32.0426 60.766 32.2964C61.9563 32.2838 60.4309 30.5173 61.4005 31.299C61.7126 31.469 61.4538 30.7711 61.1213 30.7939C60.5578 30.733 60.7 30.8244 60.6517 30.4564C62.1593 31.2279 60.8599 29.9995 60.804 29.5046C61.6365 30.0833 61.7812 29.8802 61.0071 29.1645C61.134 29.299 62.1365 29.9411 62.101 29.3853C63.3598 30.162 63.9791 29.4691 62.5045 28.7127C63.1086 29.2508 65.8928 29.8269 64.1441 28.5655C64.4081 28.7457 65.8167 28.5224 65.2456 28.2153C65.875 28.2102 66.5806 28.0021 65.8243 27.766C67.2151 27.6544 68.0222 27.228 68.172 26.9336C71.8268 26.5122 73.6694 24.2762 72.5298 24.5757C73.2658 23.9387 73.7734 23.6544 73.7303 23.2305V23.2255ZM58.8878 31.068C58.4284 30.9716 58.4106 30.6746 58.4741 30.1264C59.1974 30.9487 58.6518 28.8396 58.8497 28.1594C59.7406 29.0604 59.2381 30.5427 59.7609 30.4513C59.9665 31.1822 59.337 30.8447 58.8878 31.068Z" fill="#E18430"/>
</svg>
