<svg width="82" height="82" viewBox="0 0 82 82" fill="none" xmlns="http://www.w3.org/2000/svg">
<path d="M2.53796 27.5557H78.6794V36.2586H2.53796V27.5557Z" fill="#C4291C"/>
<path d="M2.53796 36.2559H78.6794V44.9588H2.53796V36.2559Z" fill="black"/>
<path d="M2.53796 44.959H78.6794V53.6619H2.53796V44.959Z" fill="#C4291C"/>
<path d="M2.53796 60.9132C2.53796 61.4106 2.61411 61.8852 2.68517 62.3649H78.5322C78.6007 61.8878 78.6794 61.4106 78.6794 60.9132V53.6594H2.53796V60.9132Z" fill="#F8D548"/>
<path d="M2.68517 18.8525C2.61664 19.3297 2.53796 19.8068 2.53796 20.3043V27.5555H78.6794V20.3043C78.6794 19.8068 78.6032 19.3322 78.5322 18.8525H2.68517Z" fill="#F8D548"/>
<path d="M78.5321 62.3623H2.68506C3.39317 67.276 7.58095 71.0653 12.69 71.0653H68.5271C73.6387 71.0653 77.8239 67.276 78.5321 62.3623Z" fill="#2A6318"/>
<path d="M2.68506 18.8551H78.5321C77.8239 13.9414 73.6362 10.1521 68.5271 10.1521H12.69C7.57841 10.1521 3.39317 13.9414 2.68506 18.8551Z" fill="#2A6318"/>
<path d="M5.87803 68.3927L40.6087 40.6087L5.87803 12.8247C3.83998 14.6826 2.53796 17.3323 2.53796 20.3043V60.9131C2.53796 63.8877 3.83998 66.5374 5.87803 68.3927Z" fill="white"/>
<path opacity="0.15" d="M68.5272 10.1521H12.6902C7.08361 10.1521 2.53796 14.6977 2.53796 20.3043V60.913C2.53796 66.5196 7.08361 71.0652 12.6902 71.0652H68.5272C74.1337 71.0652 78.6794 66.5196 78.6794 60.913V20.3043C78.6794 14.6977 74.1337 10.1521 68.5272 10.1521ZM76.1413 60.913C76.1413 65.111 72.7251 68.5272 68.5272 68.5272H12.6902C8.49222 68.5272 5.07601 65.111 5.07601 60.913V20.3043C5.07601 16.1064 8.49222 12.6901 12.6902 12.6901H68.5272C72.7251 12.6901 76.1413 16.1064 76.1413 20.3043V60.913Z" fill="black"/>
<path opacity="0.2" d="M68.5272 12.6902H12.6902C8.48465 12.6902 5.07605 16.0988 5.07605 20.3043V22.8424C5.07605 18.6368 8.48465 15.2282 12.6902 15.2282H68.5272C72.7328 15.2282 76.1414 18.6368 76.1414 22.8424V20.3043C76.1414 16.0988 72.7328 12.6902 68.5272 12.6902Z" fill="white"/>
<path d="M21.4186 42.0529L27.5911 37.5681H19.9617L17.6039 30.3093L15.246 37.5681H7.61414L13.7867 42.0529L11.4288 49.3091L17.6039 44.8244L23.7764 49.3091L21.4186 42.0529Z" fill="#C1291B"/>
<path d="M23.0251 41.7967C23.0149 41.6927 22.9616 41.5988 22.8804 41.5302C21.5682 40.5023 18.9211 38.4313 17.6089 37.4059C17.5733 36.9795 17.5074 36.1217 17.4718 35.6953C17.4845 34.5201 15.982 33.5506 15.185 34.6699C14.5988 34.576 13.8069 34.9948 14.1521 35.6597C14.3246 35.6851 14.6521 35.6343 14.8297 35.6343C15.4185 35.9008 15.1901 37.1013 15.2586 37.5963L15.2942 38.8881C15.0099 39.4795 15.1191 40.1673 15.1952 40.7917C15.3018 42.0429 13.0201 42.8551 13.9998 44.1952C14.1851 44.9084 14.5531 46.35 14.7383 47.0657C16.1038 47.218 18.9921 47.0683 20.4083 47.119C20.5429 47.1926 20.5987 45.8246 20.6393 45.7967C20.7307 44.4135 21.0403 42.9236 22.3449 42.1622C22.6494 42.3119 23.0606 42.1876 23.0301 41.7967H23.0251Z" fill="#F7D347"/>
</svg>
